%TF.GenerationSoftware,KiCad,Pcbnew,(6.0.7)*%
%TF.CreationDate,2022-10-02T21:12:28-04:00*%
%TF.ProjectId,Calculator,43616c63-756c-4617-946f-722e6b696361,rev?*%
%TF.SameCoordinates,Original*%
%TF.FileFunction,Legend,Top*%
%TF.FilePolarity,Positive*%
%FSLAX46Y46*%
G04 Gerber Fmt 4.6, Leading zero omitted, Abs format (unit mm)*
G04 Created by KiCad (PCBNEW (6.0.7)) date 2022-10-02 21:12:28*
%MOMM*%
%LPD*%
G01*
G04 APERTURE LIST*
%ADD10C,0.150000*%
%ADD11C,0.120000*%
%ADD12C,0.203200*%
%ADD13C,0.200000*%
%ADD14C,0.127000*%
G04 APERTURE END LIST*
D10*
%TO.C,U1*%
X91208095Y-42622380D02*
X91208095Y-43431904D01*
X91255714Y-43527142D01*
X91303333Y-43574761D01*
X91398571Y-43622380D01*
X91589047Y-43622380D01*
X91684285Y-43574761D01*
X91731904Y-43527142D01*
X91779523Y-43431904D01*
X91779523Y-42622380D01*
X92779523Y-43622380D02*
X92208095Y-43622380D01*
X92493809Y-43622380D02*
X92493809Y-42622380D01*
X92398571Y-42765238D01*
X92303333Y-42860476D01*
X92208095Y-42908095D01*
%TO.C,Q2*%
X82923748Y-28438444D02*
X82847497Y-28400319D01*
X82771246Y-28324067D01*
X82656869Y-28209690D01*
X82580618Y-28171565D01*
X82504366Y-28171565D01*
X82542492Y-28362193D02*
X82466241Y-28324067D01*
X82389990Y-28247816D01*
X82351864Y-28095314D01*
X82351864Y-27828434D01*
X82389990Y-27675932D01*
X82466241Y-27599681D01*
X82542492Y-27561555D01*
X82694995Y-27561555D01*
X82771246Y-27599681D01*
X82847497Y-27675932D01*
X82885623Y-27828434D01*
X82885623Y-28095314D01*
X82847497Y-28247816D01*
X82771246Y-28324067D01*
X82694995Y-28362193D01*
X82542492Y-28362193D01*
X83190628Y-27637806D02*
X83228753Y-27599681D01*
X83305004Y-27561555D01*
X83495633Y-27561555D01*
X83571884Y-27599681D01*
X83610009Y-27637806D01*
X83648135Y-27714057D01*
X83648135Y-27790309D01*
X83610009Y-27904685D01*
X83152502Y-28362193D01*
X83648135Y-28362193D01*
%TO.C,CN1*%
X106259523Y-23582142D02*
X106211904Y-23629761D01*
X106069047Y-23677380D01*
X105973809Y-23677380D01*
X105830952Y-23629761D01*
X105735714Y-23534523D01*
X105688095Y-23439285D01*
X105640476Y-23248809D01*
X105640476Y-23105952D01*
X105688095Y-22915476D01*
X105735714Y-22820238D01*
X105830952Y-22725000D01*
X105973809Y-22677380D01*
X106069047Y-22677380D01*
X106211904Y-22725000D01*
X106259523Y-22772619D01*
X106688095Y-23677380D02*
X106688095Y-22677380D01*
X107259523Y-23677380D01*
X107259523Y-22677380D01*
X108259523Y-23677380D02*
X107688095Y-23677380D01*
X107973809Y-23677380D02*
X107973809Y-22677380D01*
X107878571Y-22820238D01*
X107783333Y-22915476D01*
X107688095Y-22963095D01*
%TO.C,SW9*%
X76841666Y-110769761D02*
X76984523Y-110817380D01*
X77222619Y-110817380D01*
X77317857Y-110769761D01*
X77365476Y-110722142D01*
X77413095Y-110626904D01*
X77413095Y-110531666D01*
X77365476Y-110436428D01*
X77317857Y-110388809D01*
X77222619Y-110341190D01*
X77032142Y-110293571D01*
X76936904Y-110245952D01*
X76889285Y-110198333D01*
X76841666Y-110103095D01*
X76841666Y-110007857D01*
X76889285Y-109912619D01*
X76936904Y-109865000D01*
X77032142Y-109817380D01*
X77270238Y-109817380D01*
X77413095Y-109865000D01*
X77746428Y-109817380D02*
X77984523Y-110817380D01*
X78175000Y-110103095D01*
X78365476Y-110817380D01*
X78603571Y-109817380D01*
X79032142Y-110817380D02*
X79222619Y-110817380D01*
X79317857Y-110769761D01*
X79365476Y-110722142D01*
X79460714Y-110579285D01*
X79508333Y-110388809D01*
X79508333Y-110007857D01*
X79460714Y-109912619D01*
X79413095Y-109865000D01*
X79317857Y-109817380D01*
X79127380Y-109817380D01*
X79032142Y-109865000D01*
X78984523Y-109912619D01*
X78936904Y-110007857D01*
X78936904Y-110245952D01*
X78984523Y-110341190D01*
X79032142Y-110388809D01*
X79127380Y-110436428D01*
X79317857Y-110436428D01*
X79413095Y-110388809D01*
X79460714Y-110341190D01*
X79508333Y-110245952D01*
%TO.C,SW25*%
X102365476Y-134769761D02*
X102508333Y-134817380D01*
X102746428Y-134817380D01*
X102841666Y-134769761D01*
X102889285Y-134722142D01*
X102936904Y-134626904D01*
X102936904Y-134531666D01*
X102889285Y-134436428D01*
X102841666Y-134388809D01*
X102746428Y-134341190D01*
X102555952Y-134293571D01*
X102460714Y-134245952D01*
X102413095Y-134198333D01*
X102365476Y-134103095D01*
X102365476Y-134007857D01*
X102413095Y-133912619D01*
X102460714Y-133865000D01*
X102555952Y-133817380D01*
X102794047Y-133817380D01*
X102936904Y-133865000D01*
X103270238Y-133817380D02*
X103508333Y-134817380D01*
X103698809Y-134103095D01*
X103889285Y-134817380D01*
X104127380Y-133817380D01*
X104460714Y-133912619D02*
X104508333Y-133865000D01*
X104603571Y-133817380D01*
X104841666Y-133817380D01*
X104936904Y-133865000D01*
X104984523Y-133912619D01*
X105032142Y-134007857D01*
X105032142Y-134103095D01*
X104984523Y-134245952D01*
X104413095Y-134817380D01*
X105032142Y-134817380D01*
X105936904Y-133817380D02*
X105460714Y-133817380D01*
X105413095Y-134293571D01*
X105460714Y-134245952D01*
X105555952Y-134198333D01*
X105794047Y-134198333D01*
X105889285Y-134245952D01*
X105936904Y-134293571D01*
X105984523Y-134388809D01*
X105984523Y-134626904D01*
X105936904Y-134722142D01*
X105889285Y-134769761D01*
X105794047Y-134817380D01*
X105555952Y-134817380D01*
X105460714Y-134769761D01*
X105413095Y-134722142D01*
%TO.C,SW2*%
X63841666Y-110769761D02*
X63984523Y-110817380D01*
X64222619Y-110817380D01*
X64317857Y-110769761D01*
X64365476Y-110722142D01*
X64413095Y-110626904D01*
X64413095Y-110531666D01*
X64365476Y-110436428D01*
X64317857Y-110388809D01*
X64222619Y-110341190D01*
X64032142Y-110293571D01*
X63936904Y-110245952D01*
X63889285Y-110198333D01*
X63841666Y-110103095D01*
X63841666Y-110007857D01*
X63889285Y-109912619D01*
X63936904Y-109865000D01*
X64032142Y-109817380D01*
X64270238Y-109817380D01*
X64413095Y-109865000D01*
X64746428Y-109817380D02*
X64984523Y-110817380D01*
X65175000Y-110103095D01*
X65365476Y-110817380D01*
X65603571Y-109817380D01*
X65936904Y-109912619D02*
X65984523Y-109865000D01*
X66079761Y-109817380D01*
X66317857Y-109817380D01*
X66413095Y-109865000D01*
X66460714Y-109912619D01*
X66508333Y-110007857D01*
X66508333Y-110103095D01*
X66460714Y-110245952D01*
X65889285Y-110817380D01*
X66508333Y-110817380D01*
%TO.C,SW27*%
X102365476Y-158769761D02*
X102508333Y-158817380D01*
X102746428Y-158817380D01*
X102841666Y-158769761D01*
X102889285Y-158722142D01*
X102936904Y-158626904D01*
X102936904Y-158531666D01*
X102889285Y-158436428D01*
X102841666Y-158388809D01*
X102746428Y-158341190D01*
X102555952Y-158293571D01*
X102460714Y-158245952D01*
X102413095Y-158198333D01*
X102365476Y-158103095D01*
X102365476Y-158007857D01*
X102413095Y-157912619D01*
X102460714Y-157865000D01*
X102555952Y-157817380D01*
X102794047Y-157817380D01*
X102936904Y-157865000D01*
X103270238Y-157817380D02*
X103508333Y-158817380D01*
X103698809Y-158103095D01*
X103889285Y-158817380D01*
X104127380Y-157817380D01*
X104460714Y-157912619D02*
X104508333Y-157865000D01*
X104603571Y-157817380D01*
X104841666Y-157817380D01*
X104936904Y-157865000D01*
X104984523Y-157912619D01*
X105032142Y-158007857D01*
X105032142Y-158103095D01*
X104984523Y-158245952D01*
X104413095Y-158817380D01*
X105032142Y-158817380D01*
X105365476Y-157817380D02*
X106032142Y-157817380D01*
X105603571Y-158817380D01*
%TO.C,SW6*%
X63841666Y-158769761D02*
X63984523Y-158817380D01*
X64222619Y-158817380D01*
X64317857Y-158769761D01*
X64365476Y-158722142D01*
X64413095Y-158626904D01*
X64413095Y-158531666D01*
X64365476Y-158436428D01*
X64317857Y-158388809D01*
X64222619Y-158341190D01*
X64032142Y-158293571D01*
X63936904Y-158245952D01*
X63889285Y-158198333D01*
X63841666Y-158103095D01*
X63841666Y-158007857D01*
X63889285Y-157912619D01*
X63936904Y-157865000D01*
X64032142Y-157817380D01*
X64270238Y-157817380D01*
X64413095Y-157865000D01*
X64746428Y-157817380D02*
X64984523Y-158817380D01*
X65175000Y-158103095D01*
X65365476Y-158817380D01*
X65603571Y-157817380D01*
X66413095Y-157817380D02*
X66222619Y-157817380D01*
X66127380Y-157865000D01*
X66079761Y-157912619D01*
X65984523Y-158055476D01*
X65936904Y-158245952D01*
X65936904Y-158626904D01*
X65984523Y-158722142D01*
X66032142Y-158769761D01*
X66127380Y-158817380D01*
X66317857Y-158817380D01*
X66413095Y-158769761D01*
X66460714Y-158722142D01*
X66508333Y-158626904D01*
X66508333Y-158388809D01*
X66460714Y-158293571D01*
X66413095Y-158245952D01*
X66317857Y-158198333D01*
X66127380Y-158198333D01*
X66032142Y-158245952D01*
X65984523Y-158293571D01*
X65936904Y-158388809D01*
%TO.C,D6*%
X70152380Y-162738095D02*
X69152380Y-162738095D01*
X69152380Y-162500000D01*
X69200000Y-162357142D01*
X69295238Y-162261904D01*
X69390476Y-162214285D01*
X69580952Y-162166666D01*
X69723809Y-162166666D01*
X69914285Y-162214285D01*
X70009523Y-162261904D01*
X70104761Y-162357142D01*
X70152380Y-162500000D01*
X70152380Y-162738095D01*
X69152380Y-161309523D02*
X69152380Y-161500000D01*
X69200000Y-161595238D01*
X69247619Y-161642857D01*
X69390476Y-161738095D01*
X69580952Y-161785714D01*
X69961904Y-161785714D01*
X70057142Y-161738095D01*
X70104761Y-161690476D01*
X70152380Y-161595238D01*
X70152380Y-161404761D01*
X70104761Y-161309523D01*
X70057142Y-161261904D01*
X69961904Y-161214285D01*
X69723809Y-161214285D01*
X69628571Y-161261904D01*
X69580952Y-161309523D01*
X69533333Y-161404761D01*
X69533333Y-161595238D01*
X69580952Y-161690476D01*
X69628571Y-161738095D01*
X69723809Y-161785714D01*
%TO.C,SW13*%
X76365476Y-158769761D02*
X76508333Y-158817380D01*
X76746428Y-158817380D01*
X76841666Y-158769761D01*
X76889285Y-158722142D01*
X76936904Y-158626904D01*
X76936904Y-158531666D01*
X76889285Y-158436428D01*
X76841666Y-158388809D01*
X76746428Y-158341190D01*
X76555952Y-158293571D01*
X76460714Y-158245952D01*
X76413095Y-158198333D01*
X76365476Y-158103095D01*
X76365476Y-158007857D01*
X76413095Y-157912619D01*
X76460714Y-157865000D01*
X76555952Y-157817380D01*
X76794047Y-157817380D01*
X76936904Y-157865000D01*
X77270238Y-157817380D02*
X77508333Y-158817380D01*
X77698809Y-158103095D01*
X77889285Y-158817380D01*
X78127380Y-157817380D01*
X79032142Y-158817380D02*
X78460714Y-158817380D01*
X78746428Y-158817380D02*
X78746428Y-157817380D01*
X78651190Y-157960238D01*
X78555952Y-158055476D01*
X78460714Y-158103095D01*
X79365476Y-157817380D02*
X79984523Y-157817380D01*
X79651190Y-158198333D01*
X79794047Y-158198333D01*
X79889285Y-158245952D01*
X79936904Y-158293571D01*
X79984523Y-158388809D01*
X79984523Y-158626904D01*
X79936904Y-158722142D01*
X79889285Y-158769761D01*
X79794047Y-158817380D01*
X79508333Y-158817380D01*
X79413095Y-158769761D01*
X79365476Y-158722142D01*
%TO.C,D32*%
X122152380Y-139214285D02*
X121152380Y-139214285D01*
X121152380Y-138976190D01*
X121200000Y-138833333D01*
X121295238Y-138738095D01*
X121390476Y-138690476D01*
X121580952Y-138642857D01*
X121723809Y-138642857D01*
X121914285Y-138690476D01*
X122009523Y-138738095D01*
X122104761Y-138833333D01*
X122152380Y-138976190D01*
X122152380Y-139214285D01*
X121152380Y-138309523D02*
X121152380Y-137690476D01*
X121533333Y-138023809D01*
X121533333Y-137880952D01*
X121580952Y-137785714D01*
X121628571Y-137738095D01*
X121723809Y-137690476D01*
X121961904Y-137690476D01*
X122057142Y-137738095D01*
X122104761Y-137785714D01*
X122152380Y-137880952D01*
X122152380Y-138166666D01*
X122104761Y-138261904D01*
X122057142Y-138309523D01*
X121247619Y-137309523D02*
X121200000Y-137261904D01*
X121152380Y-137166666D01*
X121152380Y-136928571D01*
X121200000Y-136833333D01*
X121247619Y-136785714D01*
X121342857Y-136738095D01*
X121438095Y-136738095D01*
X121580952Y-136785714D01*
X122152380Y-137357142D01*
X122152380Y-136738095D01*
%TO.C,D11*%
X83152380Y-139214285D02*
X82152380Y-139214285D01*
X82152380Y-138976190D01*
X82200000Y-138833333D01*
X82295238Y-138738095D01*
X82390476Y-138690476D01*
X82580952Y-138642857D01*
X82723809Y-138642857D01*
X82914285Y-138690476D01*
X83009523Y-138738095D01*
X83104761Y-138833333D01*
X83152380Y-138976190D01*
X83152380Y-139214285D01*
X83152380Y-137690476D02*
X83152380Y-138261904D01*
X83152380Y-137976190D02*
X82152380Y-137976190D01*
X82295238Y-138071428D01*
X82390476Y-138166666D01*
X82438095Y-138261904D01*
X83152380Y-136738095D02*
X83152380Y-137309523D01*
X83152380Y-137023809D02*
X82152380Y-137023809D01*
X82295238Y-137119047D01*
X82390476Y-137214285D01*
X82438095Y-137309523D01*
%TO.C,D7*%
X70152380Y-174738095D02*
X69152380Y-174738095D01*
X69152380Y-174500000D01*
X69200000Y-174357142D01*
X69295238Y-174261904D01*
X69390476Y-174214285D01*
X69580952Y-174166666D01*
X69723809Y-174166666D01*
X69914285Y-174214285D01*
X70009523Y-174261904D01*
X70104761Y-174357142D01*
X70152380Y-174500000D01*
X70152380Y-174738095D01*
X69152380Y-173833333D02*
X69152380Y-173166666D01*
X70152380Y-173595238D01*
%TO.C,D27*%
X109152380Y-163214285D02*
X108152380Y-163214285D01*
X108152380Y-162976190D01*
X108200000Y-162833333D01*
X108295238Y-162738095D01*
X108390476Y-162690476D01*
X108580952Y-162642857D01*
X108723809Y-162642857D01*
X108914285Y-162690476D01*
X109009523Y-162738095D01*
X109104761Y-162833333D01*
X109152380Y-162976190D01*
X109152380Y-163214285D01*
X108247619Y-162261904D02*
X108200000Y-162214285D01*
X108152380Y-162119047D01*
X108152380Y-161880952D01*
X108200000Y-161785714D01*
X108247619Y-161738095D01*
X108342857Y-161690476D01*
X108438095Y-161690476D01*
X108580952Y-161738095D01*
X109152380Y-162309523D01*
X109152380Y-161690476D01*
X108152380Y-161357142D02*
X108152380Y-160690476D01*
X109152380Y-161119047D01*
%TO.C,R2*%
X73452380Y-31966666D02*
X72976190Y-32300000D01*
X73452380Y-32538095D02*
X72452380Y-32538095D01*
X72452380Y-32157142D01*
X72500000Y-32061904D01*
X72547619Y-32014285D01*
X72642857Y-31966666D01*
X72785714Y-31966666D01*
X72880952Y-32014285D01*
X72928571Y-32061904D01*
X72976190Y-32157142D01*
X72976190Y-32538095D01*
X72547619Y-31585714D02*
X72500000Y-31538095D01*
X72452380Y-31442857D01*
X72452380Y-31204761D01*
X72500000Y-31109523D01*
X72547619Y-31061904D01*
X72642857Y-31014285D01*
X72738095Y-31014285D01*
X72880952Y-31061904D01*
X73452380Y-31633333D01*
X73452380Y-31014285D01*
%TO.C,D5*%
X70152380Y-150738095D02*
X69152380Y-150738095D01*
X69152380Y-150500000D01*
X69200000Y-150357142D01*
X69295238Y-150261904D01*
X69390476Y-150214285D01*
X69580952Y-150166666D01*
X69723809Y-150166666D01*
X69914285Y-150214285D01*
X70009523Y-150261904D01*
X70104761Y-150357142D01*
X70152380Y-150500000D01*
X70152380Y-150738095D01*
X69152380Y-149261904D02*
X69152380Y-149738095D01*
X69628571Y-149785714D01*
X69580952Y-149738095D01*
X69533333Y-149642857D01*
X69533333Y-149404761D01*
X69580952Y-149309523D01*
X69628571Y-149261904D01*
X69723809Y-149214285D01*
X69961904Y-149214285D01*
X70057142Y-149261904D01*
X70104761Y-149309523D01*
X70152380Y-149404761D01*
X70152380Y-149642857D01*
X70104761Y-149738095D01*
X70057142Y-149785714D01*
%TO.C,R1*%
X96282380Y-117876666D02*
X95806190Y-118210000D01*
X96282380Y-118448095D02*
X95282380Y-118448095D01*
X95282380Y-118067142D01*
X95330000Y-117971904D01*
X95377619Y-117924285D01*
X95472857Y-117876666D01*
X95615714Y-117876666D01*
X95710952Y-117924285D01*
X95758571Y-117971904D01*
X95806190Y-118067142D01*
X95806190Y-118448095D01*
X96282380Y-116924285D02*
X96282380Y-117495714D01*
X96282380Y-117210000D02*
X95282380Y-117210000D01*
X95425238Y-117305238D01*
X95520476Y-117400476D01*
X95568095Y-117495714D01*
%TO.C,D29*%
X122152380Y-103339285D02*
X121152380Y-103339285D01*
X121152380Y-103101190D01*
X121200000Y-102958333D01*
X121295238Y-102863095D01*
X121390476Y-102815476D01*
X121580952Y-102767857D01*
X121723809Y-102767857D01*
X121914285Y-102815476D01*
X122009523Y-102863095D01*
X122104761Y-102958333D01*
X122152380Y-103101190D01*
X122152380Y-103339285D01*
X121247619Y-102386904D02*
X121200000Y-102339285D01*
X121152380Y-102244047D01*
X121152380Y-102005952D01*
X121200000Y-101910714D01*
X121247619Y-101863095D01*
X121342857Y-101815476D01*
X121438095Y-101815476D01*
X121580952Y-101863095D01*
X122152380Y-102434523D01*
X122152380Y-101815476D01*
X122152380Y-101339285D02*
X122152380Y-101148809D01*
X122104761Y-101053571D01*
X122057142Y-101005952D01*
X121914285Y-100910714D01*
X121723809Y-100863095D01*
X121342857Y-100863095D01*
X121247619Y-100910714D01*
X121200000Y-100958333D01*
X121152380Y-101053571D01*
X121152380Y-101244047D01*
X121200000Y-101339285D01*
X121247619Y-101386904D01*
X121342857Y-101434523D01*
X121580952Y-101434523D01*
X121676190Y-101386904D01*
X121723809Y-101339285D01*
X121771428Y-101244047D01*
X121771428Y-101053571D01*
X121723809Y-100958333D01*
X121676190Y-100910714D01*
X121580952Y-100863095D01*
%TO.C,D25*%
X109152380Y-139214285D02*
X108152380Y-139214285D01*
X108152380Y-138976190D01*
X108200000Y-138833333D01*
X108295238Y-138738095D01*
X108390476Y-138690476D01*
X108580952Y-138642857D01*
X108723809Y-138642857D01*
X108914285Y-138690476D01*
X109009523Y-138738095D01*
X109104761Y-138833333D01*
X109152380Y-138976190D01*
X109152380Y-139214285D01*
X108247619Y-138261904D02*
X108200000Y-138214285D01*
X108152380Y-138119047D01*
X108152380Y-137880952D01*
X108200000Y-137785714D01*
X108247619Y-137738095D01*
X108342857Y-137690476D01*
X108438095Y-137690476D01*
X108580952Y-137738095D01*
X109152380Y-138309523D01*
X109152380Y-137690476D01*
X108152380Y-136785714D02*
X108152380Y-137261904D01*
X108628571Y-137309523D01*
X108580952Y-137261904D01*
X108533333Y-137166666D01*
X108533333Y-136928571D01*
X108580952Y-136833333D01*
X108628571Y-136785714D01*
X108723809Y-136738095D01*
X108961904Y-136738095D01*
X109057142Y-136785714D01*
X109104761Y-136833333D01*
X109152380Y-136928571D01*
X109152380Y-137166666D01*
X109104761Y-137261904D01*
X109057142Y-137309523D01*
%TO.C,SW14*%
X76365476Y-170769761D02*
X76508333Y-170817380D01*
X76746428Y-170817380D01*
X76841666Y-170769761D01*
X76889285Y-170722142D01*
X76936904Y-170626904D01*
X76936904Y-170531666D01*
X76889285Y-170436428D01*
X76841666Y-170388809D01*
X76746428Y-170341190D01*
X76555952Y-170293571D01*
X76460714Y-170245952D01*
X76413095Y-170198333D01*
X76365476Y-170103095D01*
X76365476Y-170007857D01*
X76413095Y-169912619D01*
X76460714Y-169865000D01*
X76555952Y-169817380D01*
X76794047Y-169817380D01*
X76936904Y-169865000D01*
X77270238Y-169817380D02*
X77508333Y-170817380D01*
X77698809Y-170103095D01*
X77889285Y-170817380D01*
X78127380Y-169817380D01*
X79032142Y-170817380D02*
X78460714Y-170817380D01*
X78746428Y-170817380D02*
X78746428Y-169817380D01*
X78651190Y-169960238D01*
X78555952Y-170055476D01*
X78460714Y-170103095D01*
X79889285Y-170150714D02*
X79889285Y-170817380D01*
X79651190Y-169769761D02*
X79413095Y-170484047D01*
X80032142Y-170484047D01*
%TO.C,SW20*%
X89365476Y-158769761D02*
X89508333Y-158817380D01*
X89746428Y-158817380D01*
X89841666Y-158769761D01*
X89889285Y-158722142D01*
X89936904Y-158626904D01*
X89936904Y-158531666D01*
X89889285Y-158436428D01*
X89841666Y-158388809D01*
X89746428Y-158341190D01*
X89555952Y-158293571D01*
X89460714Y-158245952D01*
X89413095Y-158198333D01*
X89365476Y-158103095D01*
X89365476Y-158007857D01*
X89413095Y-157912619D01*
X89460714Y-157865000D01*
X89555952Y-157817380D01*
X89794047Y-157817380D01*
X89936904Y-157865000D01*
X90270238Y-157817380D02*
X90508333Y-158817380D01*
X90698809Y-158103095D01*
X90889285Y-158817380D01*
X91127380Y-157817380D01*
X91460714Y-157912619D02*
X91508333Y-157865000D01*
X91603571Y-157817380D01*
X91841666Y-157817380D01*
X91936904Y-157865000D01*
X91984523Y-157912619D01*
X92032142Y-158007857D01*
X92032142Y-158103095D01*
X91984523Y-158245952D01*
X91413095Y-158817380D01*
X92032142Y-158817380D01*
X92651190Y-157817380D02*
X92746428Y-157817380D01*
X92841666Y-157865000D01*
X92889285Y-157912619D01*
X92936904Y-158007857D01*
X92984523Y-158198333D01*
X92984523Y-158436428D01*
X92936904Y-158626904D01*
X92889285Y-158722142D01*
X92841666Y-158769761D01*
X92746428Y-158817380D01*
X92651190Y-158817380D01*
X92555952Y-158769761D01*
X92508333Y-158722142D01*
X92460714Y-158626904D01*
X92413095Y-158436428D01*
X92413095Y-158198333D01*
X92460714Y-158007857D01*
X92508333Y-157912619D01*
X92555952Y-157865000D01*
X92651190Y-157817380D01*
%TO.C,D4*%
X70152380Y-138738095D02*
X69152380Y-138738095D01*
X69152380Y-138500000D01*
X69200000Y-138357142D01*
X69295238Y-138261904D01*
X69390476Y-138214285D01*
X69580952Y-138166666D01*
X69723809Y-138166666D01*
X69914285Y-138214285D01*
X70009523Y-138261904D01*
X70104761Y-138357142D01*
X70152380Y-138500000D01*
X70152380Y-138738095D01*
X69485714Y-137309523D02*
X70152380Y-137309523D01*
X69104761Y-137547619D02*
X69819047Y-137785714D01*
X69819047Y-137166666D01*
%TO.C,SW33*%
X115365476Y-146769761D02*
X115508333Y-146817380D01*
X115746428Y-146817380D01*
X115841666Y-146769761D01*
X115889285Y-146722142D01*
X115936904Y-146626904D01*
X115936904Y-146531666D01*
X115889285Y-146436428D01*
X115841666Y-146388809D01*
X115746428Y-146341190D01*
X115555952Y-146293571D01*
X115460714Y-146245952D01*
X115413095Y-146198333D01*
X115365476Y-146103095D01*
X115365476Y-146007857D01*
X115413095Y-145912619D01*
X115460714Y-145865000D01*
X115555952Y-145817380D01*
X115794047Y-145817380D01*
X115936904Y-145865000D01*
X116270238Y-145817380D02*
X116508333Y-146817380D01*
X116698809Y-146103095D01*
X116889285Y-146817380D01*
X117127380Y-145817380D01*
X117413095Y-145817380D02*
X118032142Y-145817380D01*
X117698809Y-146198333D01*
X117841666Y-146198333D01*
X117936904Y-146245952D01*
X117984523Y-146293571D01*
X118032142Y-146388809D01*
X118032142Y-146626904D01*
X117984523Y-146722142D01*
X117936904Y-146769761D01*
X117841666Y-146817380D01*
X117555952Y-146817380D01*
X117460714Y-146769761D01*
X117413095Y-146722142D01*
X118365476Y-145817380D02*
X118984523Y-145817380D01*
X118651190Y-146198333D01*
X118794047Y-146198333D01*
X118889285Y-146245952D01*
X118936904Y-146293571D01*
X118984523Y-146388809D01*
X118984523Y-146626904D01*
X118936904Y-146722142D01*
X118889285Y-146769761D01*
X118794047Y-146817380D01*
X118508333Y-146817380D01*
X118413095Y-146769761D01*
X118365476Y-146722142D01*
%TO.C,D22*%
X109152380Y-103339285D02*
X108152380Y-103339285D01*
X108152380Y-103101190D01*
X108200000Y-102958333D01*
X108295238Y-102863095D01*
X108390476Y-102815476D01*
X108580952Y-102767857D01*
X108723809Y-102767857D01*
X108914285Y-102815476D01*
X109009523Y-102863095D01*
X109104761Y-102958333D01*
X109152380Y-103101190D01*
X109152380Y-103339285D01*
X108247619Y-102386904D02*
X108200000Y-102339285D01*
X108152380Y-102244047D01*
X108152380Y-102005952D01*
X108200000Y-101910714D01*
X108247619Y-101863095D01*
X108342857Y-101815476D01*
X108438095Y-101815476D01*
X108580952Y-101863095D01*
X109152380Y-102434523D01*
X109152380Y-101815476D01*
X108247619Y-101434523D02*
X108200000Y-101386904D01*
X108152380Y-101291666D01*
X108152380Y-101053571D01*
X108200000Y-100958333D01*
X108247619Y-100910714D01*
X108342857Y-100863095D01*
X108438095Y-100863095D01*
X108580952Y-100910714D01*
X109152380Y-101482142D01*
X109152380Y-100863095D01*
%TO.C,D21*%
X96152380Y-175214285D02*
X95152380Y-175214285D01*
X95152380Y-174976190D01*
X95200000Y-174833333D01*
X95295238Y-174738095D01*
X95390476Y-174690476D01*
X95580952Y-174642857D01*
X95723809Y-174642857D01*
X95914285Y-174690476D01*
X96009523Y-174738095D01*
X96104761Y-174833333D01*
X96152380Y-174976190D01*
X96152380Y-175214285D01*
X95247619Y-174261904D02*
X95200000Y-174214285D01*
X95152380Y-174119047D01*
X95152380Y-173880952D01*
X95200000Y-173785714D01*
X95247619Y-173738095D01*
X95342857Y-173690476D01*
X95438095Y-173690476D01*
X95580952Y-173738095D01*
X96152380Y-174309523D01*
X96152380Y-173690476D01*
X96152380Y-172738095D02*
X96152380Y-173309523D01*
X96152380Y-173023809D02*
X95152380Y-173023809D01*
X95295238Y-173119047D01*
X95390476Y-173214285D01*
X95438095Y-173309523D01*
%TO.C,H2*%
X125113095Y-24377380D02*
X125113095Y-23377380D01*
X125113095Y-23853571D02*
X125684523Y-23853571D01*
X125684523Y-24377380D02*
X125684523Y-23377380D01*
X126113095Y-23472619D02*
X126160714Y-23425000D01*
X126255952Y-23377380D01*
X126494047Y-23377380D01*
X126589285Y-23425000D01*
X126636904Y-23472619D01*
X126684523Y-23567857D01*
X126684523Y-23663095D01*
X126636904Y-23805952D01*
X126065476Y-24377380D01*
X126684523Y-24377380D01*
%TO.C,D18*%
X96152380Y-139214285D02*
X95152380Y-139214285D01*
X95152380Y-138976190D01*
X95200000Y-138833333D01*
X95295238Y-138738095D01*
X95390476Y-138690476D01*
X95580952Y-138642857D01*
X95723809Y-138642857D01*
X95914285Y-138690476D01*
X96009523Y-138738095D01*
X96104761Y-138833333D01*
X96152380Y-138976190D01*
X96152380Y-139214285D01*
X96152380Y-137690476D02*
X96152380Y-138261904D01*
X96152380Y-137976190D02*
X95152380Y-137976190D01*
X95295238Y-138071428D01*
X95390476Y-138166666D01*
X95438095Y-138261904D01*
X95580952Y-137119047D02*
X95533333Y-137214285D01*
X95485714Y-137261904D01*
X95390476Y-137309523D01*
X95342857Y-137309523D01*
X95247619Y-137261904D01*
X95200000Y-137214285D01*
X95152380Y-137119047D01*
X95152380Y-136928571D01*
X95200000Y-136833333D01*
X95247619Y-136785714D01*
X95342857Y-136738095D01*
X95390476Y-136738095D01*
X95485714Y-136785714D01*
X95533333Y-136833333D01*
X95580952Y-136928571D01*
X95580952Y-137119047D01*
X95628571Y-137214285D01*
X95676190Y-137261904D01*
X95771428Y-137309523D01*
X95961904Y-137309523D01*
X96057142Y-137261904D01*
X96104761Y-137214285D01*
X96152380Y-137119047D01*
X96152380Y-136928571D01*
X96104761Y-136833333D01*
X96057142Y-136785714D01*
X95961904Y-136738095D01*
X95771428Y-136738095D01*
X95676190Y-136785714D01*
X95628571Y-136833333D01*
X95580952Y-136928571D01*
%TO.C,D35*%
X122152380Y-175214285D02*
X121152380Y-175214285D01*
X121152380Y-174976190D01*
X121200000Y-174833333D01*
X121295238Y-174738095D01*
X121390476Y-174690476D01*
X121580952Y-174642857D01*
X121723809Y-174642857D01*
X121914285Y-174690476D01*
X122009523Y-174738095D01*
X122104761Y-174833333D01*
X122152380Y-174976190D01*
X122152380Y-175214285D01*
X121152380Y-174309523D02*
X121152380Y-173690476D01*
X121533333Y-174023809D01*
X121533333Y-173880952D01*
X121580952Y-173785714D01*
X121628571Y-173738095D01*
X121723809Y-173690476D01*
X121961904Y-173690476D01*
X122057142Y-173738095D01*
X122104761Y-173785714D01*
X122152380Y-173880952D01*
X122152380Y-174166666D01*
X122104761Y-174261904D01*
X122057142Y-174309523D01*
X121152380Y-172785714D02*
X121152380Y-173261904D01*
X121628571Y-173309523D01*
X121580952Y-173261904D01*
X121533333Y-173166666D01*
X121533333Y-172928571D01*
X121580952Y-172833333D01*
X121628571Y-172785714D01*
X121723809Y-172738095D01*
X121961904Y-172738095D01*
X122057142Y-172785714D01*
X122104761Y-172833333D01*
X122152380Y-172928571D01*
X122152380Y-173166666D01*
X122104761Y-173261904D01*
X122057142Y-173309523D01*
%TO.C,D19*%
X96152380Y-151214285D02*
X95152380Y-151214285D01*
X95152380Y-150976190D01*
X95200000Y-150833333D01*
X95295238Y-150738095D01*
X95390476Y-150690476D01*
X95580952Y-150642857D01*
X95723809Y-150642857D01*
X95914285Y-150690476D01*
X96009523Y-150738095D01*
X96104761Y-150833333D01*
X96152380Y-150976190D01*
X96152380Y-151214285D01*
X96152380Y-149690476D02*
X96152380Y-150261904D01*
X96152380Y-149976190D02*
X95152380Y-149976190D01*
X95295238Y-150071428D01*
X95390476Y-150166666D01*
X95438095Y-150261904D01*
X96152380Y-149214285D02*
X96152380Y-149023809D01*
X96104761Y-148928571D01*
X96057142Y-148880952D01*
X95914285Y-148785714D01*
X95723809Y-148738095D01*
X95342857Y-148738095D01*
X95247619Y-148785714D01*
X95200000Y-148833333D01*
X95152380Y-148928571D01*
X95152380Y-149119047D01*
X95200000Y-149214285D01*
X95247619Y-149261904D01*
X95342857Y-149309523D01*
X95580952Y-149309523D01*
X95676190Y-149261904D01*
X95723809Y-149214285D01*
X95771428Y-149119047D01*
X95771428Y-148928571D01*
X95723809Y-148833333D01*
X95676190Y-148785714D01*
X95580952Y-148738095D01*
%TO.C,H1*%
X57113095Y-24377380D02*
X57113095Y-23377380D01*
X57113095Y-23853571D02*
X57684523Y-23853571D01*
X57684523Y-24377380D02*
X57684523Y-23377380D01*
X58684523Y-24377380D02*
X58113095Y-24377380D01*
X58398809Y-24377380D02*
X58398809Y-23377380D01*
X58303571Y-23520238D01*
X58208333Y-23615476D01*
X58113095Y-23663095D01*
%TO.C,D3*%
X70152380Y-126738095D02*
X69152380Y-126738095D01*
X69152380Y-126500000D01*
X69200000Y-126357142D01*
X69295238Y-126261904D01*
X69390476Y-126214285D01*
X69580952Y-126166666D01*
X69723809Y-126166666D01*
X69914285Y-126214285D01*
X70009523Y-126261904D01*
X70104761Y-126357142D01*
X70152380Y-126500000D01*
X70152380Y-126738095D01*
X69152380Y-125833333D02*
X69152380Y-125214285D01*
X69533333Y-125547619D01*
X69533333Y-125404761D01*
X69580952Y-125309523D01*
X69628571Y-125261904D01*
X69723809Y-125214285D01*
X69961904Y-125214285D01*
X70057142Y-125261904D01*
X70104761Y-125309523D01*
X70152380Y-125404761D01*
X70152380Y-125690476D01*
X70104761Y-125785714D01*
X70057142Y-125833333D01*
%TO.C,D26*%
X109152380Y-151214285D02*
X108152380Y-151214285D01*
X108152380Y-150976190D01*
X108200000Y-150833333D01*
X108295238Y-150738095D01*
X108390476Y-150690476D01*
X108580952Y-150642857D01*
X108723809Y-150642857D01*
X108914285Y-150690476D01*
X109009523Y-150738095D01*
X109104761Y-150833333D01*
X109152380Y-150976190D01*
X109152380Y-151214285D01*
X108247619Y-150261904D02*
X108200000Y-150214285D01*
X108152380Y-150119047D01*
X108152380Y-149880952D01*
X108200000Y-149785714D01*
X108247619Y-149738095D01*
X108342857Y-149690476D01*
X108438095Y-149690476D01*
X108580952Y-149738095D01*
X109152380Y-150309523D01*
X109152380Y-149690476D01*
X108152380Y-148833333D02*
X108152380Y-149023809D01*
X108200000Y-149119047D01*
X108247619Y-149166666D01*
X108390476Y-149261904D01*
X108580952Y-149309523D01*
X108961904Y-149309523D01*
X109057142Y-149261904D01*
X109104761Y-149214285D01*
X109152380Y-149119047D01*
X109152380Y-148928571D01*
X109104761Y-148833333D01*
X109057142Y-148785714D01*
X108961904Y-148738095D01*
X108723809Y-148738095D01*
X108628571Y-148785714D01*
X108580952Y-148833333D01*
X108533333Y-148928571D01*
X108533333Y-149119047D01*
X108580952Y-149214285D01*
X108628571Y-149261904D01*
X108723809Y-149309523D01*
%TO.C,SW22*%
X102365476Y-98894761D02*
X102508333Y-98942380D01*
X102746428Y-98942380D01*
X102841666Y-98894761D01*
X102889285Y-98847142D01*
X102936904Y-98751904D01*
X102936904Y-98656666D01*
X102889285Y-98561428D01*
X102841666Y-98513809D01*
X102746428Y-98466190D01*
X102555952Y-98418571D01*
X102460714Y-98370952D01*
X102413095Y-98323333D01*
X102365476Y-98228095D01*
X102365476Y-98132857D01*
X102413095Y-98037619D01*
X102460714Y-97990000D01*
X102555952Y-97942380D01*
X102794047Y-97942380D01*
X102936904Y-97990000D01*
X103270238Y-97942380D02*
X103508333Y-98942380D01*
X103698809Y-98228095D01*
X103889285Y-98942380D01*
X104127380Y-97942380D01*
X104460714Y-98037619D02*
X104508333Y-97990000D01*
X104603571Y-97942380D01*
X104841666Y-97942380D01*
X104936904Y-97990000D01*
X104984523Y-98037619D01*
X105032142Y-98132857D01*
X105032142Y-98228095D01*
X104984523Y-98370952D01*
X104413095Y-98942380D01*
X105032142Y-98942380D01*
X105413095Y-98037619D02*
X105460714Y-97990000D01*
X105555952Y-97942380D01*
X105794047Y-97942380D01*
X105889285Y-97990000D01*
X105936904Y-98037619D01*
X105984523Y-98132857D01*
X105984523Y-98228095D01*
X105936904Y-98370952D01*
X105365476Y-98942380D01*
X105984523Y-98942380D01*
%TO.C,SW5*%
X63841666Y-146769761D02*
X63984523Y-146817380D01*
X64222619Y-146817380D01*
X64317857Y-146769761D01*
X64365476Y-146722142D01*
X64413095Y-146626904D01*
X64413095Y-146531666D01*
X64365476Y-146436428D01*
X64317857Y-146388809D01*
X64222619Y-146341190D01*
X64032142Y-146293571D01*
X63936904Y-146245952D01*
X63889285Y-146198333D01*
X63841666Y-146103095D01*
X63841666Y-146007857D01*
X63889285Y-145912619D01*
X63936904Y-145865000D01*
X64032142Y-145817380D01*
X64270238Y-145817380D01*
X64413095Y-145865000D01*
X64746428Y-145817380D02*
X64984523Y-146817380D01*
X65175000Y-146103095D01*
X65365476Y-146817380D01*
X65603571Y-145817380D01*
X66460714Y-145817380D02*
X65984523Y-145817380D01*
X65936904Y-146293571D01*
X65984523Y-146245952D01*
X66079761Y-146198333D01*
X66317857Y-146198333D01*
X66413095Y-146245952D01*
X66460714Y-146293571D01*
X66508333Y-146388809D01*
X66508333Y-146626904D01*
X66460714Y-146722142D01*
X66413095Y-146769761D01*
X66317857Y-146817380D01*
X66079761Y-146817380D01*
X65984523Y-146769761D01*
X65936904Y-146722142D01*
%TO.C,D30*%
X122152380Y-115214285D02*
X121152380Y-115214285D01*
X121152380Y-114976190D01*
X121200000Y-114833333D01*
X121295238Y-114738095D01*
X121390476Y-114690476D01*
X121580952Y-114642857D01*
X121723809Y-114642857D01*
X121914285Y-114690476D01*
X122009523Y-114738095D01*
X122104761Y-114833333D01*
X122152380Y-114976190D01*
X122152380Y-115214285D01*
X121152380Y-114309523D02*
X121152380Y-113690476D01*
X121533333Y-114023809D01*
X121533333Y-113880952D01*
X121580952Y-113785714D01*
X121628571Y-113738095D01*
X121723809Y-113690476D01*
X121961904Y-113690476D01*
X122057142Y-113738095D01*
X122104761Y-113785714D01*
X122152380Y-113880952D01*
X122152380Y-114166666D01*
X122104761Y-114261904D01*
X122057142Y-114309523D01*
X121152380Y-113071428D02*
X121152380Y-112976190D01*
X121200000Y-112880952D01*
X121247619Y-112833333D01*
X121342857Y-112785714D01*
X121533333Y-112738095D01*
X121771428Y-112738095D01*
X121961904Y-112785714D01*
X122057142Y-112833333D01*
X122104761Y-112880952D01*
X122152380Y-112976190D01*
X122152380Y-113071428D01*
X122104761Y-113166666D01*
X122057142Y-113214285D01*
X121961904Y-113261904D01*
X121771428Y-113309523D01*
X121533333Y-113309523D01*
X121342857Y-113261904D01*
X121247619Y-113214285D01*
X121200000Y-113166666D01*
X121152380Y-113071428D01*
%TO.C,D2*%
X70152380Y-114738095D02*
X69152380Y-114738095D01*
X69152380Y-114500000D01*
X69200000Y-114357142D01*
X69295238Y-114261904D01*
X69390476Y-114214285D01*
X69580952Y-114166666D01*
X69723809Y-114166666D01*
X69914285Y-114214285D01*
X70009523Y-114261904D01*
X70104761Y-114357142D01*
X70152380Y-114500000D01*
X70152380Y-114738095D01*
X69247619Y-113785714D02*
X69200000Y-113738095D01*
X69152380Y-113642857D01*
X69152380Y-113404761D01*
X69200000Y-113309523D01*
X69247619Y-113261904D01*
X69342857Y-113214285D01*
X69438095Y-113214285D01*
X69580952Y-113261904D01*
X70152380Y-113833333D01*
X70152380Y-113214285D01*
%TO.C,D13*%
X83152380Y-163214285D02*
X82152380Y-163214285D01*
X82152380Y-162976190D01*
X82200000Y-162833333D01*
X82295238Y-162738095D01*
X82390476Y-162690476D01*
X82580952Y-162642857D01*
X82723809Y-162642857D01*
X82914285Y-162690476D01*
X83009523Y-162738095D01*
X83104761Y-162833333D01*
X83152380Y-162976190D01*
X83152380Y-163214285D01*
X83152380Y-161690476D02*
X83152380Y-162261904D01*
X83152380Y-161976190D02*
X82152380Y-161976190D01*
X82295238Y-162071428D01*
X82390476Y-162166666D01*
X82438095Y-162261904D01*
X82152380Y-161357142D02*
X82152380Y-160738095D01*
X82533333Y-161071428D01*
X82533333Y-160928571D01*
X82580952Y-160833333D01*
X82628571Y-160785714D01*
X82723809Y-160738095D01*
X82961904Y-160738095D01*
X83057142Y-160785714D01*
X83104761Y-160833333D01*
X83152380Y-160928571D01*
X83152380Y-161214285D01*
X83104761Y-161309523D01*
X83057142Y-161357142D01*
%TO.C,SW32*%
X115365476Y-134769761D02*
X115508333Y-134817380D01*
X115746428Y-134817380D01*
X115841666Y-134769761D01*
X115889285Y-134722142D01*
X115936904Y-134626904D01*
X115936904Y-134531666D01*
X115889285Y-134436428D01*
X115841666Y-134388809D01*
X115746428Y-134341190D01*
X115555952Y-134293571D01*
X115460714Y-134245952D01*
X115413095Y-134198333D01*
X115365476Y-134103095D01*
X115365476Y-134007857D01*
X115413095Y-133912619D01*
X115460714Y-133865000D01*
X115555952Y-133817380D01*
X115794047Y-133817380D01*
X115936904Y-133865000D01*
X116270238Y-133817380D02*
X116508333Y-134817380D01*
X116698809Y-134103095D01*
X116889285Y-134817380D01*
X117127380Y-133817380D01*
X117413095Y-133817380D02*
X118032142Y-133817380D01*
X117698809Y-134198333D01*
X117841666Y-134198333D01*
X117936904Y-134245952D01*
X117984523Y-134293571D01*
X118032142Y-134388809D01*
X118032142Y-134626904D01*
X117984523Y-134722142D01*
X117936904Y-134769761D01*
X117841666Y-134817380D01*
X117555952Y-134817380D01*
X117460714Y-134769761D01*
X117413095Y-134722142D01*
X118413095Y-133912619D02*
X118460714Y-133865000D01*
X118555952Y-133817380D01*
X118794047Y-133817380D01*
X118889285Y-133865000D01*
X118936904Y-133912619D01*
X118984523Y-134007857D01*
X118984523Y-134103095D01*
X118936904Y-134245952D01*
X118365476Y-134817380D01*
X118984523Y-134817380D01*
%TO.C,SW12*%
X76365476Y-146769761D02*
X76508333Y-146817380D01*
X76746428Y-146817380D01*
X76841666Y-146769761D01*
X76889285Y-146722142D01*
X76936904Y-146626904D01*
X76936904Y-146531666D01*
X76889285Y-146436428D01*
X76841666Y-146388809D01*
X76746428Y-146341190D01*
X76555952Y-146293571D01*
X76460714Y-146245952D01*
X76413095Y-146198333D01*
X76365476Y-146103095D01*
X76365476Y-146007857D01*
X76413095Y-145912619D01*
X76460714Y-145865000D01*
X76555952Y-145817380D01*
X76794047Y-145817380D01*
X76936904Y-145865000D01*
X77270238Y-145817380D02*
X77508333Y-146817380D01*
X77698809Y-146103095D01*
X77889285Y-146817380D01*
X78127380Y-145817380D01*
X79032142Y-146817380D02*
X78460714Y-146817380D01*
X78746428Y-146817380D02*
X78746428Y-145817380D01*
X78651190Y-145960238D01*
X78555952Y-146055476D01*
X78460714Y-146103095D01*
X79413095Y-145912619D02*
X79460714Y-145865000D01*
X79555952Y-145817380D01*
X79794047Y-145817380D01*
X79889285Y-145865000D01*
X79936904Y-145912619D01*
X79984523Y-146007857D01*
X79984523Y-146103095D01*
X79936904Y-146245952D01*
X79365476Y-146817380D01*
X79984523Y-146817380D01*
%TO.C,SW15*%
X89365476Y-98769761D02*
X89508333Y-98817380D01*
X89746428Y-98817380D01*
X89841666Y-98769761D01*
X89889285Y-98722142D01*
X89936904Y-98626904D01*
X89936904Y-98531666D01*
X89889285Y-98436428D01*
X89841666Y-98388809D01*
X89746428Y-98341190D01*
X89555952Y-98293571D01*
X89460714Y-98245952D01*
X89413095Y-98198333D01*
X89365476Y-98103095D01*
X89365476Y-98007857D01*
X89413095Y-97912619D01*
X89460714Y-97865000D01*
X89555952Y-97817380D01*
X89794047Y-97817380D01*
X89936904Y-97865000D01*
X90270238Y-97817380D02*
X90508333Y-98817380D01*
X90698809Y-98103095D01*
X90889285Y-98817380D01*
X91127380Y-97817380D01*
X92032142Y-98817380D02*
X91460714Y-98817380D01*
X91746428Y-98817380D02*
X91746428Y-97817380D01*
X91651190Y-97960238D01*
X91555952Y-98055476D01*
X91460714Y-98103095D01*
X92936904Y-97817380D02*
X92460714Y-97817380D01*
X92413095Y-98293571D01*
X92460714Y-98245952D01*
X92555952Y-98198333D01*
X92794047Y-98198333D01*
X92889285Y-98245952D01*
X92936904Y-98293571D01*
X92984523Y-98388809D01*
X92984523Y-98626904D01*
X92936904Y-98722142D01*
X92889285Y-98769761D01*
X92794047Y-98817380D01*
X92555952Y-98817380D01*
X92460714Y-98769761D01*
X92413095Y-98722142D01*
%TO.C,D20*%
X96152380Y-163214285D02*
X95152380Y-163214285D01*
X95152380Y-162976190D01*
X95200000Y-162833333D01*
X95295238Y-162738095D01*
X95390476Y-162690476D01*
X95580952Y-162642857D01*
X95723809Y-162642857D01*
X95914285Y-162690476D01*
X96009523Y-162738095D01*
X96104761Y-162833333D01*
X96152380Y-162976190D01*
X96152380Y-163214285D01*
X95247619Y-162261904D02*
X95200000Y-162214285D01*
X95152380Y-162119047D01*
X95152380Y-161880952D01*
X95200000Y-161785714D01*
X95247619Y-161738095D01*
X95342857Y-161690476D01*
X95438095Y-161690476D01*
X95580952Y-161738095D01*
X96152380Y-162309523D01*
X96152380Y-161690476D01*
X95152380Y-161071428D02*
X95152380Y-160976190D01*
X95200000Y-160880952D01*
X95247619Y-160833333D01*
X95342857Y-160785714D01*
X95533333Y-160738095D01*
X95771428Y-160738095D01*
X95961904Y-160785714D01*
X96057142Y-160833333D01*
X96104761Y-160880952D01*
X96152380Y-160976190D01*
X96152380Y-161071428D01*
X96104761Y-161166666D01*
X96057142Y-161214285D01*
X95961904Y-161261904D01*
X95771428Y-161309523D01*
X95533333Y-161309523D01*
X95342857Y-161261904D01*
X95247619Y-161214285D01*
X95200000Y-161166666D01*
X95152380Y-161071428D01*
%TO.C,SW16*%
X89365476Y-110769761D02*
X89508333Y-110817380D01*
X89746428Y-110817380D01*
X89841666Y-110769761D01*
X89889285Y-110722142D01*
X89936904Y-110626904D01*
X89936904Y-110531666D01*
X89889285Y-110436428D01*
X89841666Y-110388809D01*
X89746428Y-110341190D01*
X89555952Y-110293571D01*
X89460714Y-110245952D01*
X89413095Y-110198333D01*
X89365476Y-110103095D01*
X89365476Y-110007857D01*
X89413095Y-109912619D01*
X89460714Y-109865000D01*
X89555952Y-109817380D01*
X89794047Y-109817380D01*
X89936904Y-109865000D01*
X90270238Y-109817380D02*
X90508333Y-110817380D01*
X90698809Y-110103095D01*
X90889285Y-110817380D01*
X91127380Y-109817380D01*
X92032142Y-110817380D02*
X91460714Y-110817380D01*
X91746428Y-110817380D02*
X91746428Y-109817380D01*
X91651190Y-109960238D01*
X91555952Y-110055476D01*
X91460714Y-110103095D01*
X92889285Y-109817380D02*
X92698809Y-109817380D01*
X92603571Y-109865000D01*
X92555952Y-109912619D01*
X92460714Y-110055476D01*
X92413095Y-110245952D01*
X92413095Y-110626904D01*
X92460714Y-110722142D01*
X92508333Y-110769761D01*
X92603571Y-110817380D01*
X92794047Y-110817380D01*
X92889285Y-110769761D01*
X92936904Y-110722142D01*
X92984523Y-110626904D01*
X92984523Y-110388809D01*
X92936904Y-110293571D01*
X92889285Y-110245952D01*
X92794047Y-110198333D01*
X92603571Y-110198333D01*
X92508333Y-110245952D01*
X92460714Y-110293571D01*
X92413095Y-110388809D01*
%TO.C,D10*%
X83152380Y-127214285D02*
X82152380Y-127214285D01*
X82152380Y-126976190D01*
X82200000Y-126833333D01*
X82295238Y-126738095D01*
X82390476Y-126690476D01*
X82580952Y-126642857D01*
X82723809Y-126642857D01*
X82914285Y-126690476D01*
X83009523Y-126738095D01*
X83104761Y-126833333D01*
X83152380Y-126976190D01*
X83152380Y-127214285D01*
X83152380Y-125690476D02*
X83152380Y-126261904D01*
X83152380Y-125976190D02*
X82152380Y-125976190D01*
X82295238Y-126071428D01*
X82390476Y-126166666D01*
X82438095Y-126261904D01*
X82152380Y-125071428D02*
X82152380Y-124976190D01*
X82200000Y-124880952D01*
X82247619Y-124833333D01*
X82342857Y-124785714D01*
X82533333Y-124738095D01*
X82771428Y-124738095D01*
X82961904Y-124785714D01*
X83057142Y-124833333D01*
X83104761Y-124880952D01*
X83152380Y-124976190D01*
X83152380Y-125071428D01*
X83104761Y-125166666D01*
X83057142Y-125214285D01*
X82961904Y-125261904D01*
X82771428Y-125309523D01*
X82533333Y-125309523D01*
X82342857Y-125261904D01*
X82247619Y-125214285D01*
X82200000Y-125166666D01*
X82152380Y-125071428D01*
%TO.C,H4*%
X125113095Y-177377380D02*
X125113095Y-176377380D01*
X125113095Y-176853571D02*
X125684523Y-176853571D01*
X125684523Y-177377380D02*
X125684523Y-176377380D01*
X126589285Y-176710714D02*
X126589285Y-177377380D01*
X126351190Y-176329761D02*
X126113095Y-177044047D01*
X126732142Y-177044047D01*
%TO.C,SW11*%
X76365476Y-134769761D02*
X76508333Y-134817380D01*
X76746428Y-134817380D01*
X76841666Y-134769761D01*
X76889285Y-134722142D01*
X76936904Y-134626904D01*
X76936904Y-134531666D01*
X76889285Y-134436428D01*
X76841666Y-134388809D01*
X76746428Y-134341190D01*
X76555952Y-134293571D01*
X76460714Y-134245952D01*
X76413095Y-134198333D01*
X76365476Y-134103095D01*
X76365476Y-134007857D01*
X76413095Y-133912619D01*
X76460714Y-133865000D01*
X76555952Y-133817380D01*
X76794047Y-133817380D01*
X76936904Y-133865000D01*
X77270238Y-133817380D02*
X77508333Y-134817380D01*
X77698809Y-134103095D01*
X77889285Y-134817380D01*
X78127380Y-133817380D01*
X79032142Y-134817380D02*
X78460714Y-134817380D01*
X78746428Y-134817380D02*
X78746428Y-133817380D01*
X78651190Y-133960238D01*
X78555952Y-134055476D01*
X78460714Y-134103095D01*
X79984523Y-134817380D02*
X79413095Y-134817380D01*
X79698809Y-134817380D02*
X79698809Y-133817380D01*
X79603571Y-133960238D01*
X79508333Y-134055476D01*
X79413095Y-134103095D01*
%TO.C,D1*%
X70152380Y-102738095D02*
X69152380Y-102738095D01*
X69152380Y-102500000D01*
X69200000Y-102357142D01*
X69295238Y-102261904D01*
X69390476Y-102214285D01*
X69580952Y-102166666D01*
X69723809Y-102166666D01*
X69914285Y-102214285D01*
X70009523Y-102261904D01*
X70104761Y-102357142D01*
X70152380Y-102500000D01*
X70152380Y-102738095D01*
X70152380Y-101214285D02*
X70152380Y-101785714D01*
X70152380Y-101500000D02*
X69152380Y-101500000D01*
X69295238Y-101595238D01*
X69390476Y-101690476D01*
X69438095Y-101785714D01*
%TO.C,SW21*%
X89365476Y-170769761D02*
X89508333Y-170817380D01*
X89746428Y-170817380D01*
X89841666Y-170769761D01*
X89889285Y-170722142D01*
X89936904Y-170626904D01*
X89936904Y-170531666D01*
X89889285Y-170436428D01*
X89841666Y-170388809D01*
X89746428Y-170341190D01*
X89555952Y-170293571D01*
X89460714Y-170245952D01*
X89413095Y-170198333D01*
X89365476Y-170103095D01*
X89365476Y-170007857D01*
X89413095Y-169912619D01*
X89460714Y-169865000D01*
X89555952Y-169817380D01*
X89794047Y-169817380D01*
X89936904Y-169865000D01*
X90270238Y-169817380D02*
X90508333Y-170817380D01*
X90698809Y-170103095D01*
X90889285Y-170817380D01*
X91127380Y-169817380D01*
X91460714Y-169912619D02*
X91508333Y-169865000D01*
X91603571Y-169817380D01*
X91841666Y-169817380D01*
X91936904Y-169865000D01*
X91984523Y-169912619D01*
X92032142Y-170007857D01*
X92032142Y-170103095D01*
X91984523Y-170245952D01*
X91413095Y-170817380D01*
X92032142Y-170817380D01*
X92984523Y-170817380D02*
X92413095Y-170817380D01*
X92698809Y-170817380D02*
X92698809Y-169817380D01*
X92603571Y-169960238D01*
X92508333Y-170055476D01*
X92413095Y-170103095D01*
%TO.C,D31*%
X122152380Y-127214285D02*
X121152380Y-127214285D01*
X121152380Y-126976190D01*
X121200000Y-126833333D01*
X121295238Y-126738095D01*
X121390476Y-126690476D01*
X121580952Y-126642857D01*
X121723809Y-126642857D01*
X121914285Y-126690476D01*
X122009523Y-126738095D01*
X122104761Y-126833333D01*
X122152380Y-126976190D01*
X122152380Y-127214285D01*
X121152380Y-126309523D02*
X121152380Y-125690476D01*
X121533333Y-126023809D01*
X121533333Y-125880952D01*
X121580952Y-125785714D01*
X121628571Y-125738095D01*
X121723809Y-125690476D01*
X121961904Y-125690476D01*
X122057142Y-125738095D01*
X122104761Y-125785714D01*
X122152380Y-125880952D01*
X122152380Y-126166666D01*
X122104761Y-126261904D01*
X122057142Y-126309523D01*
X122152380Y-124738095D02*
X122152380Y-125309523D01*
X122152380Y-125023809D02*
X121152380Y-125023809D01*
X121295238Y-125119047D01*
X121390476Y-125214285D01*
X121438095Y-125309523D01*
%TO.C,Q1*%
X70397619Y-27345238D02*
X70350000Y-27440476D01*
X70254761Y-27535714D01*
X70111904Y-27678571D01*
X70064285Y-27773809D01*
X70064285Y-27869047D01*
X70302380Y-27821428D02*
X70254761Y-27916666D01*
X70159523Y-28011904D01*
X69969047Y-28059523D01*
X69635714Y-28059523D01*
X69445238Y-28011904D01*
X69350000Y-27916666D01*
X69302380Y-27821428D01*
X69302380Y-27630952D01*
X69350000Y-27535714D01*
X69445238Y-27440476D01*
X69635714Y-27392857D01*
X69969047Y-27392857D01*
X70159523Y-27440476D01*
X70254761Y-27535714D01*
X70302380Y-27630952D01*
X70302380Y-27821428D01*
X70302380Y-26440476D02*
X70302380Y-27011904D01*
X70302380Y-26726190D02*
X69302380Y-26726190D01*
X69445238Y-26821428D01*
X69540476Y-26916666D01*
X69588095Y-27011904D01*
%TO.C,SW31*%
X115365476Y-122769761D02*
X115508333Y-122817380D01*
X115746428Y-122817380D01*
X115841666Y-122769761D01*
X115889285Y-122722142D01*
X115936904Y-122626904D01*
X115936904Y-122531666D01*
X115889285Y-122436428D01*
X115841666Y-122388809D01*
X115746428Y-122341190D01*
X115555952Y-122293571D01*
X115460714Y-122245952D01*
X115413095Y-122198333D01*
X115365476Y-122103095D01*
X115365476Y-122007857D01*
X115413095Y-121912619D01*
X115460714Y-121865000D01*
X115555952Y-121817380D01*
X115794047Y-121817380D01*
X115936904Y-121865000D01*
X116270238Y-121817380D02*
X116508333Y-122817380D01*
X116698809Y-122103095D01*
X116889285Y-122817380D01*
X117127380Y-121817380D01*
X117413095Y-121817380D02*
X118032142Y-121817380D01*
X117698809Y-122198333D01*
X117841666Y-122198333D01*
X117936904Y-122245952D01*
X117984523Y-122293571D01*
X118032142Y-122388809D01*
X118032142Y-122626904D01*
X117984523Y-122722142D01*
X117936904Y-122769761D01*
X117841666Y-122817380D01*
X117555952Y-122817380D01*
X117460714Y-122769761D01*
X117413095Y-122722142D01*
X118984523Y-122817380D02*
X118413095Y-122817380D01*
X118698809Y-122817380D02*
X118698809Y-121817380D01*
X118603571Y-121960238D01*
X118508333Y-122055476D01*
X118413095Y-122103095D01*
%TO.C,D15*%
X96152380Y-103214285D02*
X95152380Y-103214285D01*
X95152380Y-102976190D01*
X95200000Y-102833333D01*
X95295238Y-102738095D01*
X95390476Y-102690476D01*
X95580952Y-102642857D01*
X95723809Y-102642857D01*
X95914285Y-102690476D01*
X96009523Y-102738095D01*
X96104761Y-102833333D01*
X96152380Y-102976190D01*
X96152380Y-103214285D01*
X96152380Y-101690476D02*
X96152380Y-102261904D01*
X96152380Y-101976190D02*
X95152380Y-101976190D01*
X95295238Y-102071428D01*
X95390476Y-102166666D01*
X95438095Y-102261904D01*
X95152380Y-100785714D02*
X95152380Y-101261904D01*
X95628571Y-101309523D01*
X95580952Y-101261904D01*
X95533333Y-101166666D01*
X95533333Y-100928571D01*
X95580952Y-100833333D01*
X95628571Y-100785714D01*
X95723809Y-100738095D01*
X95961904Y-100738095D01*
X96057142Y-100785714D01*
X96104761Y-100833333D01*
X96152380Y-100928571D01*
X96152380Y-101166666D01*
X96104761Y-101261904D01*
X96057142Y-101309523D01*
%TO.C,SW29*%
X115365476Y-98894761D02*
X115508333Y-98942380D01*
X115746428Y-98942380D01*
X115841666Y-98894761D01*
X115889285Y-98847142D01*
X115936904Y-98751904D01*
X115936904Y-98656666D01*
X115889285Y-98561428D01*
X115841666Y-98513809D01*
X115746428Y-98466190D01*
X115555952Y-98418571D01*
X115460714Y-98370952D01*
X115413095Y-98323333D01*
X115365476Y-98228095D01*
X115365476Y-98132857D01*
X115413095Y-98037619D01*
X115460714Y-97990000D01*
X115555952Y-97942380D01*
X115794047Y-97942380D01*
X115936904Y-97990000D01*
X116270238Y-97942380D02*
X116508333Y-98942380D01*
X116698809Y-98228095D01*
X116889285Y-98942380D01*
X117127380Y-97942380D01*
X117460714Y-98037619D02*
X117508333Y-97990000D01*
X117603571Y-97942380D01*
X117841666Y-97942380D01*
X117936904Y-97990000D01*
X117984523Y-98037619D01*
X118032142Y-98132857D01*
X118032142Y-98228095D01*
X117984523Y-98370952D01*
X117413095Y-98942380D01*
X118032142Y-98942380D01*
X118508333Y-98942380D02*
X118698809Y-98942380D01*
X118794047Y-98894761D01*
X118841666Y-98847142D01*
X118936904Y-98704285D01*
X118984523Y-98513809D01*
X118984523Y-98132857D01*
X118936904Y-98037619D01*
X118889285Y-97990000D01*
X118794047Y-97942380D01*
X118603571Y-97942380D01*
X118508333Y-97990000D01*
X118460714Y-98037619D01*
X118413095Y-98132857D01*
X118413095Y-98370952D01*
X118460714Y-98466190D01*
X118508333Y-98513809D01*
X118603571Y-98561428D01*
X118794047Y-98561428D01*
X118889285Y-98513809D01*
X118936904Y-98466190D01*
X118984523Y-98370952D01*
%TO.C,SW4*%
X63841666Y-134769761D02*
X63984523Y-134817380D01*
X64222619Y-134817380D01*
X64317857Y-134769761D01*
X64365476Y-134722142D01*
X64413095Y-134626904D01*
X64413095Y-134531666D01*
X64365476Y-134436428D01*
X64317857Y-134388809D01*
X64222619Y-134341190D01*
X64032142Y-134293571D01*
X63936904Y-134245952D01*
X63889285Y-134198333D01*
X63841666Y-134103095D01*
X63841666Y-134007857D01*
X63889285Y-133912619D01*
X63936904Y-133865000D01*
X64032142Y-133817380D01*
X64270238Y-133817380D01*
X64413095Y-133865000D01*
X64746428Y-133817380D02*
X64984523Y-134817380D01*
X65175000Y-134103095D01*
X65365476Y-134817380D01*
X65603571Y-133817380D01*
X66413095Y-134150714D02*
X66413095Y-134817380D01*
X66175000Y-133769761D02*
X65936904Y-134484047D01*
X66555952Y-134484047D01*
%TO.C,SW34*%
X115365476Y-158769761D02*
X115508333Y-158817380D01*
X115746428Y-158817380D01*
X115841666Y-158769761D01*
X115889285Y-158722142D01*
X115936904Y-158626904D01*
X115936904Y-158531666D01*
X115889285Y-158436428D01*
X115841666Y-158388809D01*
X115746428Y-158341190D01*
X115555952Y-158293571D01*
X115460714Y-158245952D01*
X115413095Y-158198333D01*
X115365476Y-158103095D01*
X115365476Y-158007857D01*
X115413095Y-157912619D01*
X115460714Y-157865000D01*
X115555952Y-157817380D01*
X115794047Y-157817380D01*
X115936904Y-157865000D01*
X116270238Y-157817380D02*
X116508333Y-158817380D01*
X116698809Y-158103095D01*
X116889285Y-158817380D01*
X117127380Y-157817380D01*
X117413095Y-157817380D02*
X118032142Y-157817380D01*
X117698809Y-158198333D01*
X117841666Y-158198333D01*
X117936904Y-158245952D01*
X117984523Y-158293571D01*
X118032142Y-158388809D01*
X118032142Y-158626904D01*
X117984523Y-158722142D01*
X117936904Y-158769761D01*
X117841666Y-158817380D01*
X117555952Y-158817380D01*
X117460714Y-158769761D01*
X117413095Y-158722142D01*
X118889285Y-158150714D02*
X118889285Y-158817380D01*
X118651190Y-157769761D02*
X118413095Y-158484047D01*
X119032142Y-158484047D01*
%TO.C,D16*%
X96152380Y-115214285D02*
X95152380Y-115214285D01*
X95152380Y-114976190D01*
X95200000Y-114833333D01*
X95295238Y-114738095D01*
X95390476Y-114690476D01*
X95580952Y-114642857D01*
X95723809Y-114642857D01*
X95914285Y-114690476D01*
X96009523Y-114738095D01*
X96104761Y-114833333D01*
X96152380Y-114976190D01*
X96152380Y-115214285D01*
X96152380Y-113690476D02*
X96152380Y-114261904D01*
X96152380Y-113976190D02*
X95152380Y-113976190D01*
X95295238Y-114071428D01*
X95390476Y-114166666D01*
X95438095Y-114261904D01*
X95152380Y-112833333D02*
X95152380Y-113023809D01*
X95200000Y-113119047D01*
X95247619Y-113166666D01*
X95390476Y-113261904D01*
X95580952Y-113309523D01*
X95961904Y-113309523D01*
X96057142Y-113261904D01*
X96104761Y-113214285D01*
X96152380Y-113119047D01*
X96152380Y-112928571D01*
X96104761Y-112833333D01*
X96057142Y-112785714D01*
X95961904Y-112738095D01*
X95723809Y-112738095D01*
X95628571Y-112785714D01*
X95580952Y-112833333D01*
X95533333Y-112928571D01*
X95533333Y-113119047D01*
X95580952Y-113214285D01*
X95628571Y-113261904D01*
X95723809Y-113309523D01*
%TO.C,D9*%
X83152380Y-114738095D02*
X82152380Y-114738095D01*
X82152380Y-114500000D01*
X82200000Y-114357142D01*
X82295238Y-114261904D01*
X82390476Y-114214285D01*
X82580952Y-114166666D01*
X82723809Y-114166666D01*
X82914285Y-114214285D01*
X83009523Y-114261904D01*
X83104761Y-114357142D01*
X83152380Y-114500000D01*
X83152380Y-114738095D01*
X83152380Y-113690476D02*
X83152380Y-113500000D01*
X83104761Y-113404761D01*
X83057142Y-113357142D01*
X82914285Y-113261904D01*
X82723809Y-113214285D01*
X82342857Y-113214285D01*
X82247619Y-113261904D01*
X82200000Y-113309523D01*
X82152380Y-113404761D01*
X82152380Y-113595238D01*
X82200000Y-113690476D01*
X82247619Y-113738095D01*
X82342857Y-113785714D01*
X82580952Y-113785714D01*
X82676190Y-113738095D01*
X82723809Y-113690476D01*
X82771428Y-113595238D01*
X82771428Y-113404761D01*
X82723809Y-113309523D01*
X82676190Y-113261904D01*
X82580952Y-113214285D01*
%TO.C,D12*%
X83152380Y-151214285D02*
X82152380Y-151214285D01*
X82152380Y-150976190D01*
X82200000Y-150833333D01*
X82295238Y-150738095D01*
X82390476Y-150690476D01*
X82580952Y-150642857D01*
X82723809Y-150642857D01*
X82914285Y-150690476D01*
X83009523Y-150738095D01*
X83104761Y-150833333D01*
X83152380Y-150976190D01*
X83152380Y-151214285D01*
X83152380Y-149690476D02*
X83152380Y-150261904D01*
X83152380Y-149976190D02*
X82152380Y-149976190D01*
X82295238Y-150071428D01*
X82390476Y-150166666D01*
X82438095Y-150261904D01*
X82247619Y-149309523D02*
X82200000Y-149261904D01*
X82152380Y-149166666D01*
X82152380Y-148928571D01*
X82200000Y-148833333D01*
X82247619Y-148785714D01*
X82342857Y-148738095D01*
X82438095Y-148738095D01*
X82580952Y-148785714D01*
X83152380Y-149357142D01*
X83152380Y-148738095D01*
%TO.C,SW3*%
X63841666Y-122769761D02*
X63984523Y-122817380D01*
X64222619Y-122817380D01*
X64317857Y-122769761D01*
X64365476Y-122722142D01*
X64413095Y-122626904D01*
X64413095Y-122531666D01*
X64365476Y-122436428D01*
X64317857Y-122388809D01*
X64222619Y-122341190D01*
X64032142Y-122293571D01*
X63936904Y-122245952D01*
X63889285Y-122198333D01*
X63841666Y-122103095D01*
X63841666Y-122007857D01*
X63889285Y-121912619D01*
X63936904Y-121865000D01*
X64032142Y-121817380D01*
X64270238Y-121817380D01*
X64413095Y-121865000D01*
X64746428Y-121817380D02*
X64984523Y-122817380D01*
X65175000Y-122103095D01*
X65365476Y-122817380D01*
X65603571Y-121817380D01*
X65889285Y-121817380D02*
X66508333Y-121817380D01*
X66175000Y-122198333D01*
X66317857Y-122198333D01*
X66413095Y-122245952D01*
X66460714Y-122293571D01*
X66508333Y-122388809D01*
X66508333Y-122626904D01*
X66460714Y-122722142D01*
X66413095Y-122769761D01*
X66317857Y-122817380D01*
X66032142Y-122817380D01*
X65936904Y-122769761D01*
X65889285Y-122722142D01*
%TO.C,SW19*%
X89365476Y-146769761D02*
X89508333Y-146817380D01*
X89746428Y-146817380D01*
X89841666Y-146769761D01*
X89889285Y-146722142D01*
X89936904Y-146626904D01*
X89936904Y-146531666D01*
X89889285Y-146436428D01*
X89841666Y-146388809D01*
X89746428Y-146341190D01*
X89555952Y-146293571D01*
X89460714Y-146245952D01*
X89413095Y-146198333D01*
X89365476Y-146103095D01*
X89365476Y-146007857D01*
X89413095Y-145912619D01*
X89460714Y-145865000D01*
X89555952Y-145817380D01*
X89794047Y-145817380D01*
X89936904Y-145865000D01*
X90270238Y-145817380D02*
X90508333Y-146817380D01*
X90698809Y-146103095D01*
X90889285Y-146817380D01*
X91127380Y-145817380D01*
X92032142Y-146817380D02*
X91460714Y-146817380D01*
X91746428Y-146817380D02*
X91746428Y-145817380D01*
X91651190Y-145960238D01*
X91555952Y-146055476D01*
X91460714Y-146103095D01*
X92508333Y-146817380D02*
X92698809Y-146817380D01*
X92794047Y-146769761D01*
X92841666Y-146722142D01*
X92936904Y-146579285D01*
X92984523Y-146388809D01*
X92984523Y-146007857D01*
X92936904Y-145912619D01*
X92889285Y-145865000D01*
X92794047Y-145817380D01*
X92603571Y-145817380D01*
X92508333Y-145865000D01*
X92460714Y-145912619D01*
X92413095Y-146007857D01*
X92413095Y-146245952D01*
X92460714Y-146341190D01*
X92508333Y-146388809D01*
X92603571Y-146436428D01*
X92794047Y-146436428D01*
X92889285Y-146388809D01*
X92936904Y-146341190D01*
X92984523Y-146245952D01*
%TO.C,SW35*%
X115365476Y-170769761D02*
X115508333Y-170817380D01*
X115746428Y-170817380D01*
X115841666Y-170769761D01*
X115889285Y-170722142D01*
X115936904Y-170626904D01*
X115936904Y-170531666D01*
X115889285Y-170436428D01*
X115841666Y-170388809D01*
X115746428Y-170341190D01*
X115555952Y-170293571D01*
X115460714Y-170245952D01*
X115413095Y-170198333D01*
X115365476Y-170103095D01*
X115365476Y-170007857D01*
X115413095Y-169912619D01*
X115460714Y-169865000D01*
X115555952Y-169817380D01*
X115794047Y-169817380D01*
X115936904Y-169865000D01*
X116270238Y-169817380D02*
X116508333Y-170817380D01*
X116698809Y-170103095D01*
X116889285Y-170817380D01*
X117127380Y-169817380D01*
X117413095Y-169817380D02*
X118032142Y-169817380D01*
X117698809Y-170198333D01*
X117841666Y-170198333D01*
X117936904Y-170245952D01*
X117984523Y-170293571D01*
X118032142Y-170388809D01*
X118032142Y-170626904D01*
X117984523Y-170722142D01*
X117936904Y-170769761D01*
X117841666Y-170817380D01*
X117555952Y-170817380D01*
X117460714Y-170769761D01*
X117413095Y-170722142D01*
X118936904Y-169817380D02*
X118460714Y-169817380D01*
X118413095Y-170293571D01*
X118460714Y-170245952D01*
X118555952Y-170198333D01*
X118794047Y-170198333D01*
X118889285Y-170245952D01*
X118936904Y-170293571D01*
X118984523Y-170388809D01*
X118984523Y-170626904D01*
X118936904Y-170722142D01*
X118889285Y-170769761D01*
X118794047Y-170817380D01*
X118555952Y-170817380D01*
X118460714Y-170769761D01*
X118413095Y-170722142D01*
%TO.C,SW7*%
X63841666Y-170769761D02*
X63984523Y-170817380D01*
X64222619Y-170817380D01*
X64317857Y-170769761D01*
X64365476Y-170722142D01*
X64413095Y-170626904D01*
X64413095Y-170531666D01*
X64365476Y-170436428D01*
X64317857Y-170388809D01*
X64222619Y-170341190D01*
X64032142Y-170293571D01*
X63936904Y-170245952D01*
X63889285Y-170198333D01*
X63841666Y-170103095D01*
X63841666Y-170007857D01*
X63889285Y-169912619D01*
X63936904Y-169865000D01*
X64032142Y-169817380D01*
X64270238Y-169817380D01*
X64413095Y-169865000D01*
X64746428Y-169817380D02*
X64984523Y-170817380D01*
X65175000Y-170103095D01*
X65365476Y-170817380D01*
X65603571Y-169817380D01*
X65889285Y-169817380D02*
X66555952Y-169817380D01*
X66127380Y-170817380D01*
%TO.C,SW1*%
X63841666Y-98769761D02*
X63984523Y-98817380D01*
X64222619Y-98817380D01*
X64317857Y-98769761D01*
X64365476Y-98722142D01*
X64413095Y-98626904D01*
X64413095Y-98531666D01*
X64365476Y-98436428D01*
X64317857Y-98388809D01*
X64222619Y-98341190D01*
X64032142Y-98293571D01*
X63936904Y-98245952D01*
X63889285Y-98198333D01*
X63841666Y-98103095D01*
X63841666Y-98007857D01*
X63889285Y-97912619D01*
X63936904Y-97865000D01*
X64032142Y-97817380D01*
X64270238Y-97817380D01*
X64413095Y-97865000D01*
X64746428Y-97817380D02*
X64984523Y-98817380D01*
X65175000Y-98103095D01*
X65365476Y-98817380D01*
X65603571Y-97817380D01*
X66508333Y-98817380D02*
X65936904Y-98817380D01*
X66222619Y-98817380D02*
X66222619Y-97817380D01*
X66127380Y-97960238D01*
X66032142Y-98055476D01*
X65936904Y-98103095D01*
%TO.C,D8*%
X83212380Y-102718095D02*
X82212380Y-102718095D01*
X82212380Y-102480000D01*
X82260000Y-102337142D01*
X82355238Y-102241904D01*
X82450476Y-102194285D01*
X82640952Y-102146666D01*
X82783809Y-102146666D01*
X82974285Y-102194285D01*
X83069523Y-102241904D01*
X83164761Y-102337142D01*
X83212380Y-102480000D01*
X83212380Y-102718095D01*
X82640952Y-101575238D02*
X82593333Y-101670476D01*
X82545714Y-101718095D01*
X82450476Y-101765714D01*
X82402857Y-101765714D01*
X82307619Y-101718095D01*
X82260000Y-101670476D01*
X82212380Y-101575238D01*
X82212380Y-101384761D01*
X82260000Y-101289523D01*
X82307619Y-101241904D01*
X82402857Y-101194285D01*
X82450476Y-101194285D01*
X82545714Y-101241904D01*
X82593333Y-101289523D01*
X82640952Y-101384761D01*
X82640952Y-101575238D01*
X82688571Y-101670476D01*
X82736190Y-101718095D01*
X82831428Y-101765714D01*
X83021904Y-101765714D01*
X83117142Y-101718095D01*
X83164761Y-101670476D01*
X83212380Y-101575238D01*
X83212380Y-101384761D01*
X83164761Y-101289523D01*
X83117142Y-101241904D01*
X83021904Y-101194285D01*
X82831428Y-101194285D01*
X82736190Y-101241904D01*
X82688571Y-101289523D01*
X82640952Y-101384761D01*
%TO.C,SW8*%
X76901666Y-98749761D02*
X77044523Y-98797380D01*
X77282619Y-98797380D01*
X77377857Y-98749761D01*
X77425476Y-98702142D01*
X77473095Y-98606904D01*
X77473095Y-98511666D01*
X77425476Y-98416428D01*
X77377857Y-98368809D01*
X77282619Y-98321190D01*
X77092142Y-98273571D01*
X76996904Y-98225952D01*
X76949285Y-98178333D01*
X76901666Y-98083095D01*
X76901666Y-97987857D01*
X76949285Y-97892619D01*
X76996904Y-97845000D01*
X77092142Y-97797380D01*
X77330238Y-97797380D01*
X77473095Y-97845000D01*
X77806428Y-97797380D02*
X78044523Y-98797380D01*
X78235000Y-98083095D01*
X78425476Y-98797380D01*
X78663571Y-97797380D01*
X79187380Y-98225952D02*
X79092142Y-98178333D01*
X79044523Y-98130714D01*
X78996904Y-98035476D01*
X78996904Y-97987857D01*
X79044523Y-97892619D01*
X79092142Y-97845000D01*
X79187380Y-97797380D01*
X79377857Y-97797380D01*
X79473095Y-97845000D01*
X79520714Y-97892619D01*
X79568333Y-97987857D01*
X79568333Y-98035476D01*
X79520714Y-98130714D01*
X79473095Y-98178333D01*
X79377857Y-98225952D01*
X79187380Y-98225952D01*
X79092142Y-98273571D01*
X79044523Y-98321190D01*
X78996904Y-98416428D01*
X78996904Y-98606904D01*
X79044523Y-98702142D01*
X79092142Y-98749761D01*
X79187380Y-98797380D01*
X79377857Y-98797380D01*
X79473095Y-98749761D01*
X79520714Y-98702142D01*
X79568333Y-98606904D01*
X79568333Y-98416428D01*
X79520714Y-98321190D01*
X79473095Y-98273571D01*
X79377857Y-98225952D01*
%TO.C,SW28*%
X102365476Y-170769761D02*
X102508333Y-170817380D01*
X102746428Y-170817380D01*
X102841666Y-170769761D01*
X102889285Y-170722142D01*
X102936904Y-170626904D01*
X102936904Y-170531666D01*
X102889285Y-170436428D01*
X102841666Y-170388809D01*
X102746428Y-170341190D01*
X102555952Y-170293571D01*
X102460714Y-170245952D01*
X102413095Y-170198333D01*
X102365476Y-170103095D01*
X102365476Y-170007857D01*
X102413095Y-169912619D01*
X102460714Y-169865000D01*
X102555952Y-169817380D01*
X102794047Y-169817380D01*
X102936904Y-169865000D01*
X103270238Y-169817380D02*
X103508333Y-170817380D01*
X103698809Y-170103095D01*
X103889285Y-170817380D01*
X104127380Y-169817380D01*
X104460714Y-169912619D02*
X104508333Y-169865000D01*
X104603571Y-169817380D01*
X104841666Y-169817380D01*
X104936904Y-169865000D01*
X104984523Y-169912619D01*
X105032142Y-170007857D01*
X105032142Y-170103095D01*
X104984523Y-170245952D01*
X104413095Y-170817380D01*
X105032142Y-170817380D01*
X105603571Y-170245952D02*
X105508333Y-170198333D01*
X105460714Y-170150714D01*
X105413095Y-170055476D01*
X105413095Y-170007857D01*
X105460714Y-169912619D01*
X105508333Y-169865000D01*
X105603571Y-169817380D01*
X105794047Y-169817380D01*
X105889285Y-169865000D01*
X105936904Y-169912619D01*
X105984523Y-170007857D01*
X105984523Y-170055476D01*
X105936904Y-170150714D01*
X105889285Y-170198333D01*
X105794047Y-170245952D01*
X105603571Y-170245952D01*
X105508333Y-170293571D01*
X105460714Y-170341190D01*
X105413095Y-170436428D01*
X105413095Y-170626904D01*
X105460714Y-170722142D01*
X105508333Y-170769761D01*
X105603571Y-170817380D01*
X105794047Y-170817380D01*
X105889285Y-170769761D01*
X105936904Y-170722142D01*
X105984523Y-170626904D01*
X105984523Y-170436428D01*
X105936904Y-170341190D01*
X105889285Y-170293571D01*
X105794047Y-170245952D01*
%TO.C,SW23*%
X102365476Y-110769761D02*
X102508333Y-110817380D01*
X102746428Y-110817380D01*
X102841666Y-110769761D01*
X102889285Y-110722142D01*
X102936904Y-110626904D01*
X102936904Y-110531666D01*
X102889285Y-110436428D01*
X102841666Y-110388809D01*
X102746428Y-110341190D01*
X102555952Y-110293571D01*
X102460714Y-110245952D01*
X102413095Y-110198333D01*
X102365476Y-110103095D01*
X102365476Y-110007857D01*
X102413095Y-109912619D01*
X102460714Y-109865000D01*
X102555952Y-109817380D01*
X102794047Y-109817380D01*
X102936904Y-109865000D01*
X103270238Y-109817380D02*
X103508333Y-110817380D01*
X103698809Y-110103095D01*
X103889285Y-110817380D01*
X104127380Y-109817380D01*
X104460714Y-109912619D02*
X104508333Y-109865000D01*
X104603571Y-109817380D01*
X104841666Y-109817380D01*
X104936904Y-109865000D01*
X104984523Y-109912619D01*
X105032142Y-110007857D01*
X105032142Y-110103095D01*
X104984523Y-110245952D01*
X104413095Y-110817380D01*
X105032142Y-110817380D01*
X105365476Y-109817380D02*
X105984523Y-109817380D01*
X105651190Y-110198333D01*
X105794047Y-110198333D01*
X105889285Y-110245952D01*
X105936904Y-110293571D01*
X105984523Y-110388809D01*
X105984523Y-110626904D01*
X105936904Y-110722142D01*
X105889285Y-110769761D01*
X105794047Y-110817380D01*
X105508333Y-110817380D01*
X105413095Y-110769761D01*
X105365476Y-110722142D01*
%TO.C,SW17*%
X89365476Y-122769761D02*
X89508333Y-122817380D01*
X89746428Y-122817380D01*
X89841666Y-122769761D01*
X89889285Y-122722142D01*
X89936904Y-122626904D01*
X89936904Y-122531666D01*
X89889285Y-122436428D01*
X89841666Y-122388809D01*
X89746428Y-122341190D01*
X89555952Y-122293571D01*
X89460714Y-122245952D01*
X89413095Y-122198333D01*
X89365476Y-122103095D01*
X89365476Y-122007857D01*
X89413095Y-121912619D01*
X89460714Y-121865000D01*
X89555952Y-121817380D01*
X89794047Y-121817380D01*
X89936904Y-121865000D01*
X90270238Y-121817380D02*
X90508333Y-122817380D01*
X90698809Y-122103095D01*
X90889285Y-122817380D01*
X91127380Y-121817380D01*
X92032142Y-122817380D02*
X91460714Y-122817380D01*
X91746428Y-122817380D02*
X91746428Y-121817380D01*
X91651190Y-121960238D01*
X91555952Y-122055476D01*
X91460714Y-122103095D01*
X92365476Y-121817380D02*
X93032142Y-121817380D01*
X92603571Y-122817380D01*
%TO.C,D24*%
X109152380Y-127214285D02*
X108152380Y-127214285D01*
X108152380Y-126976190D01*
X108200000Y-126833333D01*
X108295238Y-126738095D01*
X108390476Y-126690476D01*
X108580952Y-126642857D01*
X108723809Y-126642857D01*
X108914285Y-126690476D01*
X109009523Y-126738095D01*
X109104761Y-126833333D01*
X109152380Y-126976190D01*
X109152380Y-127214285D01*
X108247619Y-126261904D02*
X108200000Y-126214285D01*
X108152380Y-126119047D01*
X108152380Y-125880952D01*
X108200000Y-125785714D01*
X108247619Y-125738095D01*
X108342857Y-125690476D01*
X108438095Y-125690476D01*
X108580952Y-125738095D01*
X109152380Y-126309523D01*
X109152380Y-125690476D01*
X108485714Y-124833333D02*
X109152380Y-124833333D01*
X108104761Y-125071428D02*
X108819047Y-125309523D01*
X108819047Y-124690476D01*
%TO.C,D17*%
X96152380Y-127214285D02*
X95152380Y-127214285D01*
X95152380Y-126976190D01*
X95200000Y-126833333D01*
X95295238Y-126738095D01*
X95390476Y-126690476D01*
X95580952Y-126642857D01*
X95723809Y-126642857D01*
X95914285Y-126690476D01*
X96009523Y-126738095D01*
X96104761Y-126833333D01*
X96152380Y-126976190D01*
X96152380Y-127214285D01*
X96152380Y-125690476D02*
X96152380Y-126261904D01*
X96152380Y-125976190D02*
X95152380Y-125976190D01*
X95295238Y-126071428D01*
X95390476Y-126166666D01*
X95438095Y-126261904D01*
X95152380Y-125357142D02*
X95152380Y-124690476D01*
X96152380Y-125119047D01*
%TO.C,D23*%
X109152380Y-115214285D02*
X108152380Y-115214285D01*
X108152380Y-114976190D01*
X108200000Y-114833333D01*
X108295238Y-114738095D01*
X108390476Y-114690476D01*
X108580952Y-114642857D01*
X108723809Y-114642857D01*
X108914285Y-114690476D01*
X109009523Y-114738095D01*
X109104761Y-114833333D01*
X109152380Y-114976190D01*
X109152380Y-115214285D01*
X108247619Y-114261904D02*
X108200000Y-114214285D01*
X108152380Y-114119047D01*
X108152380Y-113880952D01*
X108200000Y-113785714D01*
X108247619Y-113738095D01*
X108342857Y-113690476D01*
X108438095Y-113690476D01*
X108580952Y-113738095D01*
X109152380Y-114309523D01*
X109152380Y-113690476D01*
X108152380Y-113357142D02*
X108152380Y-112738095D01*
X108533333Y-113071428D01*
X108533333Y-112928571D01*
X108580952Y-112833333D01*
X108628571Y-112785714D01*
X108723809Y-112738095D01*
X108961904Y-112738095D01*
X109057142Y-112785714D01*
X109104761Y-112833333D01*
X109152380Y-112928571D01*
X109152380Y-113214285D01*
X109104761Y-113309523D01*
X109057142Y-113357142D01*
%TO.C,H3*%
X57113095Y-177377380D02*
X57113095Y-176377380D01*
X57113095Y-176853571D02*
X57684523Y-176853571D01*
X57684523Y-177377380D02*
X57684523Y-176377380D01*
X58065476Y-176377380D02*
X58684523Y-176377380D01*
X58351190Y-176758333D01*
X58494047Y-176758333D01*
X58589285Y-176805952D01*
X58636904Y-176853571D01*
X58684523Y-176948809D01*
X58684523Y-177186904D01*
X58636904Y-177282142D01*
X58589285Y-177329761D01*
X58494047Y-177377380D01*
X58208333Y-177377380D01*
X58113095Y-177329761D01*
X58065476Y-177282142D01*
%TO.C,SW18*%
X89365476Y-134769761D02*
X89508333Y-134817380D01*
X89746428Y-134817380D01*
X89841666Y-134769761D01*
X89889285Y-134722142D01*
X89936904Y-134626904D01*
X89936904Y-134531666D01*
X89889285Y-134436428D01*
X89841666Y-134388809D01*
X89746428Y-134341190D01*
X89555952Y-134293571D01*
X89460714Y-134245952D01*
X89413095Y-134198333D01*
X89365476Y-134103095D01*
X89365476Y-134007857D01*
X89413095Y-133912619D01*
X89460714Y-133865000D01*
X89555952Y-133817380D01*
X89794047Y-133817380D01*
X89936904Y-133865000D01*
X90270238Y-133817380D02*
X90508333Y-134817380D01*
X90698809Y-134103095D01*
X90889285Y-134817380D01*
X91127380Y-133817380D01*
X92032142Y-134817380D02*
X91460714Y-134817380D01*
X91746428Y-134817380D02*
X91746428Y-133817380D01*
X91651190Y-133960238D01*
X91555952Y-134055476D01*
X91460714Y-134103095D01*
X92603571Y-134245952D02*
X92508333Y-134198333D01*
X92460714Y-134150714D01*
X92413095Y-134055476D01*
X92413095Y-134007857D01*
X92460714Y-133912619D01*
X92508333Y-133865000D01*
X92603571Y-133817380D01*
X92794047Y-133817380D01*
X92889285Y-133865000D01*
X92936904Y-133912619D01*
X92984523Y-134007857D01*
X92984523Y-134055476D01*
X92936904Y-134150714D01*
X92889285Y-134198333D01*
X92794047Y-134245952D01*
X92603571Y-134245952D01*
X92508333Y-134293571D01*
X92460714Y-134341190D01*
X92413095Y-134436428D01*
X92413095Y-134626904D01*
X92460714Y-134722142D01*
X92508333Y-134769761D01*
X92603571Y-134817380D01*
X92794047Y-134817380D01*
X92889285Y-134769761D01*
X92936904Y-134722142D01*
X92984523Y-134626904D01*
X92984523Y-134436428D01*
X92936904Y-134341190D01*
X92889285Y-134293571D01*
X92794047Y-134245952D01*
%TO.C,SW30*%
X115365476Y-110769761D02*
X115508333Y-110817380D01*
X115746428Y-110817380D01*
X115841666Y-110769761D01*
X115889285Y-110722142D01*
X115936904Y-110626904D01*
X115936904Y-110531666D01*
X115889285Y-110436428D01*
X115841666Y-110388809D01*
X115746428Y-110341190D01*
X115555952Y-110293571D01*
X115460714Y-110245952D01*
X115413095Y-110198333D01*
X115365476Y-110103095D01*
X115365476Y-110007857D01*
X115413095Y-109912619D01*
X115460714Y-109865000D01*
X115555952Y-109817380D01*
X115794047Y-109817380D01*
X115936904Y-109865000D01*
X116270238Y-109817380D02*
X116508333Y-110817380D01*
X116698809Y-110103095D01*
X116889285Y-110817380D01*
X117127380Y-109817380D01*
X117413095Y-109817380D02*
X118032142Y-109817380D01*
X117698809Y-110198333D01*
X117841666Y-110198333D01*
X117936904Y-110245952D01*
X117984523Y-110293571D01*
X118032142Y-110388809D01*
X118032142Y-110626904D01*
X117984523Y-110722142D01*
X117936904Y-110769761D01*
X117841666Y-110817380D01*
X117555952Y-110817380D01*
X117460714Y-110769761D01*
X117413095Y-110722142D01*
X118651190Y-109817380D02*
X118746428Y-109817380D01*
X118841666Y-109865000D01*
X118889285Y-109912619D01*
X118936904Y-110007857D01*
X118984523Y-110198333D01*
X118984523Y-110436428D01*
X118936904Y-110626904D01*
X118889285Y-110722142D01*
X118841666Y-110769761D01*
X118746428Y-110817380D01*
X118651190Y-110817380D01*
X118555952Y-110769761D01*
X118508333Y-110722142D01*
X118460714Y-110626904D01*
X118413095Y-110436428D01*
X118413095Y-110198333D01*
X118460714Y-110007857D01*
X118508333Y-109912619D01*
X118555952Y-109865000D01*
X118651190Y-109817380D01*
%TO.C,SW24*%
X102365476Y-122769761D02*
X102508333Y-122817380D01*
X102746428Y-122817380D01*
X102841666Y-122769761D01*
X102889285Y-122722142D01*
X102936904Y-122626904D01*
X102936904Y-122531666D01*
X102889285Y-122436428D01*
X102841666Y-122388809D01*
X102746428Y-122341190D01*
X102555952Y-122293571D01*
X102460714Y-122245952D01*
X102413095Y-122198333D01*
X102365476Y-122103095D01*
X102365476Y-122007857D01*
X102413095Y-121912619D01*
X102460714Y-121865000D01*
X102555952Y-121817380D01*
X102794047Y-121817380D01*
X102936904Y-121865000D01*
X103270238Y-121817380D02*
X103508333Y-122817380D01*
X103698809Y-122103095D01*
X103889285Y-122817380D01*
X104127380Y-121817380D01*
X104460714Y-121912619D02*
X104508333Y-121865000D01*
X104603571Y-121817380D01*
X104841666Y-121817380D01*
X104936904Y-121865000D01*
X104984523Y-121912619D01*
X105032142Y-122007857D01*
X105032142Y-122103095D01*
X104984523Y-122245952D01*
X104413095Y-122817380D01*
X105032142Y-122817380D01*
X105889285Y-122150714D02*
X105889285Y-122817380D01*
X105651190Y-121769761D02*
X105413095Y-122484047D01*
X106032142Y-122484047D01*
%TO.C,D34*%
X122152380Y-163214285D02*
X121152380Y-163214285D01*
X121152380Y-162976190D01*
X121200000Y-162833333D01*
X121295238Y-162738095D01*
X121390476Y-162690476D01*
X121580952Y-162642857D01*
X121723809Y-162642857D01*
X121914285Y-162690476D01*
X122009523Y-162738095D01*
X122104761Y-162833333D01*
X122152380Y-162976190D01*
X122152380Y-163214285D01*
X121152380Y-162309523D02*
X121152380Y-161690476D01*
X121533333Y-162023809D01*
X121533333Y-161880952D01*
X121580952Y-161785714D01*
X121628571Y-161738095D01*
X121723809Y-161690476D01*
X121961904Y-161690476D01*
X122057142Y-161738095D01*
X122104761Y-161785714D01*
X122152380Y-161880952D01*
X122152380Y-162166666D01*
X122104761Y-162261904D01*
X122057142Y-162309523D01*
X121485714Y-160833333D02*
X122152380Y-160833333D01*
X121104761Y-161071428D02*
X121819047Y-161309523D01*
X121819047Y-160690476D01*
%TO.C,D28*%
X109152380Y-175214285D02*
X108152380Y-175214285D01*
X108152380Y-174976190D01*
X108200000Y-174833333D01*
X108295238Y-174738095D01*
X108390476Y-174690476D01*
X108580952Y-174642857D01*
X108723809Y-174642857D01*
X108914285Y-174690476D01*
X109009523Y-174738095D01*
X109104761Y-174833333D01*
X109152380Y-174976190D01*
X109152380Y-175214285D01*
X108247619Y-174261904D02*
X108200000Y-174214285D01*
X108152380Y-174119047D01*
X108152380Y-173880952D01*
X108200000Y-173785714D01*
X108247619Y-173738095D01*
X108342857Y-173690476D01*
X108438095Y-173690476D01*
X108580952Y-173738095D01*
X109152380Y-174309523D01*
X109152380Y-173690476D01*
X108580952Y-173119047D02*
X108533333Y-173214285D01*
X108485714Y-173261904D01*
X108390476Y-173309523D01*
X108342857Y-173309523D01*
X108247619Y-173261904D01*
X108200000Y-173214285D01*
X108152380Y-173119047D01*
X108152380Y-172928571D01*
X108200000Y-172833333D01*
X108247619Y-172785714D01*
X108342857Y-172738095D01*
X108390476Y-172738095D01*
X108485714Y-172785714D01*
X108533333Y-172833333D01*
X108580952Y-172928571D01*
X108580952Y-173119047D01*
X108628571Y-173214285D01*
X108676190Y-173261904D01*
X108771428Y-173309523D01*
X108961904Y-173309523D01*
X109057142Y-173261904D01*
X109104761Y-173214285D01*
X109152380Y-173119047D01*
X109152380Y-172928571D01*
X109104761Y-172833333D01*
X109057142Y-172785714D01*
X108961904Y-172738095D01*
X108771428Y-172738095D01*
X108676190Y-172785714D01*
X108628571Y-172833333D01*
X108580952Y-172928571D01*
%TO.C,D14*%
X83152380Y-175214285D02*
X82152380Y-175214285D01*
X82152380Y-174976190D01*
X82200000Y-174833333D01*
X82295238Y-174738095D01*
X82390476Y-174690476D01*
X82580952Y-174642857D01*
X82723809Y-174642857D01*
X82914285Y-174690476D01*
X83009523Y-174738095D01*
X83104761Y-174833333D01*
X83152380Y-174976190D01*
X83152380Y-175214285D01*
X83152380Y-173690476D02*
X83152380Y-174261904D01*
X83152380Y-173976190D02*
X82152380Y-173976190D01*
X82295238Y-174071428D01*
X82390476Y-174166666D01*
X82438095Y-174261904D01*
X82485714Y-172833333D02*
X83152380Y-172833333D01*
X82104761Y-173071428D02*
X82819047Y-173309523D01*
X82819047Y-172690476D01*
%TO.C,SW10*%
X76365476Y-122769761D02*
X76508333Y-122817380D01*
X76746428Y-122817380D01*
X76841666Y-122769761D01*
X76889285Y-122722142D01*
X76936904Y-122626904D01*
X76936904Y-122531666D01*
X76889285Y-122436428D01*
X76841666Y-122388809D01*
X76746428Y-122341190D01*
X76555952Y-122293571D01*
X76460714Y-122245952D01*
X76413095Y-122198333D01*
X76365476Y-122103095D01*
X76365476Y-122007857D01*
X76413095Y-121912619D01*
X76460714Y-121865000D01*
X76555952Y-121817380D01*
X76794047Y-121817380D01*
X76936904Y-121865000D01*
X77270238Y-121817380D02*
X77508333Y-122817380D01*
X77698809Y-122103095D01*
X77889285Y-122817380D01*
X78127380Y-121817380D01*
X79032142Y-122817380D02*
X78460714Y-122817380D01*
X78746428Y-122817380D02*
X78746428Y-121817380D01*
X78651190Y-121960238D01*
X78555952Y-122055476D01*
X78460714Y-122103095D01*
X79651190Y-121817380D02*
X79746428Y-121817380D01*
X79841666Y-121865000D01*
X79889285Y-121912619D01*
X79936904Y-122007857D01*
X79984523Y-122198333D01*
X79984523Y-122436428D01*
X79936904Y-122626904D01*
X79889285Y-122722142D01*
X79841666Y-122769761D01*
X79746428Y-122817380D01*
X79651190Y-122817380D01*
X79555952Y-122769761D01*
X79508333Y-122722142D01*
X79460714Y-122626904D01*
X79413095Y-122436428D01*
X79413095Y-122198333D01*
X79460714Y-122007857D01*
X79508333Y-121912619D01*
X79555952Y-121865000D01*
X79651190Y-121817380D01*
%TO.C,SW26*%
X102365476Y-146769761D02*
X102508333Y-146817380D01*
X102746428Y-146817380D01*
X102841666Y-146769761D01*
X102889285Y-146722142D01*
X102936904Y-146626904D01*
X102936904Y-146531666D01*
X102889285Y-146436428D01*
X102841666Y-146388809D01*
X102746428Y-146341190D01*
X102555952Y-146293571D01*
X102460714Y-146245952D01*
X102413095Y-146198333D01*
X102365476Y-146103095D01*
X102365476Y-146007857D01*
X102413095Y-145912619D01*
X102460714Y-145865000D01*
X102555952Y-145817380D01*
X102794047Y-145817380D01*
X102936904Y-145865000D01*
X103270238Y-145817380D02*
X103508333Y-146817380D01*
X103698809Y-146103095D01*
X103889285Y-146817380D01*
X104127380Y-145817380D01*
X104460714Y-145912619D02*
X104508333Y-145865000D01*
X104603571Y-145817380D01*
X104841666Y-145817380D01*
X104936904Y-145865000D01*
X104984523Y-145912619D01*
X105032142Y-146007857D01*
X105032142Y-146103095D01*
X104984523Y-146245952D01*
X104413095Y-146817380D01*
X105032142Y-146817380D01*
X105889285Y-145817380D02*
X105698809Y-145817380D01*
X105603571Y-145865000D01*
X105555952Y-145912619D01*
X105460714Y-146055476D01*
X105413095Y-146245952D01*
X105413095Y-146626904D01*
X105460714Y-146722142D01*
X105508333Y-146769761D01*
X105603571Y-146817380D01*
X105794047Y-146817380D01*
X105889285Y-146769761D01*
X105936904Y-146722142D01*
X105984523Y-146626904D01*
X105984523Y-146388809D01*
X105936904Y-146293571D01*
X105889285Y-146245952D01*
X105794047Y-146198333D01*
X105603571Y-146198333D01*
X105508333Y-146245952D01*
X105460714Y-146293571D01*
X105413095Y-146388809D01*
%TO.C,D33*%
X122152380Y-151214285D02*
X121152380Y-151214285D01*
X121152380Y-150976190D01*
X121200000Y-150833333D01*
X121295238Y-150738095D01*
X121390476Y-150690476D01*
X121580952Y-150642857D01*
X121723809Y-150642857D01*
X121914285Y-150690476D01*
X122009523Y-150738095D01*
X122104761Y-150833333D01*
X122152380Y-150976190D01*
X122152380Y-151214285D01*
X121152380Y-150309523D02*
X121152380Y-149690476D01*
X121533333Y-150023809D01*
X121533333Y-149880952D01*
X121580952Y-149785714D01*
X121628571Y-149738095D01*
X121723809Y-149690476D01*
X121961904Y-149690476D01*
X122057142Y-149738095D01*
X122104761Y-149785714D01*
X122152380Y-149880952D01*
X122152380Y-150166666D01*
X122104761Y-150261904D01*
X122057142Y-150309523D01*
X121152380Y-149357142D02*
X121152380Y-148738095D01*
X121533333Y-149071428D01*
X121533333Y-148928571D01*
X121580952Y-148833333D01*
X121628571Y-148785714D01*
X121723809Y-148738095D01*
X121961904Y-148738095D01*
X122057142Y-148785714D01*
X122104761Y-148833333D01*
X122152380Y-148928571D01*
X122152380Y-149214285D01*
X122104761Y-149309523D01*
X122057142Y-149357142D01*
D11*
%TO.C,U1*%
X51330000Y-36820000D02*
X132610000Y-36820000D01*
X132610000Y-36820000D02*
X132610000Y-87620000D01*
X132610000Y-87620000D02*
X51330000Y-87620000D01*
X51330000Y-87620000D02*
X51330000Y-36820000D01*
D12*
%TO.C,Q2*%
X78452600Y-26564600D02*
X79111400Y-26564600D01*
X81297400Y-26564600D02*
X81297400Y-27377400D01*
X80638600Y-26564600D02*
X81297400Y-26564600D01*
X78452600Y-27377400D02*
X78452600Y-26564600D01*
D11*
%TO.C,CN1*%
X104450000Y-29925000D02*
X104450000Y-28915000D01*
X104450000Y-28915000D02*
X109530000Y-28915000D01*
X103100000Y-23975000D02*
X110900000Y-23975000D01*
X110900000Y-30025000D02*
X103100000Y-30025000D01*
X110900000Y-23975000D02*
X110900000Y-30025000D01*
X103100000Y-30025000D02*
X103100000Y-23975000D01*
X109530000Y-28915000D02*
X109530000Y-29925000D01*
D13*
%TO.C,SW9*%
X74850000Y-112125000D02*
G75*
G03*
X74850000Y-112125000I-100000J0D01*
G01*
D14*
X76450000Y-112820000D02*
X76450000Y-115180000D01*
X81250000Y-111450000D02*
X76750000Y-111450000D01*
X81250000Y-116550000D02*
X76750000Y-116550000D01*
X81550000Y-115180000D02*
X81550000Y-112820000D01*
D13*
%TO.C,SW25*%
X100850000Y-136125000D02*
G75*
G03*
X100850000Y-136125000I-100000J0D01*
G01*
D14*
X107250000Y-135450000D02*
X102750000Y-135450000D01*
X102450000Y-136820000D02*
X102450000Y-139180000D01*
X107550000Y-139180000D02*
X107550000Y-136820000D01*
X107250000Y-140550000D02*
X102750000Y-140550000D01*
D13*
%TO.C,SW2*%
X61850000Y-112125000D02*
G75*
G03*
X61850000Y-112125000I-100000J0D01*
G01*
D14*
X68550000Y-115180000D02*
X68550000Y-112820000D01*
X68250000Y-116550000D02*
X63750000Y-116550000D01*
X63450000Y-112820000D02*
X63450000Y-115180000D01*
X68250000Y-111450000D02*
X63750000Y-111450000D01*
D13*
%TO.C,SW27*%
X100850000Y-160125000D02*
G75*
G03*
X100850000Y-160125000I-100000J0D01*
G01*
D14*
X102450000Y-160820000D02*
X102450000Y-163180000D01*
X107250000Y-159450000D02*
X102750000Y-159450000D01*
X107250000Y-164550000D02*
X102750000Y-164550000D01*
X107550000Y-163180000D02*
X107550000Y-160820000D01*
D13*
%TO.C,SW6*%
X61850000Y-160125000D02*
G75*
G03*
X61850000Y-160125000I-100000J0D01*
G01*
D14*
X68250000Y-164550000D02*
X63750000Y-164550000D01*
X68250000Y-159450000D02*
X63750000Y-159450000D01*
X68550000Y-163180000D02*
X68550000Y-160820000D01*
X63450000Y-160820000D02*
X63450000Y-163180000D01*
D11*
%TO.C,D6*%
X71600000Y-161300000D02*
X71600000Y-163150000D01*
X70400000Y-163150000D02*
X71600000Y-163150000D01*
X70400000Y-161300000D02*
X70400000Y-163150000D01*
D13*
%TO.C,SW13*%
X74850000Y-160125000D02*
G75*
G03*
X74850000Y-160125000I-100000J0D01*
G01*
D14*
X81550000Y-163180000D02*
X81550000Y-160820000D01*
X81250000Y-164550000D02*
X76750000Y-164550000D01*
X81250000Y-159450000D02*
X76750000Y-159450000D01*
X76450000Y-160820000D02*
X76450000Y-163180000D01*
D11*
%TO.C,D32*%
X122400000Y-139150000D02*
X123600000Y-139150000D01*
X123600000Y-137300000D02*
X123600000Y-139150000D01*
X122400000Y-137300000D02*
X122400000Y-139150000D01*
%TO.C,D11*%
X83400000Y-139150000D02*
X84600000Y-139150000D01*
X83400000Y-137300000D02*
X83400000Y-139150000D01*
X84600000Y-137300000D02*
X84600000Y-139150000D01*
%TO.C,D7*%
X71600000Y-173300000D02*
X71600000Y-175150000D01*
X70400000Y-173300000D02*
X70400000Y-175150000D01*
X70400000Y-175150000D02*
X71600000Y-175150000D01*
%TO.C,D27*%
X109400000Y-163150000D02*
X110600000Y-163150000D01*
X109400000Y-161300000D02*
X109400000Y-163150000D01*
X110600000Y-161300000D02*
X110600000Y-163150000D01*
%TO.C,R2*%
X71580000Y-31646359D02*
X71580000Y-31953641D01*
X70820000Y-31646359D02*
X70820000Y-31953641D01*
%TO.C,D5*%
X71600000Y-149300000D02*
X71600000Y-151150000D01*
X70400000Y-151150000D02*
X71600000Y-151150000D01*
X70400000Y-149300000D02*
X70400000Y-151150000D01*
%TO.C,R1*%
X96620000Y-117863641D02*
X96620000Y-117556359D01*
X97380000Y-117863641D02*
X97380000Y-117556359D01*
%TO.C,D29*%
X123600000Y-101425000D02*
X123600000Y-103275000D01*
X122400000Y-103275000D02*
X123600000Y-103275000D01*
X122400000Y-101425000D02*
X122400000Y-103275000D01*
%TO.C,D25*%
X109400000Y-139150000D02*
X110600000Y-139150000D01*
X110600000Y-137300000D02*
X110600000Y-139150000D01*
X109400000Y-137300000D02*
X109400000Y-139150000D01*
D13*
%TO.C,SW14*%
X74850000Y-172125000D02*
G75*
G03*
X74850000Y-172125000I-100000J0D01*
G01*
D14*
X81250000Y-176550000D02*
X76750000Y-176550000D01*
X81250000Y-171450000D02*
X76750000Y-171450000D01*
X81550000Y-175180000D02*
X81550000Y-172820000D01*
X76450000Y-172820000D02*
X76450000Y-175180000D01*
D13*
%TO.C,SW20*%
X87850000Y-160125000D02*
G75*
G03*
X87850000Y-160125000I-100000J0D01*
G01*
D14*
X94550000Y-163180000D02*
X94550000Y-160820000D01*
X94250000Y-159450000D02*
X89750000Y-159450000D01*
X89450000Y-160820000D02*
X89450000Y-163180000D01*
X94250000Y-164550000D02*
X89750000Y-164550000D01*
D11*
%TO.C,D4*%
X71600000Y-137300000D02*
X71600000Y-139150000D01*
X70400000Y-137300000D02*
X70400000Y-139150000D01*
X70400000Y-139150000D02*
X71600000Y-139150000D01*
D13*
%TO.C,SW33*%
X113850000Y-148125000D02*
G75*
G03*
X113850000Y-148125000I-100000J0D01*
G01*
D14*
X120250000Y-152550000D02*
X115750000Y-152550000D01*
X120250000Y-147450000D02*
X115750000Y-147450000D01*
X120550000Y-151180000D02*
X120550000Y-148820000D01*
X115450000Y-148820000D02*
X115450000Y-151180000D01*
D11*
%TO.C,D22*%
X109400000Y-103275000D02*
X110600000Y-103275000D01*
X109400000Y-101425000D02*
X109400000Y-103275000D01*
X110600000Y-101425000D02*
X110600000Y-103275000D01*
%TO.C,D21*%
X96400000Y-175150000D02*
X97600000Y-175150000D01*
X97600000Y-173300000D02*
X97600000Y-175150000D01*
X96400000Y-173300000D02*
X96400000Y-175150000D01*
%TO.C,D18*%
X96400000Y-137300000D02*
X96400000Y-139150000D01*
X97600000Y-137300000D02*
X97600000Y-139150000D01*
X96400000Y-139150000D02*
X97600000Y-139150000D01*
%TO.C,D35*%
X123600000Y-173300000D02*
X123600000Y-175150000D01*
X122400000Y-175150000D02*
X123600000Y-175150000D01*
X122400000Y-173300000D02*
X122400000Y-175150000D01*
%TO.C,D19*%
X97600000Y-149300000D02*
X97600000Y-151150000D01*
X96400000Y-151150000D02*
X97600000Y-151150000D01*
X96400000Y-149300000D02*
X96400000Y-151150000D01*
%TO.C,D3*%
X71600000Y-125300000D02*
X71600000Y-127150000D01*
X70400000Y-125300000D02*
X70400000Y-127150000D01*
X70400000Y-127150000D02*
X71600000Y-127150000D01*
%TO.C,D26*%
X109400000Y-151150000D02*
X110600000Y-151150000D01*
X110600000Y-149300000D02*
X110600000Y-151150000D01*
X109400000Y-149300000D02*
X109400000Y-151150000D01*
D13*
%TO.C,SW22*%
X100850000Y-100250000D02*
G75*
G03*
X100850000Y-100250000I-100000J0D01*
G01*
D14*
X107250000Y-99575000D02*
X102750000Y-99575000D01*
X102450000Y-100945000D02*
X102450000Y-103305000D01*
X107550000Y-103305000D02*
X107550000Y-100945000D01*
X107250000Y-104675000D02*
X102750000Y-104675000D01*
D13*
%TO.C,SW5*%
X61850000Y-148125000D02*
G75*
G03*
X61850000Y-148125000I-100000J0D01*
G01*
D14*
X68550000Y-151180000D02*
X68550000Y-148820000D01*
X68250000Y-147450000D02*
X63750000Y-147450000D01*
X68250000Y-152550000D02*
X63750000Y-152550000D01*
X63450000Y-148820000D02*
X63450000Y-151180000D01*
D11*
%TO.C,D30*%
X122400000Y-115150000D02*
X123600000Y-115150000D01*
X123600000Y-113300000D02*
X123600000Y-115150000D01*
X122400000Y-113300000D02*
X122400000Y-115150000D01*
%TO.C,D2*%
X70400000Y-113300000D02*
X70400000Y-115150000D01*
X70400000Y-115150000D02*
X71600000Y-115150000D01*
X71600000Y-113300000D02*
X71600000Y-115150000D01*
%TO.C,D13*%
X84600000Y-161300000D02*
X84600000Y-163150000D01*
X83400000Y-163150000D02*
X84600000Y-163150000D01*
X83400000Y-161300000D02*
X83400000Y-163150000D01*
D13*
%TO.C,SW32*%
X113850000Y-136125000D02*
G75*
G03*
X113850000Y-136125000I-100000J0D01*
G01*
D14*
X120250000Y-140550000D02*
X115750000Y-140550000D01*
X120550000Y-139180000D02*
X120550000Y-136820000D01*
X115450000Y-136820000D02*
X115450000Y-139180000D01*
X120250000Y-135450000D02*
X115750000Y-135450000D01*
D13*
%TO.C,SW12*%
X74850000Y-148125000D02*
G75*
G03*
X74850000Y-148125000I-100000J0D01*
G01*
D14*
X81550000Y-151180000D02*
X81550000Y-148820000D01*
X81250000Y-147450000D02*
X76750000Y-147450000D01*
X76450000Y-148820000D02*
X76450000Y-151180000D01*
X81250000Y-152550000D02*
X76750000Y-152550000D01*
D13*
%TO.C,SW15*%
X87850000Y-100125000D02*
G75*
G03*
X87850000Y-100125000I-100000J0D01*
G01*
D14*
X94250000Y-99450000D02*
X89750000Y-99450000D01*
X94550000Y-103180000D02*
X94550000Y-100820000D01*
X89450000Y-100820000D02*
X89450000Y-103180000D01*
X94250000Y-104550000D02*
X89750000Y-104550000D01*
D11*
%TO.C,D20*%
X96400000Y-161300000D02*
X96400000Y-163150000D01*
X96400000Y-163150000D02*
X97600000Y-163150000D01*
X97600000Y-161300000D02*
X97600000Y-163150000D01*
D13*
%TO.C,SW16*%
X87850000Y-112125000D02*
G75*
G03*
X87850000Y-112125000I-100000J0D01*
G01*
D14*
X94250000Y-116550000D02*
X89750000Y-116550000D01*
X89450000Y-112820000D02*
X89450000Y-115180000D01*
X94250000Y-111450000D02*
X89750000Y-111450000D01*
X94550000Y-115180000D02*
X94550000Y-112820000D01*
D11*
%TO.C,D10*%
X83400000Y-125300000D02*
X83400000Y-127150000D01*
X83400000Y-127150000D02*
X84600000Y-127150000D01*
X84600000Y-125300000D02*
X84600000Y-127150000D01*
D13*
%TO.C,SW11*%
X74850000Y-136125000D02*
G75*
G03*
X74850000Y-136125000I-100000J0D01*
G01*
D14*
X81250000Y-135450000D02*
X76750000Y-135450000D01*
X81550000Y-139180000D02*
X81550000Y-136820000D01*
X76450000Y-136820000D02*
X76450000Y-139180000D01*
X81250000Y-140550000D02*
X76750000Y-140550000D01*
D11*
%TO.C,D1*%
X70400000Y-101300000D02*
X70400000Y-103150000D01*
X71600000Y-101300000D02*
X71600000Y-103150000D01*
X70400000Y-103150000D02*
X71600000Y-103150000D01*
D13*
%TO.C,SW21*%
X87850000Y-172125000D02*
G75*
G03*
X87850000Y-172125000I-100000J0D01*
G01*
D14*
X94250000Y-171450000D02*
X89750000Y-171450000D01*
X94550000Y-175180000D02*
X94550000Y-172820000D01*
X89450000Y-172820000D02*
X89450000Y-175180000D01*
X94250000Y-176550000D02*
X89750000Y-176550000D01*
D11*
%TO.C,D31*%
X122400000Y-125300000D02*
X122400000Y-127150000D01*
X123600000Y-125300000D02*
X123600000Y-127150000D01*
X122400000Y-127150000D02*
X123600000Y-127150000D01*
%TO.C,Q1*%
X72960000Y-27880000D02*
X72960000Y-26470000D01*
X70640000Y-26470000D02*
X70640000Y-28500000D01*
X72300000Y-26470000D02*
X72960000Y-26470000D01*
X70640000Y-26470000D02*
X71300000Y-26470000D01*
D13*
%TO.C,SW31*%
X113850000Y-124125000D02*
G75*
G03*
X113850000Y-124125000I-100000J0D01*
G01*
D14*
X120250000Y-128550000D02*
X115750000Y-128550000D01*
X120550000Y-127180000D02*
X120550000Y-124820000D01*
X120250000Y-123450000D02*
X115750000Y-123450000D01*
X115450000Y-124820000D02*
X115450000Y-127180000D01*
D11*
%TO.C,D15*%
X96400000Y-103150000D02*
X97600000Y-103150000D01*
X97600000Y-101300000D02*
X97600000Y-103150000D01*
X96400000Y-101300000D02*
X96400000Y-103150000D01*
D13*
%TO.C,SW29*%
X113850000Y-100250000D02*
G75*
G03*
X113850000Y-100250000I-100000J0D01*
G01*
D14*
X120250000Y-104675000D02*
X115750000Y-104675000D01*
X115450000Y-100945000D02*
X115450000Y-103305000D01*
X120550000Y-103305000D02*
X120550000Y-100945000D01*
X120250000Y-99575000D02*
X115750000Y-99575000D01*
D13*
%TO.C,SW4*%
X61850000Y-136125000D02*
G75*
G03*
X61850000Y-136125000I-100000J0D01*
G01*
D14*
X68250000Y-140550000D02*
X63750000Y-140550000D01*
X68550000Y-139180000D02*
X68550000Y-136820000D01*
X63450000Y-136820000D02*
X63450000Y-139180000D01*
X68250000Y-135450000D02*
X63750000Y-135450000D01*
D13*
%TO.C,SW34*%
X113850000Y-160125000D02*
G75*
G03*
X113850000Y-160125000I-100000J0D01*
G01*
D14*
X120550000Y-163180000D02*
X120550000Y-160820000D01*
X120250000Y-164550000D02*
X115750000Y-164550000D01*
X120250000Y-159450000D02*
X115750000Y-159450000D01*
X115450000Y-160820000D02*
X115450000Y-163180000D01*
D11*
%TO.C,D16*%
X96400000Y-115150000D02*
X97600000Y-115150000D01*
X96400000Y-113300000D02*
X96400000Y-115150000D01*
X97600000Y-113300000D02*
X97600000Y-115150000D01*
%TO.C,D9*%
X84600000Y-113300000D02*
X84600000Y-115150000D01*
X83400000Y-113300000D02*
X83400000Y-115150000D01*
X83400000Y-115150000D02*
X84600000Y-115150000D01*
%TO.C,D12*%
X84600000Y-149300000D02*
X84600000Y-151150000D01*
X83400000Y-149300000D02*
X83400000Y-151150000D01*
X83400000Y-151150000D02*
X84600000Y-151150000D01*
D13*
%TO.C,SW3*%
X61850000Y-124125000D02*
G75*
G03*
X61850000Y-124125000I-100000J0D01*
G01*
D14*
X68250000Y-128550000D02*
X63750000Y-128550000D01*
X68550000Y-127180000D02*
X68550000Y-124820000D01*
X68250000Y-123450000D02*
X63750000Y-123450000D01*
X63450000Y-124820000D02*
X63450000Y-127180000D01*
D13*
%TO.C,SW19*%
X87850000Y-148125000D02*
G75*
G03*
X87850000Y-148125000I-100000J0D01*
G01*
D14*
X89450000Y-148820000D02*
X89450000Y-151180000D01*
X94250000Y-152550000D02*
X89750000Y-152550000D01*
X94550000Y-151180000D02*
X94550000Y-148820000D01*
X94250000Y-147450000D02*
X89750000Y-147450000D01*
D13*
%TO.C,SW35*%
X113850000Y-172125000D02*
G75*
G03*
X113850000Y-172125000I-100000J0D01*
G01*
D14*
X120250000Y-171450000D02*
X115750000Y-171450000D01*
X120250000Y-176550000D02*
X115750000Y-176550000D01*
X115450000Y-172820000D02*
X115450000Y-175180000D01*
X120550000Y-175180000D02*
X120550000Y-172820000D01*
D13*
%TO.C,SW7*%
X61850000Y-172125000D02*
G75*
G03*
X61850000Y-172125000I-100000J0D01*
G01*
D14*
X68550000Y-175180000D02*
X68550000Y-172820000D01*
X63450000Y-172820000D02*
X63450000Y-175180000D01*
X68250000Y-176550000D02*
X63750000Y-176550000D01*
X68250000Y-171450000D02*
X63750000Y-171450000D01*
D13*
%TO.C,SW1*%
X61850000Y-100125000D02*
G75*
G03*
X61850000Y-100125000I-100000J0D01*
G01*
D14*
X68250000Y-104550000D02*
X63750000Y-104550000D01*
X68250000Y-99450000D02*
X63750000Y-99450000D01*
X68550000Y-103180000D02*
X68550000Y-100820000D01*
X63450000Y-100820000D02*
X63450000Y-103180000D01*
D11*
%TO.C,D8*%
X84660000Y-101280000D02*
X84660000Y-103130000D01*
X83460000Y-101280000D02*
X83460000Y-103130000D01*
X83460000Y-103130000D02*
X84660000Y-103130000D01*
D13*
%TO.C,SW8*%
X74910000Y-100105000D02*
G75*
G03*
X74910000Y-100105000I-100000J0D01*
G01*
D14*
X81310000Y-99430000D02*
X76810000Y-99430000D01*
X76510000Y-100800000D02*
X76510000Y-103160000D01*
X81610000Y-103160000D02*
X81610000Y-100800000D01*
X81310000Y-104530000D02*
X76810000Y-104530000D01*
D13*
%TO.C,SW28*%
X100850000Y-172125000D02*
G75*
G03*
X100850000Y-172125000I-100000J0D01*
G01*
D14*
X102450000Y-172820000D02*
X102450000Y-175180000D01*
X107250000Y-171450000D02*
X102750000Y-171450000D01*
X107550000Y-175180000D02*
X107550000Y-172820000D01*
X107250000Y-176550000D02*
X102750000Y-176550000D01*
D13*
%TO.C,SW23*%
X100850000Y-112125000D02*
G75*
G03*
X100850000Y-112125000I-100000J0D01*
G01*
D14*
X107250000Y-116550000D02*
X102750000Y-116550000D01*
X107550000Y-115180000D02*
X107550000Y-112820000D01*
X107250000Y-111450000D02*
X102750000Y-111450000D01*
X102450000Y-112820000D02*
X102450000Y-115180000D01*
D13*
%TO.C,SW17*%
X87850000Y-124125000D02*
G75*
G03*
X87850000Y-124125000I-100000J0D01*
G01*
D14*
X94550000Y-127180000D02*
X94550000Y-124820000D01*
X94250000Y-128550000D02*
X89750000Y-128550000D01*
X89450000Y-124820000D02*
X89450000Y-127180000D01*
X94250000Y-123450000D02*
X89750000Y-123450000D01*
D11*
%TO.C,D24*%
X110600000Y-125300000D02*
X110600000Y-127150000D01*
X109400000Y-125300000D02*
X109400000Y-127150000D01*
X109400000Y-127150000D02*
X110600000Y-127150000D01*
%TO.C,D17*%
X96400000Y-127150000D02*
X97600000Y-127150000D01*
X97600000Y-125300000D02*
X97600000Y-127150000D01*
X96400000Y-125300000D02*
X96400000Y-127150000D01*
%TO.C,D23*%
X109400000Y-113300000D02*
X109400000Y-115150000D01*
X110600000Y-113300000D02*
X110600000Y-115150000D01*
X109400000Y-115150000D02*
X110600000Y-115150000D01*
D13*
%TO.C,SW18*%
X87850000Y-136125000D02*
G75*
G03*
X87850000Y-136125000I-100000J0D01*
G01*
D14*
X89450000Y-136820000D02*
X89450000Y-139180000D01*
X94550000Y-139180000D02*
X94550000Y-136820000D01*
X94250000Y-140550000D02*
X89750000Y-140550000D01*
X94250000Y-135450000D02*
X89750000Y-135450000D01*
D13*
%TO.C,SW30*%
X113850000Y-112125000D02*
G75*
G03*
X113850000Y-112125000I-100000J0D01*
G01*
D14*
X120250000Y-111450000D02*
X115750000Y-111450000D01*
X120550000Y-115180000D02*
X120550000Y-112820000D01*
X115450000Y-112820000D02*
X115450000Y-115180000D01*
X120250000Y-116550000D02*
X115750000Y-116550000D01*
D13*
%TO.C,SW24*%
X100850000Y-124125000D02*
G75*
G03*
X100850000Y-124125000I-100000J0D01*
G01*
D14*
X107550000Y-127180000D02*
X107550000Y-124820000D01*
X107250000Y-123450000D02*
X102750000Y-123450000D01*
X107250000Y-128550000D02*
X102750000Y-128550000D01*
X102450000Y-124820000D02*
X102450000Y-127180000D01*
D11*
%TO.C,D34*%
X123600000Y-161300000D02*
X123600000Y-163150000D01*
X122400000Y-163150000D02*
X123600000Y-163150000D01*
X122400000Y-161300000D02*
X122400000Y-163150000D01*
%TO.C,D28*%
X110600000Y-173300000D02*
X110600000Y-175150000D01*
X109400000Y-173300000D02*
X109400000Y-175150000D01*
X109400000Y-175150000D02*
X110600000Y-175150000D01*
%TO.C,D14*%
X84600000Y-173300000D02*
X84600000Y-175150000D01*
X83400000Y-175150000D02*
X84600000Y-175150000D01*
X83400000Y-173300000D02*
X83400000Y-175150000D01*
D13*
%TO.C,SW10*%
X74850000Y-124125000D02*
G75*
G03*
X74850000Y-124125000I-100000J0D01*
G01*
D14*
X81250000Y-123450000D02*
X76750000Y-123450000D01*
X81550000Y-127180000D02*
X81550000Y-124820000D01*
X76450000Y-124820000D02*
X76450000Y-127180000D01*
X81250000Y-128550000D02*
X76750000Y-128550000D01*
D13*
%TO.C,SW26*%
X100850000Y-148125000D02*
G75*
G03*
X100850000Y-148125000I-100000J0D01*
G01*
D14*
X102450000Y-148820000D02*
X102450000Y-151180000D01*
X107250000Y-152550000D02*
X102750000Y-152550000D01*
X107550000Y-151180000D02*
X107550000Y-148820000D01*
X107250000Y-147450000D02*
X102750000Y-147450000D01*
D11*
%TO.C,D33*%
X122400000Y-151150000D02*
X123600000Y-151150000D01*
X122400000Y-149300000D02*
X122400000Y-151150000D01*
X123600000Y-149300000D02*
X123600000Y-151150000D01*
%TD*%
M02*
