M48
; DRILL file {KiCad (6.0.7)} date Sun Oct  2 21:12:32 2022
; FORMAT={-:-/ absolute / inch / decimal}
; #@! TF.CreationDate,2022-10-02T21:12:32-04:00
; #@! TF.GenerationSoftware,Kicad,Pcbnew,(6.0.7)
; #@! TF.FileFunction,Plated,1,2,PTH
FMAT,2
INCH
; #@! TA.AperFunction,Plated,PTH,ViaDrill
T1C0.0157
; #@! TA.AperFunction,Plated,PTH,ComponentDrill
T2C0.0197
; #@! TA.AperFunction,Plated,PTH,ComponentDrill
T3C0.0300
; #@! TA.AperFunction,Plated,PTH,ComponentDrill
T4C0.0402
; #@! TA.AperFunction,Plated,PTH,ComponentDrill
T5C0.1260
%
G90
G05
T1
X2.7559Y-1.2598
X2.7953Y-4.0945
X2.7953Y-4.5669
X2.7953Y-5.0394
X2.7953Y-5.5118
X2.7953Y-5.9843
X2.7953Y-6.4567
X2.7953Y-6.9291
X3.1811Y-1.2047
X3.3071Y-4.0945
X3.3071Y-4.5669
X3.3071Y-5.0394
X3.3071Y-5.5118
X3.3071Y-5.9843
X3.3071Y-6.4567
X3.3071Y-6.9291
X3.8189Y-4.0945
X3.8189Y-4.7244
X3.8189Y-5.0394
X3.8189Y-5.5118
X3.8189Y-5.9843
X3.8189Y-6.4567
X3.8189Y-6.9291
X3.8425Y-3.9134
X3.8578Y-3.7397
X3.874Y-3.9921
X3.8976Y-3.7402
X3.9449Y-2.8346
X3.9449Y-2.8819
X3.9895Y-3.769
X3.9923Y-3.7298
X4.2047Y-2.7402
X4.2047Y-2.811
X4.3307Y-4.0945
X4.3307Y-4.5669
X4.3307Y-5.0394
X4.3307Y-5.5118
X4.3307Y-5.9843
X4.3307Y-6.4567
X4.3307Y-6.9291
X4.8425Y-4.0945
X4.8425Y-4.5669
X4.8425Y-5.0394
X4.8425Y-5.5118
X4.8425Y-5.9843
X4.8425Y-6.4567
X4.8425Y-6.9291
T2
X2.1841Y-1.1073
X2.1841Y-7.1309
X2.2117Y-1.0405
X2.2117Y-1.1741
X2.2117Y-7.0641
X2.2117Y-7.1977
X2.2785Y-1.0128
X2.2785Y-1.2018
X2.2785Y-7.0364
X2.2785Y-7.2254
X2.3454Y-1.0405
X2.3454Y-1.1741
X2.3454Y-7.0641
X2.3454Y-7.1977
X2.373Y-1.1073
X2.373Y-7.1309
X4.8612Y-1.1073
X4.8612Y-7.1309
X4.8889Y-1.0405
X4.8889Y-1.1741
X4.8889Y-7.0641
X4.8889Y-7.1977
X4.9557Y-1.0128
X4.9557Y-1.2018
X4.9557Y-7.0364
X4.9557Y-7.2254
X5.0225Y-1.0405
X5.0225Y-1.1741
X5.0225Y-7.0641
X5.0225Y-7.1977
X5.0502Y-1.1073
X5.0502Y-7.1309
T3
X2.1209Y-1.4996
X2.1209Y-1.5996
X2.1209Y-1.6996
X2.1209Y-1.7996
X2.1209Y-1.8996
X2.1209Y-1.9996
X2.1209Y-2.0996
X2.1209Y-2.1996
X2.1209Y-2.2996
X2.1209Y-2.3996
X2.1209Y-2.4996
X2.1209Y-2.5996
X2.1209Y-2.6996
X2.1209Y-2.7996
X2.1209Y-2.8996
X2.1209Y-2.9996
X2.1209Y-3.0996
X2.1209Y-3.1996
X2.1209Y-3.2996
X2.1209Y-3.3996
X2.5835Y-1.5484
X2.5835Y-1.6484
X2.5835Y-1.7484
X2.5835Y-1.8484
X2.5835Y-1.9484
X2.5835Y-2.0484
X2.5835Y-2.1484
X2.5835Y-2.2484
X2.5835Y-2.3484
X2.5835Y-2.4484
X2.5835Y-2.5484
X2.5835Y-2.6484
X3.3835Y-1.1484
X3.3835Y-1.2484
X3.3835Y-1.3484
X3.3835Y-1.4484
X3.3835Y-1.5484
X3.3835Y-1.6484
X3.3835Y-1.7484
X3.3835Y-1.8484
X3.3835Y-1.9484
X3.3835Y-2.0484
X3.3835Y-2.1484
X3.3835Y-2.2484
X3.3835Y-2.3484
X3.3835Y-2.4484
X3.3835Y-2.5484
X3.3835Y-2.6484
X3.9589Y-1.451
X3.9589Y-1.551
X3.9589Y-1.651
X3.9589Y-1.751
X3.9589Y-1.851
X3.9589Y-1.951
X3.9589Y-2.051
X3.9589Y-2.151
X3.9589Y-2.251
X3.9589Y-2.351
X3.9589Y-2.451
X3.9589Y-2.551
X3.9589Y-2.651
X4.4589Y-1.451
X4.4589Y-1.551
X4.4589Y-1.651
X4.4589Y-1.751
X4.4589Y-1.851
X4.4589Y-1.951
X4.4589Y-2.051
X4.4589Y-2.151
X4.4589Y-2.251
X4.4589Y-2.351
X4.4589Y-2.451
X4.4589Y-2.551
X4.4589Y-2.651
X5.1209Y-1.4996
X5.1209Y-1.5996
X5.1209Y-1.6996
X5.1209Y-1.7996
X5.1209Y-1.8996
X5.1209Y-1.9996
X5.1209Y-2.0996
X5.1209Y-2.1996
X5.1209Y-2.2996
X5.1209Y-2.3996
X5.1209Y-2.4996
X5.1209Y-2.5996
X5.1209Y-2.6996
X5.1209Y-2.7996
X5.1209Y-2.8996
X5.1209Y-2.9996
X5.1209Y-3.0996
X5.1209Y-3.1996
X5.1209Y-3.2996
X5.1209Y-3.3996
T4
X4.1122Y-1.0482
X4.2122Y-1.0482
X4.3122Y-1.0482
T5
X2.2785Y-1.1073
X2.2785Y-7.1309
X4.9557Y-1.1073
X4.9557Y-7.1309
T0
M30
