%TF.GenerationSoftware,KiCad,Pcbnew,(6.0.7)*%
%TF.CreationDate,2022-10-02T21:12:28-04:00*%
%TF.ProjectId,Calculator,43616c63-756c-4617-946f-722e6b696361,rev?*%
%TF.SameCoordinates,Original*%
%TF.FileFunction,Soldermask,Top*%
%TF.FilePolarity,Negative*%
%FSLAX46Y46*%
G04 Gerber Fmt 4.6, Leading zero omitted, Abs format (unit mm)*
G04 Created by KiCad (PCBNEW (6.0.7)) date 2022-10-02 21:12:28*
%MOMM*%
%LPD*%
G01*
G04 APERTURE LIST*
G04 Aperture macros list*
%AMRoundRect*
0 Rectangle with rounded corners*
0 $1 Rounding radius*
0 $2 $3 $4 $5 $6 $7 $8 $9 X,Y pos of 4 corners*
0 Add a 4 corners polygon primitive as box body*
4,1,4,$2,$3,$4,$5,$6,$7,$8,$9,$2,$3,0*
0 Add four circle primitives for the rounded corners*
1,1,$1+$1,$2,$3*
1,1,$1+$1,$4,$5*
1,1,$1+$1,$6,$7*
1,1,$1+$1,$8,$9*
0 Add four rect primitives between the rounded corners*
20,1,$1+$1,$2,$3,$4,$5,0*
20,1,$1+$1,$4,$5,$6,$7,0*
20,1,$1+$1,$6,$7,$8,$9,0*
20,1,$1+$1,$8,$9,$2,$3,0*%
G04 Aperture macros list end*
%ADD10C,1.524000*%
%ADD11R,1.000000X1.400000*%
%ADD12R,1.730000X2.030000*%
%ADD13O,1.730000X2.030000*%
%ADD14R,1.000000X0.750000*%
%ADD15R,0.700000X0.600000*%
%ADD16RoundRect,0.135000X-0.185000X0.135000X-0.185000X-0.135000X0.185000X-0.135000X0.185000X0.135000X0*%
%ADD17RoundRect,0.135000X0.185000X-0.135000X0.185000X0.135000X-0.185000X0.135000X-0.185000X-0.135000X0*%
%ADD18C,0.800000*%
%ADD19C,6.400000*%
%ADD20R,0.450000X0.700000*%
G04 APERTURE END LIST*
D10*
%TO.C,U2*%
X85940000Y-67270000D03*
X85940000Y-64730000D03*
X85940000Y-62190000D03*
X85940000Y-59650000D03*
X85940000Y-57110000D03*
X85940000Y-54570000D03*
X85940000Y-52030000D03*
X85940000Y-49490000D03*
X85940000Y-46950000D03*
X85940000Y-44410000D03*
X85940000Y-41870000D03*
X85940000Y-39330000D03*
X85940000Y-36790000D03*
X85940000Y-34250000D03*
X85940000Y-31710000D03*
X85940000Y-29170000D03*
X65620000Y-67270000D03*
X65620000Y-64730000D03*
X65620000Y-62190000D03*
X65620000Y-59650000D03*
X65620000Y-57110000D03*
X65620000Y-54570000D03*
X65620000Y-52030000D03*
X65620000Y-49490000D03*
X65620000Y-46950000D03*
X65620000Y-44410000D03*
X65620000Y-41870000D03*
X65620000Y-39330000D03*
%TD*%
%TO.C,U1*%
X53870000Y-86350000D03*
X53870000Y-83810000D03*
X53870000Y-81270000D03*
X53870000Y-78730000D03*
X53870000Y-76190000D03*
X53870000Y-73650000D03*
X53870000Y-71110000D03*
X53870000Y-68570000D03*
X53870000Y-66030000D03*
X53870000Y-63490000D03*
X53870000Y-60950000D03*
X53870000Y-58410000D03*
X53870000Y-55870000D03*
X53870000Y-53330000D03*
X53870000Y-50790000D03*
X53870000Y-48250000D03*
X53870000Y-45710000D03*
X53870000Y-43170000D03*
X53870000Y-40630000D03*
X53870000Y-38090000D03*
X130070000Y-86350000D03*
X130070000Y-83810000D03*
X130070000Y-81270000D03*
X130070000Y-78730000D03*
X130070000Y-76190000D03*
X130070000Y-73650000D03*
X130070000Y-71110000D03*
X130070000Y-68570000D03*
X130070000Y-66030000D03*
X130070000Y-63490000D03*
X130070000Y-60950000D03*
X130070000Y-58410000D03*
X130070000Y-55870000D03*
X130070000Y-53330000D03*
X130070000Y-50790000D03*
X130070000Y-48250000D03*
X130070000Y-45710000D03*
X130070000Y-43170000D03*
X130070000Y-40630000D03*
X130070000Y-38090000D03*
%TD*%
D11*
%TO.C,Q2*%
X78925000Y-28325000D03*
X80825000Y-28325000D03*
X79875000Y-26125000D03*
%TD*%
D12*
%TO.C,CN1*%
X104450000Y-26625000D03*
D13*
X106990000Y-26625000D03*
X109530000Y-26625000D03*
%TD*%
D14*
%TO.C,SW9*%
X82000000Y-115875000D03*
X76000000Y-115875000D03*
X82000000Y-112125000D03*
X76000000Y-112125000D03*
%TD*%
%TO.C,SW25*%
X108000000Y-139875000D03*
X102000000Y-139875000D03*
X108000000Y-136125000D03*
X102000000Y-136125000D03*
%TD*%
%TO.C,SW2*%
X69000000Y-115875000D03*
X63000000Y-115875000D03*
X69000000Y-112125000D03*
X63000000Y-112125000D03*
%TD*%
%TO.C,SW27*%
X108000000Y-163875000D03*
X102000000Y-163875000D03*
X108000000Y-160125000D03*
X102000000Y-160125000D03*
%TD*%
%TO.C,SW6*%
X69000000Y-163875000D03*
X63000000Y-163875000D03*
X69000000Y-160125000D03*
X63000000Y-160125000D03*
%TD*%
D15*
%TO.C,D6*%
X71000000Y-161300000D03*
X71000000Y-162700000D03*
%TD*%
D14*
%TO.C,SW13*%
X82000000Y-163875000D03*
X76000000Y-163875000D03*
X82000000Y-160125000D03*
X76000000Y-160125000D03*
%TD*%
D15*
%TO.C,D32*%
X123000000Y-137300000D03*
X123000000Y-138700000D03*
%TD*%
%TO.C,D11*%
X84000000Y-137300000D03*
X84000000Y-138700000D03*
%TD*%
%TO.C,D7*%
X71000000Y-173300000D03*
X71000000Y-174700000D03*
%TD*%
%TO.C,D27*%
X110000000Y-161300000D03*
X110000000Y-162700000D03*
%TD*%
D16*
%TO.C,R2*%
X71200000Y-31290000D03*
X71200000Y-32310000D03*
%TD*%
D15*
%TO.C,D5*%
X71000000Y-149300000D03*
X71000000Y-150700000D03*
%TD*%
D17*
%TO.C,R1*%
X97000000Y-118220000D03*
X97000000Y-117200000D03*
%TD*%
D15*
%TO.C,D29*%
X123000000Y-101425000D03*
X123000000Y-102825000D03*
%TD*%
%TO.C,D25*%
X110000000Y-137300000D03*
X110000000Y-138700000D03*
%TD*%
D14*
%TO.C,SW14*%
X82000000Y-175875000D03*
X76000000Y-175875000D03*
X82000000Y-172125000D03*
X76000000Y-172125000D03*
%TD*%
%TO.C,SW20*%
X95000000Y-163875000D03*
X89000000Y-163875000D03*
X95000000Y-160125000D03*
X89000000Y-160125000D03*
%TD*%
D15*
%TO.C,D4*%
X71000000Y-137300000D03*
X71000000Y-138700000D03*
%TD*%
D14*
%TO.C,SW33*%
X121000000Y-151875000D03*
X115000000Y-151875000D03*
X121000000Y-148125000D03*
X115000000Y-148125000D03*
%TD*%
D15*
%TO.C,D22*%
X110000000Y-101425000D03*
X110000000Y-102825000D03*
%TD*%
%TO.C,D21*%
X97000000Y-173300000D03*
X97000000Y-174700000D03*
%TD*%
D18*
%TO.C,H2*%
X128275000Y-28125000D03*
D19*
X125875000Y-28125000D03*
D18*
X124177944Y-29822056D03*
X124177944Y-26427944D03*
X123475000Y-28125000D03*
X127572056Y-26427944D03*
X125875000Y-30525000D03*
X127572056Y-29822056D03*
X125875000Y-25725000D03*
%TD*%
D15*
%TO.C,D18*%
X97000000Y-137300000D03*
X97000000Y-138700000D03*
%TD*%
%TO.C,D35*%
X123000000Y-173300000D03*
X123000000Y-174700000D03*
%TD*%
%TO.C,D19*%
X97000000Y-149300000D03*
X97000000Y-150700000D03*
%TD*%
D18*
%TO.C,H1*%
X56177944Y-29822056D03*
X55475000Y-28125000D03*
D19*
X57875000Y-28125000D03*
D18*
X57875000Y-25725000D03*
X59572056Y-29822056D03*
X60275000Y-28125000D03*
X56177944Y-26427944D03*
X57875000Y-30525000D03*
X59572056Y-26427944D03*
%TD*%
D15*
%TO.C,D3*%
X71000000Y-125300000D03*
X71000000Y-126700000D03*
%TD*%
%TO.C,D26*%
X110000000Y-149300000D03*
X110000000Y-150700000D03*
%TD*%
D14*
%TO.C,SW22*%
X108000000Y-104000000D03*
X102000000Y-104000000D03*
X108000000Y-100250000D03*
X102000000Y-100250000D03*
%TD*%
%TO.C,SW5*%
X69000000Y-151875000D03*
X63000000Y-151875000D03*
X69000000Y-148125000D03*
X63000000Y-148125000D03*
%TD*%
D15*
%TO.C,D30*%
X123000000Y-113300000D03*
X123000000Y-114700000D03*
%TD*%
%TO.C,D2*%
X71000000Y-113300000D03*
X71000000Y-114700000D03*
%TD*%
%TO.C,D13*%
X84000000Y-161300000D03*
X84000000Y-162700000D03*
%TD*%
D14*
%TO.C,SW32*%
X121000000Y-139875000D03*
X115000000Y-139875000D03*
X121000000Y-136125000D03*
X115000000Y-136125000D03*
%TD*%
%TO.C,SW12*%
X82000000Y-151875000D03*
X76000000Y-151875000D03*
X82000000Y-148125000D03*
X76000000Y-148125000D03*
%TD*%
%TO.C,SW15*%
X95000000Y-103875000D03*
X89000000Y-103875000D03*
X95000000Y-100125000D03*
X89000000Y-100125000D03*
%TD*%
D15*
%TO.C,D20*%
X97000000Y-161300000D03*
X97000000Y-162700000D03*
%TD*%
D14*
%TO.C,SW16*%
X95000000Y-115875000D03*
X89000000Y-115875000D03*
X95000000Y-112125000D03*
X89000000Y-112125000D03*
%TD*%
D15*
%TO.C,D10*%
X84000000Y-125300000D03*
X84000000Y-126700000D03*
%TD*%
D18*
%TO.C,H4*%
X127572056Y-182822056D03*
X124177944Y-179427944D03*
X127572056Y-179427944D03*
X125875000Y-178725000D03*
X123475000Y-181125000D03*
X125875000Y-183525000D03*
X128275000Y-181125000D03*
X124177944Y-182822056D03*
D19*
X125875000Y-181125000D03*
%TD*%
D14*
%TO.C,SW11*%
X82000000Y-139875000D03*
X76000000Y-139875000D03*
X82000000Y-136125000D03*
X76000000Y-136125000D03*
%TD*%
D15*
%TO.C,D1*%
X71000000Y-101300000D03*
X71000000Y-102700000D03*
%TD*%
D14*
%TO.C,SW21*%
X95000000Y-175875000D03*
X89000000Y-175875000D03*
X95000000Y-172125000D03*
X89000000Y-172125000D03*
%TD*%
D15*
%TO.C,D31*%
X123000000Y-125300000D03*
X123000000Y-126700000D03*
%TD*%
D20*
%TO.C,Q1*%
X71150000Y-28200000D03*
X72450000Y-28200000D03*
X71800000Y-26200000D03*
%TD*%
D14*
%TO.C,SW31*%
X121000000Y-127875000D03*
X115000000Y-127875000D03*
X121000000Y-124125000D03*
X115000000Y-124125000D03*
%TD*%
D15*
%TO.C,D15*%
X97000000Y-101300000D03*
X97000000Y-102700000D03*
%TD*%
D14*
%TO.C,SW29*%
X121000000Y-104000000D03*
X115000000Y-104000000D03*
X121000000Y-100250000D03*
X115000000Y-100250000D03*
%TD*%
%TO.C,SW4*%
X69000000Y-139875000D03*
X63000000Y-139875000D03*
X69000000Y-136125000D03*
X63000000Y-136125000D03*
%TD*%
%TO.C,SW34*%
X121000000Y-163875000D03*
X115000000Y-163875000D03*
X121000000Y-160125000D03*
X115000000Y-160125000D03*
%TD*%
D15*
%TO.C,D16*%
X97000000Y-113300000D03*
X97000000Y-114700000D03*
%TD*%
%TO.C,D9*%
X84000000Y-113300000D03*
X84000000Y-114700000D03*
%TD*%
%TO.C,D12*%
X84000000Y-149300000D03*
X84000000Y-150700000D03*
%TD*%
D14*
%TO.C,SW3*%
X69000000Y-127875000D03*
X63000000Y-127875000D03*
X69000000Y-124125000D03*
X63000000Y-124125000D03*
%TD*%
%TO.C,SW19*%
X95000000Y-151875000D03*
X89000000Y-151875000D03*
X95000000Y-148125000D03*
X89000000Y-148125000D03*
%TD*%
%TO.C,SW35*%
X121000000Y-175875000D03*
X115000000Y-175875000D03*
X121000000Y-172125000D03*
X115000000Y-172125000D03*
%TD*%
%TO.C,SW7*%
X69000000Y-175875000D03*
X63000000Y-175875000D03*
X69000000Y-172125000D03*
X63000000Y-172125000D03*
%TD*%
%TO.C,SW1*%
X69000000Y-103875000D03*
X63000000Y-103875000D03*
X69000000Y-100125000D03*
X63000000Y-100125000D03*
%TD*%
D15*
%TO.C,D8*%
X84060000Y-101280000D03*
X84060000Y-102680000D03*
%TD*%
D14*
%TO.C,SW8*%
X82060000Y-103855000D03*
X76060000Y-103855000D03*
X82060000Y-100105000D03*
X76060000Y-100105000D03*
%TD*%
%TO.C,SW28*%
X108000000Y-175875000D03*
X102000000Y-175875000D03*
X108000000Y-172125000D03*
X102000000Y-172125000D03*
%TD*%
%TO.C,SW23*%
X108000000Y-115875000D03*
X102000000Y-115875000D03*
X108000000Y-112125000D03*
X102000000Y-112125000D03*
%TD*%
%TO.C,SW17*%
X95000000Y-127875000D03*
X89000000Y-127875000D03*
X95000000Y-124125000D03*
X89000000Y-124125000D03*
%TD*%
D15*
%TO.C,D24*%
X110000000Y-125300000D03*
X110000000Y-126700000D03*
%TD*%
%TO.C,D17*%
X97000000Y-125300000D03*
X97000000Y-126700000D03*
%TD*%
%TO.C,D23*%
X110000000Y-113300000D03*
X110000000Y-114700000D03*
%TD*%
D18*
%TO.C,H3*%
X56177944Y-179427944D03*
X57875000Y-178725000D03*
X59572056Y-182822056D03*
X56177944Y-182822056D03*
D19*
X57875000Y-181125000D03*
D18*
X59572056Y-179427944D03*
X57875000Y-183525000D03*
X55475000Y-181125000D03*
X60275000Y-181125000D03*
%TD*%
D14*
%TO.C,SW18*%
X95000000Y-139875000D03*
X89000000Y-139875000D03*
X95000000Y-136125000D03*
X89000000Y-136125000D03*
%TD*%
%TO.C,SW30*%
X121000000Y-115875000D03*
X115000000Y-115875000D03*
X121000000Y-112125000D03*
X115000000Y-112125000D03*
%TD*%
%TO.C,SW24*%
X108000000Y-127875000D03*
X102000000Y-127875000D03*
X108000000Y-124125000D03*
X102000000Y-124125000D03*
%TD*%
D15*
%TO.C,D34*%
X123000000Y-161300000D03*
X123000000Y-162700000D03*
%TD*%
%TO.C,D28*%
X110000000Y-173300000D03*
X110000000Y-174700000D03*
%TD*%
%TO.C,D14*%
X84000000Y-173300000D03*
X84000000Y-174700000D03*
%TD*%
D14*
%TO.C,SW10*%
X82000000Y-127875000D03*
X76000000Y-127875000D03*
X82000000Y-124125000D03*
X76000000Y-124125000D03*
%TD*%
%TO.C,SW26*%
X108000000Y-151875000D03*
X102000000Y-151875000D03*
X108000000Y-148125000D03*
X102000000Y-148125000D03*
%TD*%
D15*
%TO.C,D33*%
X123000000Y-149300000D03*
X123000000Y-150700000D03*
%TD*%
D10*
%TO.C,U3*%
X100555000Y-67335000D03*
X100555000Y-64795000D03*
X100555000Y-62255000D03*
X100555000Y-59715000D03*
X100555000Y-57175000D03*
X100555000Y-54635000D03*
X100555000Y-52095000D03*
X100555000Y-49555000D03*
X100555000Y-47015000D03*
X100555000Y-44475000D03*
X100555000Y-41935000D03*
X100555000Y-39395000D03*
X100555000Y-36855000D03*
X113255000Y-67335000D03*
X113255000Y-64795000D03*
X113255000Y-62255000D03*
X113255000Y-59715000D03*
X113255000Y-57175000D03*
X113255000Y-54635000D03*
X113255000Y-52095000D03*
X113255000Y-49555000D03*
X113255000Y-47015000D03*
X113255000Y-44475000D03*
X113255000Y-41935000D03*
X113255000Y-39395000D03*
X113255000Y-36855000D03*
%TD*%
M02*
