%TF.GenerationSoftware,KiCad,Pcbnew,(6.0.7)*%
%TF.CreationDate,2022-10-22T21:09:40-04:00*%
%TF.ProjectId,Calculator,43616c63-756c-4617-946f-722e6b696361,rev?*%
%TF.SameCoordinates,Original*%
%TF.FileFunction,Legend,Bot*%
%TF.FilePolarity,Positive*%
%FSLAX46Y46*%
G04 Gerber Fmt 4.6, Leading zero omitted, Abs format (unit mm)*
G04 Created by KiCad (PCBNEW (6.0.7)) date 2022-10-22 21:09:40*
%MOMM*%
%LPD*%
G01*
G04 APERTURE LIST*
%ADD10C,0.150000*%
%ADD11C,0.146304*%
%ADD12C,0.040640*%
%ADD13C,0.101600*%
%ADD14C,0.081280*%
%ADD15C,0.304800*%
%ADD16C,0.120000*%
%ADD17C,0.203200*%
%ADD18C,0.127000*%
G04 APERTURE END LIST*
D10*
X127742641Y-49642641D02*
X127742641Y-41642641D01*
D11*
%TO.C,C10*%
X91634206Y-83147427D02*
X91665944Y-83179165D01*
X91761158Y-83210903D01*
X91824633Y-83210903D01*
X91919847Y-83179165D01*
X91983323Y-83115689D01*
X92015061Y-83052213D01*
X92046799Y-82925261D01*
X92046799Y-82830048D01*
X92015061Y-82703096D01*
X91983323Y-82639620D01*
X91919847Y-82576145D01*
X91824633Y-82544407D01*
X91761158Y-82544407D01*
X91665944Y-82576145D01*
X91634206Y-82607882D01*
X90999448Y-83210903D02*
X91380303Y-83210903D01*
X91189875Y-83210903D02*
X91189875Y-82544407D01*
X91253351Y-82639620D01*
X91316827Y-82703096D01*
X91380303Y-82734834D01*
X90586855Y-82544407D02*
X90523379Y-82544407D01*
X90459903Y-82576145D01*
X90428166Y-82607882D01*
X90396428Y-82671358D01*
X90364690Y-82798310D01*
X90364690Y-82956999D01*
X90396428Y-83083951D01*
X90428166Y-83147427D01*
X90459903Y-83179165D01*
X90523379Y-83210903D01*
X90586855Y-83210903D01*
X90650331Y-83179165D01*
X90682069Y-83147427D01*
X90713807Y-83083951D01*
X90745545Y-82956999D01*
X90745545Y-82798310D01*
X90713807Y-82671358D01*
X90682069Y-82607882D01*
X90650331Y-82576145D01*
X90586855Y-82544407D01*
D12*
X91731502Y-83825223D02*
X91940508Y-83825223D01*
X91836005Y-83825223D02*
X91836005Y-83459463D01*
X91870839Y-83511715D01*
X91905674Y-83546549D01*
X91940508Y-83563966D01*
X91505079Y-83459463D02*
X91470245Y-83459463D01*
X91435411Y-83476881D01*
X91417994Y-83494298D01*
X91400577Y-83529132D01*
X91383159Y-83598801D01*
X91383159Y-83685886D01*
X91400577Y-83755555D01*
X91417994Y-83790389D01*
X91435411Y-83807806D01*
X91470245Y-83825223D01*
X91505079Y-83825223D01*
X91539914Y-83807806D01*
X91557331Y-83790389D01*
X91574748Y-83755555D01*
X91592165Y-83685886D01*
X91592165Y-83598801D01*
X91574748Y-83529132D01*
X91557331Y-83494298D01*
X91539914Y-83476881D01*
X91505079Y-83459463D01*
X91069651Y-83581383D02*
X91069651Y-83825223D01*
X91226405Y-83581383D02*
X91226405Y-83772972D01*
X91208988Y-83807806D01*
X91174154Y-83825223D01*
X91121902Y-83825223D01*
X91087068Y-83807806D01*
X91069651Y-83790389D01*
X90773559Y-83633635D02*
X90895479Y-83633635D01*
X90895479Y-83825223D02*
X90895479Y-83459463D01*
X90721308Y-83459463D01*
D11*
%TO.C,R11*%
X124907999Y-38610903D02*
X125130164Y-38293524D01*
X125288853Y-38610903D02*
X125288853Y-37944407D01*
X125034950Y-37944407D01*
X124971474Y-37976145D01*
X124939736Y-38007882D01*
X124907999Y-38071358D01*
X124907999Y-38166572D01*
X124939736Y-38230048D01*
X124971474Y-38261786D01*
X125034950Y-38293524D01*
X125288853Y-38293524D01*
X124273240Y-38610903D02*
X124654095Y-38610903D01*
X124463668Y-38610903D02*
X124463668Y-37944407D01*
X124527144Y-38039620D01*
X124590619Y-38103096D01*
X124654095Y-38134834D01*
X123638482Y-38610903D02*
X124019337Y-38610903D01*
X123828910Y-38610903D02*
X123828910Y-37944407D01*
X123892386Y-38039620D01*
X123955861Y-38103096D01*
X124019337Y-38134834D01*
D12*
X124954967Y-38859463D02*
X125129139Y-38859463D01*
X125146556Y-39033635D01*
X125129139Y-39016218D01*
X125094305Y-38998801D01*
X125007219Y-38998801D01*
X124972385Y-39016218D01*
X124954967Y-39033635D01*
X124937550Y-39068469D01*
X124937550Y-39155555D01*
X124954967Y-39190389D01*
X124972385Y-39207806D01*
X125007219Y-39225223D01*
X125094305Y-39225223D01*
X125129139Y-39207806D01*
X125146556Y-39190389D01*
X124780796Y-39190389D02*
X124763379Y-39207806D01*
X124780796Y-39225223D01*
X124798213Y-39207806D01*
X124780796Y-39190389D01*
X124780796Y-39225223D01*
X124415036Y-39225223D02*
X124624042Y-39225223D01*
X124519539Y-39225223D02*
X124519539Y-38859463D01*
X124554373Y-38911715D01*
X124589207Y-38946549D01*
X124624042Y-38963966D01*
X124258282Y-39225223D02*
X124258282Y-38859463D01*
X124049276Y-39225223D02*
X124206030Y-39016218D01*
X124049276Y-38859463D02*
X124258282Y-39068469D01*
D10*
%TO.C,U2*%
X89504545Y-93395021D02*
X89504545Y-94204545D01*
X89456926Y-94299783D01*
X89409307Y-94347402D01*
X89314069Y-94395021D01*
X89123593Y-94395021D01*
X89028355Y-94347402D01*
X88980736Y-94299783D01*
X88933117Y-94204545D01*
X88933117Y-93395021D01*
X88504545Y-93490260D02*
X88456926Y-93442641D01*
X88361688Y-93395021D01*
X88123593Y-93395021D01*
X88028355Y-93442641D01*
X87980736Y-93490260D01*
X87933117Y-93585498D01*
X87933117Y-93680736D01*
X87980736Y-93823593D01*
X88552164Y-94395021D01*
X87933117Y-94395021D01*
D11*
%TO.C,R3*%
X134307999Y-51310903D02*
X134530164Y-50993524D01*
X134688853Y-51310903D02*
X134688853Y-50644407D01*
X134434950Y-50644407D01*
X134371474Y-50676145D01*
X134339736Y-50707882D01*
X134307999Y-50771358D01*
X134307999Y-50866572D01*
X134339736Y-50930048D01*
X134371474Y-50961786D01*
X134434950Y-50993524D01*
X134688853Y-50993524D01*
X134085833Y-50644407D02*
X133673240Y-50644407D01*
X133895406Y-50898310D01*
X133800192Y-50898310D01*
X133736716Y-50930048D01*
X133704978Y-50961786D01*
X133673240Y-51025261D01*
X133673240Y-51183951D01*
X133704978Y-51247427D01*
X133736716Y-51279165D01*
X133800192Y-51310903D01*
X133990619Y-51310903D01*
X134054095Y-51279165D01*
X134085833Y-51247427D01*
D12*
X134637550Y-50325223D02*
X134846556Y-50325223D01*
X134742053Y-50325223D02*
X134742053Y-49959463D01*
X134776887Y-50011715D01*
X134811722Y-50046549D01*
X134846556Y-50063966D01*
X134411127Y-49959463D02*
X134376293Y-49959463D01*
X134341459Y-49976881D01*
X134324042Y-49994298D01*
X134306625Y-50029132D01*
X134289207Y-50098801D01*
X134289207Y-50185886D01*
X134306625Y-50255555D01*
X134324042Y-50290389D01*
X134341459Y-50307806D01*
X134376293Y-50325223D01*
X134411127Y-50325223D01*
X134445962Y-50307806D01*
X134463379Y-50290389D01*
X134480796Y-50255555D01*
X134498213Y-50185886D01*
X134498213Y-50098801D01*
X134480796Y-50029132D01*
X134463379Y-49994298D01*
X134445962Y-49976881D01*
X134411127Y-49959463D01*
X134062785Y-49959463D02*
X134027950Y-49959463D01*
X133993116Y-49976881D01*
X133975699Y-49994298D01*
X133958282Y-50029132D01*
X133940865Y-50098801D01*
X133940865Y-50185886D01*
X133958282Y-50255555D01*
X133975699Y-50290389D01*
X133993116Y-50307806D01*
X134027950Y-50325223D01*
X134062785Y-50325223D01*
X134097619Y-50307806D01*
X134115036Y-50290389D01*
X134132453Y-50255555D01*
X134149870Y-50185886D01*
X134149870Y-50098801D01*
X134132453Y-50029132D01*
X134115036Y-49994298D01*
X134097619Y-49976881D01*
X134062785Y-49959463D01*
X133784110Y-50325223D02*
X133784110Y-49959463D01*
X133575105Y-50325223D02*
X133731859Y-50116218D01*
X133575105Y-49959463D02*
X133784110Y-50168469D01*
D11*
%TO.C,R16*%
X77829999Y-36337903D02*
X78052164Y-36020524D01*
X78210853Y-36337903D02*
X78210853Y-35671407D01*
X77956950Y-35671407D01*
X77893474Y-35703145D01*
X77861736Y-35734882D01*
X77829999Y-35798358D01*
X77829999Y-35893572D01*
X77861736Y-35957048D01*
X77893474Y-35988786D01*
X77956950Y-36020524D01*
X78210853Y-36020524D01*
X77195240Y-36337903D02*
X77576095Y-36337903D01*
X77385668Y-36337903D02*
X77385668Y-35671407D01*
X77449144Y-35766620D01*
X77512619Y-35830096D01*
X77576095Y-35861834D01*
X76623958Y-35671407D02*
X76750910Y-35671407D01*
X76814386Y-35703145D01*
X76846123Y-35734882D01*
X76909599Y-35830096D01*
X76941337Y-35957048D01*
X76941337Y-36210951D01*
X76909599Y-36274427D01*
X76877861Y-36306165D01*
X76814386Y-36337903D01*
X76687434Y-36337903D01*
X76623958Y-36306165D01*
X76592220Y-36274427D01*
X76560482Y-36210951D01*
X76560482Y-36052261D01*
X76592220Y-35988786D01*
X76623958Y-35957048D01*
X76687434Y-35925310D01*
X76814386Y-35925310D01*
X76877861Y-35957048D01*
X76909599Y-35988786D01*
X76941337Y-36052261D01*
D12*
X78159550Y-36987223D02*
X78368556Y-36987223D01*
X78264053Y-36987223D02*
X78264053Y-36621463D01*
X78298887Y-36673715D01*
X78333722Y-36708549D01*
X78368556Y-36725966D01*
X77933127Y-36621463D02*
X77898293Y-36621463D01*
X77863459Y-36638881D01*
X77846042Y-36656298D01*
X77828625Y-36691132D01*
X77811207Y-36760801D01*
X77811207Y-36847886D01*
X77828625Y-36917555D01*
X77846042Y-36952389D01*
X77863459Y-36969806D01*
X77898293Y-36987223D01*
X77933127Y-36987223D01*
X77967962Y-36969806D01*
X77985379Y-36952389D01*
X78002796Y-36917555D01*
X78020213Y-36847886D01*
X78020213Y-36760801D01*
X78002796Y-36691132D01*
X77985379Y-36656298D01*
X77967962Y-36638881D01*
X77933127Y-36621463D01*
X77654453Y-36987223D02*
X77654453Y-36621463D01*
X77445447Y-36987223D02*
X77602202Y-36778218D01*
X77445447Y-36621463D02*
X77654453Y-36830469D01*
D11*
%TO.C,R19*%
X89434206Y-42810903D02*
X89656371Y-42493524D01*
X89815061Y-42810903D02*
X89815061Y-42144407D01*
X89561158Y-42144407D01*
X89497682Y-42176145D01*
X89465944Y-42207882D01*
X89434206Y-42271358D01*
X89434206Y-42366572D01*
X89465944Y-42430048D01*
X89497682Y-42461786D01*
X89561158Y-42493524D01*
X89815061Y-42493524D01*
X88799448Y-42810903D02*
X89180303Y-42810903D01*
X88989875Y-42810903D02*
X88989875Y-42144407D01*
X89053351Y-42239620D01*
X89116827Y-42303096D01*
X89180303Y-42334834D01*
X88482069Y-42810903D02*
X88355117Y-42810903D01*
X88291641Y-42779165D01*
X88259903Y-42747427D01*
X88196428Y-42652213D01*
X88164690Y-42525261D01*
X88164690Y-42271358D01*
X88196428Y-42207882D01*
X88228166Y-42176145D01*
X88291641Y-42144407D01*
X88418593Y-42144407D01*
X88482069Y-42176145D01*
X88513807Y-42207882D01*
X88545545Y-42271358D01*
X88545545Y-42430048D01*
X88513807Y-42493524D01*
X88482069Y-42525261D01*
X88418593Y-42556999D01*
X88291641Y-42556999D01*
X88228166Y-42525261D01*
X88196428Y-42493524D01*
X88164690Y-42430048D01*
D12*
X89652828Y-43525223D02*
X89861834Y-43525223D01*
X89757331Y-43525223D02*
X89757331Y-43159463D01*
X89792165Y-43211715D01*
X89826999Y-43246549D01*
X89861834Y-43263966D01*
X89426405Y-43159463D02*
X89391571Y-43159463D01*
X89356737Y-43176881D01*
X89339319Y-43194298D01*
X89321902Y-43229132D01*
X89304485Y-43298801D01*
X89304485Y-43385886D01*
X89321902Y-43455555D01*
X89339319Y-43490389D01*
X89356737Y-43507806D01*
X89391571Y-43525223D01*
X89426405Y-43525223D01*
X89461239Y-43507806D01*
X89478657Y-43490389D01*
X89496074Y-43455555D01*
X89513491Y-43385886D01*
X89513491Y-43298801D01*
X89496074Y-43229132D01*
X89478657Y-43194298D01*
X89461239Y-43176881D01*
X89426405Y-43159463D01*
X89147731Y-43525223D02*
X89147731Y-43159463D01*
X88938725Y-43525223D02*
X89095479Y-43316218D01*
X88938725Y-43159463D02*
X89147731Y-43368469D01*
D11*
%TO.C,R15*%
X126507999Y-67410903D02*
X126730164Y-67093524D01*
X126888853Y-67410903D02*
X126888853Y-66744407D01*
X126634950Y-66744407D01*
X126571474Y-66776145D01*
X126539736Y-66807882D01*
X126507999Y-66871358D01*
X126507999Y-66966572D01*
X126539736Y-67030048D01*
X126571474Y-67061786D01*
X126634950Y-67093524D01*
X126888853Y-67093524D01*
X125873240Y-67410903D02*
X126254095Y-67410903D01*
X126063668Y-67410903D02*
X126063668Y-66744407D01*
X126127144Y-66839620D01*
X126190619Y-66903096D01*
X126254095Y-66934834D01*
X125270220Y-66744407D02*
X125587599Y-66744407D01*
X125619337Y-67061786D01*
X125587599Y-67030048D01*
X125524123Y-66998310D01*
X125365434Y-66998310D01*
X125301958Y-67030048D01*
X125270220Y-67061786D01*
X125238482Y-67125261D01*
X125238482Y-67283951D01*
X125270220Y-67347427D01*
X125301958Y-67379165D01*
X125365434Y-67410903D01*
X125524123Y-67410903D01*
X125587599Y-67379165D01*
X125619337Y-67347427D01*
D12*
X126946556Y-67694298D02*
X126929139Y-67676881D01*
X126894305Y-67659463D01*
X126807219Y-67659463D01*
X126772385Y-67676881D01*
X126754967Y-67694298D01*
X126737550Y-67729132D01*
X126737550Y-67763966D01*
X126754967Y-67816218D01*
X126963973Y-68025223D01*
X126737550Y-68025223D01*
X126511127Y-67659463D02*
X126476293Y-67659463D01*
X126441459Y-67676881D01*
X126424042Y-67694298D01*
X126406625Y-67729132D01*
X126389207Y-67798801D01*
X126389207Y-67885886D01*
X126406625Y-67955555D01*
X126424042Y-67990389D01*
X126441459Y-68007806D01*
X126476293Y-68025223D01*
X126511127Y-68025223D01*
X126545962Y-68007806D01*
X126563379Y-67990389D01*
X126580796Y-67955555D01*
X126598213Y-67885886D01*
X126598213Y-67798801D01*
X126580796Y-67729132D01*
X126563379Y-67694298D01*
X126545962Y-67676881D01*
X126511127Y-67659463D01*
X126162785Y-67659463D02*
X126127950Y-67659463D01*
X126093116Y-67676881D01*
X126075699Y-67694298D01*
X126058282Y-67729132D01*
X126040865Y-67798801D01*
X126040865Y-67885886D01*
X126058282Y-67955555D01*
X126075699Y-67990389D01*
X126093116Y-68007806D01*
X126127950Y-68025223D01*
X126162785Y-68025223D01*
X126197619Y-68007806D01*
X126215036Y-67990389D01*
X126232453Y-67955555D01*
X126249870Y-67885886D01*
X126249870Y-67798801D01*
X126232453Y-67729132D01*
X126215036Y-67694298D01*
X126197619Y-67676881D01*
X126162785Y-67659463D01*
X125884110Y-68025223D02*
X125884110Y-67659463D01*
X125675105Y-68025223D02*
X125831859Y-67816218D01*
X125675105Y-67659463D02*
X125884110Y-67868469D01*
D11*
%TO.C,U4*%
X127912041Y-50044407D02*
X127912041Y-50583951D01*
X127880303Y-50647427D01*
X127848565Y-50679165D01*
X127785089Y-50710903D01*
X127658137Y-50710903D01*
X127594662Y-50679165D01*
X127562924Y-50647427D01*
X127531186Y-50583951D01*
X127531186Y-50044407D01*
X126928166Y-50266572D02*
X126928166Y-50710903D01*
X127086855Y-50012669D02*
X127245545Y-50488737D01*
X126832952Y-50488737D01*
D12*
X127951548Y-51425223D02*
X127951548Y-51059463D01*
X127829628Y-51320721D01*
X127707708Y-51059463D01*
X127707708Y-51425223D01*
X127324531Y-51390389D02*
X127341948Y-51407806D01*
X127394199Y-51425223D01*
X127429034Y-51425223D01*
X127481285Y-51407806D01*
X127516119Y-51372972D01*
X127533537Y-51338138D01*
X127550954Y-51268469D01*
X127550954Y-51216218D01*
X127533537Y-51146549D01*
X127516119Y-51111715D01*
X127481285Y-51076881D01*
X127429034Y-51059463D01*
X127394199Y-51059463D01*
X127341948Y-51076881D01*
X127324531Y-51094298D01*
X127167777Y-51425223D02*
X127167777Y-51059463D01*
X127028439Y-51059463D01*
X126993605Y-51076881D01*
X126976188Y-51094298D01*
X126958771Y-51129132D01*
X126958771Y-51181383D01*
X126976188Y-51216218D01*
X126993605Y-51233635D01*
X127028439Y-51251052D01*
X127167777Y-51251052D01*
X126836851Y-51059463D02*
X126593011Y-51059463D01*
X126749765Y-51425223D01*
X126488508Y-51059463D02*
X126262085Y-51059463D01*
X126384005Y-51198801D01*
X126331754Y-51198801D01*
X126296919Y-51216218D01*
X126279502Y-51233635D01*
X126262085Y-51268469D01*
X126262085Y-51355555D01*
X126279502Y-51390389D01*
X126296919Y-51407806D01*
X126331754Y-51425223D01*
X126436257Y-51425223D01*
X126471091Y-51407806D01*
X126488508Y-51390389D01*
X126053079Y-51216218D02*
X126087914Y-51198801D01*
X126105331Y-51181383D01*
X126122748Y-51146549D01*
X126122748Y-51129132D01*
X126105331Y-51094298D01*
X126087914Y-51076881D01*
X126053079Y-51059463D01*
X125983411Y-51059463D01*
X125948577Y-51076881D01*
X125931159Y-51094298D01*
X125913742Y-51129132D01*
X125913742Y-51146549D01*
X125931159Y-51181383D01*
X125948577Y-51198801D01*
X125983411Y-51216218D01*
X126053079Y-51216218D01*
X126087914Y-51233635D01*
X126105331Y-51251052D01*
X126122748Y-51285886D01*
X126122748Y-51355555D01*
X126105331Y-51390389D01*
X126087914Y-51407806D01*
X126053079Y-51425223D01*
X125983411Y-51425223D01*
X125948577Y-51407806D01*
X125931159Y-51390389D01*
X125913742Y-51355555D01*
X125913742Y-51285886D01*
X125931159Y-51251052D01*
X125948577Y-51233635D01*
X125983411Y-51216218D01*
X125791822Y-51059463D02*
X125565399Y-51059463D01*
X125687319Y-51198801D01*
X125635068Y-51198801D01*
X125600234Y-51216218D01*
X125582817Y-51233635D01*
X125565399Y-51268469D01*
X125565399Y-51355555D01*
X125582817Y-51390389D01*
X125600234Y-51407806D01*
X125635068Y-51425223D01*
X125739571Y-51425223D01*
X125774405Y-51407806D01*
X125791822Y-51390389D01*
X125217057Y-51425223D02*
X125426062Y-51425223D01*
X125321559Y-51425223D02*
X125321559Y-51059463D01*
X125356394Y-51111715D01*
X125391228Y-51146549D01*
X125426062Y-51163966D01*
X125112554Y-51059463D02*
X124903548Y-51059463D01*
X125008051Y-51425223D02*
X125008051Y-51059463D01*
X124781628Y-51285886D02*
X124502954Y-51285886D01*
X124346199Y-51094298D02*
X124328782Y-51076881D01*
X124293948Y-51059463D01*
X124206862Y-51059463D01*
X124172028Y-51076881D01*
X124154611Y-51094298D01*
X124137194Y-51129132D01*
X124137194Y-51163966D01*
X124154611Y-51216218D01*
X124363617Y-51425223D01*
X124137194Y-51425223D01*
X123997857Y-51320721D02*
X123823685Y-51320721D01*
X124032691Y-51425223D02*
X123910771Y-51059463D01*
X123788851Y-51425223D01*
X123457925Y-51390389D02*
X123475342Y-51407806D01*
X123527594Y-51425223D01*
X123562428Y-51425223D01*
X123614679Y-51407806D01*
X123649514Y-51372972D01*
X123666931Y-51338138D01*
X123684348Y-51268469D01*
X123684348Y-51216218D01*
X123666931Y-51146549D01*
X123649514Y-51111715D01*
X123614679Y-51076881D01*
X123562428Y-51059463D01*
X123527594Y-51059463D01*
X123475342Y-51076881D01*
X123457925Y-51094298D01*
X123301171Y-51425223D02*
X123301171Y-51059463D01*
X122865742Y-51042046D02*
X123179251Y-51512309D01*
X122674154Y-51059463D02*
X122604485Y-51059463D01*
X122569651Y-51076881D01*
X122534817Y-51111715D01*
X122517399Y-51181383D01*
X122517399Y-51303303D01*
X122534817Y-51372972D01*
X122569651Y-51407806D01*
X122604485Y-51425223D01*
X122674154Y-51425223D01*
X122708988Y-51407806D01*
X122743822Y-51372972D01*
X122761239Y-51303303D01*
X122761239Y-51181383D01*
X122743822Y-51111715D01*
X122708988Y-51076881D01*
X122674154Y-51059463D01*
X122412897Y-51059463D02*
X122203891Y-51059463D01*
X122308394Y-51425223D02*
X122308394Y-51059463D01*
D11*
%TO.C,C8*%
X107131448Y-39020427D02*
X107163186Y-39052165D01*
X107258399Y-39083903D01*
X107321875Y-39083903D01*
X107417089Y-39052165D01*
X107480565Y-38988689D01*
X107512303Y-38925213D01*
X107544041Y-38798261D01*
X107544041Y-38703048D01*
X107512303Y-38576096D01*
X107480565Y-38512620D01*
X107417089Y-38449145D01*
X107321875Y-38417407D01*
X107258399Y-38417407D01*
X107163186Y-38449145D01*
X107131448Y-38480882D01*
X106750593Y-38703048D02*
X106814069Y-38671310D01*
X106845807Y-38639572D01*
X106877545Y-38576096D01*
X106877545Y-38544358D01*
X106845807Y-38480882D01*
X106814069Y-38449145D01*
X106750593Y-38417407D01*
X106623641Y-38417407D01*
X106560166Y-38449145D01*
X106528428Y-38480882D01*
X106496690Y-38544358D01*
X106496690Y-38576096D01*
X106528428Y-38639572D01*
X106560166Y-38671310D01*
X106623641Y-38703048D01*
X106750593Y-38703048D01*
X106814069Y-38734786D01*
X106845807Y-38766524D01*
X106877545Y-38829999D01*
X106877545Y-38956951D01*
X106845807Y-39020427D01*
X106814069Y-39052165D01*
X106750593Y-39083903D01*
X106623641Y-39083903D01*
X106560166Y-39052165D01*
X106528428Y-39020427D01*
X106496690Y-38956951D01*
X106496690Y-38829999D01*
X106528428Y-38766524D01*
X106560166Y-38734786D01*
X106623641Y-38703048D01*
D12*
X107283159Y-39625223D02*
X107492165Y-39625223D01*
X107387662Y-39625223D02*
X107387662Y-39259463D01*
X107422497Y-39311715D01*
X107457331Y-39346549D01*
X107492165Y-39363966D01*
X106969651Y-39381383D02*
X106969651Y-39625223D01*
X107126405Y-39381383D02*
X107126405Y-39572972D01*
X107108988Y-39607806D01*
X107074154Y-39625223D01*
X107021902Y-39625223D01*
X106987068Y-39607806D01*
X106969651Y-39590389D01*
X106673559Y-39433635D02*
X106795479Y-39433635D01*
X106795479Y-39625223D02*
X106795479Y-39259463D01*
X106621308Y-39259463D01*
D11*
%TO.C,R17*%
X86507999Y-65410903D02*
X86730164Y-65093524D01*
X86888853Y-65410903D02*
X86888853Y-64744407D01*
X86634950Y-64744407D01*
X86571474Y-64776145D01*
X86539736Y-64807882D01*
X86507999Y-64871358D01*
X86507999Y-64966572D01*
X86539736Y-65030048D01*
X86571474Y-65061786D01*
X86634950Y-65093524D01*
X86888853Y-65093524D01*
X85873240Y-65410903D02*
X86254095Y-65410903D01*
X86063668Y-65410903D02*
X86063668Y-64744407D01*
X86127144Y-64839620D01*
X86190619Y-64903096D01*
X86254095Y-64934834D01*
X85651075Y-64744407D02*
X85206744Y-64744407D01*
X85492386Y-65410903D01*
D12*
X86572385Y-65981383D02*
X86572385Y-66225223D01*
X86659470Y-65842046D02*
X86746556Y-66103303D01*
X86520133Y-66103303D01*
X86380796Y-66190389D02*
X86363379Y-66207806D01*
X86380796Y-66225223D01*
X86398213Y-66207806D01*
X86380796Y-66190389D01*
X86380796Y-66225223D01*
X86241459Y-65859463D02*
X85997619Y-65859463D01*
X86154373Y-66225223D01*
D11*
%TO.C,Q1*%
X131444523Y-50574378D02*
X131507999Y-50542641D01*
X131571474Y-50479165D01*
X131666688Y-50383951D01*
X131730164Y-50352213D01*
X131793640Y-50352213D01*
X131761902Y-50510903D02*
X131825378Y-50479165D01*
X131888853Y-50415689D01*
X131920591Y-50288737D01*
X131920591Y-50066572D01*
X131888853Y-49939620D01*
X131825378Y-49876145D01*
X131761902Y-49844407D01*
X131634950Y-49844407D01*
X131571474Y-49876145D01*
X131507999Y-49939620D01*
X131476261Y-50066572D01*
X131476261Y-50288737D01*
X131507999Y-50415689D01*
X131571474Y-50479165D01*
X131634950Y-50510903D01*
X131761902Y-50510903D01*
X130841503Y-50510903D02*
X131222357Y-50510903D01*
X131031930Y-50510903D02*
X131031930Y-49844407D01*
X131095406Y-49939620D01*
X131158882Y-50003096D01*
X131222357Y-50034834D01*
D12*
X132029139Y-51225223D02*
X132029139Y-50859463D01*
X131942053Y-50859463D01*
X131889802Y-50876881D01*
X131854967Y-50911715D01*
X131837550Y-50946549D01*
X131820133Y-51016218D01*
X131820133Y-51068469D01*
X131837550Y-51138138D01*
X131854967Y-51172972D01*
X131889802Y-51207806D01*
X131942053Y-51225223D01*
X132029139Y-51225223D01*
X131663379Y-51225223D02*
X131663379Y-50859463D01*
X131541459Y-51120721D01*
X131419539Y-50859463D01*
X131419539Y-51225223D01*
X131053779Y-50876881D02*
X131088613Y-50859463D01*
X131140865Y-50859463D01*
X131193116Y-50876881D01*
X131227950Y-50911715D01*
X131245367Y-50946549D01*
X131262785Y-51016218D01*
X131262785Y-51068469D01*
X131245367Y-51138138D01*
X131227950Y-51172972D01*
X131193116Y-51207806D01*
X131140865Y-51225223D01*
X131106030Y-51225223D01*
X131053779Y-51207806D01*
X131036362Y-51190389D01*
X131036362Y-51068469D01*
X131106030Y-51068469D01*
X130914442Y-50859463D02*
X130688019Y-50859463D01*
X130809939Y-50998801D01*
X130757687Y-50998801D01*
X130722853Y-51016218D01*
X130705436Y-51033635D01*
X130688019Y-51068469D01*
X130688019Y-51155555D01*
X130705436Y-51190389D01*
X130722853Y-51207806D01*
X130757687Y-51225223D01*
X130862190Y-51225223D01*
X130897025Y-51207806D01*
X130914442Y-51190389D01*
X130374510Y-50981383D02*
X130374510Y-51225223D01*
X130461596Y-50842046D02*
X130548682Y-51103303D01*
X130322259Y-51103303D01*
X129991333Y-51225223D02*
X130200339Y-51225223D01*
X130095836Y-51225223D02*
X130095836Y-50859463D01*
X130130670Y-50911715D01*
X130165505Y-50946549D01*
X130200339Y-50963966D01*
X129660407Y-50859463D02*
X129834579Y-50859463D01*
X129851996Y-51033635D01*
X129834579Y-51016218D01*
X129799745Y-50998801D01*
X129712659Y-50998801D01*
X129677825Y-51016218D01*
X129660407Y-51033635D01*
X129642990Y-51068469D01*
X129642990Y-51155555D01*
X129660407Y-51190389D01*
X129677825Y-51207806D01*
X129712659Y-51225223D01*
X129799745Y-51225223D01*
X129834579Y-51207806D01*
X129851996Y-51190389D01*
X129486236Y-50859463D02*
X129486236Y-51155555D01*
X129468819Y-51190389D01*
X129451402Y-51207806D01*
X129416567Y-51225223D01*
X129346899Y-51225223D01*
X129312065Y-51207806D01*
X129294647Y-51190389D01*
X129277230Y-51155555D01*
X129277230Y-50859463D01*
D11*
%TO.C,D37*%
X122165061Y-37510903D02*
X122165061Y-36844407D01*
X122006371Y-36844407D01*
X121911158Y-36876145D01*
X121847682Y-36939620D01*
X121815944Y-37003096D01*
X121784206Y-37130048D01*
X121784206Y-37225261D01*
X121815944Y-37352213D01*
X121847682Y-37415689D01*
X121911158Y-37479165D01*
X122006371Y-37510903D01*
X122165061Y-37510903D01*
X121562041Y-36844407D02*
X121149448Y-36844407D01*
X121371613Y-37098310D01*
X121276399Y-37098310D01*
X121212924Y-37130048D01*
X121181186Y-37161786D01*
X121149448Y-37225261D01*
X121149448Y-37383951D01*
X121181186Y-37447427D01*
X121212924Y-37479165D01*
X121276399Y-37510903D01*
X121466827Y-37510903D01*
X121530303Y-37479165D01*
X121562041Y-37447427D01*
X120927282Y-36844407D02*
X120482952Y-36844407D01*
X120768593Y-37510903D01*
D12*
X122254611Y-37659463D02*
X122184942Y-37659463D01*
X122150108Y-37676881D01*
X122115274Y-37711715D01*
X122097857Y-37781383D01*
X122097857Y-37903303D01*
X122115274Y-37972972D01*
X122150108Y-38007806D01*
X122184942Y-38025223D01*
X122254611Y-38025223D01*
X122289445Y-38007806D01*
X122324279Y-37972972D01*
X122341697Y-37903303D01*
X122341697Y-37781383D01*
X122324279Y-37711715D01*
X122289445Y-37676881D01*
X122254611Y-37659463D01*
X121732097Y-38025223D02*
X121854017Y-37851052D01*
X121941102Y-38025223D02*
X121941102Y-37659463D01*
X121801765Y-37659463D01*
X121766931Y-37676881D01*
X121749514Y-37694298D01*
X121732097Y-37729132D01*
X121732097Y-37781383D01*
X121749514Y-37816218D01*
X121766931Y-37833635D01*
X121801765Y-37851052D01*
X121941102Y-37851052D01*
X121592759Y-37920721D02*
X121418588Y-37920721D01*
X121627594Y-38025223D02*
X121505674Y-37659463D01*
X121383754Y-38025223D01*
X121261834Y-38025223D02*
X121261834Y-37659463D01*
X121052828Y-38025223D01*
X121052828Y-37659463D01*
X120687068Y-37676881D02*
X120721902Y-37659463D01*
X120774154Y-37659463D01*
X120826405Y-37676881D01*
X120861239Y-37711715D01*
X120878657Y-37746549D01*
X120896074Y-37816218D01*
X120896074Y-37868469D01*
X120878657Y-37938138D01*
X120861239Y-37972972D01*
X120826405Y-38007806D01*
X120774154Y-38025223D01*
X120739319Y-38025223D01*
X120687068Y-38007806D01*
X120669651Y-37990389D01*
X120669651Y-37868469D01*
X120739319Y-37868469D01*
X120512897Y-37833635D02*
X120390977Y-37833635D01*
X120338725Y-38025223D02*
X120512897Y-38025223D01*
X120512897Y-37659463D01*
X120338725Y-37659463D01*
D11*
%TO.C,C5*%
X136131448Y-38020427D02*
X136163186Y-38052165D01*
X136258399Y-38083903D01*
X136321875Y-38083903D01*
X136417089Y-38052165D01*
X136480565Y-37988689D01*
X136512303Y-37925213D01*
X136544041Y-37798261D01*
X136544041Y-37703048D01*
X136512303Y-37576096D01*
X136480565Y-37512620D01*
X136417089Y-37449145D01*
X136321875Y-37417407D01*
X136258399Y-37417407D01*
X136163186Y-37449145D01*
X136131448Y-37480882D01*
X135528428Y-37417407D02*
X135845807Y-37417407D01*
X135877545Y-37734786D01*
X135845807Y-37703048D01*
X135782331Y-37671310D01*
X135623641Y-37671310D01*
X135560166Y-37703048D01*
X135528428Y-37734786D01*
X135496690Y-37798261D01*
X135496690Y-37956951D01*
X135528428Y-38020427D01*
X135560166Y-38052165D01*
X135623641Y-38083903D01*
X135782331Y-38083903D01*
X135845807Y-38052165D01*
X135877545Y-38020427D01*
D12*
X136431502Y-38725223D02*
X136640508Y-38725223D01*
X136536005Y-38725223D02*
X136536005Y-38359463D01*
X136570839Y-38411715D01*
X136605674Y-38446549D01*
X136640508Y-38463966D01*
X136205079Y-38359463D02*
X136170245Y-38359463D01*
X136135411Y-38376881D01*
X136117994Y-38394298D01*
X136100577Y-38429132D01*
X136083159Y-38498801D01*
X136083159Y-38585886D01*
X136100577Y-38655555D01*
X136117994Y-38690389D01*
X136135411Y-38707806D01*
X136170245Y-38725223D01*
X136205079Y-38725223D01*
X136239914Y-38707806D01*
X136257331Y-38690389D01*
X136274748Y-38655555D01*
X136292165Y-38585886D01*
X136292165Y-38498801D01*
X136274748Y-38429132D01*
X136257331Y-38394298D01*
X136239914Y-38376881D01*
X136205079Y-38359463D01*
X135769651Y-38481383D02*
X135769651Y-38725223D01*
X135926405Y-38481383D02*
X135926405Y-38672972D01*
X135908988Y-38707806D01*
X135874154Y-38725223D01*
X135821902Y-38725223D01*
X135787068Y-38707806D01*
X135769651Y-38690389D01*
X135473559Y-38533635D02*
X135595479Y-38533635D01*
X135595479Y-38725223D02*
X135595479Y-38359463D01*
X135421308Y-38359463D01*
D11*
%TO.C,C6*%
X136131448Y-36347427D02*
X136163186Y-36379165D01*
X136258399Y-36410903D01*
X136321875Y-36410903D01*
X136417089Y-36379165D01*
X136480565Y-36315689D01*
X136512303Y-36252213D01*
X136544041Y-36125261D01*
X136544041Y-36030048D01*
X136512303Y-35903096D01*
X136480565Y-35839620D01*
X136417089Y-35776145D01*
X136321875Y-35744407D01*
X136258399Y-35744407D01*
X136163186Y-35776145D01*
X136131448Y-35807882D01*
X135560166Y-35744407D02*
X135687117Y-35744407D01*
X135750593Y-35776145D01*
X135782331Y-35807882D01*
X135845807Y-35903096D01*
X135877545Y-36030048D01*
X135877545Y-36283951D01*
X135845807Y-36347427D01*
X135814069Y-36379165D01*
X135750593Y-36410903D01*
X135623641Y-36410903D01*
X135560166Y-36379165D01*
X135528428Y-36347427D01*
X135496690Y-36283951D01*
X135496690Y-36125261D01*
X135528428Y-36061786D01*
X135560166Y-36030048D01*
X135623641Y-35998310D01*
X135750593Y-35998310D01*
X135814069Y-36030048D01*
X135845807Y-36061786D01*
X135877545Y-36125261D01*
D12*
X136431502Y-37025223D02*
X136640508Y-37025223D01*
X136536005Y-37025223D02*
X136536005Y-36659463D01*
X136570839Y-36711715D01*
X136605674Y-36746549D01*
X136640508Y-36763966D01*
X136205079Y-36659463D02*
X136170245Y-36659463D01*
X136135411Y-36676881D01*
X136117994Y-36694298D01*
X136100577Y-36729132D01*
X136083159Y-36798801D01*
X136083159Y-36885886D01*
X136100577Y-36955555D01*
X136117994Y-36990389D01*
X136135411Y-37007806D01*
X136170245Y-37025223D01*
X136205079Y-37025223D01*
X136239914Y-37007806D01*
X136257331Y-36990389D01*
X136274748Y-36955555D01*
X136292165Y-36885886D01*
X136292165Y-36798801D01*
X136274748Y-36729132D01*
X136257331Y-36694298D01*
X136239914Y-36676881D01*
X136205079Y-36659463D01*
X135769651Y-36781383D02*
X135769651Y-37025223D01*
X135926405Y-36781383D02*
X135926405Y-36972972D01*
X135908988Y-37007806D01*
X135874154Y-37025223D01*
X135821902Y-37025223D01*
X135787068Y-37007806D01*
X135769651Y-36990389D01*
X135473559Y-36833635D02*
X135595479Y-36833635D01*
X135595479Y-37025223D02*
X135595479Y-36659463D01*
X135421308Y-36659463D01*
D11*
%TO.C,C7*%
X107131448Y-41020427D02*
X107163186Y-41052165D01*
X107258399Y-41083903D01*
X107321875Y-41083903D01*
X107417089Y-41052165D01*
X107480565Y-40988689D01*
X107512303Y-40925213D01*
X107544041Y-40798261D01*
X107544041Y-40703048D01*
X107512303Y-40576096D01*
X107480565Y-40512620D01*
X107417089Y-40449145D01*
X107321875Y-40417407D01*
X107258399Y-40417407D01*
X107163186Y-40449145D01*
X107131448Y-40480882D01*
X106909282Y-40417407D02*
X106464952Y-40417407D01*
X106750593Y-41083903D01*
D12*
X107627594Y-41359463D02*
X107592759Y-41359463D01*
X107557925Y-41376881D01*
X107540508Y-41394298D01*
X107523091Y-41429132D01*
X107505674Y-41498801D01*
X107505674Y-41585886D01*
X107523091Y-41655555D01*
X107540508Y-41690389D01*
X107557925Y-41707806D01*
X107592759Y-41725223D01*
X107627594Y-41725223D01*
X107662428Y-41707806D01*
X107679845Y-41690389D01*
X107697262Y-41655555D01*
X107714679Y-41585886D01*
X107714679Y-41498801D01*
X107697262Y-41429132D01*
X107679845Y-41394298D01*
X107662428Y-41376881D01*
X107627594Y-41359463D01*
X107348919Y-41690389D02*
X107331502Y-41707806D01*
X107348919Y-41725223D01*
X107366337Y-41707806D01*
X107348919Y-41690389D01*
X107348919Y-41725223D01*
X106983159Y-41725223D02*
X107192165Y-41725223D01*
X107087662Y-41725223D02*
X107087662Y-41359463D01*
X107122497Y-41411715D01*
X107157331Y-41446549D01*
X107192165Y-41463966D01*
X106669651Y-41481383D02*
X106669651Y-41725223D01*
X106826405Y-41481383D02*
X106826405Y-41672972D01*
X106808988Y-41707806D01*
X106774154Y-41725223D01*
X106721902Y-41725223D01*
X106687068Y-41707806D01*
X106669651Y-41690389D01*
X106373559Y-41533635D02*
X106495479Y-41533635D01*
X106495479Y-41725223D02*
X106495479Y-41359463D01*
X106321308Y-41359463D01*
D13*
%TO.C,X2*%
X112309686Y-52618602D02*
X111530753Y-53787002D01*
X111530753Y-52618602D02*
X112309686Y-53787002D01*
X111141286Y-52729879D02*
X111085648Y-52674241D01*
X110974372Y-52618602D01*
X110696181Y-52618602D01*
X110584905Y-52674241D01*
X110529267Y-52729879D01*
X110473629Y-52841155D01*
X110473629Y-52952431D01*
X110529267Y-53119345D01*
X111196924Y-53787002D01*
X110473629Y-53787002D01*
X122798410Y-71643383D02*
X122408943Y-71643383D01*
X122242029Y-72255402D02*
X122798410Y-72255402D01*
X122798410Y-71087002D01*
X122242029Y-71087002D01*
X121796924Y-72199764D02*
X121630010Y-72255402D01*
X121351820Y-72255402D01*
X121240543Y-72199764D01*
X121184905Y-72144126D01*
X121129267Y-72032850D01*
X121129267Y-71921574D01*
X121184905Y-71810298D01*
X121240543Y-71754660D01*
X121351820Y-71699021D01*
X121574372Y-71643383D01*
X121685648Y-71587745D01*
X121741286Y-71532107D01*
X121796924Y-71420831D01*
X121796924Y-71309555D01*
X121741286Y-71198279D01*
X121685648Y-71142641D01*
X121574372Y-71087002D01*
X121296181Y-71087002D01*
X121129267Y-71142641D01*
X120628524Y-72255402D02*
X120628524Y-71087002D01*
X120183420Y-71087002D01*
X120072143Y-71142641D01*
X120016505Y-71198279D01*
X119960867Y-71309555D01*
X119960867Y-71476469D01*
X120016505Y-71587745D01*
X120072143Y-71643383D01*
X120183420Y-71699021D01*
X120628524Y-71699021D01*
X119571401Y-71087002D02*
X118848105Y-71087002D01*
X119237572Y-71532107D01*
X119070658Y-71532107D01*
X118959381Y-71587745D01*
X118903743Y-71643383D01*
X118848105Y-71754660D01*
X118848105Y-72032850D01*
X118903743Y-72144126D01*
X118959381Y-72199764D01*
X119070658Y-72255402D01*
X119404486Y-72255402D01*
X119515762Y-72199764D01*
X119571401Y-72144126D01*
X118403001Y-71198279D02*
X118347362Y-71142641D01*
X118236086Y-71087002D01*
X117957896Y-71087002D01*
X117846620Y-71142641D01*
X117790981Y-71198279D01*
X117735343Y-71309555D01*
X117735343Y-71420831D01*
X117790981Y-71587745D01*
X118458639Y-72255402D01*
X117735343Y-72255402D01*
X117234601Y-71810298D02*
X116344391Y-71810298D01*
X115788010Y-72255402D02*
X115788010Y-71087002D01*
X115342905Y-71087002D01*
X115231629Y-71142641D01*
X115175991Y-71198279D01*
X115120353Y-71309555D01*
X115120353Y-71476469D01*
X115175991Y-71587745D01*
X115231629Y-71643383D01*
X115342905Y-71699021D01*
X115788010Y-71699021D01*
X114619610Y-72255402D02*
X114619610Y-71087002D01*
X113395572Y-72144126D02*
X113451210Y-72199764D01*
X113618124Y-72255402D01*
X113729401Y-72255402D01*
X113896315Y-72199764D01*
X114007591Y-72088488D01*
X114063229Y-71977212D01*
X114118867Y-71754660D01*
X114118867Y-71587745D01*
X114063229Y-71365193D01*
X114007591Y-71253917D01*
X113896315Y-71142641D01*
X113729401Y-71087002D01*
X113618124Y-71087002D01*
X113451210Y-71142641D01*
X113395572Y-71198279D01*
X112672277Y-71087002D02*
X112449724Y-71087002D01*
X112338448Y-71142641D01*
X112227172Y-71253917D01*
X112171534Y-71476469D01*
X112171534Y-71865936D01*
X112227172Y-72088488D01*
X112338448Y-72199764D01*
X112449724Y-72255402D01*
X112672277Y-72255402D01*
X112783553Y-72199764D01*
X112894829Y-72088488D01*
X112950467Y-71865936D01*
X112950467Y-71476469D01*
X112894829Y-71253917D01*
X112783553Y-71142641D01*
X112672277Y-71087002D01*
X111670791Y-71810298D02*
X110780581Y-71810298D01*
X110224201Y-72255402D02*
X110224201Y-71087002D01*
X109834734Y-71921574D01*
X109445267Y-71087002D01*
X109445267Y-72255402D01*
X108888886Y-72255402D02*
X108888886Y-71087002D01*
X108332505Y-72255402D02*
X108332505Y-71087002D01*
X107664848Y-72255402D01*
X107664848Y-71087002D01*
X107108467Y-72255402D02*
X107108467Y-71087002D01*
X106552086Y-71810298D02*
X105661877Y-71810298D01*
X104882943Y-71087002D02*
X104771667Y-71087002D01*
X104660391Y-71142641D01*
X104604753Y-71198279D01*
X104549115Y-71309555D01*
X104493477Y-71532107D01*
X104493477Y-71810298D01*
X104549115Y-72032850D01*
X104604753Y-72144126D01*
X104660391Y-72199764D01*
X104771667Y-72255402D01*
X104882943Y-72255402D01*
X104994220Y-72199764D01*
X105049858Y-72144126D01*
X105105496Y-72032850D01*
X105161134Y-71810298D01*
X105161134Y-71532107D01*
X105105496Y-71309555D01*
X105049858Y-71198279D01*
X104994220Y-71142641D01*
X104882943Y-71087002D01*
X104048372Y-71198279D02*
X103992734Y-71142641D01*
X103881458Y-71087002D01*
X103603267Y-71087002D01*
X103491991Y-71142641D01*
X103436353Y-71198279D01*
X103380715Y-71309555D01*
X103380715Y-71420831D01*
X103436353Y-71587745D01*
X104104010Y-72255402D01*
X103380715Y-72255402D01*
X102879972Y-72255402D02*
X102879972Y-71087002D01*
X102490505Y-71921574D01*
X102101039Y-71087002D01*
X102101039Y-72255402D01*
X101544658Y-72255402D02*
X101544658Y-71087002D01*
X100988277Y-72255402D02*
X100988277Y-71087002D01*
X100320620Y-72255402D01*
X100320620Y-71087002D01*
X99764239Y-72255402D02*
X99764239Y-71087002D01*
D11*
%TO.C,R9*%
X72607999Y-91910903D02*
X72830164Y-91593524D01*
X72988853Y-91910903D02*
X72988853Y-91244407D01*
X72734950Y-91244407D01*
X72671474Y-91276145D01*
X72639736Y-91307882D01*
X72607999Y-91371358D01*
X72607999Y-91466572D01*
X72639736Y-91530048D01*
X72671474Y-91561786D01*
X72734950Y-91593524D01*
X72988853Y-91593524D01*
X72290619Y-91910903D02*
X72163668Y-91910903D01*
X72100192Y-91879165D01*
X72068454Y-91847427D01*
X72004978Y-91752213D01*
X71973240Y-91625261D01*
X71973240Y-91371358D01*
X72004978Y-91307882D01*
X72036716Y-91276145D01*
X72100192Y-91244407D01*
X72227144Y-91244407D01*
X72290619Y-91276145D01*
X72322357Y-91307882D01*
X72354095Y-91371358D01*
X72354095Y-91530048D01*
X72322357Y-91593524D01*
X72290619Y-91625261D01*
X72227144Y-91656999D01*
X72100192Y-91656999D01*
X72036716Y-91625261D01*
X72004978Y-91593524D01*
X71973240Y-91530048D01*
D12*
X72837550Y-92525223D02*
X73046556Y-92525223D01*
X72942053Y-92525223D02*
X72942053Y-92159463D01*
X72976887Y-92211715D01*
X73011722Y-92246549D01*
X73046556Y-92263966D01*
X72611127Y-92159463D02*
X72576293Y-92159463D01*
X72541459Y-92176881D01*
X72524042Y-92194298D01*
X72506625Y-92229132D01*
X72489207Y-92298801D01*
X72489207Y-92385886D01*
X72506625Y-92455555D01*
X72524042Y-92490389D01*
X72541459Y-92507806D01*
X72576293Y-92525223D01*
X72611127Y-92525223D01*
X72645962Y-92507806D01*
X72663379Y-92490389D01*
X72680796Y-92455555D01*
X72698213Y-92385886D01*
X72698213Y-92298801D01*
X72680796Y-92229132D01*
X72663379Y-92194298D01*
X72645962Y-92176881D01*
X72611127Y-92159463D01*
X72332453Y-92525223D02*
X72332453Y-92159463D01*
X72123447Y-92525223D02*
X72280202Y-92316218D01*
X72123447Y-92159463D02*
X72332453Y-92368469D01*
D11*
%TO.C,Q4*%
X89293523Y-39947378D02*
X89356999Y-39915641D01*
X89420474Y-39852165D01*
X89515688Y-39756951D01*
X89579164Y-39725213D01*
X89642640Y-39725213D01*
X89610902Y-39883903D02*
X89674378Y-39852165D01*
X89737853Y-39788689D01*
X89769591Y-39661737D01*
X89769591Y-39439572D01*
X89737853Y-39312620D01*
X89674378Y-39249145D01*
X89610902Y-39217407D01*
X89483950Y-39217407D01*
X89420474Y-39249145D01*
X89356999Y-39312620D01*
X89325261Y-39439572D01*
X89325261Y-39661737D01*
X89356999Y-39788689D01*
X89420474Y-39852165D01*
X89483950Y-39883903D01*
X89610902Y-39883903D01*
X88753978Y-39439572D02*
X88753978Y-39883903D01*
X88912668Y-39185669D02*
X89071357Y-39661737D01*
X88658765Y-39661737D01*
D12*
X89878139Y-40533223D02*
X89878139Y-40167463D01*
X89791053Y-40167463D01*
X89738802Y-40184881D01*
X89703967Y-40219715D01*
X89686550Y-40254549D01*
X89669133Y-40324218D01*
X89669133Y-40376469D01*
X89686550Y-40446138D01*
X89703967Y-40480972D01*
X89738802Y-40515806D01*
X89791053Y-40533223D01*
X89878139Y-40533223D01*
X89512379Y-40167463D02*
X89512379Y-40463555D01*
X89494962Y-40498389D01*
X89477545Y-40515806D01*
X89442710Y-40533223D01*
X89373042Y-40533223D01*
X89338207Y-40515806D01*
X89320790Y-40498389D01*
X89303373Y-40463555D01*
X89303373Y-40167463D01*
X89146619Y-40428721D02*
X88972447Y-40428721D01*
X89181453Y-40533223D02*
X89059533Y-40167463D01*
X88937613Y-40533223D01*
X88641522Y-40533223D02*
X88815693Y-40533223D01*
X88815693Y-40167463D01*
X88240927Y-40533223D02*
X88240927Y-40167463D01*
X88031922Y-40533223D01*
X88031922Y-40167463D01*
X87857750Y-40533223D02*
X87857750Y-40167463D01*
X87718413Y-40167463D01*
X87683579Y-40184881D01*
X87666162Y-40202298D01*
X87648745Y-40237132D01*
X87648745Y-40289383D01*
X87666162Y-40324218D01*
X87683579Y-40341635D01*
X87718413Y-40359052D01*
X87857750Y-40359052D01*
X87491990Y-40533223D02*
X87491990Y-40167463D01*
X87282985Y-40533223D01*
X87282985Y-40167463D01*
D11*
%TO.C,R12*%
X125234206Y-41710903D02*
X125456371Y-41393524D01*
X125615061Y-41710903D02*
X125615061Y-41044407D01*
X125361158Y-41044407D01*
X125297682Y-41076145D01*
X125265944Y-41107882D01*
X125234206Y-41171358D01*
X125234206Y-41266572D01*
X125265944Y-41330048D01*
X125297682Y-41361786D01*
X125361158Y-41393524D01*
X125615061Y-41393524D01*
X124599448Y-41710903D02*
X124980303Y-41710903D01*
X124789875Y-41710903D02*
X124789875Y-41044407D01*
X124853351Y-41139620D01*
X124916827Y-41203096D01*
X124980303Y-41234834D01*
X124345545Y-41107882D02*
X124313807Y-41076145D01*
X124250331Y-41044407D01*
X124091641Y-41044407D01*
X124028166Y-41076145D01*
X123996428Y-41107882D01*
X123964690Y-41171358D01*
X123964690Y-41234834D01*
X123996428Y-41330048D01*
X124377282Y-41710903D01*
X123964690Y-41710903D01*
D12*
X125444417Y-42059463D02*
X125618588Y-42059463D01*
X125636005Y-42233635D01*
X125618588Y-42216218D01*
X125583754Y-42198801D01*
X125496668Y-42198801D01*
X125461834Y-42216218D01*
X125444417Y-42233635D01*
X125426999Y-42268469D01*
X125426999Y-42355555D01*
X125444417Y-42390389D01*
X125461834Y-42407806D01*
X125496668Y-42425223D01*
X125583754Y-42425223D01*
X125618588Y-42407806D01*
X125636005Y-42390389D01*
X125270245Y-42390389D02*
X125252828Y-42407806D01*
X125270245Y-42425223D01*
X125287662Y-42407806D01*
X125270245Y-42390389D01*
X125270245Y-42425223D01*
X124904485Y-42425223D02*
X125113491Y-42425223D01*
X125008988Y-42425223D02*
X125008988Y-42059463D01*
X125043822Y-42111715D01*
X125078657Y-42146549D01*
X125113491Y-42163966D01*
X124747731Y-42425223D02*
X124747731Y-42059463D01*
X124538725Y-42425223D02*
X124695479Y-42216218D01*
X124538725Y-42059463D02*
X124747731Y-42268469D01*
D11*
%TO.C,U1*%
X119188853Y-37544407D02*
X119188853Y-38083951D01*
X119157115Y-38147427D01*
X119125378Y-38179165D01*
X119061902Y-38210903D01*
X118934950Y-38210903D01*
X118871474Y-38179165D01*
X118839736Y-38147427D01*
X118807999Y-38083951D01*
X118807999Y-37544407D01*
X118141503Y-38210903D02*
X118522357Y-38210903D01*
X118331930Y-38210903D02*
X118331930Y-37544407D01*
X118395406Y-37639620D01*
X118458882Y-37703096D01*
X118522357Y-37734834D01*
D12*
X119346556Y-38755721D02*
X119172385Y-38755721D01*
X119381390Y-38860223D02*
X119259470Y-38494463D01*
X119137550Y-38860223D01*
X119015630Y-38860223D02*
X119015630Y-38494463D01*
X118876293Y-38494463D01*
X118841459Y-38511881D01*
X118824042Y-38529298D01*
X118806625Y-38564132D01*
X118806625Y-38616383D01*
X118824042Y-38651218D01*
X118841459Y-38668635D01*
X118876293Y-38686052D01*
X119015630Y-38686052D01*
X118667287Y-38529298D02*
X118649870Y-38511881D01*
X118615036Y-38494463D01*
X118527950Y-38494463D01*
X118493116Y-38511881D01*
X118475699Y-38529298D01*
X118458282Y-38564132D01*
X118458282Y-38598966D01*
X118475699Y-38651218D01*
X118684705Y-38860223D01*
X118458282Y-38860223D01*
X118109939Y-38860223D02*
X118318945Y-38860223D01*
X118214442Y-38860223D02*
X118214442Y-38494463D01*
X118249276Y-38546715D01*
X118284110Y-38581549D01*
X118318945Y-38598966D01*
X117761596Y-38860223D02*
X117970602Y-38860223D01*
X117866099Y-38860223D02*
X117866099Y-38494463D01*
X117900933Y-38546715D01*
X117935767Y-38581549D01*
X117970602Y-38598966D01*
X117622259Y-38529298D02*
X117604842Y-38511881D01*
X117570007Y-38494463D01*
X117482922Y-38494463D01*
X117448087Y-38511881D01*
X117430670Y-38529298D01*
X117413253Y-38564132D01*
X117413253Y-38598966D01*
X117430670Y-38651218D01*
X117639676Y-38860223D01*
X117413253Y-38860223D01*
X117256499Y-38720886D02*
X116977825Y-38720886D01*
X116838487Y-38494463D02*
X116612065Y-38494463D01*
X116733985Y-38633801D01*
X116681733Y-38633801D01*
X116646899Y-38651218D01*
X116629482Y-38668635D01*
X116612065Y-38703469D01*
X116612065Y-38790555D01*
X116629482Y-38825389D01*
X116646899Y-38842806D01*
X116681733Y-38860223D01*
X116786236Y-38860223D01*
X116821070Y-38842806D01*
X116838487Y-38825389D01*
X116455310Y-38825389D02*
X116437893Y-38842806D01*
X116455310Y-38860223D01*
X116472727Y-38842806D01*
X116455310Y-38825389D01*
X116455310Y-38860223D01*
X116315973Y-38494463D02*
X116089550Y-38494463D01*
X116211470Y-38633801D01*
X116159219Y-38633801D01*
X116124385Y-38651218D01*
X116106967Y-38668635D01*
X116089550Y-38703469D01*
X116089550Y-38790555D01*
X116106967Y-38825389D01*
X116124385Y-38842806D01*
X116159219Y-38860223D01*
X116263722Y-38860223D01*
X116298556Y-38842806D01*
X116315973Y-38825389D01*
D11*
%TO.C,C15*%
X111557999Y-30747427D02*
X111589736Y-30779165D01*
X111684950Y-30810903D01*
X111748426Y-30810903D01*
X111843640Y-30779165D01*
X111907115Y-30715689D01*
X111938853Y-30652213D01*
X111970591Y-30525261D01*
X111970591Y-30430048D01*
X111938853Y-30303096D01*
X111907115Y-30239620D01*
X111843640Y-30176145D01*
X111748426Y-30144407D01*
X111684950Y-30144407D01*
X111589736Y-30176145D01*
X111557999Y-30207882D01*
X110923240Y-30810903D02*
X111304095Y-30810903D01*
X111113668Y-30810903D02*
X111113668Y-30144407D01*
X111177144Y-30239620D01*
X111240619Y-30303096D01*
X111304095Y-30334834D01*
X110320220Y-30144407D02*
X110637599Y-30144407D01*
X110669337Y-30461786D01*
X110637599Y-30430048D01*
X110574123Y-30398310D01*
X110415434Y-30398310D01*
X110351958Y-30430048D01*
X110320220Y-30461786D01*
X110288482Y-30525261D01*
X110288482Y-30683951D01*
X110320220Y-30747427D01*
X110351958Y-30779165D01*
X110415434Y-30810903D01*
X110574123Y-30810903D01*
X110637599Y-30779165D01*
X110669337Y-30747427D01*
D12*
X111855550Y-31587223D02*
X112064556Y-31587223D01*
X111960053Y-31587223D02*
X111960053Y-31221463D01*
X111994887Y-31273715D01*
X112029722Y-31308549D01*
X112064556Y-31325966D01*
X111629127Y-31221463D02*
X111594293Y-31221463D01*
X111559459Y-31238881D01*
X111542042Y-31256298D01*
X111524625Y-31291132D01*
X111507207Y-31360801D01*
X111507207Y-31447886D01*
X111524625Y-31517555D01*
X111542042Y-31552389D01*
X111559459Y-31569806D01*
X111594293Y-31587223D01*
X111629127Y-31587223D01*
X111663962Y-31569806D01*
X111681379Y-31552389D01*
X111698796Y-31517555D01*
X111716213Y-31447886D01*
X111716213Y-31360801D01*
X111698796Y-31291132D01*
X111681379Y-31256298D01*
X111663962Y-31238881D01*
X111629127Y-31221463D01*
X111193699Y-31343383D02*
X111193699Y-31587223D01*
X111350453Y-31343383D02*
X111350453Y-31534972D01*
X111333036Y-31569806D01*
X111298202Y-31587223D01*
X111245950Y-31587223D01*
X111211116Y-31569806D01*
X111193699Y-31552389D01*
X110897607Y-31395635D02*
X111019527Y-31395635D01*
X111019527Y-31587223D02*
X111019527Y-31221463D01*
X110845356Y-31221463D01*
D11*
%TO.C,C14*%
X77575999Y-34274427D02*
X77607736Y-34306165D01*
X77702950Y-34337903D01*
X77766426Y-34337903D01*
X77861640Y-34306165D01*
X77925115Y-34242689D01*
X77956853Y-34179213D01*
X77988591Y-34052261D01*
X77988591Y-33957048D01*
X77956853Y-33830096D01*
X77925115Y-33766620D01*
X77861640Y-33703145D01*
X77766426Y-33671407D01*
X77702950Y-33671407D01*
X77607736Y-33703145D01*
X77575999Y-33734882D01*
X76941240Y-34337903D02*
X77322095Y-34337903D01*
X77131668Y-34337903D02*
X77131668Y-33671407D01*
X77195144Y-33766620D01*
X77258619Y-33830096D01*
X77322095Y-33861834D01*
X76369958Y-33893572D02*
X76369958Y-34337903D01*
X76528648Y-33639669D02*
X76687337Y-34115737D01*
X76274744Y-34115737D01*
D12*
X77905550Y-34987223D02*
X78114556Y-34987223D01*
X78010053Y-34987223D02*
X78010053Y-34621463D01*
X78044887Y-34673715D01*
X78079722Y-34708549D01*
X78114556Y-34725966D01*
X77592042Y-34743383D02*
X77592042Y-34987223D01*
X77748796Y-34743383D02*
X77748796Y-34934972D01*
X77731379Y-34969806D01*
X77696545Y-34987223D01*
X77644293Y-34987223D01*
X77609459Y-34969806D01*
X77592042Y-34952389D01*
X77295950Y-34795635D02*
X77417870Y-34795635D01*
X77417870Y-34987223D02*
X77417870Y-34621463D01*
X77243699Y-34621463D01*
D11*
%TO.C,C9*%
X107131448Y-43247427D02*
X107163186Y-43279165D01*
X107258399Y-43310903D01*
X107321875Y-43310903D01*
X107417089Y-43279165D01*
X107480565Y-43215689D01*
X107512303Y-43152213D01*
X107544041Y-43025261D01*
X107544041Y-42930048D01*
X107512303Y-42803096D01*
X107480565Y-42739620D01*
X107417089Y-42676145D01*
X107321875Y-42644407D01*
X107258399Y-42644407D01*
X107163186Y-42676145D01*
X107131448Y-42707882D01*
X106814069Y-43310903D02*
X106687117Y-43310903D01*
X106623641Y-43279165D01*
X106591903Y-43247427D01*
X106528428Y-43152213D01*
X106496690Y-43025261D01*
X106496690Y-42771358D01*
X106528428Y-42707882D01*
X106560166Y-42676145D01*
X106623641Y-42644407D01*
X106750593Y-42644407D01*
X106814069Y-42676145D01*
X106845807Y-42707882D01*
X106877545Y-42771358D01*
X106877545Y-42930048D01*
X106845807Y-42993524D01*
X106814069Y-43025261D01*
X106750593Y-43056999D01*
X106623641Y-43056999D01*
X106560166Y-43025261D01*
X106528428Y-42993524D01*
X106496690Y-42930048D01*
D12*
X107659594Y-43559463D02*
X107624759Y-43559463D01*
X107589925Y-43576881D01*
X107572508Y-43594298D01*
X107555091Y-43629132D01*
X107537674Y-43698801D01*
X107537674Y-43785886D01*
X107555091Y-43855555D01*
X107572508Y-43890389D01*
X107589925Y-43907806D01*
X107624759Y-43925223D01*
X107659594Y-43925223D01*
X107694428Y-43907806D01*
X107711845Y-43890389D01*
X107729262Y-43855555D01*
X107746679Y-43785886D01*
X107746679Y-43698801D01*
X107729262Y-43629132D01*
X107711845Y-43594298D01*
X107694428Y-43576881D01*
X107659594Y-43559463D01*
X107380919Y-43890389D02*
X107363502Y-43907806D01*
X107380919Y-43925223D01*
X107398337Y-43907806D01*
X107380919Y-43890389D01*
X107380919Y-43925223D01*
X107015159Y-43925223D02*
X107224165Y-43925223D01*
X107119662Y-43925223D02*
X107119662Y-43559463D01*
X107154497Y-43611715D01*
X107189331Y-43646549D01*
X107224165Y-43663966D01*
X106701651Y-43681383D02*
X106701651Y-43925223D01*
X106858405Y-43681383D02*
X106858405Y-43872972D01*
X106840988Y-43907806D01*
X106806154Y-43925223D01*
X106753902Y-43925223D01*
X106719068Y-43907806D01*
X106701651Y-43890389D01*
X106405559Y-43733635D02*
X106527479Y-43733635D01*
X106527479Y-43925223D02*
X106527479Y-43559463D01*
X106353308Y-43559463D01*
D10*
%TO.C,Q2*%
X110118892Y-78281085D02*
X110195143Y-78242960D01*
X110271394Y-78166708D01*
X110385771Y-78052331D01*
X110462022Y-78014206D01*
X110538274Y-78014206D01*
X110500148Y-78204834D02*
X110576399Y-78166708D01*
X110652650Y-78090457D01*
X110690776Y-77937955D01*
X110690776Y-77671075D01*
X110652650Y-77518573D01*
X110576399Y-77442322D01*
X110500148Y-77404196D01*
X110347645Y-77404196D01*
X110271394Y-77442322D01*
X110195143Y-77518573D01*
X110157017Y-77671075D01*
X110157017Y-77937955D01*
X110195143Y-78090457D01*
X110271394Y-78166708D01*
X110347645Y-78204834D01*
X110500148Y-78204834D01*
X109852012Y-77480447D02*
X109813887Y-77442322D01*
X109737636Y-77404196D01*
X109547007Y-77404196D01*
X109470756Y-77442322D01*
X109432631Y-77480447D01*
X109394505Y-77556698D01*
X109394505Y-77632950D01*
X109432631Y-77747326D01*
X109890138Y-78204834D01*
X109394505Y-78204834D01*
D11*
%TO.C,U3*%
X111660853Y-40644307D02*
X111660853Y-41183851D01*
X111629115Y-41247327D01*
X111597378Y-41279065D01*
X111533902Y-41310803D01*
X111406950Y-41310803D01*
X111343474Y-41279065D01*
X111311736Y-41247327D01*
X111279999Y-41183851D01*
X111279999Y-40644307D01*
X111026095Y-40644307D02*
X110613503Y-40644307D01*
X110835668Y-40898210D01*
X110740454Y-40898210D01*
X110676978Y-40929948D01*
X110645240Y-40961686D01*
X110613503Y-41025161D01*
X110613503Y-41183851D01*
X110645240Y-41247327D01*
X110676978Y-41279065D01*
X110740454Y-41310803D01*
X110930882Y-41310803D01*
X110994357Y-41279065D01*
X111026095Y-41247327D01*
D12*
X111818556Y-41855621D02*
X111644385Y-41855621D01*
X111853390Y-41960123D02*
X111731470Y-41594363D01*
X111609550Y-41960123D01*
X111487630Y-41960123D02*
X111487630Y-41594363D01*
X111348293Y-41594363D01*
X111313459Y-41611781D01*
X111296042Y-41629198D01*
X111278625Y-41664032D01*
X111278625Y-41716283D01*
X111296042Y-41751118D01*
X111313459Y-41768535D01*
X111348293Y-41785952D01*
X111487630Y-41785952D01*
X111139287Y-41629198D02*
X111121870Y-41611781D01*
X111087036Y-41594363D01*
X110999950Y-41594363D01*
X110965116Y-41611781D01*
X110947699Y-41629198D01*
X110930282Y-41664032D01*
X110930282Y-41698866D01*
X110947699Y-41751118D01*
X111156705Y-41960123D01*
X110930282Y-41960123D01*
X110581939Y-41960123D02*
X110790945Y-41960123D01*
X110686442Y-41960123D02*
X110686442Y-41594363D01*
X110721276Y-41646615D01*
X110756110Y-41681449D01*
X110790945Y-41698866D01*
X110233596Y-41960123D02*
X110442602Y-41960123D01*
X110338099Y-41960123D02*
X110338099Y-41594363D01*
X110372933Y-41646615D01*
X110407767Y-41681449D01*
X110442602Y-41698866D01*
X110094259Y-41629198D02*
X110076842Y-41611781D01*
X110042007Y-41594363D01*
X109954922Y-41594363D01*
X109920087Y-41611781D01*
X109902670Y-41629198D01*
X109885253Y-41664032D01*
X109885253Y-41698866D01*
X109902670Y-41751118D01*
X110111676Y-41960123D01*
X109885253Y-41960123D01*
X109728499Y-41820786D02*
X109449825Y-41820786D01*
X109310487Y-41594363D02*
X109084065Y-41594363D01*
X109205985Y-41733701D01*
X109153733Y-41733701D01*
X109118899Y-41751118D01*
X109101482Y-41768535D01*
X109084065Y-41803369D01*
X109084065Y-41890455D01*
X109101482Y-41925289D01*
X109118899Y-41942706D01*
X109153733Y-41960123D01*
X109258236Y-41960123D01*
X109293070Y-41942706D01*
X109310487Y-41925289D01*
X108927310Y-41925289D02*
X108909893Y-41942706D01*
X108927310Y-41960123D01*
X108944727Y-41942706D01*
X108927310Y-41925289D01*
X108927310Y-41960123D01*
X108787973Y-41594363D02*
X108561550Y-41594363D01*
X108683470Y-41733701D01*
X108631219Y-41733701D01*
X108596385Y-41751118D01*
X108578967Y-41768535D01*
X108561550Y-41803369D01*
X108561550Y-41890455D01*
X108578967Y-41925289D01*
X108596385Y-41942706D01*
X108631219Y-41960123D01*
X108735722Y-41960123D01*
X108770556Y-41942706D01*
X108787973Y-41925289D01*
D11*
%TO.C,R7*%
X106599448Y-32610903D02*
X106821613Y-32293524D01*
X106980303Y-32610903D02*
X106980303Y-31944407D01*
X106726399Y-31944407D01*
X106662924Y-31976145D01*
X106631186Y-32007882D01*
X106599448Y-32071358D01*
X106599448Y-32166572D01*
X106631186Y-32230048D01*
X106662924Y-32261786D01*
X106726399Y-32293524D01*
X106980303Y-32293524D01*
X106377282Y-31944407D02*
X105932952Y-31944407D01*
X106218593Y-32610903D01*
D14*
X106232684Y-37220126D02*
X106232684Y-37707806D01*
X106406855Y-36941452D02*
X106581027Y-37463966D01*
X106128181Y-37463966D01*
X105919175Y-36976286D02*
X105431495Y-36976286D01*
X105745004Y-37707806D01*
X105152821Y-37707806D02*
X105152821Y-36976286D01*
X104734810Y-37707806D02*
X105048318Y-37289795D01*
X104734810Y-36976286D02*
X105152821Y-37394298D01*
D11*
%TO.C,C17*%
X111525999Y-34874427D02*
X111557736Y-34906165D01*
X111652950Y-34937903D01*
X111716426Y-34937903D01*
X111811640Y-34906165D01*
X111875115Y-34842689D01*
X111906853Y-34779213D01*
X111938591Y-34652261D01*
X111938591Y-34557048D01*
X111906853Y-34430096D01*
X111875115Y-34366620D01*
X111811640Y-34303145D01*
X111716426Y-34271407D01*
X111652950Y-34271407D01*
X111557736Y-34303145D01*
X111525999Y-34334882D01*
X110891240Y-34937903D02*
X111272095Y-34937903D01*
X111081668Y-34937903D02*
X111081668Y-34271407D01*
X111145144Y-34366620D01*
X111208619Y-34430096D01*
X111272095Y-34461834D01*
X110669075Y-34271407D02*
X110224744Y-34271407D01*
X110510386Y-34937903D01*
D12*
X111855550Y-35587223D02*
X112064556Y-35587223D01*
X111960053Y-35587223D02*
X111960053Y-35221463D01*
X111994887Y-35273715D01*
X112029722Y-35308549D01*
X112064556Y-35325966D01*
X111629127Y-35221463D02*
X111594293Y-35221463D01*
X111559459Y-35238881D01*
X111542042Y-35256298D01*
X111524625Y-35291132D01*
X111507207Y-35360801D01*
X111507207Y-35447886D01*
X111524625Y-35517555D01*
X111542042Y-35552389D01*
X111559459Y-35569806D01*
X111594293Y-35587223D01*
X111629127Y-35587223D01*
X111663962Y-35569806D01*
X111681379Y-35552389D01*
X111698796Y-35517555D01*
X111716213Y-35447886D01*
X111716213Y-35360801D01*
X111698796Y-35291132D01*
X111681379Y-35256298D01*
X111663962Y-35238881D01*
X111629127Y-35221463D01*
X111193699Y-35343383D02*
X111193699Y-35587223D01*
X111350453Y-35343383D02*
X111350453Y-35534972D01*
X111333036Y-35569806D01*
X111298202Y-35587223D01*
X111245950Y-35587223D01*
X111211116Y-35569806D01*
X111193699Y-35552389D01*
X110897607Y-35395635D02*
X111019527Y-35395635D01*
X111019527Y-35587223D02*
X111019527Y-35221463D01*
X110845356Y-35221463D01*
D10*
%TO.C,R2*%
X115509307Y-78195021D02*
X115842641Y-77718831D01*
X116080736Y-78195021D02*
X116080736Y-77195021D01*
X115699783Y-77195021D01*
X115604545Y-77242641D01*
X115556926Y-77290260D01*
X115509307Y-77385498D01*
X115509307Y-77528355D01*
X115556926Y-77623593D01*
X115604545Y-77671212D01*
X115699783Y-77718831D01*
X116080736Y-77718831D01*
X115128355Y-77290260D02*
X115080736Y-77242641D01*
X114985498Y-77195021D01*
X114747402Y-77195021D01*
X114652164Y-77242641D01*
X114604545Y-77290260D01*
X114556926Y-77385498D01*
X114556926Y-77480736D01*
X114604545Y-77623593D01*
X115175974Y-78195021D01*
X114556926Y-78195021D01*
D11*
%TO.C,C13*%
X126734206Y-69247427D02*
X126765944Y-69279165D01*
X126861158Y-69310903D01*
X126924633Y-69310903D01*
X127019847Y-69279165D01*
X127083323Y-69215689D01*
X127115061Y-69152213D01*
X127146799Y-69025261D01*
X127146799Y-68930048D01*
X127115061Y-68803096D01*
X127083323Y-68739620D01*
X127019847Y-68676145D01*
X126924633Y-68644407D01*
X126861158Y-68644407D01*
X126765944Y-68676145D01*
X126734206Y-68707882D01*
X126099448Y-69310903D02*
X126480303Y-69310903D01*
X126289875Y-69310903D02*
X126289875Y-68644407D01*
X126353351Y-68739620D01*
X126416827Y-68803096D01*
X126480303Y-68834834D01*
X125877282Y-68644407D02*
X125464690Y-68644407D01*
X125686855Y-68898310D01*
X125591641Y-68898310D01*
X125528166Y-68930048D01*
X125496428Y-68961786D01*
X125464690Y-69025261D01*
X125464690Y-69183951D01*
X125496428Y-69247427D01*
X125528166Y-69279165D01*
X125591641Y-69310903D01*
X125782069Y-69310903D01*
X125845545Y-69279165D01*
X125877282Y-69247427D01*
D12*
X126833159Y-69925223D02*
X127042165Y-69925223D01*
X126937662Y-69925223D02*
X126937662Y-69559463D01*
X126972497Y-69611715D01*
X127007331Y-69646549D01*
X127042165Y-69663966D01*
X126519651Y-69681383D02*
X126519651Y-69925223D01*
X126676405Y-69681383D02*
X126676405Y-69872972D01*
X126658988Y-69907806D01*
X126624154Y-69925223D01*
X126571902Y-69925223D01*
X126537068Y-69907806D01*
X126519651Y-69890389D01*
X126223559Y-69733635D02*
X126345479Y-69733635D01*
X126345479Y-69925223D02*
X126345479Y-69559463D01*
X126171308Y-69559463D01*
D11*
%TO.C,R6*%
X100999448Y-34710903D02*
X101221613Y-34393524D01*
X101380303Y-34710903D02*
X101380303Y-34044407D01*
X101126399Y-34044407D01*
X101062924Y-34076145D01*
X101031186Y-34107882D01*
X100999448Y-34171358D01*
X100999448Y-34266572D01*
X101031186Y-34330048D01*
X101062924Y-34361786D01*
X101126399Y-34393524D01*
X101380303Y-34393524D01*
X100428166Y-34044407D02*
X100555117Y-34044407D01*
X100618593Y-34076145D01*
X100650331Y-34107882D01*
X100713807Y-34203096D01*
X100745545Y-34330048D01*
X100745545Y-34583951D01*
X100713807Y-34647427D01*
X100682069Y-34679165D01*
X100618593Y-34710903D01*
X100491641Y-34710903D01*
X100428166Y-34679165D01*
X100396428Y-34647427D01*
X100364690Y-34583951D01*
X100364690Y-34425261D01*
X100396428Y-34361786D01*
X100428166Y-34330048D01*
X100491641Y-34298310D01*
X100618593Y-34298310D01*
X100682069Y-34330048D01*
X100713807Y-34361786D01*
X100745545Y-34425261D01*
D12*
X101044417Y-35059463D02*
X101218588Y-35059463D01*
X101236005Y-35233635D01*
X101218588Y-35216218D01*
X101183754Y-35198801D01*
X101096668Y-35198801D01*
X101061834Y-35216218D01*
X101044417Y-35233635D01*
X101026999Y-35268469D01*
X101026999Y-35355555D01*
X101044417Y-35390389D01*
X101061834Y-35407806D01*
X101096668Y-35425223D01*
X101183754Y-35425223D01*
X101218588Y-35407806D01*
X101236005Y-35390389D01*
X100870245Y-35390389D02*
X100852828Y-35407806D01*
X100870245Y-35425223D01*
X100887662Y-35407806D01*
X100870245Y-35390389D01*
X100870245Y-35425223D01*
X100504485Y-35425223D02*
X100713491Y-35425223D01*
X100608988Y-35425223D02*
X100608988Y-35059463D01*
X100643822Y-35111715D01*
X100678657Y-35146549D01*
X100713491Y-35163966D01*
X100347731Y-35425223D02*
X100347731Y-35059463D01*
X100138725Y-35425223D02*
X100295479Y-35216218D01*
X100138725Y-35059463D02*
X100347731Y-35268469D01*
D10*
%TO.C,TP1*%
X104504545Y-91695021D02*
X103933117Y-91695021D01*
X104218831Y-92695021D02*
X104218831Y-91695021D01*
X103599783Y-92695021D02*
X103599783Y-91695021D01*
X103218831Y-91695021D01*
X103123593Y-91742641D01*
X103075974Y-91790260D01*
X103028355Y-91885498D01*
X103028355Y-92028355D01*
X103075974Y-92123593D01*
X103123593Y-92171212D01*
X103218831Y-92218831D01*
X103599783Y-92218831D01*
X102075974Y-92695021D02*
X102647402Y-92695021D01*
X102361688Y-92695021D02*
X102361688Y-91695021D01*
X102456926Y-91837879D01*
X102552164Y-91933117D01*
X102647402Y-91980736D01*
X98704545Y-95242641D02*
X98799783Y-95195021D01*
X98942641Y-95195021D01*
X99085498Y-95242641D01*
X99180736Y-95337879D01*
X99228355Y-95433117D01*
X99275974Y-95623593D01*
X99275974Y-95766450D01*
X99228355Y-95956926D01*
X99180736Y-96052164D01*
X99085498Y-96147402D01*
X98942641Y-96195021D01*
X98847402Y-96195021D01*
X98704545Y-96147402D01*
X98656926Y-96099783D01*
X98656926Y-95766450D01*
X98847402Y-95766450D01*
X98228355Y-96195021D02*
X98228355Y-95195021D01*
X97656926Y-96195021D01*
X97656926Y-95195021D01*
X97180736Y-96195021D02*
X97180736Y-95195021D01*
X96942641Y-95195021D01*
X96799783Y-95242641D01*
X96704545Y-95337879D01*
X96656926Y-95433117D01*
X96609307Y-95623593D01*
X96609307Y-95766450D01*
X96656926Y-95956926D01*
X96704545Y-96052164D01*
X96799783Y-96147402D01*
X96942641Y-96195021D01*
X97180736Y-96195021D01*
X109880736Y-95571212D02*
X109737879Y-95618831D01*
X109690260Y-95666450D01*
X109642641Y-95761688D01*
X109642641Y-95904545D01*
X109690260Y-95999783D01*
X109737879Y-96047402D01*
X109833117Y-96095021D01*
X110214069Y-96095021D01*
X110214069Y-95095021D01*
X109880736Y-95095021D01*
X109785498Y-95142641D01*
X109737879Y-95190260D01*
X109690260Y-95285498D01*
X109690260Y-95380736D01*
X109737879Y-95475974D01*
X109785498Y-95523593D01*
X109880736Y-95571212D01*
X110214069Y-95571212D01*
X109261688Y-95809307D02*
X108785498Y-95809307D01*
X109356926Y-96095021D02*
X109023593Y-95095021D01*
X108690260Y-96095021D01*
X108499783Y-95095021D02*
X107928355Y-95095021D01*
X108214069Y-96095021D02*
X108214069Y-95095021D01*
X106833117Y-95714069D02*
X106071212Y-95714069D01*
X106452164Y-96095021D02*
X106452164Y-95333117D01*
D11*
%TO.C,C19*%
X125707999Y-35247427D02*
X125739736Y-35279165D01*
X125834950Y-35310903D01*
X125898426Y-35310903D01*
X125993640Y-35279165D01*
X126057115Y-35215689D01*
X126088853Y-35152213D01*
X126120591Y-35025261D01*
X126120591Y-34930048D01*
X126088853Y-34803096D01*
X126057115Y-34739620D01*
X125993640Y-34676145D01*
X125898426Y-34644407D01*
X125834950Y-34644407D01*
X125739736Y-34676145D01*
X125707999Y-34707882D01*
X125073240Y-35310903D02*
X125454095Y-35310903D01*
X125263668Y-35310903D02*
X125263668Y-34644407D01*
X125327144Y-34739620D01*
X125390619Y-34803096D01*
X125454095Y-34834834D01*
X124755861Y-35310903D02*
X124628910Y-35310903D01*
X124565434Y-35279165D01*
X124533696Y-35247427D01*
X124470220Y-35152213D01*
X124438482Y-35025261D01*
X124438482Y-34771358D01*
X124470220Y-34707882D01*
X124501958Y-34676145D01*
X124565434Y-34644407D01*
X124692386Y-34644407D01*
X124755861Y-34676145D01*
X124787599Y-34707882D01*
X124819337Y-34771358D01*
X124819337Y-34930048D01*
X124787599Y-34993524D01*
X124755861Y-35025261D01*
X124692386Y-35056999D01*
X124565434Y-35056999D01*
X124501958Y-35025261D01*
X124470220Y-34993524D01*
X124438482Y-34930048D01*
D12*
X125855550Y-35925223D02*
X126064556Y-35925223D01*
X125960053Y-35925223D02*
X125960053Y-35559463D01*
X125994887Y-35611715D01*
X126029722Y-35646549D01*
X126064556Y-35663966D01*
X125629127Y-35559463D02*
X125594293Y-35559463D01*
X125559459Y-35576881D01*
X125542042Y-35594298D01*
X125524625Y-35629132D01*
X125507207Y-35698801D01*
X125507207Y-35785886D01*
X125524625Y-35855555D01*
X125542042Y-35890389D01*
X125559459Y-35907806D01*
X125594293Y-35925223D01*
X125629127Y-35925223D01*
X125663962Y-35907806D01*
X125681379Y-35890389D01*
X125698796Y-35855555D01*
X125716213Y-35785886D01*
X125716213Y-35698801D01*
X125698796Y-35629132D01*
X125681379Y-35594298D01*
X125663962Y-35576881D01*
X125629127Y-35559463D01*
X125193699Y-35681383D02*
X125193699Y-35925223D01*
X125350453Y-35681383D02*
X125350453Y-35872972D01*
X125333036Y-35907806D01*
X125298202Y-35925223D01*
X125245950Y-35925223D01*
X125211116Y-35907806D01*
X125193699Y-35890389D01*
X124897607Y-35733635D02*
X125019527Y-35733635D01*
X125019527Y-35925223D02*
X125019527Y-35559463D01*
X124845356Y-35559463D01*
D11*
%TO.C,R18*%
X89829999Y-36337903D02*
X90052164Y-36020524D01*
X90210853Y-36337903D02*
X90210853Y-35671407D01*
X89956950Y-35671407D01*
X89893474Y-35703145D01*
X89861736Y-35734882D01*
X89829999Y-35798358D01*
X89829999Y-35893572D01*
X89861736Y-35957048D01*
X89893474Y-35988786D01*
X89956950Y-36020524D01*
X90210853Y-36020524D01*
X89195240Y-36337903D02*
X89576095Y-36337903D01*
X89385668Y-36337903D02*
X89385668Y-35671407D01*
X89449144Y-35766620D01*
X89512619Y-35830096D01*
X89576095Y-35861834D01*
X88814386Y-35957048D02*
X88877861Y-35925310D01*
X88909599Y-35893572D01*
X88941337Y-35830096D01*
X88941337Y-35798358D01*
X88909599Y-35734882D01*
X88877861Y-35703145D01*
X88814386Y-35671407D01*
X88687434Y-35671407D01*
X88623958Y-35703145D01*
X88592220Y-35734882D01*
X88560482Y-35798358D01*
X88560482Y-35830096D01*
X88592220Y-35893572D01*
X88623958Y-35925310D01*
X88687434Y-35957048D01*
X88814386Y-35957048D01*
X88877861Y-35988786D01*
X88909599Y-36020524D01*
X88941337Y-36083999D01*
X88941337Y-36210951D01*
X88909599Y-36274427D01*
X88877861Y-36306165D01*
X88814386Y-36337903D01*
X88687434Y-36337903D01*
X88623958Y-36306165D01*
X88592220Y-36274427D01*
X88560482Y-36210951D01*
X88560482Y-36083999D01*
X88592220Y-36020524D01*
X88623958Y-35988786D01*
X88687434Y-35957048D01*
D12*
X90159550Y-36987223D02*
X90368556Y-36987223D01*
X90264053Y-36987223D02*
X90264053Y-36621463D01*
X90298887Y-36673715D01*
X90333722Y-36708549D01*
X90368556Y-36725966D01*
X89933127Y-36621463D02*
X89898293Y-36621463D01*
X89863459Y-36638881D01*
X89846042Y-36656298D01*
X89828625Y-36691132D01*
X89811207Y-36760801D01*
X89811207Y-36847886D01*
X89828625Y-36917555D01*
X89846042Y-36952389D01*
X89863459Y-36969806D01*
X89898293Y-36987223D01*
X89933127Y-36987223D01*
X89967962Y-36969806D01*
X89985379Y-36952389D01*
X90002796Y-36917555D01*
X90020213Y-36847886D01*
X90020213Y-36760801D01*
X90002796Y-36691132D01*
X89985379Y-36656298D01*
X89967962Y-36638881D01*
X89933127Y-36621463D01*
X89654453Y-36987223D02*
X89654453Y-36621463D01*
X89445447Y-36987223D02*
X89602202Y-36778218D01*
X89445447Y-36621463D02*
X89654453Y-36830469D01*
D11*
%TO.C,C1*%
X122907999Y-47747427D02*
X122939736Y-47779165D01*
X123034950Y-47810903D01*
X123098426Y-47810903D01*
X123193640Y-47779165D01*
X123257115Y-47715689D01*
X123288853Y-47652213D01*
X123320591Y-47525261D01*
X123320591Y-47430048D01*
X123288853Y-47303096D01*
X123257115Y-47239620D01*
X123193640Y-47176145D01*
X123098426Y-47144407D01*
X123034950Y-47144407D01*
X122939736Y-47176145D01*
X122907999Y-47207882D01*
X122273240Y-47810903D02*
X122654095Y-47810903D01*
X122463668Y-47810903D02*
X122463668Y-47144407D01*
X122527144Y-47239620D01*
X122590619Y-47303096D01*
X122654095Y-47334834D01*
D12*
X123137550Y-48425223D02*
X123346556Y-48425223D01*
X123242053Y-48425223D02*
X123242053Y-48059463D01*
X123276887Y-48111715D01*
X123311722Y-48146549D01*
X123346556Y-48163966D01*
X122911127Y-48059463D02*
X122876293Y-48059463D01*
X122841459Y-48076881D01*
X122824042Y-48094298D01*
X122806625Y-48129132D01*
X122789207Y-48198801D01*
X122789207Y-48285886D01*
X122806625Y-48355555D01*
X122824042Y-48390389D01*
X122841459Y-48407806D01*
X122876293Y-48425223D01*
X122911127Y-48425223D01*
X122945962Y-48407806D01*
X122963379Y-48390389D01*
X122980796Y-48355555D01*
X122998213Y-48285886D01*
X122998213Y-48198801D01*
X122980796Y-48129132D01*
X122963379Y-48094298D01*
X122945962Y-48076881D01*
X122911127Y-48059463D01*
X122475699Y-48181383D02*
X122475699Y-48425223D01*
X122632453Y-48181383D02*
X122632453Y-48372972D01*
X122615036Y-48407806D01*
X122580202Y-48425223D01*
X122527950Y-48425223D01*
X122493116Y-48407806D01*
X122475699Y-48390389D01*
X122179607Y-48233635D02*
X122301527Y-48233635D01*
X122301527Y-48425223D02*
X122301527Y-48059463D01*
X122127356Y-48059463D01*
D11*
%TO.C,R14*%
X126584206Y-65310903D02*
X126806371Y-64993524D01*
X126965061Y-65310903D02*
X126965061Y-64644407D01*
X126711158Y-64644407D01*
X126647682Y-64676145D01*
X126615944Y-64707882D01*
X126584206Y-64771358D01*
X126584206Y-64866572D01*
X126615944Y-64930048D01*
X126647682Y-64961786D01*
X126711158Y-64993524D01*
X126965061Y-64993524D01*
X125949448Y-65310903D02*
X126330303Y-65310903D01*
X126139875Y-65310903D02*
X126139875Y-64644407D01*
X126203351Y-64739620D01*
X126266827Y-64803096D01*
X126330303Y-64834834D01*
X125378166Y-64866572D02*
X125378166Y-65310903D01*
X125536855Y-64612669D02*
X125695545Y-65088737D01*
X125282952Y-65088737D01*
D12*
X126910177Y-65594298D02*
X126892759Y-65576881D01*
X126857925Y-65559463D01*
X126770839Y-65559463D01*
X126736005Y-65576881D01*
X126718588Y-65594298D01*
X126701171Y-65629132D01*
X126701171Y-65663966D01*
X126718588Y-65716218D01*
X126927594Y-65925223D01*
X126701171Y-65925223D01*
X126474748Y-65559463D02*
X126439914Y-65559463D01*
X126405079Y-65576881D01*
X126387662Y-65594298D01*
X126370245Y-65629132D01*
X126352828Y-65698801D01*
X126352828Y-65785886D01*
X126370245Y-65855555D01*
X126387662Y-65890389D01*
X126405079Y-65907806D01*
X126439914Y-65925223D01*
X126474748Y-65925223D01*
X126509582Y-65907806D01*
X126526999Y-65890389D01*
X126544417Y-65855555D01*
X126561834Y-65785886D01*
X126561834Y-65698801D01*
X126544417Y-65629132D01*
X126526999Y-65594298D01*
X126509582Y-65576881D01*
X126474748Y-65559463D01*
X126126405Y-65559463D02*
X126091571Y-65559463D01*
X126056737Y-65576881D01*
X126039319Y-65594298D01*
X126021902Y-65629132D01*
X126004485Y-65698801D01*
X126004485Y-65785886D01*
X126021902Y-65855555D01*
X126039319Y-65890389D01*
X126056737Y-65907806D01*
X126091571Y-65925223D01*
X126126405Y-65925223D01*
X126161239Y-65907806D01*
X126178657Y-65890389D01*
X126196074Y-65855555D01*
X126213491Y-65785886D01*
X126213491Y-65698801D01*
X126196074Y-65629132D01*
X126178657Y-65594298D01*
X126161239Y-65576881D01*
X126126405Y-65559463D01*
X125847731Y-65925223D02*
X125847731Y-65559463D01*
X125638725Y-65925223D02*
X125795479Y-65716218D01*
X125638725Y-65559463D02*
X125847731Y-65768469D01*
D11*
%TO.C,C18*%
X111525999Y-36874427D02*
X111557736Y-36906165D01*
X111652950Y-36937903D01*
X111716426Y-36937903D01*
X111811640Y-36906165D01*
X111875115Y-36842689D01*
X111906853Y-36779213D01*
X111938591Y-36652261D01*
X111938591Y-36557048D01*
X111906853Y-36430096D01*
X111875115Y-36366620D01*
X111811640Y-36303145D01*
X111716426Y-36271407D01*
X111652950Y-36271407D01*
X111557736Y-36303145D01*
X111525999Y-36334882D01*
X110891240Y-36937903D02*
X111272095Y-36937903D01*
X111081668Y-36937903D02*
X111081668Y-36271407D01*
X111145144Y-36366620D01*
X111208619Y-36430096D01*
X111272095Y-36461834D01*
X110510386Y-36557048D02*
X110573861Y-36525310D01*
X110605599Y-36493572D01*
X110637337Y-36430096D01*
X110637337Y-36398358D01*
X110605599Y-36334882D01*
X110573861Y-36303145D01*
X110510386Y-36271407D01*
X110383434Y-36271407D01*
X110319958Y-36303145D01*
X110288220Y-36334882D01*
X110256482Y-36398358D01*
X110256482Y-36430096D01*
X110288220Y-36493572D01*
X110319958Y-36525310D01*
X110383434Y-36557048D01*
X110510386Y-36557048D01*
X110573861Y-36588786D01*
X110605599Y-36620524D01*
X110637337Y-36683999D01*
X110637337Y-36810951D01*
X110605599Y-36874427D01*
X110573861Y-36906165D01*
X110510386Y-36937903D01*
X110383434Y-36937903D01*
X110319958Y-36906165D01*
X110288220Y-36874427D01*
X110256482Y-36810951D01*
X110256482Y-36683999D01*
X110288220Y-36620524D01*
X110319958Y-36588786D01*
X110383434Y-36557048D01*
D12*
X111855550Y-37587223D02*
X112064556Y-37587223D01*
X111960053Y-37587223D02*
X111960053Y-37221463D01*
X111994887Y-37273715D01*
X112029722Y-37308549D01*
X112064556Y-37325966D01*
X111629127Y-37221463D02*
X111594293Y-37221463D01*
X111559459Y-37238881D01*
X111542042Y-37256298D01*
X111524625Y-37291132D01*
X111507207Y-37360801D01*
X111507207Y-37447886D01*
X111524625Y-37517555D01*
X111542042Y-37552389D01*
X111559459Y-37569806D01*
X111594293Y-37587223D01*
X111629127Y-37587223D01*
X111663962Y-37569806D01*
X111681379Y-37552389D01*
X111698796Y-37517555D01*
X111716213Y-37447886D01*
X111716213Y-37360801D01*
X111698796Y-37291132D01*
X111681379Y-37256298D01*
X111663962Y-37238881D01*
X111629127Y-37221463D01*
X111193699Y-37343383D02*
X111193699Y-37587223D01*
X111350453Y-37343383D02*
X111350453Y-37534972D01*
X111333036Y-37569806D01*
X111298202Y-37587223D01*
X111245950Y-37587223D01*
X111211116Y-37569806D01*
X111193699Y-37552389D01*
X110897607Y-37395635D02*
X111019527Y-37395635D01*
X111019527Y-37587223D02*
X111019527Y-37221463D01*
X110845356Y-37221463D01*
D11*
%TO.C,D36*%
X126988853Y-48810903D02*
X126988853Y-48144407D01*
X126830164Y-48144407D01*
X126734950Y-48176145D01*
X126671474Y-48239620D01*
X126639736Y-48303096D01*
X126607999Y-48430048D01*
X126607999Y-48525261D01*
X126639736Y-48652213D01*
X126671474Y-48715689D01*
X126734950Y-48779165D01*
X126830164Y-48810903D01*
X126988853Y-48810903D01*
X126385833Y-48144407D02*
X125973240Y-48144407D01*
X126195406Y-48398310D01*
X126100192Y-48398310D01*
X126036716Y-48430048D01*
X126004978Y-48461786D01*
X125973240Y-48525261D01*
X125973240Y-48683951D01*
X126004978Y-48747427D01*
X126036716Y-48779165D01*
X126100192Y-48810903D01*
X126290619Y-48810903D01*
X126354095Y-48779165D01*
X126385833Y-48747427D01*
X125401958Y-48144407D02*
X125528910Y-48144407D01*
X125592386Y-48176145D01*
X125624123Y-48207882D01*
X125687599Y-48303096D01*
X125719337Y-48430048D01*
X125719337Y-48683951D01*
X125687599Y-48747427D01*
X125655861Y-48779165D01*
X125592386Y-48810903D01*
X125465434Y-48810903D01*
X125401958Y-48779165D01*
X125370220Y-48747427D01*
X125338482Y-48683951D01*
X125338482Y-48525261D01*
X125370220Y-48461786D01*
X125401958Y-48430048D01*
X125465434Y-48398310D01*
X125592386Y-48398310D01*
X125655861Y-48430048D01*
X125687599Y-48461786D01*
X125719337Y-48525261D01*
D12*
X126929139Y-49525223D02*
X126929139Y-49159463D01*
X126807219Y-49420721D01*
X126685299Y-49159463D01*
X126685299Y-49525223D01*
X126389207Y-49333635D02*
X126336956Y-49351052D01*
X126319539Y-49368469D01*
X126302122Y-49403303D01*
X126302122Y-49455555D01*
X126319539Y-49490389D01*
X126336956Y-49507806D01*
X126371790Y-49525223D01*
X126511127Y-49525223D01*
X126511127Y-49159463D01*
X126389207Y-49159463D01*
X126354373Y-49176881D01*
X126336956Y-49194298D01*
X126319539Y-49229132D01*
X126319539Y-49263966D01*
X126336956Y-49298801D01*
X126354373Y-49316218D01*
X126389207Y-49333635D01*
X126511127Y-49333635D01*
X125936362Y-49525223D02*
X126058282Y-49351052D01*
X126145367Y-49525223D02*
X126145367Y-49159463D01*
X126006030Y-49159463D01*
X125971196Y-49176881D01*
X125953779Y-49194298D01*
X125936362Y-49229132D01*
X125936362Y-49281383D01*
X125953779Y-49316218D01*
X125971196Y-49333635D01*
X126006030Y-49351052D01*
X126145367Y-49351052D01*
X125605436Y-49159463D02*
X125779607Y-49159463D01*
X125797025Y-49333635D01*
X125779607Y-49316218D01*
X125744773Y-49298801D01*
X125657687Y-49298801D01*
X125622853Y-49316218D01*
X125605436Y-49333635D01*
X125588019Y-49368469D01*
X125588019Y-49455555D01*
X125605436Y-49490389D01*
X125622853Y-49507806D01*
X125657687Y-49525223D01*
X125744773Y-49525223D01*
X125779607Y-49507806D01*
X125797025Y-49490389D01*
X125274510Y-49281383D02*
X125274510Y-49525223D01*
X125361596Y-49142046D02*
X125448682Y-49403303D01*
X125222259Y-49403303D01*
X125013253Y-49159463D02*
X124978419Y-49159463D01*
X124943585Y-49176881D01*
X124926167Y-49194298D01*
X124908750Y-49229132D01*
X124891333Y-49298801D01*
X124891333Y-49385886D01*
X124908750Y-49455555D01*
X124926167Y-49490389D01*
X124943585Y-49507806D01*
X124978419Y-49525223D01*
X125013253Y-49525223D01*
X125048087Y-49507806D01*
X125065505Y-49490389D01*
X125082922Y-49455555D01*
X125100339Y-49385886D01*
X125100339Y-49298801D01*
X125082922Y-49229132D01*
X125065505Y-49194298D01*
X125048087Y-49176881D01*
X125013253Y-49159463D01*
D11*
%TO.C,R8*%
X74007999Y-81210903D02*
X74230164Y-80893524D01*
X74388853Y-81210903D02*
X74388853Y-80544407D01*
X74134950Y-80544407D01*
X74071474Y-80576145D01*
X74039736Y-80607882D01*
X74007999Y-80671358D01*
X74007999Y-80766572D01*
X74039736Y-80830048D01*
X74071474Y-80861786D01*
X74134950Y-80893524D01*
X74388853Y-80893524D01*
X73627144Y-80830048D02*
X73690619Y-80798310D01*
X73722357Y-80766572D01*
X73754095Y-80703096D01*
X73754095Y-80671358D01*
X73722357Y-80607882D01*
X73690619Y-80576145D01*
X73627144Y-80544407D01*
X73500192Y-80544407D01*
X73436716Y-80576145D01*
X73404978Y-80607882D01*
X73373240Y-80671358D01*
X73373240Y-80703096D01*
X73404978Y-80766572D01*
X73436716Y-80798310D01*
X73500192Y-80830048D01*
X73627144Y-80830048D01*
X73690619Y-80861786D01*
X73722357Y-80893524D01*
X73754095Y-80956999D01*
X73754095Y-81083951D01*
X73722357Y-81147427D01*
X73690619Y-81179165D01*
X73627144Y-81210903D01*
X73500192Y-81210903D01*
X73436716Y-81179165D01*
X73404978Y-81147427D01*
X73373240Y-81083951D01*
X73373240Y-80956999D01*
X73404978Y-80893524D01*
X73436716Y-80861786D01*
X73500192Y-80830048D01*
D14*
X74432460Y-85407806D02*
X74850471Y-85407806D01*
X74641466Y-85407806D02*
X74641466Y-84676286D01*
X74711134Y-84780789D01*
X74780803Y-84850458D01*
X74850471Y-84885292D01*
X73979614Y-84676286D02*
X73909946Y-84676286D01*
X73840277Y-84711121D01*
X73805443Y-84745955D01*
X73770609Y-84815623D01*
X73735774Y-84954961D01*
X73735774Y-85129132D01*
X73770609Y-85268469D01*
X73805443Y-85338138D01*
X73840277Y-85372972D01*
X73909946Y-85407806D01*
X73979614Y-85407806D01*
X74049283Y-85372972D01*
X74084117Y-85338138D01*
X74118951Y-85268469D01*
X74153786Y-85129132D01*
X74153786Y-84954961D01*
X74118951Y-84815623D01*
X74084117Y-84745955D01*
X74049283Y-84711121D01*
X73979614Y-84676286D01*
X73422266Y-85407806D02*
X73422266Y-84676286D01*
X73004254Y-85407806D02*
X73317763Y-84989795D01*
X73004254Y-84676286D02*
X73422266Y-85094298D01*
X72133397Y-85407806D02*
X72133397Y-84676286D01*
X71854723Y-84676286D01*
X71785054Y-84711121D01*
X71750220Y-84745955D01*
X71715386Y-84815623D01*
X71715386Y-84920126D01*
X71750220Y-84989795D01*
X71785054Y-85024629D01*
X71854723Y-85059463D01*
X72133397Y-85059463D01*
X71088369Y-85407806D02*
X71088369Y-85024629D01*
X71123203Y-84954961D01*
X71192871Y-84920126D01*
X71332209Y-84920126D01*
X71401877Y-84954961D01*
X71088369Y-85372972D02*
X71158037Y-85407806D01*
X71332209Y-85407806D01*
X71401877Y-85372972D01*
X71436711Y-85303303D01*
X71436711Y-85233635D01*
X71401877Y-85163966D01*
X71332209Y-85129132D01*
X71158037Y-85129132D01*
X71088369Y-85094298D01*
X70426517Y-85372972D02*
X70496186Y-85407806D01*
X70635523Y-85407806D01*
X70705191Y-85372972D01*
X70740026Y-85338138D01*
X70774860Y-85268469D01*
X70774860Y-85059463D01*
X70740026Y-84989795D01*
X70705191Y-84954961D01*
X70635523Y-84920126D01*
X70496186Y-84920126D01*
X70426517Y-84954961D01*
X70113009Y-85407806D02*
X70113009Y-84676286D01*
X70043340Y-85129132D02*
X69834334Y-85407806D01*
X69834334Y-84920126D02*
X70113009Y-85198801D01*
D11*
%TO.C,C16*%
X111525999Y-32874427D02*
X111557736Y-32906165D01*
X111652950Y-32937903D01*
X111716426Y-32937903D01*
X111811640Y-32906165D01*
X111875115Y-32842689D01*
X111906853Y-32779213D01*
X111938591Y-32652261D01*
X111938591Y-32557048D01*
X111906853Y-32430096D01*
X111875115Y-32366620D01*
X111811640Y-32303145D01*
X111716426Y-32271407D01*
X111652950Y-32271407D01*
X111557736Y-32303145D01*
X111525999Y-32334882D01*
X110891240Y-32937903D02*
X111272095Y-32937903D01*
X111081668Y-32937903D02*
X111081668Y-32271407D01*
X111145144Y-32366620D01*
X111208619Y-32430096D01*
X111272095Y-32461834D01*
X110319958Y-32271407D02*
X110446910Y-32271407D01*
X110510386Y-32303145D01*
X110542123Y-32334882D01*
X110605599Y-32430096D01*
X110637337Y-32557048D01*
X110637337Y-32810951D01*
X110605599Y-32874427D01*
X110573861Y-32906165D01*
X110510386Y-32937903D01*
X110383434Y-32937903D01*
X110319958Y-32906165D01*
X110288220Y-32874427D01*
X110256482Y-32810951D01*
X110256482Y-32652261D01*
X110288220Y-32588786D01*
X110319958Y-32557048D01*
X110383434Y-32525310D01*
X110510386Y-32525310D01*
X110573861Y-32557048D01*
X110605599Y-32588786D01*
X110637337Y-32652261D01*
D12*
X111855550Y-33587223D02*
X112064556Y-33587223D01*
X111960053Y-33587223D02*
X111960053Y-33221463D01*
X111994887Y-33273715D01*
X112029722Y-33308549D01*
X112064556Y-33325966D01*
X111629127Y-33221463D02*
X111594293Y-33221463D01*
X111559459Y-33238881D01*
X111542042Y-33256298D01*
X111524625Y-33291132D01*
X111507207Y-33360801D01*
X111507207Y-33447886D01*
X111524625Y-33517555D01*
X111542042Y-33552389D01*
X111559459Y-33569806D01*
X111594293Y-33587223D01*
X111629127Y-33587223D01*
X111663962Y-33569806D01*
X111681379Y-33552389D01*
X111698796Y-33517555D01*
X111716213Y-33447886D01*
X111716213Y-33360801D01*
X111698796Y-33291132D01*
X111681379Y-33256298D01*
X111663962Y-33238881D01*
X111629127Y-33221463D01*
X111193699Y-33343383D02*
X111193699Y-33587223D01*
X111350453Y-33343383D02*
X111350453Y-33534972D01*
X111333036Y-33569806D01*
X111298202Y-33587223D01*
X111245950Y-33587223D01*
X111211116Y-33569806D01*
X111193699Y-33552389D01*
X110897607Y-33395635D02*
X111019527Y-33395635D01*
X111019527Y-33587223D02*
X111019527Y-33221463D01*
X110845356Y-33221463D01*
D11*
%TO.C,C3*%
X136181448Y-42020427D02*
X136213186Y-42052165D01*
X136308399Y-42083903D01*
X136371875Y-42083903D01*
X136467089Y-42052165D01*
X136530565Y-41988689D01*
X136562303Y-41925213D01*
X136594041Y-41798261D01*
X136594041Y-41703048D01*
X136562303Y-41576096D01*
X136530565Y-41512620D01*
X136467089Y-41449145D01*
X136371875Y-41417407D01*
X136308399Y-41417407D01*
X136213186Y-41449145D01*
X136181448Y-41480882D01*
X135959282Y-41417407D02*
X135546690Y-41417407D01*
X135768855Y-41671310D01*
X135673641Y-41671310D01*
X135610166Y-41703048D01*
X135578428Y-41734786D01*
X135546690Y-41798261D01*
X135546690Y-41956951D01*
X135578428Y-42020427D01*
X135610166Y-42052165D01*
X135673641Y-42083903D01*
X135864069Y-42083903D01*
X135927545Y-42052165D01*
X135959282Y-42020427D01*
D12*
X136431502Y-42725223D02*
X136640508Y-42725223D01*
X136536005Y-42725223D02*
X136536005Y-42359463D01*
X136570839Y-42411715D01*
X136605674Y-42446549D01*
X136640508Y-42463966D01*
X136205079Y-42359463D02*
X136170245Y-42359463D01*
X136135411Y-42376881D01*
X136117994Y-42394298D01*
X136100577Y-42429132D01*
X136083159Y-42498801D01*
X136083159Y-42585886D01*
X136100577Y-42655555D01*
X136117994Y-42690389D01*
X136135411Y-42707806D01*
X136170245Y-42725223D01*
X136205079Y-42725223D01*
X136239914Y-42707806D01*
X136257331Y-42690389D01*
X136274748Y-42655555D01*
X136292165Y-42585886D01*
X136292165Y-42498801D01*
X136274748Y-42429132D01*
X136257331Y-42394298D01*
X136239914Y-42376881D01*
X136205079Y-42359463D01*
X135769651Y-42481383D02*
X135769651Y-42725223D01*
X135926405Y-42481383D02*
X135926405Y-42672972D01*
X135908988Y-42707806D01*
X135874154Y-42725223D01*
X135821902Y-42725223D01*
X135787068Y-42707806D01*
X135769651Y-42690389D01*
X135473559Y-42533635D02*
X135595479Y-42533635D01*
X135595479Y-42725223D02*
X135595479Y-42359463D01*
X135421308Y-42359463D01*
D11*
%TO.C,R10*%
X72429999Y-89337903D02*
X72652164Y-89020524D01*
X72810853Y-89337903D02*
X72810853Y-88671407D01*
X72556950Y-88671407D01*
X72493474Y-88703145D01*
X72461736Y-88734882D01*
X72429999Y-88798358D01*
X72429999Y-88893572D01*
X72461736Y-88957048D01*
X72493474Y-88988786D01*
X72556950Y-89020524D01*
X72810853Y-89020524D01*
X71795240Y-89337903D02*
X72176095Y-89337903D01*
X71985668Y-89337903D02*
X71985668Y-88671407D01*
X72049144Y-88766620D01*
X72112619Y-88830096D01*
X72176095Y-88861834D01*
X71382648Y-88671407D02*
X71319172Y-88671407D01*
X71255696Y-88703145D01*
X71223958Y-88734882D01*
X71192220Y-88798358D01*
X71160482Y-88925310D01*
X71160482Y-89083999D01*
X71192220Y-89210951D01*
X71223958Y-89274427D01*
X71255696Y-89306165D01*
X71319172Y-89337903D01*
X71382648Y-89337903D01*
X71446123Y-89306165D01*
X71477861Y-89274427D01*
X71509599Y-89210951D01*
X71541337Y-89083999D01*
X71541337Y-88925310D01*
X71509599Y-88798358D01*
X71477861Y-88734882D01*
X71446123Y-88703145D01*
X71382648Y-88671407D01*
D12*
X72759550Y-89987223D02*
X72968556Y-89987223D01*
X72864053Y-89987223D02*
X72864053Y-89621463D01*
X72898887Y-89673715D01*
X72933722Y-89708549D01*
X72968556Y-89725966D01*
X72533127Y-89621463D02*
X72498293Y-89621463D01*
X72463459Y-89638881D01*
X72446042Y-89656298D01*
X72428625Y-89691132D01*
X72411207Y-89760801D01*
X72411207Y-89847886D01*
X72428625Y-89917555D01*
X72446042Y-89952389D01*
X72463459Y-89969806D01*
X72498293Y-89987223D01*
X72533127Y-89987223D01*
X72567962Y-89969806D01*
X72585379Y-89952389D01*
X72602796Y-89917555D01*
X72620213Y-89847886D01*
X72620213Y-89760801D01*
X72602796Y-89691132D01*
X72585379Y-89656298D01*
X72567962Y-89638881D01*
X72533127Y-89621463D01*
X72254453Y-89987223D02*
X72254453Y-89621463D01*
X72045447Y-89987223D02*
X72202202Y-89778218D01*
X72045447Y-89621463D02*
X72254453Y-89830469D01*
D11*
%TO.C,C4*%
X136131448Y-40020427D02*
X136163186Y-40052165D01*
X136258399Y-40083903D01*
X136321875Y-40083903D01*
X136417089Y-40052165D01*
X136480565Y-39988689D01*
X136512303Y-39925213D01*
X136544041Y-39798261D01*
X136544041Y-39703048D01*
X136512303Y-39576096D01*
X136480565Y-39512620D01*
X136417089Y-39449145D01*
X136321875Y-39417407D01*
X136258399Y-39417407D01*
X136163186Y-39449145D01*
X136131448Y-39480882D01*
X135560166Y-39639572D02*
X135560166Y-40083903D01*
X135718855Y-39385669D02*
X135877545Y-39861737D01*
X135464952Y-39861737D01*
D12*
X136383159Y-40725223D02*
X136592165Y-40725223D01*
X136487662Y-40725223D02*
X136487662Y-40359463D01*
X136522497Y-40411715D01*
X136557331Y-40446549D01*
X136592165Y-40463966D01*
X136069651Y-40481383D02*
X136069651Y-40725223D01*
X136226405Y-40481383D02*
X136226405Y-40672972D01*
X136208988Y-40707806D01*
X136174154Y-40725223D01*
X136121902Y-40725223D01*
X136087068Y-40707806D01*
X136069651Y-40690389D01*
X135773559Y-40533635D02*
X135895479Y-40533635D01*
X135895479Y-40725223D02*
X135895479Y-40359463D01*
X135721308Y-40359463D01*
D11*
%TO.C,Q3*%
X79544523Y-82974378D02*
X79607999Y-82942641D01*
X79671474Y-82879165D01*
X79766688Y-82783951D01*
X79830164Y-82752213D01*
X79893640Y-82752213D01*
X79861902Y-82910903D02*
X79925378Y-82879165D01*
X79988853Y-82815689D01*
X80020591Y-82688737D01*
X80020591Y-82466572D01*
X79988853Y-82339620D01*
X79925378Y-82276145D01*
X79861902Y-82244407D01*
X79734950Y-82244407D01*
X79671474Y-82276145D01*
X79607999Y-82339620D01*
X79576261Y-82466572D01*
X79576261Y-82688737D01*
X79607999Y-82815689D01*
X79671474Y-82879165D01*
X79734950Y-82910903D01*
X79861902Y-82910903D01*
X79354095Y-82244407D02*
X78941503Y-82244407D01*
X79163668Y-82498310D01*
X79068454Y-82498310D01*
X79004978Y-82530048D01*
X78973240Y-82561786D01*
X78941503Y-82625261D01*
X78941503Y-82783951D01*
X78973240Y-82847427D01*
X79004978Y-82879165D01*
X79068454Y-82910903D01*
X79258882Y-82910903D01*
X79322357Y-82879165D01*
X79354095Y-82847427D01*
D12*
X79907219Y-83433635D02*
X79854967Y-83451052D01*
X79837550Y-83468469D01*
X79820133Y-83503303D01*
X79820133Y-83555555D01*
X79837550Y-83590389D01*
X79854967Y-83607806D01*
X79889802Y-83625223D01*
X80029139Y-83625223D01*
X80029139Y-83259463D01*
X79907219Y-83259463D01*
X79872385Y-83276881D01*
X79854967Y-83294298D01*
X79837550Y-83329132D01*
X79837550Y-83363966D01*
X79854967Y-83398801D01*
X79872385Y-83416218D01*
X79907219Y-83433635D01*
X80029139Y-83433635D01*
X79680796Y-83607806D02*
X79628545Y-83625223D01*
X79541459Y-83625223D01*
X79506625Y-83607806D01*
X79489207Y-83590389D01*
X79471790Y-83555555D01*
X79471790Y-83520721D01*
X79489207Y-83485886D01*
X79506625Y-83468469D01*
X79541459Y-83451052D01*
X79611127Y-83433635D01*
X79645962Y-83416218D01*
X79663379Y-83398801D01*
X79680796Y-83363966D01*
X79680796Y-83329132D01*
X79663379Y-83294298D01*
X79645962Y-83276881D01*
X79611127Y-83259463D01*
X79524042Y-83259463D01*
X79471790Y-83276881D01*
X79332453Y-83607806D02*
X79280202Y-83625223D01*
X79193116Y-83625223D01*
X79158282Y-83607806D01*
X79140865Y-83590389D01*
X79123447Y-83555555D01*
X79123447Y-83520721D01*
X79140865Y-83485886D01*
X79158282Y-83468469D01*
X79193116Y-83451052D01*
X79262785Y-83433635D01*
X79297619Y-83416218D01*
X79315036Y-83398801D01*
X79332453Y-83363966D01*
X79332453Y-83329132D01*
X79315036Y-83294298D01*
X79297619Y-83276881D01*
X79262785Y-83259463D01*
X79175699Y-83259463D01*
X79123447Y-83276881D01*
X78775105Y-83625223D02*
X78984110Y-83625223D01*
X78879607Y-83625223D02*
X78879607Y-83259463D01*
X78914442Y-83311715D01*
X78949276Y-83346549D01*
X78984110Y-83363966D01*
X78653185Y-83259463D02*
X78426762Y-83259463D01*
X78548682Y-83398801D01*
X78496430Y-83398801D01*
X78461596Y-83416218D01*
X78444179Y-83433635D01*
X78426762Y-83468469D01*
X78426762Y-83555555D01*
X78444179Y-83590389D01*
X78461596Y-83607806D01*
X78496430Y-83625223D01*
X78600933Y-83625223D01*
X78635767Y-83607806D01*
X78653185Y-83590389D01*
X78217756Y-83416218D02*
X78252590Y-83398801D01*
X78270007Y-83381383D01*
X78287425Y-83346549D01*
X78287425Y-83329132D01*
X78270007Y-83294298D01*
X78252590Y-83276881D01*
X78217756Y-83259463D01*
X78148087Y-83259463D01*
X78113253Y-83276881D01*
X78095836Y-83294298D01*
X78078419Y-83329132D01*
X78078419Y-83346549D01*
X78095836Y-83381383D01*
X78113253Y-83398801D01*
X78148087Y-83416218D01*
X78217756Y-83416218D01*
X78252590Y-83433635D01*
X78270007Y-83451052D01*
X78287425Y-83485886D01*
X78287425Y-83555555D01*
X78270007Y-83590389D01*
X78252590Y-83607806D01*
X78217756Y-83625223D01*
X78148087Y-83625223D01*
X78113253Y-83607806D01*
X78095836Y-83590389D01*
X78078419Y-83555555D01*
X78078419Y-83485886D01*
X78095836Y-83451052D01*
X78113253Y-83433635D01*
X78148087Y-83416218D01*
D11*
%TO.C,R5*%
X98099448Y-34810903D02*
X98321613Y-34493524D01*
X98480303Y-34810903D02*
X98480303Y-34144407D01*
X98226399Y-34144407D01*
X98162924Y-34176145D01*
X98131186Y-34207882D01*
X98099448Y-34271358D01*
X98099448Y-34366572D01*
X98131186Y-34430048D01*
X98162924Y-34461786D01*
X98226399Y-34493524D01*
X98480303Y-34493524D01*
X97496428Y-34144407D02*
X97813807Y-34144407D01*
X97845545Y-34461786D01*
X97813807Y-34430048D01*
X97750331Y-34398310D01*
X97591641Y-34398310D01*
X97528166Y-34430048D01*
X97496428Y-34461786D01*
X97464690Y-34525261D01*
X97464690Y-34683951D01*
X97496428Y-34747427D01*
X97528166Y-34779165D01*
X97591641Y-34810903D01*
X97750331Y-34810903D01*
X97813807Y-34779165D01*
X97845545Y-34747427D01*
D12*
X98144417Y-35059463D02*
X98318588Y-35059463D01*
X98336005Y-35233635D01*
X98318588Y-35216218D01*
X98283754Y-35198801D01*
X98196668Y-35198801D01*
X98161834Y-35216218D01*
X98144417Y-35233635D01*
X98126999Y-35268469D01*
X98126999Y-35355555D01*
X98144417Y-35390389D01*
X98161834Y-35407806D01*
X98196668Y-35425223D01*
X98283754Y-35425223D01*
X98318588Y-35407806D01*
X98336005Y-35390389D01*
X97970245Y-35390389D02*
X97952828Y-35407806D01*
X97970245Y-35425223D01*
X97987662Y-35407806D01*
X97970245Y-35390389D01*
X97970245Y-35425223D01*
X97604485Y-35425223D02*
X97813491Y-35425223D01*
X97708988Y-35425223D02*
X97708988Y-35059463D01*
X97743822Y-35111715D01*
X97778657Y-35146549D01*
X97813491Y-35163966D01*
X97447731Y-35425223D02*
X97447731Y-35059463D01*
X97238725Y-35425223D02*
X97395479Y-35216218D01*
X97238725Y-35059463D02*
X97447731Y-35268469D01*
D11*
%TO.C,C11*%
X91534206Y-85247427D02*
X91565944Y-85279165D01*
X91661158Y-85310903D01*
X91724633Y-85310903D01*
X91819847Y-85279165D01*
X91883323Y-85215689D01*
X91915061Y-85152213D01*
X91946799Y-85025261D01*
X91946799Y-84930048D01*
X91915061Y-84803096D01*
X91883323Y-84739620D01*
X91819847Y-84676145D01*
X91724633Y-84644407D01*
X91661158Y-84644407D01*
X91565944Y-84676145D01*
X91534206Y-84707882D01*
X90899448Y-85310903D02*
X91280303Y-85310903D01*
X91089875Y-85310903D02*
X91089875Y-84644407D01*
X91153351Y-84739620D01*
X91216827Y-84803096D01*
X91280303Y-84834834D01*
X90264690Y-85310903D02*
X90645545Y-85310903D01*
X90455117Y-85310903D02*
X90455117Y-84644407D01*
X90518593Y-84739620D01*
X90582069Y-84803096D01*
X90645545Y-84834834D01*
D12*
X91731502Y-85925223D02*
X91940508Y-85925223D01*
X91836005Y-85925223D02*
X91836005Y-85559463D01*
X91870839Y-85611715D01*
X91905674Y-85646549D01*
X91940508Y-85663966D01*
X91505079Y-85559463D02*
X91470245Y-85559463D01*
X91435411Y-85576881D01*
X91417994Y-85594298D01*
X91400577Y-85629132D01*
X91383159Y-85698801D01*
X91383159Y-85785886D01*
X91400577Y-85855555D01*
X91417994Y-85890389D01*
X91435411Y-85907806D01*
X91470245Y-85925223D01*
X91505079Y-85925223D01*
X91539914Y-85907806D01*
X91557331Y-85890389D01*
X91574748Y-85855555D01*
X91592165Y-85785886D01*
X91592165Y-85698801D01*
X91574748Y-85629132D01*
X91557331Y-85594298D01*
X91539914Y-85576881D01*
X91505079Y-85559463D01*
X91069651Y-85681383D02*
X91069651Y-85925223D01*
X91226405Y-85681383D02*
X91226405Y-85872972D01*
X91208988Y-85907806D01*
X91174154Y-85925223D01*
X91121902Y-85925223D01*
X91087068Y-85907806D01*
X91069651Y-85890389D01*
X90773559Y-85733635D02*
X90895479Y-85733635D01*
X90895479Y-85925223D02*
X90895479Y-85559463D01*
X90721308Y-85559463D01*
D11*
%TO.C,R4*%
X117629999Y-45337903D02*
X117852164Y-45020524D01*
X118010853Y-45337903D02*
X118010853Y-44671407D01*
X117756950Y-44671407D01*
X117693474Y-44703145D01*
X117661736Y-44734882D01*
X117629999Y-44798358D01*
X117629999Y-44893572D01*
X117661736Y-44957048D01*
X117693474Y-44988786D01*
X117756950Y-45020524D01*
X118010853Y-45020524D01*
X117058716Y-44893572D02*
X117058716Y-45337903D01*
X117217406Y-44639669D02*
X117376095Y-45115737D01*
X116963503Y-45115737D01*
D12*
X117959550Y-45987223D02*
X118168556Y-45987223D01*
X118064053Y-45987223D02*
X118064053Y-45621463D01*
X118098887Y-45673715D01*
X118133722Y-45708549D01*
X118168556Y-45725966D01*
X117733127Y-45621463D02*
X117698293Y-45621463D01*
X117663459Y-45638881D01*
X117646042Y-45656298D01*
X117628625Y-45691132D01*
X117611207Y-45760801D01*
X117611207Y-45847886D01*
X117628625Y-45917555D01*
X117646042Y-45952389D01*
X117663459Y-45969806D01*
X117698293Y-45987223D01*
X117733127Y-45987223D01*
X117767962Y-45969806D01*
X117785379Y-45952389D01*
X117802796Y-45917555D01*
X117820213Y-45847886D01*
X117820213Y-45760801D01*
X117802796Y-45691132D01*
X117785379Y-45656298D01*
X117767962Y-45638881D01*
X117733127Y-45621463D01*
X117384785Y-45621463D02*
X117349950Y-45621463D01*
X117315116Y-45638881D01*
X117297699Y-45656298D01*
X117280282Y-45691132D01*
X117262865Y-45760801D01*
X117262865Y-45847886D01*
X117280282Y-45917555D01*
X117297699Y-45952389D01*
X117315116Y-45969806D01*
X117349950Y-45987223D01*
X117384785Y-45987223D01*
X117419619Y-45969806D01*
X117437036Y-45952389D01*
X117454453Y-45917555D01*
X117471870Y-45847886D01*
X117471870Y-45760801D01*
X117454453Y-45691132D01*
X117437036Y-45656298D01*
X117419619Y-45638881D01*
X117384785Y-45621463D01*
X117106110Y-45987223D02*
X117106110Y-45621463D01*
X116897105Y-45987223D02*
X117053859Y-45778218D01*
X116897105Y-45621463D02*
X117106110Y-45830469D01*
D11*
%TO.C,IC1*%
X100188853Y-44810903D02*
X100188853Y-44144407D01*
X99490619Y-44747427D02*
X99522357Y-44779165D01*
X99617571Y-44810903D01*
X99681047Y-44810903D01*
X99776261Y-44779165D01*
X99839736Y-44715689D01*
X99871474Y-44652213D01*
X99903212Y-44525261D01*
X99903212Y-44430048D01*
X99871474Y-44303096D01*
X99839736Y-44239620D01*
X99776261Y-44176145D01*
X99681047Y-44144407D01*
X99617571Y-44144407D01*
X99522357Y-44176145D01*
X99490619Y-44207882D01*
X98855861Y-44810903D02*
X99236716Y-44810903D01*
X99046289Y-44810903D02*
X99046289Y-44144407D01*
X99109765Y-44239620D01*
X99173240Y-44303096D01*
X99236716Y-44334834D01*
D12*
X100620133Y-45590389D02*
X100637550Y-45607806D01*
X100689802Y-45625223D01*
X100724636Y-45625223D01*
X100776887Y-45607806D01*
X100811722Y-45572972D01*
X100829139Y-45538138D01*
X100846556Y-45468469D01*
X100846556Y-45416218D01*
X100829139Y-45346549D01*
X100811722Y-45311715D01*
X100776887Y-45276881D01*
X100724636Y-45259463D01*
X100689802Y-45259463D01*
X100637550Y-45276881D01*
X100620133Y-45294298D01*
X100463379Y-45625223D02*
X100463379Y-45259463D01*
X100324042Y-45259463D01*
X100289207Y-45276881D01*
X100271790Y-45294298D01*
X100254373Y-45329132D01*
X100254373Y-45381383D01*
X100271790Y-45416218D01*
X100289207Y-45433635D01*
X100324042Y-45451052D01*
X100463379Y-45451052D01*
X100115036Y-45294298D02*
X100097619Y-45276881D01*
X100062785Y-45259463D01*
X99975699Y-45259463D01*
X99940865Y-45276881D01*
X99923447Y-45294298D01*
X99906030Y-45329132D01*
X99906030Y-45363966D01*
X99923447Y-45416218D01*
X100132453Y-45625223D01*
X99906030Y-45625223D01*
X99557687Y-45625223D02*
X99766693Y-45625223D01*
X99662190Y-45625223D02*
X99662190Y-45259463D01*
X99697025Y-45311715D01*
X99731859Y-45346549D01*
X99766693Y-45363966D01*
X99331265Y-45259463D02*
X99296430Y-45259463D01*
X99261596Y-45276881D01*
X99244179Y-45294298D01*
X99226762Y-45329132D01*
X99209345Y-45398801D01*
X99209345Y-45485886D01*
X99226762Y-45555555D01*
X99244179Y-45590389D01*
X99261596Y-45607806D01*
X99296430Y-45625223D01*
X99331265Y-45625223D01*
X99366099Y-45607806D01*
X99383516Y-45590389D01*
X99400933Y-45555555D01*
X99418350Y-45485886D01*
X99418350Y-45398801D01*
X99400933Y-45329132D01*
X99383516Y-45294298D01*
X99366099Y-45276881D01*
X99331265Y-45259463D01*
X99070007Y-45294298D02*
X99052590Y-45276881D01*
X99017756Y-45259463D01*
X98930670Y-45259463D01*
X98895836Y-45276881D01*
X98878419Y-45294298D01*
X98861002Y-45329132D01*
X98861002Y-45363966D01*
X98878419Y-45416218D01*
X99087425Y-45625223D01*
X98861002Y-45625223D01*
X98704247Y-45625223D02*
X98704247Y-45259463D01*
X98495242Y-45625223D01*
X98495242Y-45259463D01*
X98321070Y-45485886D02*
X98042396Y-45485886D01*
X97885642Y-45294298D02*
X97868225Y-45276881D01*
X97833390Y-45259463D01*
X97746305Y-45259463D01*
X97711470Y-45276881D01*
X97694053Y-45294298D01*
X97676636Y-45329132D01*
X97676636Y-45363966D01*
X97694053Y-45416218D01*
X97903059Y-45625223D01*
X97676636Y-45625223D01*
X97363127Y-45381383D02*
X97363127Y-45625223D01*
X97450213Y-45242046D02*
X97537299Y-45503303D01*
X97310876Y-45503303D01*
D11*
%TO.C,R13*%
X111679999Y-44637803D02*
X111902164Y-44320424D01*
X112060853Y-44637803D02*
X112060853Y-43971307D01*
X111806950Y-43971307D01*
X111743474Y-44003045D01*
X111711736Y-44034782D01*
X111679999Y-44098258D01*
X111679999Y-44193472D01*
X111711736Y-44256948D01*
X111743474Y-44288686D01*
X111806950Y-44320424D01*
X112060853Y-44320424D01*
X111045240Y-44637803D02*
X111426095Y-44637803D01*
X111235668Y-44637803D02*
X111235668Y-43971307D01*
X111299144Y-44066520D01*
X111362619Y-44129996D01*
X111426095Y-44161734D01*
X110823075Y-43971307D02*
X110410482Y-43971307D01*
X110632648Y-44225210D01*
X110537434Y-44225210D01*
X110473958Y-44256948D01*
X110442220Y-44288686D01*
X110410482Y-44352161D01*
X110410482Y-44510851D01*
X110442220Y-44574327D01*
X110473958Y-44606065D01*
X110537434Y-44637803D01*
X110727861Y-44637803D01*
X110791337Y-44606065D01*
X110823075Y-44574327D01*
D12*
X112009550Y-45287123D02*
X112218556Y-45287123D01*
X112114053Y-45287123D02*
X112114053Y-44921363D01*
X112148887Y-44973615D01*
X112183722Y-45008449D01*
X112218556Y-45025866D01*
X111783127Y-44921363D02*
X111748293Y-44921363D01*
X111713459Y-44938781D01*
X111696042Y-44956198D01*
X111678625Y-44991032D01*
X111661207Y-45060701D01*
X111661207Y-45147786D01*
X111678625Y-45217455D01*
X111696042Y-45252289D01*
X111713459Y-45269706D01*
X111748293Y-45287123D01*
X111783127Y-45287123D01*
X111817962Y-45269706D01*
X111835379Y-45252289D01*
X111852796Y-45217455D01*
X111870213Y-45147786D01*
X111870213Y-45060701D01*
X111852796Y-44991032D01*
X111835379Y-44956198D01*
X111817962Y-44938781D01*
X111783127Y-44921363D01*
X111504453Y-45287123D02*
X111504453Y-44921363D01*
X111295447Y-45287123D02*
X111452202Y-45078118D01*
X111295447Y-44921363D02*
X111504453Y-45130369D01*
D11*
%TO.C,C12*%
X91634206Y-87147427D02*
X91665944Y-87179165D01*
X91761158Y-87210903D01*
X91824633Y-87210903D01*
X91919847Y-87179165D01*
X91983323Y-87115689D01*
X92015061Y-87052213D01*
X92046799Y-86925261D01*
X92046799Y-86830048D01*
X92015061Y-86703096D01*
X91983323Y-86639620D01*
X91919847Y-86576145D01*
X91824633Y-86544407D01*
X91761158Y-86544407D01*
X91665944Y-86576145D01*
X91634206Y-86607882D01*
X90999448Y-87210903D02*
X91380303Y-87210903D01*
X91189875Y-87210903D02*
X91189875Y-86544407D01*
X91253351Y-86639620D01*
X91316827Y-86703096D01*
X91380303Y-86734834D01*
X90745545Y-86607882D02*
X90713807Y-86576145D01*
X90650331Y-86544407D01*
X90491641Y-86544407D01*
X90428166Y-86576145D01*
X90396428Y-86607882D01*
X90364690Y-86671358D01*
X90364690Y-86734834D01*
X90396428Y-86830048D01*
X90777282Y-87210903D01*
X90364690Y-87210903D01*
D12*
X91831502Y-87825223D02*
X92040508Y-87825223D01*
X91936005Y-87825223D02*
X91936005Y-87459463D01*
X91970839Y-87511715D01*
X92005674Y-87546549D01*
X92040508Y-87563966D01*
X91605079Y-87459463D02*
X91570245Y-87459463D01*
X91535411Y-87476881D01*
X91517994Y-87494298D01*
X91500577Y-87529132D01*
X91483159Y-87598801D01*
X91483159Y-87685886D01*
X91500577Y-87755555D01*
X91517994Y-87790389D01*
X91535411Y-87807806D01*
X91570245Y-87825223D01*
X91605079Y-87825223D01*
X91639914Y-87807806D01*
X91657331Y-87790389D01*
X91674748Y-87755555D01*
X91692165Y-87685886D01*
X91692165Y-87598801D01*
X91674748Y-87529132D01*
X91657331Y-87494298D01*
X91639914Y-87476881D01*
X91605079Y-87459463D01*
X91169651Y-87581383D02*
X91169651Y-87825223D01*
X91326405Y-87581383D02*
X91326405Y-87772972D01*
X91308988Y-87807806D01*
X91274154Y-87825223D01*
X91221902Y-87825223D01*
X91187068Y-87807806D01*
X91169651Y-87790389D01*
X90873559Y-87633635D02*
X90995479Y-87633635D01*
X90995479Y-87825223D02*
X90995479Y-87459463D01*
X90821308Y-87459463D01*
D11*
%TO.C,C2*%
X136131448Y-44020427D02*
X136163186Y-44052165D01*
X136258399Y-44083903D01*
X136321875Y-44083903D01*
X136417089Y-44052165D01*
X136480565Y-43988689D01*
X136512303Y-43925213D01*
X136544041Y-43798261D01*
X136544041Y-43703048D01*
X136512303Y-43576096D01*
X136480565Y-43512620D01*
X136417089Y-43449145D01*
X136321875Y-43417407D01*
X136258399Y-43417407D01*
X136163186Y-43449145D01*
X136131448Y-43480882D01*
X135877545Y-43480882D02*
X135845807Y-43449145D01*
X135782331Y-43417407D01*
X135623641Y-43417407D01*
X135560166Y-43449145D01*
X135528428Y-43480882D01*
X135496690Y-43544358D01*
X135496690Y-43607834D01*
X135528428Y-43703048D01*
X135909282Y-44083903D01*
X135496690Y-44083903D01*
D12*
X136431502Y-44825223D02*
X136640508Y-44825223D01*
X136536005Y-44825223D02*
X136536005Y-44459463D01*
X136570839Y-44511715D01*
X136605674Y-44546549D01*
X136640508Y-44563966D01*
X136205079Y-44459463D02*
X136170245Y-44459463D01*
X136135411Y-44476881D01*
X136117994Y-44494298D01*
X136100577Y-44529132D01*
X136083159Y-44598801D01*
X136083159Y-44685886D01*
X136100577Y-44755555D01*
X136117994Y-44790389D01*
X136135411Y-44807806D01*
X136170245Y-44825223D01*
X136205079Y-44825223D01*
X136239914Y-44807806D01*
X136257331Y-44790389D01*
X136274748Y-44755555D01*
X136292165Y-44685886D01*
X136292165Y-44598801D01*
X136274748Y-44529132D01*
X136257331Y-44494298D01*
X136239914Y-44476881D01*
X136205079Y-44459463D01*
X135769651Y-44581383D02*
X135769651Y-44825223D01*
X135926405Y-44581383D02*
X135926405Y-44772972D01*
X135908988Y-44807806D01*
X135874154Y-44825223D01*
X135821902Y-44825223D01*
X135787068Y-44807806D01*
X135769651Y-44790389D01*
X135473559Y-44633635D02*
X135595479Y-44633635D01*
X135595479Y-44825223D02*
X135595479Y-44459463D01*
X135421308Y-44459463D01*
D11*
%TO.C,IC2*%
X83088853Y-95110903D02*
X83088853Y-94444407D01*
X82390619Y-95047427D02*
X82422357Y-95079165D01*
X82517571Y-95110903D01*
X82581047Y-95110903D01*
X82676261Y-95079165D01*
X82739736Y-95015689D01*
X82771474Y-94952213D01*
X82803212Y-94825261D01*
X82803212Y-94730048D01*
X82771474Y-94603096D01*
X82739736Y-94539620D01*
X82676261Y-94476145D01*
X82581047Y-94444407D01*
X82517571Y-94444407D01*
X82422357Y-94476145D01*
X82390619Y-94507882D01*
X82136716Y-94507882D02*
X82104978Y-94476145D01*
X82041503Y-94444407D01*
X81882813Y-94444407D01*
X81819337Y-94476145D01*
X81787599Y-94507882D01*
X81755861Y-94571358D01*
X81755861Y-94634834D01*
X81787599Y-94730048D01*
X82168454Y-95110903D01*
X81755861Y-95110903D01*
D12*
X83181390Y-95459463D02*
X82972385Y-95459463D01*
X83076887Y-95825223D02*
X83076887Y-95459463D01*
X82641459Y-95790389D02*
X82658876Y-95807806D01*
X82711127Y-95825223D01*
X82745962Y-95825223D01*
X82798213Y-95807806D01*
X82833047Y-95772972D01*
X82850465Y-95738138D01*
X82867882Y-95668469D01*
X82867882Y-95616218D01*
X82850465Y-95546549D01*
X82833047Y-95511715D01*
X82798213Y-95476881D01*
X82745962Y-95459463D01*
X82711127Y-95459463D01*
X82658876Y-95476881D01*
X82641459Y-95494298D01*
X82502122Y-95720721D02*
X82327950Y-95720721D01*
X82536956Y-95825223D02*
X82415036Y-95459463D01*
X82293116Y-95825223D01*
X82118945Y-95616218D02*
X82153779Y-95598801D01*
X82171196Y-95581383D01*
X82188613Y-95546549D01*
X82188613Y-95529132D01*
X82171196Y-95494298D01*
X82153779Y-95476881D01*
X82118945Y-95459463D01*
X82049276Y-95459463D01*
X82014442Y-95476881D01*
X81997025Y-95494298D01*
X81979607Y-95529132D01*
X81979607Y-95546549D01*
X81997025Y-95581383D01*
X82014442Y-95598801D01*
X82049276Y-95616218D01*
X82118945Y-95616218D01*
X82153779Y-95633635D01*
X82171196Y-95651052D01*
X82188613Y-95685886D01*
X82188613Y-95755555D01*
X82171196Y-95790389D01*
X82153779Y-95807806D01*
X82118945Y-95825223D01*
X82049276Y-95825223D01*
X82014442Y-95807806D01*
X81997025Y-95790389D01*
X81979607Y-95755555D01*
X81979607Y-95685886D01*
X81997025Y-95651052D01*
X82014442Y-95633635D01*
X82049276Y-95616218D01*
X81666099Y-95581383D02*
X81666099Y-95825223D01*
X81753185Y-95442046D02*
X81840270Y-95703303D01*
X81613847Y-95703303D01*
X81282922Y-95825223D02*
X81491927Y-95825223D01*
X81387425Y-95825223D02*
X81387425Y-95459463D01*
X81422259Y-95511715D01*
X81457093Y-95546549D01*
X81491927Y-95563966D01*
X81073916Y-95616218D02*
X81108750Y-95598801D01*
X81126167Y-95581383D01*
X81143585Y-95546549D01*
X81143585Y-95529132D01*
X81126167Y-95494298D01*
X81108750Y-95476881D01*
X81073916Y-95459463D01*
X81004247Y-95459463D01*
X80969413Y-95476881D01*
X80951996Y-95494298D01*
X80934579Y-95529132D01*
X80934579Y-95546549D01*
X80951996Y-95581383D01*
X80969413Y-95598801D01*
X81004247Y-95616218D01*
X81073916Y-95616218D01*
X81108750Y-95633635D01*
X81126167Y-95651052D01*
X81143585Y-95685886D01*
X81143585Y-95755555D01*
X81126167Y-95790389D01*
X81108750Y-95807806D01*
X81073916Y-95825223D01*
X81004247Y-95825223D01*
X80969413Y-95807806D01*
X80951996Y-95790389D01*
X80934579Y-95755555D01*
X80934579Y-95685886D01*
X80951996Y-95651052D01*
X80969413Y-95633635D01*
X81004247Y-95616218D01*
D15*
%TO.C,C10*%
X88242641Y-83750641D02*
X88242641Y-82734641D01*
%TO.C,R11*%
X124242641Y-36842641D02*
X124242641Y-37642641D01*
D16*
%TO.C,U2*%
X88380141Y-89682641D02*
X87580141Y-89682641D01*
X88380141Y-92802641D02*
X87580141Y-92802641D01*
X88380141Y-89682641D02*
X90180141Y-89682641D01*
X88380141Y-92802641D02*
X89180141Y-92802641D01*
D15*
%TO.C,R3*%
X133842641Y-48242641D02*
X134642641Y-48242641D01*
%TO.C,R16*%
X80242641Y-35842641D02*
X80242641Y-36642641D01*
%TO.C,R19*%
X91642641Y-43242641D02*
X91642641Y-42442641D01*
%TO.C,R15*%
X123092641Y-66842641D02*
X123092641Y-67642641D01*
D17*
%TO.C,U4*%
X126592641Y-40342741D02*
X126592641Y-38742741D01*
X127842641Y-40592741D02*
X128642641Y-40592741D01*
X129892641Y-40342741D02*
X129892641Y-38742741D01*
D15*
%TO.C,C8*%
X104242641Y-39750641D02*
X104242641Y-38734641D01*
%TO.C,R17*%
X83242641Y-64934641D02*
X83242641Y-65950641D01*
D17*
%TO.C,Q1*%
X129670241Y-47582241D02*
X129670241Y-48895041D01*
X132815041Y-47582241D02*
X131806241Y-47582241D01*
X130679041Y-47582241D02*
X129670241Y-47582241D01*
X132815041Y-48895041D02*
X132815041Y-47582241D01*
X130870241Y-48903041D02*
X131629041Y-48903041D01*
%TO.C,D37*%
G36*
X121559341Y-36623641D02*
G01*
X121432341Y-36623641D01*
X121432341Y-35861641D01*
X121559341Y-35861641D01*
X121559341Y-36623641D01*
G37*
G36*
X121554321Y-36242641D02*
G01*
X121038641Y-36655185D01*
X121038641Y-35830097D01*
X121554321Y-36242641D01*
G37*
D15*
%TO.C,C5*%
X133242641Y-38750641D02*
X133242641Y-37734641D01*
%TO.C,C6*%
X133242641Y-36750641D02*
X133242641Y-35734641D01*
%TO.C,C7*%
X104242641Y-41750641D02*
X104242641Y-40734641D01*
D18*
%TO.C,X2*%
X117842641Y-54242641D02*
X104642641Y-54242641D01*
X117842641Y-59642641D02*
X117842641Y-54242641D01*
X104642641Y-54242641D02*
X104642641Y-59642641D01*
%TO.C,G\u002A\u002A\u002A*%
G36*
X71504476Y-40218929D02*
G01*
X71536071Y-40315472D01*
X71587935Y-40530786D01*
X71633564Y-40794013D01*
X71670930Y-41092633D01*
X71698005Y-41414123D01*
X71720799Y-41766681D01*
X71926911Y-41859311D01*
X71958588Y-41873499D01*
X72082627Y-41928625D01*
X72244960Y-42000364D01*
X72428125Y-42081008D01*
X72614661Y-42162850D01*
X72697444Y-42199004D01*
X72860844Y-42271387D01*
X72976689Y-42329005D01*
X73054687Y-42381776D01*
X73104548Y-42439616D01*
X73135981Y-42512442D01*
X73158695Y-42610169D01*
X73182398Y-42742715D01*
X73204346Y-42865323D01*
X72482665Y-42719981D01*
X72393982Y-42702323D01*
X72190014Y-42663333D01*
X72012845Y-42631715D01*
X71872326Y-42609097D01*
X71778307Y-42597107D01*
X71740640Y-42597373D01*
X71736875Y-42604589D01*
X71721671Y-42664575D01*
X71702641Y-42769265D01*
X71681913Y-42902741D01*
X71661618Y-43049083D01*
X71643883Y-43192372D01*
X71630837Y-43316689D01*
X71624610Y-43406114D01*
X71627329Y-43444728D01*
X71639809Y-43453618D01*
X71701306Y-43491003D01*
X71800469Y-43548353D01*
X71923163Y-43617417D01*
X72200665Y-43771775D01*
X72210603Y-44016114D01*
X72214364Y-44106662D01*
X72212680Y-44188053D01*
X72194731Y-44236063D01*
X72150737Y-44253746D01*
X72070916Y-44244156D01*
X71945484Y-44210349D01*
X71764660Y-44155380D01*
X71419831Y-44050307D01*
X71079336Y-44155380D01*
X70935705Y-44199730D01*
X70798664Y-44238963D01*
X70709426Y-44254319D01*
X70658213Y-44242717D01*
X70635246Y-44201075D01*
X70630747Y-44126312D01*
X70634936Y-44015347D01*
X70644873Y-43770240D01*
X70925036Y-43613990D01*
X70995207Y-43574661D01*
X71106120Y-43511592D01*
X71185323Y-43465344D01*
X71219071Y-43443868D01*
X71220577Y-43433466D01*
X71216618Y-43370164D01*
X71205019Y-43263439D01*
X71187988Y-43128971D01*
X71167735Y-42982442D01*
X71146470Y-42839534D01*
X71126400Y-42715927D01*
X71109736Y-42627303D01*
X71098686Y-42589344D01*
X71091392Y-42588732D01*
X71031105Y-42596144D01*
X70918336Y-42614754D01*
X70762834Y-42642827D01*
X70574350Y-42678626D01*
X70362631Y-42720416D01*
X69640708Y-42865421D01*
X69664166Y-42708992D01*
X69673246Y-42648782D01*
X69689876Y-42558641D01*
X69713553Y-42486391D01*
X69752105Y-42425565D01*
X69813362Y-42369695D01*
X69905154Y-42312312D01*
X70035309Y-42246950D01*
X70211659Y-42167140D01*
X70442031Y-42066414D01*
X71118375Y-41771576D01*
X71126053Y-41637785D01*
X71126274Y-41633941D01*
X71151248Y-41297673D01*
X71185443Y-40981944D01*
X71227274Y-40696172D01*
X71275155Y-40449777D01*
X71327502Y-40252175D01*
X71382728Y-40112786D01*
X71430587Y-40021443D01*
X71504476Y-40218929D01*
G37*
G36*
X71163687Y-45953201D02*
G01*
X71221226Y-45970517D01*
X71236751Y-46013538D01*
X71233573Y-46048356D01*
X71214203Y-46098092D01*
X71199564Y-46111278D01*
X71175186Y-46113551D01*
X71184229Y-46058633D01*
X71188886Y-46020105D01*
X71155911Y-45996627D01*
X71132345Y-46003648D01*
X71127347Y-46047271D01*
X71133116Y-46076019D01*
X71105730Y-46072544D01*
X71075669Y-46065360D01*
X71015429Y-46088047D01*
X70984892Y-46107645D01*
X70966178Y-46092955D01*
X70967540Y-46082108D01*
X71000551Y-46035745D01*
X71011225Y-46026454D01*
X71015466Y-45983016D01*
X71013908Y-45977716D01*
X71043111Y-45959068D01*
X71116379Y-45951532D01*
X71163687Y-45953201D01*
G37*
G36*
X73930523Y-46379807D02*
G01*
X73795131Y-46799222D01*
X73626595Y-47189108D01*
X73418823Y-47559977D01*
X73165723Y-47922339D01*
X72861203Y-48286704D01*
X72499170Y-48663584D01*
X72445878Y-48713883D01*
X72330383Y-48817662D01*
X72172543Y-48955790D01*
X71978187Y-49123302D01*
X71753145Y-49315233D01*
X71503246Y-49526616D01*
X71234319Y-49752488D01*
X70952195Y-49987881D01*
X70662703Y-50227832D01*
X70407174Y-50438698D01*
X70142912Y-50656295D01*
X69898458Y-50857092D01*
X69678424Y-51037324D01*
X69487424Y-51193227D01*
X69330068Y-51321037D01*
X69210969Y-51416990D01*
X69134740Y-51477322D01*
X69105992Y-51498269D01*
X69084567Y-51485113D01*
X69015300Y-51432682D01*
X68903907Y-51344389D01*
X68755684Y-51224656D01*
X68575924Y-51077907D01*
X68369922Y-50908565D01*
X68142972Y-50721053D01*
X67900369Y-50519793D01*
X67647407Y-50309209D01*
X67389380Y-50093723D01*
X67131583Y-49877759D01*
X66879311Y-49665740D01*
X66637857Y-49462089D01*
X66412516Y-49271227D01*
X66208583Y-49097580D01*
X66031352Y-48945569D01*
X65886117Y-48819617D01*
X65778172Y-48724148D01*
X65712813Y-48663584D01*
X65448081Y-48392644D01*
X65127751Y-48025776D01*
X64860581Y-47663914D01*
X64640480Y-47296548D01*
X64461355Y-46913168D01*
X64317116Y-46503262D01*
X64201669Y-46056320D01*
X64192871Y-46015432D01*
X64171034Y-45903881D01*
X64151844Y-45786796D01*
X64135135Y-45659397D01*
X64120740Y-45516907D01*
X64108493Y-45354550D01*
X64098225Y-45167548D01*
X64089771Y-44951124D01*
X64082963Y-44700500D01*
X64081089Y-44598669D01*
X64463381Y-44598669D01*
X64480912Y-45114448D01*
X64486195Y-45241330D01*
X64512923Y-45579237D01*
X64560297Y-45887769D01*
X64633291Y-46194374D01*
X64736882Y-46526498D01*
X64784084Y-46659933D01*
X64865315Y-46865110D01*
X64955772Y-47060581D01*
X65059195Y-47250536D01*
X65179325Y-47439170D01*
X65319900Y-47630674D01*
X65484661Y-47829240D01*
X65677347Y-48039061D01*
X65901698Y-48264330D01*
X66161453Y-48509238D01*
X66460353Y-48777979D01*
X66802136Y-49074744D01*
X67190542Y-49403726D01*
X67629311Y-49769117D01*
X67776914Y-49891195D01*
X68036269Y-50105314D01*
X68277618Y-50304078D01*
X68496095Y-50483511D01*
X68686838Y-50639635D01*
X68844982Y-50768472D01*
X68965664Y-50866044D01*
X69044018Y-50928375D01*
X69075183Y-50951487D01*
X69078597Y-50937538D01*
X69083373Y-50862368D01*
X69087781Y-50725030D01*
X69091790Y-50528796D01*
X69095367Y-50276935D01*
X69098481Y-49972717D01*
X69101100Y-49619412D01*
X69103193Y-49220289D01*
X69104726Y-48778619D01*
X69105670Y-48297671D01*
X69105992Y-47780715D01*
X69105992Y-45718260D01*
X69378254Y-45718260D01*
X69385553Y-46017657D01*
X69441903Y-46331468D01*
X69477791Y-46455654D01*
X69567677Y-46689878D01*
X69678797Y-46907848D01*
X69804750Y-47101370D01*
X69939134Y-47262248D01*
X70075548Y-47382286D01*
X70207591Y-47453288D01*
X70328862Y-47467059D01*
X70356751Y-47458730D01*
X70361228Y-47435460D01*
X70327475Y-47387518D01*
X70250167Y-47303862D01*
X70120641Y-47162863D01*
X69898640Y-46879410D01*
X69735090Y-46598569D01*
X69625485Y-46309796D01*
X69565318Y-46002551D01*
X69550082Y-45666292D01*
X69554493Y-45393476D01*
X69596032Y-45717362D01*
X69609666Y-45819674D01*
X69652078Y-46081145D01*
X69703761Y-46299297D01*
X69771946Y-46492268D01*
X69863863Y-46678195D01*
X69986744Y-46875214D01*
X70147818Y-47101465D01*
X70342732Y-47340986D01*
X70566279Y-47555471D01*
X70792246Y-47707698D01*
X70839077Y-47744107D01*
X70842978Y-47776060D01*
X70842410Y-47776533D01*
X70834002Y-47780715D01*
X70798514Y-47798366D01*
X70704872Y-47837342D01*
X70574865Y-47888085D01*
X70421874Y-47945221D01*
X70369232Y-47964508D01*
X70197817Y-48028248D01*
X70079486Y-48074988D01*
X70005696Y-48109129D01*
X69967899Y-48135072D01*
X69957551Y-48157220D01*
X69966105Y-48179974D01*
X69994188Y-48201823D01*
X70063447Y-48215830D01*
X70086246Y-48212441D01*
X70171780Y-48189679D01*
X70299468Y-48149554D01*
X70455439Y-48096820D01*
X70625822Y-48036231D01*
X70796745Y-47972541D01*
X70954338Y-47910504D01*
X71008133Y-47892016D01*
X71069365Y-47887807D01*
X71145303Y-47907652D01*
X71258733Y-47954870D01*
X71359035Y-47996843D01*
X71532815Y-48059132D01*
X71700408Y-48107807D01*
X71850484Y-48140586D01*
X71971711Y-48155186D01*
X72052757Y-48149326D01*
X72082290Y-48120723D01*
X72057282Y-48101345D01*
X71979966Y-48064624D01*
X71862853Y-48017070D01*
X71718708Y-47964182D01*
X71693518Y-47955363D01*
X71509491Y-47890624D01*
X71381831Y-47843090D01*
X71303999Y-47807683D01*
X71269455Y-47779328D01*
X71271661Y-47752946D01*
X71304079Y-47723462D01*
X71360169Y-47685798D01*
X71416697Y-47645654D01*
X71530144Y-47555569D01*
X71637882Y-47460518D01*
X71671374Y-47429318D01*
X71736980Y-47373863D01*
X71765465Y-47363417D01*
X71763337Y-47394557D01*
X71755547Y-47430712D01*
X71771440Y-47481628D01*
X71834896Y-47484914D01*
X71945480Y-47440458D01*
X72097937Y-47335989D01*
X72260398Y-47167625D01*
X72411124Y-46953593D01*
X72542170Y-46705311D01*
X72645594Y-46434196D01*
X72671617Y-46347716D01*
X72702389Y-46223271D01*
X72718798Y-46105521D01*
X72723701Y-45969771D01*
X72719953Y-45791323D01*
X72713867Y-45648335D01*
X72702741Y-45516598D01*
X72683818Y-45415835D01*
X72653020Y-45325766D01*
X72606268Y-45226115D01*
X72550093Y-45127139D01*
X72481857Y-45030914D01*
X72424828Y-44974301D01*
X72344596Y-44923145D01*
X72367543Y-45058970D01*
X72372235Y-45105573D01*
X72372936Y-45156285D01*
X72373908Y-45226680D01*
X72367890Y-45379860D01*
X72354768Y-45542909D01*
X72307826Y-45888023D01*
X72240578Y-46182776D01*
X72149722Y-46432595D01*
X72031443Y-46647939D01*
X71881926Y-46839269D01*
X71855109Y-46869525D01*
X71747627Y-47016941D01*
X71697039Y-47142431D01*
X71673858Y-47267951D01*
X71776889Y-47232034D01*
X71802592Y-47221248D01*
X71913894Y-47141688D01*
X72033943Y-47012615D01*
X72154506Y-46846318D01*
X72267347Y-46655088D01*
X72364231Y-46451214D01*
X72436923Y-46246988D01*
X72460453Y-46143111D01*
X72485321Y-45941538D01*
X72494843Y-45705843D01*
X72496332Y-45602997D01*
X72502061Y-45486896D01*
X72511408Y-45426316D01*
X72523747Y-45427297D01*
X72527762Y-45440289D01*
X72539980Y-45520615D01*
X72548950Y-45641590D01*
X72552962Y-45782424D01*
X72552506Y-45866157D01*
X72541540Y-46027020D01*
X72511866Y-46176285D01*
X72457440Y-46349864D01*
X72451521Y-46366716D01*
X72337258Y-46643550D01*
X72207038Y-46879153D01*
X72065763Y-47066947D01*
X71918334Y-47200353D01*
X71769655Y-47272792D01*
X71734134Y-47284895D01*
X71626744Y-47334773D01*
X71494820Y-47407855D01*
X71359150Y-47492991D01*
X71286723Y-47540454D01*
X71173288Y-47610410D01*
X71086262Y-47658530D01*
X71040216Y-47676432D01*
X71008716Y-47667773D01*
X70924918Y-47623967D01*
X70809435Y-47550348D01*
X70674672Y-47454998D01*
X70533035Y-47345998D01*
X70461193Y-47283205D01*
X70407721Y-47213383D01*
X70397749Y-47149753D01*
X70398263Y-47143727D01*
X70379661Y-47070823D01*
X70317232Y-46961465D01*
X70208228Y-46810733D01*
X70190441Y-46787434D01*
X70071471Y-46617822D01*
X69975737Y-46449436D01*
X69899727Y-46270804D01*
X69839930Y-46070454D01*
X69792836Y-45836913D01*
X69754932Y-45558708D01*
X69739999Y-45403769D01*
X70157359Y-45403769D01*
X70175322Y-45436201D01*
X70251976Y-45437573D01*
X70300000Y-45432645D01*
X70336280Y-45445418D01*
X70355692Y-45494099D01*
X70370058Y-45594387D01*
X70380114Y-45710322D01*
X70387849Y-45865869D01*
X70390917Y-46020866D01*
X70395478Y-46151164D01*
X70409766Y-46260330D01*
X70431797Y-46316805D01*
X70452787Y-46327542D01*
X70526814Y-46341022D01*
X70654715Y-46350303D01*
X70841053Y-46355665D01*
X71090389Y-46357390D01*
X71708395Y-46357390D01*
X71717779Y-45877770D01*
X71718440Y-45844403D01*
X71722599Y-45666280D01*
X71727619Y-45545446D01*
X71734920Y-45472940D01*
X71745926Y-45439804D01*
X71762056Y-45437076D01*
X71784734Y-45455799D01*
X71813776Y-45483304D01*
X71846271Y-45493402D01*
X71875802Y-45450857D01*
X71905099Y-45370417D01*
X71926279Y-45264428D01*
X71936715Y-45156285D01*
X71934250Y-45068511D01*
X71916726Y-45023628D01*
X71890767Y-45021298D01*
X71857070Y-45061572D01*
X71851941Y-45074699D01*
X71807632Y-45151240D01*
X71751885Y-45214768D01*
X71705011Y-45241279D01*
X71704673Y-45241272D01*
X71684715Y-45211077D01*
X71676431Y-45139814D01*
X71674107Y-45086105D01*
X71660415Y-45041915D01*
X71637607Y-45057213D01*
X71609338Y-45127864D01*
X71579261Y-45249734D01*
X71562454Y-45324641D01*
X71511557Y-45482783D01*
X71452732Y-45580124D01*
X71387742Y-45613316D01*
X71357331Y-45594926D01*
X71306630Y-45526412D01*
X71252613Y-45421683D01*
X71167864Y-45230051D01*
X71236129Y-45157386D01*
X71279408Y-45091476D01*
X71303630Y-44991176D01*
X71290224Y-44898106D01*
X71238974Y-44836610D01*
X71131784Y-44806679D01*
X71003972Y-44806622D01*
X70896311Y-44836610D01*
X70858670Y-44873919D01*
X70832337Y-44961377D01*
X70839824Y-45066400D01*
X70882199Y-45164192D01*
X70905595Y-45203729D01*
X70911377Y-45249487D01*
X70889930Y-45313137D01*
X70837670Y-45414856D01*
X70792419Y-45493727D01*
X70742140Y-45569368D01*
X70710265Y-45602658D01*
X70702029Y-45603351D01*
X70644606Y-45585403D01*
X70564259Y-45543290D01*
X70521050Y-45514969D01*
X70478067Y-45470666D01*
X70488161Y-45435195D01*
X70497067Y-45422300D01*
X70518093Y-45350438D01*
X70526498Y-45251425D01*
X70522826Y-45169573D01*
X70504848Y-45119170D01*
X70465619Y-45105992D01*
X70431972Y-45110522D01*
X70367785Y-45142947D01*
X70331114Y-45162496D01*
X70261609Y-45142856D01*
X70249280Y-45136737D01*
X70187808Y-45127795D01*
X70167020Y-45165658D01*
X70194745Y-45239059D01*
X70194993Y-45239457D01*
X70220177Y-45301898D01*
X70195890Y-45348663D01*
X70157359Y-45403769D01*
X69739999Y-45403769D01*
X69722708Y-45224368D01*
X69697312Y-44919974D01*
X69587337Y-45069250D01*
X69506239Y-45202390D01*
X69418864Y-45443197D01*
X69378254Y-45718260D01*
X69105992Y-45718260D01*
X69105992Y-44598669D01*
X64463381Y-44598669D01*
X64081089Y-44598669D01*
X64077634Y-44410898D01*
X64073619Y-44077542D01*
X64070749Y-43695654D01*
X64068858Y-43260456D01*
X64067779Y-42767172D01*
X64067598Y-42535735D01*
X64469469Y-42535735D01*
X64648516Y-42464699D01*
X64663882Y-42458628D01*
X64756606Y-42422329D01*
X64900081Y-42366455D01*
X65084626Y-42294764D01*
X65300564Y-42211015D01*
X65538215Y-42118964D01*
X65787901Y-42022368D01*
X66748239Y-41651073D01*
X67901749Y-42096638D01*
X67902790Y-42097040D01*
X68166964Y-42199481D01*
X68411274Y-42294981D01*
X68628502Y-42380660D01*
X68811434Y-42453640D01*
X68952852Y-42511042D01*
X69045542Y-42549987D01*
X69082287Y-42567597D01*
X69094075Y-42607461D01*
X69100529Y-42696503D01*
X69099198Y-42813431D01*
X69089081Y-43033871D01*
X67915904Y-42579149D01*
X66742727Y-42124426D01*
X65632948Y-42553185D01*
X65406831Y-42640857D01*
X65164666Y-42735491D01*
X64948833Y-42820624D01*
X64766698Y-42893316D01*
X64625627Y-42950621D01*
X64532986Y-42989600D01*
X64496141Y-43007308D01*
X64484415Y-43046571D01*
X64477908Y-43135211D01*
X64479230Y-43251774D01*
X64489347Y-43470877D01*
X66743531Y-42597539D01*
X69089081Y-43505567D01*
X69099224Y-43696991D01*
X69100846Y-43778861D01*
X69094829Y-43857872D01*
X69081266Y-43888416D01*
X69047833Y-43877817D01*
X68957988Y-43845263D01*
X68819276Y-43793471D01*
X68638968Y-43725196D01*
X68424336Y-43643193D01*
X68182653Y-43550214D01*
X67921190Y-43449016D01*
X67674274Y-43353461D01*
X67430702Y-43259811D01*
X67213540Y-43176944D01*
X67030109Y-43107626D01*
X66887728Y-43054622D01*
X66793716Y-43020697D01*
X66755392Y-43008616D01*
X66722637Y-43018235D01*
X66633059Y-43049652D01*
X66494480Y-43100243D01*
X66314258Y-43167268D01*
X66099755Y-43247989D01*
X65858330Y-43339666D01*
X65597343Y-43439560D01*
X64473115Y-43871505D01*
X64472776Y-44099801D01*
X64472774Y-44102201D01*
X64476344Y-44216086D01*
X64485784Y-44297190D01*
X64499086Y-44328096D01*
X64525006Y-44320066D01*
X64608022Y-44290200D01*
X64740590Y-44240902D01*
X64915307Y-44174970D01*
X65124771Y-44095199D01*
X65361579Y-44004386D01*
X65618329Y-43905327D01*
X65829477Y-43823892D01*
X66071429Y-43731278D01*
X66287812Y-43649215D01*
X66471137Y-43580508D01*
X66613911Y-43527960D01*
X66708645Y-43494375D01*
X66747847Y-43482557D01*
X66748083Y-43482565D01*
X66788553Y-43494949D01*
X66884632Y-43529070D01*
X67029066Y-43582211D01*
X67214602Y-43651658D01*
X67433987Y-43734697D01*
X67679968Y-43828613D01*
X67945292Y-43930693D01*
X69105811Y-44378829D01*
X69105902Y-44488749D01*
X69105992Y-44598669D01*
X73739547Y-44598669D01*
X73739547Y-39904912D01*
X73037749Y-39882347D01*
X72964599Y-39879900D01*
X72591462Y-39863497D01*
X72271159Y-39841115D01*
X71991213Y-39810833D01*
X71739146Y-39770726D01*
X71502478Y-39718872D01*
X71268733Y-39653349D01*
X71025432Y-39572232D01*
X70966085Y-39550419D01*
X70618815Y-39396787D01*
X70260966Y-39199072D01*
X69911880Y-38969794D01*
X69590902Y-38721476D01*
X69317377Y-38466637D01*
X69105992Y-38246068D01*
X69105992Y-39680558D01*
X69105915Y-39855261D01*
X69105425Y-40147773D01*
X69104527Y-40414359D01*
X69103269Y-40648066D01*
X69101703Y-40841941D01*
X69099877Y-40989031D01*
X69097844Y-41082384D01*
X69095652Y-41115047D01*
X69095298Y-41114979D01*
X69058111Y-41101469D01*
X68965398Y-41066366D01*
X68824165Y-41012361D01*
X68641421Y-40942146D01*
X68424173Y-40858414D01*
X68179428Y-40763857D01*
X67914193Y-40661166D01*
X66743074Y-40207286D01*
X66005159Y-40493618D01*
X65941184Y-40518443D01*
X65698318Y-40612709D01*
X65453496Y-40707765D01*
X65222971Y-40797298D01*
X65023001Y-40874995D01*
X64869840Y-40934543D01*
X64472436Y-41089136D01*
X64472436Y-41321931D01*
X64472439Y-41328048D01*
X64473667Y-41442445D01*
X64476693Y-41523671D01*
X64480892Y-41554492D01*
X64509842Y-41543939D01*
X64595142Y-41511540D01*
X64729652Y-41460002D01*
X64906242Y-41392069D01*
X65117782Y-41310482D01*
X65357145Y-41217984D01*
X65617200Y-41117319D01*
X66745053Y-40680381D01*
X67913038Y-41133254D01*
X67929346Y-41139578D01*
X68193479Y-41242244D01*
X68436835Y-41337265D01*
X68652362Y-41421855D01*
X68833003Y-41493228D01*
X68971704Y-41548597D01*
X69061412Y-41585175D01*
X69095071Y-41600176D01*
X69095404Y-41600579D01*
X69100878Y-41641430D01*
X69102210Y-41730463D01*
X69099100Y-41849147D01*
X69089081Y-42084069D01*
X67918771Y-41630825D01*
X66748462Y-41177581D01*
X65618905Y-41615018D01*
X64489347Y-42052456D01*
X64479408Y-42294095D01*
X64469469Y-42535735D01*
X64067598Y-42535735D01*
X64067345Y-42211024D01*
X64066578Y-39502075D01*
X64886751Y-39480728D01*
X64950304Y-39478991D01*
X65384708Y-39461478D01*
X65764610Y-39434075D01*
X66101245Y-39394446D01*
X66405845Y-39340252D01*
X66689644Y-39269158D01*
X66963877Y-39178825D01*
X67239777Y-39066917D01*
X67528579Y-38931096D01*
X67716893Y-38831317D01*
X68000618Y-38660613D01*
X68281287Y-38470052D01*
X68543860Y-38270621D01*
X68773302Y-38073309D01*
X68954575Y-37889102D01*
X69105992Y-37715979D01*
X69257409Y-37889102D01*
X69375648Y-38013326D01*
X69591532Y-38207694D01*
X69845288Y-38407643D01*
X70121877Y-38602185D01*
X70406262Y-38780332D01*
X70683405Y-38931096D01*
X70723629Y-38950949D01*
X71010029Y-39083400D01*
X71285046Y-39192253D01*
X71559916Y-39279847D01*
X71845872Y-39348519D01*
X72154148Y-39400606D01*
X72495978Y-39438445D01*
X72882595Y-39464373D01*
X73325233Y-39480728D01*
X74145406Y-39502075D01*
X74144638Y-42211024D01*
X74144542Y-42424739D01*
X74143889Y-42957036D01*
X74142528Y-43428239D01*
X74140294Y-43843125D01*
X74137019Y-44206473D01*
X74132537Y-44523058D01*
X74130924Y-44598669D01*
X74126679Y-44797660D01*
X74119281Y-45035054D01*
X74110174Y-45240019D01*
X74099192Y-45417332D01*
X74086168Y-45571769D01*
X74070935Y-45708110D01*
X74053327Y-45831130D01*
X74033175Y-45945608D01*
X74028186Y-45969771D01*
X74010314Y-46056320D01*
X73930523Y-46379807D01*
G37*
G36*
X70746812Y-45936054D02*
G01*
X70786867Y-45961647D01*
X70794541Y-46019175D01*
X70792756Y-46060756D01*
X70784670Y-46078775D01*
X70763249Y-46036086D01*
X70754301Y-46015857D01*
X70737306Y-45991431D01*
X70731804Y-46027630D01*
X70725831Y-46058777D01*
X70698085Y-46086818D01*
X70679136Y-46077786D01*
X70651276Y-46027630D01*
X70648273Y-46016598D01*
X70637444Y-45996634D01*
X70631886Y-46041548D01*
X70618337Y-46090030D01*
X70568775Y-46103324D01*
X70536533Y-46097444D01*
X70484221Y-46089406D01*
X70480312Y-46088641D01*
X70458855Y-46056163D01*
X70474402Y-46041197D01*
X70530348Y-46044204D01*
X70548898Y-46048603D01*
X70586557Y-46043516D01*
X70579530Y-45992601D01*
X70571874Y-45948113D01*
X70598716Y-45928848D01*
X70676993Y-45928462D01*
X70746812Y-45936054D01*
G37*
G36*
X67740800Y-45013208D02*
G01*
X67773119Y-45048185D01*
X67785068Y-45114834D01*
X67786727Y-45215912D01*
X67786504Y-45427297D01*
X67497911Y-45590931D01*
X67383971Y-45657743D01*
X67284724Y-45724406D01*
X67234328Y-45773472D01*
X67225561Y-45810772D01*
X67231081Y-45836019D01*
X67245574Y-45922988D01*
X67263927Y-46049159D01*
X67283472Y-46196738D01*
X67289892Y-46246427D01*
X67310797Y-46385483D01*
X67330809Y-46471169D01*
X67353192Y-46514502D01*
X67381211Y-46526498D01*
X67419229Y-46521932D01*
X67515752Y-46505725D01*
X67656623Y-46479889D01*
X67829914Y-46446623D01*
X68023701Y-46408123D01*
X68188419Y-46375199D01*
X68363040Y-46341082D01*
X68506029Y-46314015D01*
X68605842Y-46296177D01*
X68650934Y-46289747D01*
X68657336Y-46290512D01*
X68673075Y-46313781D01*
X68670246Y-46378299D01*
X68648722Y-46495927D01*
X68625889Y-46592968D01*
X68598530Y-46683628D01*
X68576816Y-46728871D01*
X68574791Y-46730413D01*
X68527760Y-46754969D01*
X68429881Y-46800810D01*
X68291109Y-46863434D01*
X68121395Y-46938342D01*
X67930692Y-47021033D01*
X67313448Y-47286431D01*
X67312393Y-47456065D01*
X67311916Y-47487575D01*
X67301798Y-47669685D01*
X67280813Y-47881980D01*
X67251742Y-48104906D01*
X67217364Y-48318913D01*
X67180458Y-48504448D01*
X67143803Y-48641960D01*
X67143146Y-48643932D01*
X67102661Y-48752943D01*
X67066023Y-48830593D01*
X67041092Y-48860187D01*
X67027708Y-48852556D01*
X66995848Y-48792226D01*
X66960101Y-48680978D01*
X66922508Y-48529854D01*
X66885105Y-48349898D01*
X66849932Y-48152152D01*
X66819027Y-47947657D01*
X66794428Y-47747457D01*
X66778174Y-47562593D01*
X66772303Y-47404108D01*
X66772303Y-47283567D01*
X66161218Y-47018712D01*
X66027173Y-46959747D01*
X65820756Y-46864590D01*
X65661140Y-46784777D01*
X65553830Y-46723126D01*
X65504333Y-46682455D01*
X65494807Y-46665524D01*
X65465170Y-46585844D01*
X65442021Y-46487576D01*
X65428579Y-46391571D01*
X65428064Y-46318678D01*
X65443695Y-46289747D01*
X65476213Y-46294505D01*
X65566153Y-46310808D01*
X65701322Y-46336623D01*
X65870396Y-46369784D01*
X66062050Y-46408123D01*
X66225044Y-46440575D01*
X66402864Y-46474867D01*
X66550363Y-46502085D01*
X66655565Y-46520028D01*
X66706496Y-46526498D01*
X66735363Y-46516195D01*
X66759929Y-46474225D01*
X66781362Y-46388619D01*
X66803814Y-46247470D01*
X66808058Y-46217475D01*
X66829008Y-46072813D01*
X66848077Y-45946071D01*
X66861588Y-45861794D01*
X66867662Y-45811206D01*
X66855965Y-45762596D01*
X66809818Y-45718969D01*
X66716266Y-45662565D01*
X66598542Y-45595932D01*
X66469633Y-45520363D01*
X66384248Y-45462125D01*
X66333429Y-45411442D01*
X66308220Y-45358540D01*
X66299663Y-45293644D01*
X66298801Y-45206977D01*
X66298924Y-45166685D01*
X66303625Y-45081970D01*
X66322666Y-45029717D01*
X66366121Y-45007376D01*
X66444062Y-45012396D01*
X66566565Y-45042225D01*
X66743703Y-45094313D01*
X67042876Y-45184098D01*
X67342049Y-45094313D01*
X67420815Y-45070746D01*
X67574728Y-45027245D01*
X67678029Y-45007147D01*
X67740800Y-45013208D01*
G37*
G36*
X71556348Y-45932873D02*
G01*
X71597815Y-45953675D01*
X71601801Y-46000553D01*
X71577524Y-46050534D01*
X71498868Y-46080609D01*
X71434636Y-46078839D01*
X71405859Y-46058409D01*
X71419615Y-46042177D01*
X71473502Y-46043197D01*
X71514473Y-46046496D01*
X71541145Y-46021123D01*
X71538644Y-46007182D01*
X71509660Y-46000820D01*
X71497100Y-46005436D01*
X71456591Y-45985353D01*
X71420977Y-45963575D01*
X71386127Y-45993648D01*
X71368114Y-46063448D01*
X71366968Y-46082085D01*
X71360784Y-46111213D01*
X71348342Y-46076387D01*
X71343445Y-45990744D01*
X71388782Y-45940961D01*
X71489560Y-45927736D01*
X71556348Y-45932873D01*
G37*
G36*
X70492676Y-45949536D02*
G01*
X70491376Y-45959353D01*
X70458855Y-45985353D01*
X70451200Y-45984965D01*
X70425033Y-45970438D01*
X70426589Y-45965013D01*
X70458855Y-45934621D01*
X70471956Y-45929336D01*
X70492676Y-45949536D01*
G37*
D15*
%TO.C,R9*%
X74842641Y-91642641D02*
X74842641Y-92442641D01*
D17*
%TO.C,Q4*%
X90542641Y-39592641D02*
X90542641Y-40492641D01*
X92742641Y-39592641D02*
X92742641Y-40492641D01*
X93242641Y-40392641D02*
G75*
G03*
X93242641Y-40392641I-100000J0D01*
G01*
D15*
%TO.C,R12*%
X124392641Y-40642641D02*
X124392641Y-39842641D01*
D17*
%TO.C,U1*%
X121842641Y-40142541D02*
X121842641Y-41742541D01*
X118542641Y-40142541D02*
X118542641Y-41742541D01*
X120592641Y-39892541D02*
X119792641Y-39892541D01*
D15*
%TO.C,C15*%
X114192641Y-30334641D02*
X114192641Y-31350641D01*
%TO.C,C14*%
X80242641Y-33734641D02*
X80242641Y-34750641D01*
%TO.C,C9*%
X104242641Y-43750641D02*
X104242641Y-42734641D01*
D17*
%TO.C,Q2*%
X111082241Y-76756241D02*
X111082241Y-77415041D01*
X111895041Y-74570241D02*
X111082241Y-74570241D01*
X111082241Y-74570241D02*
X111082241Y-75229041D01*
X111082241Y-77415041D02*
X111895041Y-77415041D01*
%TO.C,U3*%
X114292641Y-40292541D02*
X113492641Y-40292541D01*
X112242641Y-40542541D02*
X112242641Y-42142541D01*
X115542641Y-40542541D02*
X115542641Y-42142541D01*
%TO.C,R7*%
X104442641Y-36742641D02*
X107242641Y-36742641D01*
X107242641Y-32942641D02*
X104442641Y-32942641D01*
D15*
%TO.C,C17*%
X114192641Y-34334641D02*
X114192641Y-35350641D01*
D16*
%TO.C,R2*%
X114062641Y-76196282D02*
X114062641Y-75889000D01*
X114822641Y-76196282D02*
X114822641Y-75889000D01*
D15*
%TO.C,C13*%
X123142641Y-69750641D02*
X123142641Y-68734641D01*
%TO.C,R6*%
X102442641Y-35242641D02*
X101642641Y-35242641D01*
D16*
%TO.C,TP1*%
X106142641Y-94422641D02*
X110542641Y-94422641D01*
X100342641Y-94462641D02*
X100342641Y-90062641D01*
X95942641Y-90062641D02*
X95942641Y-94462641D01*
X106142641Y-90022641D02*
X106142641Y-94422641D01*
X100342641Y-90062641D02*
X95942641Y-90062641D01*
X95942641Y-94462641D02*
X100342641Y-94462641D01*
X110542641Y-90022641D02*
X106142641Y-90022641D01*
X110542641Y-94422641D02*
X110542641Y-90022641D01*
D15*
%TO.C,C19*%
X128292641Y-35734641D02*
X128292641Y-36750641D01*
%TO.C,R18*%
X92242641Y-35842641D02*
X92242641Y-36642641D01*
%TO.C,C1*%
X122734641Y-45242641D02*
X123750641Y-45242641D01*
%TO.C,R14*%
X123092641Y-65642641D02*
X123092641Y-64842641D01*
%TO.C,C18*%
X114192641Y-36334641D02*
X114192641Y-37350641D01*
D17*
%TO.C,D36*%
X126942641Y-46165641D02*
X126942641Y-44419641D01*
X126242641Y-44992641D02*
X125842641Y-45592641D01*
X125842641Y-45592641D02*
X126642641Y-45592641D01*
X125542641Y-44419641D02*
X125542641Y-46165641D01*
X126642641Y-45592641D02*
X126242641Y-44992641D01*
G36*
X126632482Y-45594241D02*
G01*
X125852800Y-45594241D01*
X126242641Y-45009479D01*
X126632482Y-45594241D01*
G37*
G36*
X126742641Y-44992641D02*
G01*
X125742641Y-44992641D01*
X125742641Y-44792641D01*
X126742641Y-44792641D01*
X126742641Y-44992641D01*
G37*
%TO.C,R8*%
X71142641Y-81442641D02*
X71142641Y-84242641D01*
X74942641Y-84242641D02*
X74942641Y-81442641D01*
D15*
%TO.C,C16*%
X114192641Y-32334641D02*
X114192641Y-33350641D01*
%TO.C,C3*%
X133292641Y-42750641D02*
X133292641Y-41734641D01*
%TO.C,R10*%
X74842641Y-88842641D02*
X74842641Y-89642641D01*
%TO.C,C4*%
X133242641Y-40750641D02*
X133242641Y-39734641D01*
D17*
%TO.C,Q3*%
X82742641Y-82192641D02*
X82742641Y-83092641D01*
X80542641Y-82192641D02*
X80542641Y-83092641D01*
X83242641Y-82992641D02*
G75*
G03*
X83242641Y-82992641I-100000J0D01*
G01*
D15*
%TO.C,R5*%
X99642641Y-35242641D02*
X98842641Y-35242641D01*
%TO.C,C11*%
X88242641Y-85750641D02*
X88242641Y-84734641D01*
%TO.C,R4*%
X120042641Y-44842641D02*
X120042641Y-45642641D01*
D17*
%TO.C,IC1*%
X100242641Y-39592641D02*
X100242641Y-39242641D01*
X96242641Y-39592641D02*
X96592641Y-39242641D01*
X100242641Y-42892641D02*
X100242641Y-43242641D01*
X100242641Y-39242641D02*
X99892641Y-39242641D01*
X99892641Y-43242641D02*
X100242641Y-43242641D01*
X96592641Y-43242641D02*
X96242641Y-43242641D01*
X96242641Y-43242641D02*
X96242641Y-42892641D01*
X96286841Y-39159841D02*
G75*
G03*
X96286841Y-39159841I-127000J0D01*
G01*
D15*
%TO.C,R13*%
X114092641Y-44142541D02*
X114092641Y-44942541D01*
%TO.C,C12*%
X88242641Y-87750641D02*
X88242641Y-86734641D01*
%TO.C,C2*%
X133242641Y-44750641D02*
X133242641Y-43734641D01*
D17*
%TO.C,IC2*%
X83242641Y-92892641D02*
X83242641Y-93242641D01*
X79242641Y-93242641D02*
X79242641Y-92892641D01*
X82892641Y-93242641D02*
X83242641Y-93242641D01*
X83242641Y-89242641D02*
X82892641Y-89242641D01*
X79592641Y-93242641D02*
X79242641Y-93242641D01*
X83242641Y-89592641D02*
X83242641Y-89242641D01*
X79242641Y-89592641D02*
X79592641Y-89242641D01*
X79286841Y-89159841D02*
G75*
G03*
X79286841Y-89159841I-127000J0D01*
G01*
%TD*%
M02*
