%TF.GenerationSoftware,KiCad,Pcbnew,(6.0.7)*%
%TF.CreationDate,2022-10-22T21:09:40-04:00*%
%TF.ProjectId,Calculator,43616c63-756c-4617-946f-722e6b696361,rev?*%
%TF.SameCoordinates,Original*%
%TF.FileFunction,Paste,Bot*%
%TF.FilePolarity,Positive*%
%FSLAX46Y46*%
G04 Gerber Fmt 4.6, Leading zero omitted, Abs format (unit mm)*
G04 Created by KiCad (PCBNEW (6.0.7)) date 2022-10-22 21:09:40*
%MOMM*%
%LPD*%
G01*
G04 APERTURE LIST*
G04 Aperture macros list*
%AMRoundRect*
0 Rectangle with rounded corners*
0 $1 Rounding radius*
0 $2 $3 $4 $5 $6 $7 $8 $9 X,Y pos of 4 corners*
0 Add a 4 corners polygon primitive as box body*
4,1,4,$2,$3,$4,$5,$6,$7,$8,$9,$2,$3,0*
0 Add four circle primitives for the rounded corners*
1,1,$1+$1,$2,$3*
1,1,$1+$1,$4,$5*
1,1,$1+$1,$6,$7*
1,1,$1+$1,$8,$9*
0 Add four rect primitives between the rounded corners*
20,1,$1+$1,$2,$3,$4,$5,0*
20,1,$1+$1,$4,$5,$6,$7,0*
20,1,$1+$1,$6,$7,$8,$9,0*
20,1,$1+$1,$8,$9,$2,$3,0*%
G04 Aperture macros list end*
%ADD10R,1.240000X1.500000*%
%ADD11R,1.075000X1.000000*%
%ADD12RoundRect,0.150000X0.512500X0.150000X-0.512500X0.150000X-0.512500X-0.150000X0.512500X-0.150000X0*%
%ADD13R,1.000000X1.075000*%
%ADD14R,0.550000X1.200000*%
%ADD15R,0.635000X1.016000*%
%ADD16R,0.800000X0.800000*%
%ADD17R,0.800000X0.400000*%
%ADD18R,0.400000X0.800000*%
%ADD19R,1.450000X1.450000*%
%ADD20R,0.700000X0.700000*%
%ADD21R,0.500000X0.500000*%
%ADD22R,0.400000X0.500000*%
%ADD23R,1.400000X1.000000*%
%ADD24R,0.900000X0.450000*%
%ADD25RoundRect,0.135000X0.185000X-0.135000X0.185000X0.135000X-0.185000X0.135000X-0.185000X-0.135000X0*%
%ADD26R,1.500000X1.240000*%
%ADD27R,1.400000X1.400000*%
%ADD28R,0.450000X0.900000*%
%ADD29RoundRect,0.070000X0.070000X-0.330000X0.070000X0.330000X-0.070000X0.330000X-0.070000X-0.330000X0*%
%ADD30RoundRect,0.070000X0.330000X0.070000X-0.330000X0.070000X-0.330000X-0.070000X0.330000X-0.070000X0*%
%ADD31RoundRect,0.070000X-0.070000X0.330000X-0.070000X-0.330000X0.070000X-0.330000X0.070000X0.330000X0*%
%ADD32RoundRect,0.070000X-0.330000X-0.070000X0.330000X-0.070000X0.330000X0.070000X-0.330000X0.070000X0*%
G04 APERTURE END LIST*
D10*
%TO.C,C10*%
X87292641Y-83242641D03*
X89192641Y-83242641D03*
%TD*%
D11*
%TO.C,R11*%
X125092641Y-37242641D03*
X123392641Y-37242641D03*
%TD*%
D12*
%TO.C,U2*%
X89517641Y-90292641D03*
X89517641Y-91242641D03*
X89517641Y-92192641D03*
X87242641Y-92192641D03*
X87242641Y-90292641D03*
%TD*%
D13*
%TO.C,R3*%
X134242641Y-47392641D03*
X134242641Y-49092641D03*
%TD*%
D11*
%TO.C,R16*%
X81092641Y-36242641D03*
X79392641Y-36242641D03*
%TD*%
%TO.C,R19*%
X90792641Y-42842641D03*
X92492641Y-42842641D03*
%TD*%
%TO.C,R15*%
X123942641Y-67242641D03*
X122242641Y-67242641D03*
%TD*%
D14*
%TO.C,U4*%
X127292641Y-38242641D03*
X128242641Y-38242641D03*
X129192641Y-38242641D03*
X129192641Y-40842841D03*
X127292641Y-40842841D03*
%TD*%
D10*
%TO.C,C8*%
X103292641Y-39242641D03*
X105192641Y-39242641D03*
%TD*%
%TO.C,R17*%
X84192641Y-65442641D03*
X82292641Y-65442641D03*
%TD*%
D15*
%TO.C,Q1*%
X132192641Y-49242641D03*
X130292641Y-49242641D03*
X131242641Y-47242641D03*
%TD*%
D16*
%TO.C,D37*%
X120542641Y-36242641D03*
X122042641Y-36242641D03*
%TD*%
D10*
%TO.C,C5*%
X132292641Y-38242641D03*
X134192641Y-38242641D03*
%TD*%
%TO.C,C6*%
X132292641Y-36242641D03*
X134192641Y-36242641D03*
%TD*%
%TO.C,C7*%
X103292641Y-41242641D03*
X105192641Y-41242641D03*
%TD*%
D17*
%TO.C,X2*%
X117142641Y-61242641D03*
X117142641Y-62042641D03*
X117142641Y-62842641D03*
X117142641Y-63642641D03*
X117142641Y-64442641D03*
X117142641Y-65242641D03*
X117142641Y-66042641D03*
X117142641Y-66842641D03*
X117142641Y-67642641D03*
X117142641Y-68442641D03*
X117142641Y-69242641D03*
D18*
X116042641Y-70142641D03*
X115242641Y-70142641D03*
X114442641Y-70142641D03*
X113642641Y-70142641D03*
X112842641Y-70142641D03*
X112042641Y-70142641D03*
X111242641Y-70142641D03*
X110442641Y-70142641D03*
X109642641Y-70142641D03*
X108842641Y-70142641D03*
X108042641Y-70142641D03*
X107242641Y-70142641D03*
X106442641Y-70142641D03*
D17*
X105342641Y-69242641D03*
X105342641Y-68442641D03*
X105342641Y-67642641D03*
X105342641Y-66842641D03*
X105342641Y-66042641D03*
X105342641Y-65242641D03*
X105342641Y-64442641D03*
X105342641Y-63642641D03*
X105342641Y-62842641D03*
X105342641Y-62042641D03*
X105342641Y-61242641D03*
D18*
X106442641Y-60342641D03*
X107242641Y-60342641D03*
X108042641Y-60342641D03*
X108842641Y-60342641D03*
X109642641Y-60342641D03*
X110442641Y-60342641D03*
X111242641Y-60342641D03*
X112042641Y-60342641D03*
X112842641Y-60342641D03*
X113642641Y-60342641D03*
X114442641Y-60342641D03*
X115242641Y-60342641D03*
X116042641Y-60342641D03*
D19*
X111242641Y-65242641D03*
D20*
X105292641Y-60292641D03*
X105292641Y-70192641D03*
X117192641Y-70192641D03*
X117192641Y-60292641D03*
D19*
X113192641Y-65242641D03*
X113192641Y-67192641D03*
X111242641Y-67192641D03*
X109292641Y-67192641D03*
X109292641Y-65242641D03*
X109292641Y-63292641D03*
X111242641Y-63292641D03*
%TD*%
D11*
%TO.C,R9*%
X75692641Y-92042641D03*
X73992641Y-92042641D03*
%TD*%
D21*
%TO.C,Q4*%
X92392641Y-40942641D03*
D22*
X91642641Y-40942641D03*
D21*
X90892641Y-40942641D03*
X90892641Y-39142641D03*
D22*
X91642641Y-39142641D03*
D21*
X92392641Y-39142641D03*
%TD*%
D11*
%TO.C,R12*%
X123542641Y-40242641D03*
X125242641Y-40242641D03*
%TD*%
D14*
%TO.C,U1*%
X121142641Y-42242641D03*
X120192641Y-42242641D03*
X119242641Y-42242641D03*
X119242641Y-39642441D03*
X121142641Y-39642441D03*
%TD*%
D10*
%TO.C,C15*%
X115142641Y-30842641D03*
X113242641Y-30842641D03*
%TD*%
%TO.C,C14*%
X81192641Y-34242641D03*
X79292641Y-34242641D03*
%TD*%
%TO.C,C9*%
X103292641Y-43242641D03*
X105192641Y-43242641D03*
%TD*%
D23*
%TO.C,Q2*%
X112842641Y-75042641D03*
X112842641Y-76942641D03*
X110642641Y-75992641D03*
%TD*%
D14*
%TO.C,U3*%
X114842641Y-42642641D03*
X113892641Y-42642641D03*
X112942641Y-42642641D03*
X112942641Y-40042441D03*
X114842641Y-40042441D03*
%TD*%
D24*
%TO.C,R7*%
X104992641Y-36142641D03*
X104992641Y-35242641D03*
X104992641Y-34442641D03*
X104992641Y-33542641D03*
X106692641Y-33542641D03*
X106692641Y-34442641D03*
X106692641Y-35242641D03*
X106692641Y-36142641D03*
%TD*%
D10*
%TO.C,C17*%
X115142641Y-34842641D03*
X113242641Y-34842641D03*
%TD*%
D25*
%TO.C,R2*%
X114442641Y-76552641D03*
X114442641Y-75532641D03*
%TD*%
D10*
%TO.C,C13*%
X122192641Y-69242641D03*
X124092641Y-69242641D03*
%TD*%
D13*
%TO.C,R6*%
X102042641Y-36092641D03*
X102042641Y-34392641D03*
%TD*%
D10*
%TO.C,C19*%
X129242641Y-36242641D03*
X127342641Y-36242641D03*
%TD*%
D11*
%TO.C,R18*%
X93092641Y-36242641D03*
X91392641Y-36242641D03*
%TD*%
D26*
%TO.C,C1*%
X123242641Y-44292641D03*
X123242641Y-46192641D03*
%TD*%
D11*
%TO.C,R14*%
X122242641Y-65242641D03*
X123942641Y-65242641D03*
%TD*%
D10*
%TO.C,C18*%
X115142641Y-36842641D03*
X113242641Y-36842641D03*
%TD*%
D27*
%TO.C,D36*%
X126242641Y-47142641D03*
X126242641Y-43442641D03*
%TD*%
D28*
%TO.C,R8*%
X74342641Y-83692641D03*
X73442641Y-83692641D03*
X72642641Y-83692641D03*
X71742641Y-83692641D03*
X71742641Y-81992641D03*
X72642641Y-81992641D03*
X73442641Y-81992641D03*
X74342641Y-81992641D03*
%TD*%
D10*
%TO.C,C16*%
X115142641Y-32842641D03*
X113242641Y-32842641D03*
%TD*%
%TO.C,C3*%
X132342641Y-42242641D03*
X134242641Y-42242641D03*
%TD*%
D11*
%TO.C,R10*%
X75692641Y-89242641D03*
X73992641Y-89242641D03*
%TD*%
D10*
%TO.C,C4*%
X132292641Y-40242641D03*
X134192641Y-40242641D03*
%TD*%
D21*
%TO.C,Q3*%
X82392641Y-83542641D03*
D22*
X81642641Y-83542641D03*
D21*
X80892641Y-83542641D03*
X80892641Y-81742641D03*
D22*
X81642641Y-81742641D03*
D21*
X82392641Y-81742641D03*
%TD*%
D13*
%TO.C,R5*%
X99242641Y-36092641D03*
X99242641Y-34392641D03*
%TD*%
D10*
%TO.C,C11*%
X87292641Y-85242641D03*
X89192641Y-85242641D03*
%TD*%
D11*
%TO.C,R4*%
X120892641Y-45242641D03*
X119192641Y-45242641D03*
%TD*%
D29*
%TO.C,IC1*%
X96992641Y-39242641D03*
X97492641Y-39242641D03*
X97992641Y-39242641D03*
X98492641Y-39242641D03*
X98992641Y-39242641D03*
X99492641Y-39242641D03*
D30*
X100242641Y-39992641D03*
X100242641Y-40492641D03*
X100242641Y-40992641D03*
X100242641Y-41492641D03*
X100242641Y-41992641D03*
X100242641Y-42492641D03*
D31*
X99492641Y-43242641D03*
X98992641Y-43242641D03*
X98492641Y-43242641D03*
X97992641Y-43242641D03*
X97492641Y-43242641D03*
X96992641Y-43242641D03*
D32*
X96242641Y-42492641D03*
X96242641Y-41992641D03*
X96242641Y-41492641D03*
X96242641Y-40992641D03*
X96242641Y-40492641D03*
X96242641Y-39992641D03*
%TD*%
D11*
%TO.C,R13*%
X114942641Y-44542541D03*
X113242641Y-44542541D03*
%TD*%
D10*
%TO.C,C12*%
X87292641Y-87242641D03*
X89192641Y-87242641D03*
%TD*%
%TO.C,C2*%
X132292641Y-44242641D03*
X134192641Y-44242641D03*
%TD*%
D29*
%TO.C,IC2*%
X79992641Y-89242641D03*
X80492641Y-89242641D03*
X80992641Y-89242641D03*
X81492641Y-89242641D03*
X81992641Y-89242641D03*
X82492641Y-89242641D03*
D30*
X83242641Y-89992641D03*
X83242641Y-90492641D03*
X83242641Y-90992641D03*
X83242641Y-91492641D03*
X83242641Y-91992641D03*
X83242641Y-92492641D03*
D31*
X82492641Y-93242641D03*
X81992641Y-93242641D03*
X81492641Y-93242641D03*
X80992641Y-93242641D03*
X80492641Y-93242641D03*
X79992641Y-93242641D03*
D32*
X79242641Y-92492641D03*
X79242641Y-91992641D03*
X79242641Y-91492641D03*
X79242641Y-90992641D03*
X79242641Y-90492641D03*
X79242641Y-89992641D03*
%TD*%
M02*
