%TF.GenerationSoftware,KiCad,Pcbnew,(6.0.7)*%
%TF.CreationDate,2022-10-22T21:09:40-04:00*%
%TF.ProjectId,Calculator,43616c63-756c-4617-946f-722e6b696361,rev?*%
%TF.SameCoordinates,Original*%
%TF.FileFunction,Legend,Top*%
%TF.FilePolarity,Positive*%
%FSLAX46Y46*%
G04 Gerber Fmt 4.6, Leading zero omitted, Abs format (unit mm)*
G04 Created by KiCad (PCBNEW (6.0.7)) date 2022-10-22 21:09:40*
%MOMM*%
%LPD*%
G01*
G04 APERTURE LIST*
%ADD10C,0.146304*%
%ADD11C,0.040640*%
%ADD12C,0.150000*%
%ADD13C,0.101600*%
%ADD14C,0.120000*%
%ADD15C,0.127000*%
%ADD16C,0.200000*%
%ADD17C,0.203200*%
G04 APERTURE END LIST*
D10*
%TO.C,X1*%
X106673240Y-25644407D02*
X107117571Y-26310903D01*
X107117571Y-25644407D02*
X106673240Y-26310903D01*
X107720591Y-26310903D02*
X107339736Y-26310903D01*
X107530164Y-26310903D02*
X107530164Y-25644407D01*
X107466688Y-25739620D01*
X107403212Y-25803096D01*
X107339736Y-25834834D01*
D11*
X106761596Y-26459463D02*
X106761596Y-26755555D01*
X106779013Y-26790389D01*
X106796430Y-26807806D01*
X106831265Y-26825223D01*
X106900933Y-26825223D01*
X106935767Y-26807806D01*
X106953185Y-26790389D01*
X106970602Y-26755555D01*
X106970602Y-26459463D01*
X107127356Y-26807806D02*
X107179607Y-26825223D01*
X107266693Y-26825223D01*
X107301527Y-26807806D01*
X107318945Y-26790389D01*
X107336362Y-26755555D01*
X107336362Y-26720721D01*
X107318945Y-26685886D01*
X107301527Y-26668469D01*
X107266693Y-26651052D01*
X107197025Y-26633635D01*
X107162190Y-26616218D01*
X107144773Y-26598801D01*
X107127356Y-26563966D01*
X107127356Y-26529132D01*
X107144773Y-26494298D01*
X107162190Y-26476881D01*
X107197025Y-26459463D01*
X107284110Y-26459463D01*
X107336362Y-26476881D01*
X107615036Y-26633635D02*
X107667287Y-26651052D01*
X107684705Y-26668469D01*
X107702122Y-26703303D01*
X107702122Y-26755555D01*
X107684705Y-26790389D01*
X107667287Y-26807806D01*
X107632453Y-26825223D01*
X107493116Y-26825223D01*
X107493116Y-26459463D01*
X107615036Y-26459463D01*
X107649870Y-26476881D01*
X107667287Y-26494298D01*
X107684705Y-26529132D01*
X107684705Y-26563966D01*
X107667287Y-26598801D01*
X107649870Y-26616218D01*
X107615036Y-26633635D01*
X107493116Y-26633635D01*
X107771790Y-26860058D02*
X108050465Y-26860058D01*
X108346556Y-26790389D02*
X108329139Y-26807806D01*
X108276887Y-26825223D01*
X108242053Y-26825223D01*
X108189802Y-26807806D01*
X108154967Y-26772972D01*
X108137550Y-26738138D01*
X108120133Y-26668469D01*
X108120133Y-26616218D01*
X108137550Y-26546549D01*
X108154967Y-26511715D01*
X108189802Y-26476881D01*
X108242053Y-26459463D01*
X108276887Y-26459463D01*
X108329139Y-26476881D01*
X108346556Y-26494298D01*
D12*
%TO.C,H1*%
X63480736Y-26495021D02*
X63480736Y-25495021D01*
X63480736Y-25971212D02*
X64052164Y-25971212D01*
X64052164Y-26495021D02*
X64052164Y-25495021D01*
X65052164Y-26495021D02*
X64480736Y-26495021D01*
X64766450Y-26495021D02*
X64766450Y-25495021D01*
X64671212Y-25637879D01*
X64575974Y-25733117D01*
X64480736Y-25780736D01*
%TO.C,D3*%
X79204545Y-126795021D02*
X79204545Y-125795021D01*
X79442641Y-125795021D01*
X79585498Y-125842641D01*
X79680736Y-125937879D01*
X79728355Y-126033117D01*
X79775974Y-126223593D01*
X79775974Y-126366450D01*
X79728355Y-126556926D01*
X79680736Y-126652164D01*
X79585498Y-126747402D01*
X79442641Y-126795021D01*
X79204545Y-126795021D01*
X80109307Y-125795021D02*
X80728355Y-125795021D01*
X80395021Y-126175974D01*
X80537879Y-126175974D01*
X80633117Y-126223593D01*
X80680736Y-126271212D01*
X80728355Y-126366450D01*
X80728355Y-126604545D01*
X80680736Y-126699783D01*
X80633117Y-126747402D01*
X80537879Y-126795021D01*
X80252164Y-126795021D01*
X80156926Y-126747402D01*
X80109307Y-126699783D01*
%TO.C,SW24*%
X112608117Y-123012402D02*
X112750974Y-123060021D01*
X112989069Y-123060021D01*
X113084307Y-123012402D01*
X113131926Y-122964783D01*
X113179545Y-122869545D01*
X113179545Y-122774307D01*
X113131926Y-122679069D01*
X113084307Y-122631450D01*
X112989069Y-122583831D01*
X112798593Y-122536212D01*
X112703355Y-122488593D01*
X112655736Y-122440974D01*
X112608117Y-122345736D01*
X112608117Y-122250498D01*
X112655736Y-122155260D01*
X112703355Y-122107641D01*
X112798593Y-122060021D01*
X113036688Y-122060021D01*
X113179545Y-122107641D01*
X113512879Y-122060021D02*
X113750974Y-123060021D01*
X113941450Y-122345736D01*
X114131926Y-123060021D01*
X114370021Y-122060021D01*
X114703355Y-122155260D02*
X114750974Y-122107641D01*
X114846212Y-122060021D01*
X115084307Y-122060021D01*
X115179545Y-122107641D01*
X115227164Y-122155260D01*
X115274783Y-122250498D01*
X115274783Y-122345736D01*
X115227164Y-122488593D01*
X114655736Y-123060021D01*
X115274783Y-123060021D01*
X116131926Y-122393355D02*
X116131926Y-123060021D01*
X115893831Y-122012402D02*
X115655736Y-122726688D01*
X116274783Y-122726688D01*
%TO.C,SW30*%
X126608117Y-111012402D02*
X126750974Y-111060021D01*
X126989069Y-111060021D01*
X127084307Y-111012402D01*
X127131926Y-110964783D01*
X127179545Y-110869545D01*
X127179545Y-110774307D01*
X127131926Y-110679069D01*
X127084307Y-110631450D01*
X126989069Y-110583831D01*
X126798593Y-110536212D01*
X126703355Y-110488593D01*
X126655736Y-110440974D01*
X126608117Y-110345736D01*
X126608117Y-110250498D01*
X126655736Y-110155260D01*
X126703355Y-110107641D01*
X126798593Y-110060021D01*
X127036688Y-110060021D01*
X127179545Y-110107641D01*
X127512879Y-110060021D02*
X127750974Y-111060021D01*
X127941450Y-110345736D01*
X128131926Y-111060021D01*
X128370021Y-110060021D01*
X128655736Y-110060021D02*
X129274783Y-110060021D01*
X128941450Y-110440974D01*
X129084307Y-110440974D01*
X129179545Y-110488593D01*
X129227164Y-110536212D01*
X129274783Y-110631450D01*
X129274783Y-110869545D01*
X129227164Y-110964783D01*
X129179545Y-111012402D01*
X129084307Y-111060021D01*
X128798593Y-111060021D01*
X128703355Y-111012402D01*
X128655736Y-110964783D01*
X129893831Y-110060021D02*
X129989069Y-110060021D01*
X130084307Y-110107641D01*
X130131926Y-110155260D01*
X130179545Y-110250498D01*
X130227164Y-110440974D01*
X130227164Y-110679069D01*
X130179545Y-110869545D01*
X130131926Y-110964783D01*
X130084307Y-111012402D01*
X129989069Y-111060021D01*
X129893831Y-111060021D01*
X129798593Y-111012402D01*
X129750974Y-110964783D01*
X129703355Y-110869545D01*
X129655736Y-110679069D01*
X129655736Y-110440974D01*
X129703355Y-110250498D01*
X129750974Y-110155260D01*
X129798593Y-110107641D01*
X129893831Y-110060021D01*
%TO.C,D7*%
X79204545Y-174795021D02*
X79204545Y-173795021D01*
X79442641Y-173795021D01*
X79585498Y-173842641D01*
X79680736Y-173937879D01*
X79728355Y-174033117D01*
X79775974Y-174223593D01*
X79775974Y-174366450D01*
X79728355Y-174556926D01*
X79680736Y-174652164D01*
X79585498Y-174747402D01*
X79442641Y-174795021D01*
X79204545Y-174795021D01*
X80109307Y-173795021D02*
X80775974Y-173795021D01*
X80347402Y-174795021D01*
%TO.C,SW17*%
X98608117Y-123012402D02*
X98750974Y-123060021D01*
X98989069Y-123060021D01*
X99084307Y-123012402D01*
X99131926Y-122964783D01*
X99179545Y-122869545D01*
X99179545Y-122774307D01*
X99131926Y-122679069D01*
X99084307Y-122631450D01*
X98989069Y-122583831D01*
X98798593Y-122536212D01*
X98703355Y-122488593D01*
X98655736Y-122440974D01*
X98608117Y-122345736D01*
X98608117Y-122250498D01*
X98655736Y-122155260D01*
X98703355Y-122107641D01*
X98798593Y-122060021D01*
X99036688Y-122060021D01*
X99179545Y-122107641D01*
X99512879Y-122060021D02*
X99750974Y-123060021D01*
X99941450Y-122345736D01*
X100131926Y-123060021D01*
X100370021Y-122060021D01*
X101274783Y-123060021D02*
X100703355Y-123060021D01*
X100989069Y-123060021D02*
X100989069Y-122060021D01*
X100893831Y-122202879D01*
X100798593Y-122298117D01*
X100703355Y-122345736D01*
X101608117Y-122060021D02*
X102274783Y-122060021D01*
X101846212Y-123060021D01*
%TO.C,SW9*%
X85084307Y-111012402D02*
X85227164Y-111060021D01*
X85465260Y-111060021D01*
X85560498Y-111012402D01*
X85608117Y-110964783D01*
X85655736Y-110869545D01*
X85655736Y-110774307D01*
X85608117Y-110679069D01*
X85560498Y-110631450D01*
X85465260Y-110583831D01*
X85274783Y-110536212D01*
X85179545Y-110488593D01*
X85131926Y-110440974D01*
X85084307Y-110345736D01*
X85084307Y-110250498D01*
X85131926Y-110155260D01*
X85179545Y-110107641D01*
X85274783Y-110060021D01*
X85512879Y-110060021D01*
X85655736Y-110107641D01*
X85989069Y-110060021D02*
X86227164Y-111060021D01*
X86417641Y-110345736D01*
X86608117Y-111060021D01*
X86846212Y-110060021D01*
X87274783Y-111060021D02*
X87465260Y-111060021D01*
X87560498Y-111012402D01*
X87608117Y-110964783D01*
X87703355Y-110821926D01*
X87750974Y-110631450D01*
X87750974Y-110250498D01*
X87703355Y-110155260D01*
X87655736Y-110107641D01*
X87560498Y-110060021D01*
X87370021Y-110060021D01*
X87274783Y-110107641D01*
X87227164Y-110155260D01*
X87179545Y-110250498D01*
X87179545Y-110488593D01*
X87227164Y-110583831D01*
X87274783Y-110631450D01*
X87370021Y-110679069D01*
X87560498Y-110679069D01*
X87655736Y-110631450D01*
X87703355Y-110583831D01*
X87750974Y-110488593D01*
%TO.C,SW7*%
X71084307Y-171012402D02*
X71227164Y-171060021D01*
X71465260Y-171060021D01*
X71560498Y-171012402D01*
X71608117Y-170964783D01*
X71655736Y-170869545D01*
X71655736Y-170774307D01*
X71608117Y-170679069D01*
X71560498Y-170631450D01*
X71465260Y-170583831D01*
X71274783Y-170536212D01*
X71179545Y-170488593D01*
X71131926Y-170440974D01*
X71084307Y-170345736D01*
X71084307Y-170250498D01*
X71131926Y-170155260D01*
X71179545Y-170107641D01*
X71274783Y-170060021D01*
X71512879Y-170060021D01*
X71655736Y-170107641D01*
X71989069Y-170060021D02*
X72227164Y-171060021D01*
X72417641Y-170345736D01*
X72608117Y-171060021D01*
X72846212Y-170060021D01*
X73131926Y-170060021D02*
X73798593Y-170060021D01*
X73370021Y-171060021D01*
%TO.C,D19*%
X107228355Y-150795021D02*
X107228355Y-149795021D01*
X107466450Y-149795021D01*
X107609307Y-149842641D01*
X107704545Y-149937879D01*
X107752164Y-150033117D01*
X107799783Y-150223593D01*
X107799783Y-150366450D01*
X107752164Y-150556926D01*
X107704545Y-150652164D01*
X107609307Y-150747402D01*
X107466450Y-150795021D01*
X107228355Y-150795021D01*
X108752164Y-150795021D02*
X108180736Y-150795021D01*
X108466450Y-150795021D02*
X108466450Y-149795021D01*
X108371212Y-149937879D01*
X108275974Y-150033117D01*
X108180736Y-150080736D01*
X109228355Y-150795021D02*
X109418831Y-150795021D01*
X109514069Y-150747402D01*
X109561688Y-150699783D01*
X109656926Y-150556926D01*
X109704545Y-150366450D01*
X109704545Y-149985498D01*
X109656926Y-149890260D01*
X109609307Y-149842641D01*
X109514069Y-149795021D01*
X109323593Y-149795021D01*
X109228355Y-149842641D01*
X109180736Y-149890260D01*
X109133117Y-149985498D01*
X109133117Y-150223593D01*
X109180736Y-150318831D01*
X109228355Y-150366450D01*
X109323593Y-150414069D01*
X109514069Y-150414069D01*
X109609307Y-150366450D01*
X109656926Y-150318831D01*
X109704545Y-150223593D01*
%TO.C,SW22*%
X112608117Y-99012402D02*
X112750974Y-99060021D01*
X112989069Y-99060021D01*
X113084307Y-99012402D01*
X113131926Y-98964783D01*
X113179545Y-98869545D01*
X113179545Y-98774307D01*
X113131926Y-98679069D01*
X113084307Y-98631450D01*
X112989069Y-98583831D01*
X112798593Y-98536212D01*
X112703355Y-98488593D01*
X112655736Y-98440974D01*
X112608117Y-98345736D01*
X112608117Y-98250498D01*
X112655736Y-98155260D01*
X112703355Y-98107641D01*
X112798593Y-98060021D01*
X113036688Y-98060021D01*
X113179545Y-98107641D01*
X113512879Y-98060021D02*
X113750974Y-99060021D01*
X113941450Y-98345736D01*
X114131926Y-99060021D01*
X114370021Y-98060021D01*
X114703355Y-98155260D02*
X114750974Y-98107641D01*
X114846212Y-98060021D01*
X115084307Y-98060021D01*
X115179545Y-98107641D01*
X115227164Y-98155260D01*
X115274783Y-98250498D01*
X115274783Y-98345736D01*
X115227164Y-98488593D01*
X114655736Y-99060021D01*
X115274783Y-99060021D01*
X115655736Y-98155260D02*
X115703355Y-98107641D01*
X115798593Y-98060021D01*
X116036688Y-98060021D01*
X116131926Y-98107641D01*
X116179545Y-98155260D01*
X116227164Y-98250498D01*
X116227164Y-98345736D01*
X116179545Y-98488593D01*
X115608117Y-99060021D01*
X116227164Y-99060021D01*
%TO.C,H3*%
X63480736Y-179495021D02*
X63480736Y-178495021D01*
X63480736Y-178971212D02*
X64052164Y-178971212D01*
X64052164Y-179495021D02*
X64052164Y-178495021D01*
X64433117Y-178495021D02*
X65052164Y-178495021D01*
X64718831Y-178875974D01*
X64861688Y-178875974D01*
X64956926Y-178923593D01*
X65004545Y-178971212D01*
X65052164Y-179066450D01*
X65052164Y-179304545D01*
X65004545Y-179399783D01*
X64956926Y-179447402D01*
X64861688Y-179495021D01*
X64575974Y-179495021D01*
X64480736Y-179447402D01*
X64433117Y-179399783D01*
%TO.C,D35*%
X135228355Y-174795021D02*
X135228355Y-173795021D01*
X135466450Y-173795021D01*
X135609307Y-173842641D01*
X135704545Y-173937879D01*
X135752164Y-174033117D01*
X135799783Y-174223593D01*
X135799783Y-174366450D01*
X135752164Y-174556926D01*
X135704545Y-174652164D01*
X135609307Y-174747402D01*
X135466450Y-174795021D01*
X135228355Y-174795021D01*
X136133117Y-173795021D02*
X136752164Y-173795021D01*
X136418831Y-174175974D01*
X136561688Y-174175974D01*
X136656926Y-174223593D01*
X136704545Y-174271212D01*
X136752164Y-174366450D01*
X136752164Y-174604545D01*
X136704545Y-174699783D01*
X136656926Y-174747402D01*
X136561688Y-174795021D01*
X136275974Y-174795021D01*
X136180736Y-174747402D01*
X136133117Y-174699783D01*
X137656926Y-173795021D02*
X137180736Y-173795021D01*
X137133117Y-174271212D01*
X137180736Y-174223593D01*
X137275974Y-174175974D01*
X137514069Y-174175974D01*
X137609307Y-174223593D01*
X137656926Y-174271212D01*
X137704545Y-174366450D01*
X137704545Y-174604545D01*
X137656926Y-174699783D01*
X137609307Y-174747402D01*
X137514069Y-174795021D01*
X137275974Y-174795021D01*
X137180736Y-174747402D01*
X137133117Y-174699783D01*
%TO.C,SW20*%
X98608117Y-159012402D02*
X98750974Y-159060021D01*
X98989069Y-159060021D01*
X99084307Y-159012402D01*
X99131926Y-158964783D01*
X99179545Y-158869545D01*
X99179545Y-158774307D01*
X99131926Y-158679069D01*
X99084307Y-158631450D01*
X98989069Y-158583831D01*
X98798593Y-158536212D01*
X98703355Y-158488593D01*
X98655736Y-158440974D01*
X98608117Y-158345736D01*
X98608117Y-158250498D01*
X98655736Y-158155260D01*
X98703355Y-158107641D01*
X98798593Y-158060021D01*
X99036688Y-158060021D01*
X99179545Y-158107641D01*
X99512879Y-158060021D02*
X99750974Y-159060021D01*
X99941450Y-158345736D01*
X100131926Y-159060021D01*
X100370021Y-158060021D01*
X100703355Y-158155260D02*
X100750974Y-158107641D01*
X100846212Y-158060021D01*
X101084307Y-158060021D01*
X101179545Y-158107641D01*
X101227164Y-158155260D01*
X101274783Y-158250498D01*
X101274783Y-158345736D01*
X101227164Y-158488593D01*
X100655736Y-159060021D01*
X101274783Y-159060021D01*
X101893831Y-158060021D02*
X101989069Y-158060021D01*
X102084307Y-158107641D01*
X102131926Y-158155260D01*
X102179545Y-158250498D01*
X102227164Y-158440974D01*
X102227164Y-158679069D01*
X102179545Y-158869545D01*
X102131926Y-158964783D01*
X102084307Y-159012402D01*
X101989069Y-159060021D01*
X101893831Y-159060021D01*
X101798593Y-159012402D01*
X101750974Y-158964783D01*
X101703355Y-158869545D01*
X101655736Y-158679069D01*
X101655736Y-158440974D01*
X101703355Y-158250498D01*
X101750974Y-158155260D01*
X101798593Y-158107641D01*
X101893831Y-158060021D01*
%TO.C,SW34*%
X126608117Y-159012402D02*
X126750974Y-159060021D01*
X126989069Y-159060021D01*
X127084307Y-159012402D01*
X127131926Y-158964783D01*
X127179545Y-158869545D01*
X127179545Y-158774307D01*
X127131926Y-158679069D01*
X127084307Y-158631450D01*
X126989069Y-158583831D01*
X126798593Y-158536212D01*
X126703355Y-158488593D01*
X126655736Y-158440974D01*
X126608117Y-158345736D01*
X126608117Y-158250498D01*
X126655736Y-158155260D01*
X126703355Y-158107641D01*
X126798593Y-158060021D01*
X127036688Y-158060021D01*
X127179545Y-158107641D01*
X127512879Y-158060021D02*
X127750974Y-159060021D01*
X127941450Y-158345736D01*
X128131926Y-159060021D01*
X128370021Y-158060021D01*
X128655736Y-158060021D02*
X129274783Y-158060021D01*
X128941450Y-158440974D01*
X129084307Y-158440974D01*
X129179545Y-158488593D01*
X129227164Y-158536212D01*
X129274783Y-158631450D01*
X129274783Y-158869545D01*
X129227164Y-158964783D01*
X129179545Y-159012402D01*
X129084307Y-159060021D01*
X128798593Y-159060021D01*
X128703355Y-159012402D01*
X128655736Y-158964783D01*
X130131926Y-158393355D02*
X130131926Y-159060021D01*
X129893831Y-158012402D02*
X129655736Y-158726688D01*
X130274783Y-158726688D01*
%TO.C,U5*%
X70480736Y-32695021D02*
X70480736Y-33504545D01*
X70528355Y-33599783D01*
X70575974Y-33647402D01*
X70671212Y-33695021D01*
X70861688Y-33695021D01*
X70956926Y-33647402D01*
X71004545Y-33599783D01*
X71052164Y-33504545D01*
X71052164Y-32695021D01*
X72004545Y-32695021D02*
X71528355Y-32695021D01*
X71480736Y-33171212D01*
X71528355Y-33123593D01*
X71623593Y-33075974D01*
X71861688Y-33075974D01*
X71956926Y-33123593D01*
X72004545Y-33171212D01*
X72052164Y-33266450D01*
X72052164Y-33504545D01*
X72004545Y-33599783D01*
X71956926Y-33647402D01*
X71861688Y-33695021D01*
X71623593Y-33695021D01*
X71528355Y-33647402D01*
X71480736Y-33599783D01*
%TO.C,SW3*%
X71084307Y-123012402D02*
X71227164Y-123060021D01*
X71465260Y-123060021D01*
X71560498Y-123012402D01*
X71608117Y-122964783D01*
X71655736Y-122869545D01*
X71655736Y-122774307D01*
X71608117Y-122679069D01*
X71560498Y-122631450D01*
X71465260Y-122583831D01*
X71274783Y-122536212D01*
X71179545Y-122488593D01*
X71131926Y-122440974D01*
X71084307Y-122345736D01*
X71084307Y-122250498D01*
X71131926Y-122155260D01*
X71179545Y-122107641D01*
X71274783Y-122060021D01*
X71512879Y-122060021D01*
X71655736Y-122107641D01*
X71989069Y-122060021D02*
X72227164Y-123060021D01*
X72417641Y-122345736D01*
X72608117Y-123060021D01*
X72846212Y-122060021D01*
X73131926Y-122060021D02*
X73750974Y-122060021D01*
X73417641Y-122440974D01*
X73560498Y-122440974D01*
X73655736Y-122488593D01*
X73703355Y-122536212D01*
X73750974Y-122631450D01*
X73750974Y-122869545D01*
X73703355Y-122964783D01*
X73655736Y-123012402D01*
X73560498Y-123060021D01*
X73274783Y-123060021D01*
X73179545Y-123012402D01*
X73131926Y-122964783D01*
%TO.C,SW10*%
X84608117Y-123012402D02*
X84750974Y-123060021D01*
X84989069Y-123060021D01*
X85084307Y-123012402D01*
X85131926Y-122964783D01*
X85179545Y-122869545D01*
X85179545Y-122774307D01*
X85131926Y-122679069D01*
X85084307Y-122631450D01*
X84989069Y-122583831D01*
X84798593Y-122536212D01*
X84703355Y-122488593D01*
X84655736Y-122440974D01*
X84608117Y-122345736D01*
X84608117Y-122250498D01*
X84655736Y-122155260D01*
X84703355Y-122107641D01*
X84798593Y-122060021D01*
X85036688Y-122060021D01*
X85179545Y-122107641D01*
X85512879Y-122060021D02*
X85750974Y-123060021D01*
X85941450Y-122345736D01*
X86131926Y-123060021D01*
X86370021Y-122060021D01*
X87274783Y-123060021D02*
X86703355Y-123060021D01*
X86989069Y-123060021D02*
X86989069Y-122060021D01*
X86893831Y-122202879D01*
X86798593Y-122298117D01*
X86703355Y-122345736D01*
X87893831Y-122060021D02*
X87989069Y-122060021D01*
X88084307Y-122107641D01*
X88131926Y-122155260D01*
X88179545Y-122250498D01*
X88227164Y-122440974D01*
X88227164Y-122679069D01*
X88179545Y-122869545D01*
X88131926Y-122964783D01*
X88084307Y-123012402D01*
X87989069Y-123060021D01*
X87893831Y-123060021D01*
X87798593Y-123012402D01*
X87750974Y-122964783D01*
X87703355Y-122869545D01*
X87655736Y-122679069D01*
X87655736Y-122440974D01*
X87703355Y-122250498D01*
X87750974Y-122155260D01*
X87798593Y-122107641D01*
X87893831Y-122060021D01*
%TO.C,SW8*%
X85084307Y-99012402D02*
X85227164Y-99060021D01*
X85465260Y-99060021D01*
X85560498Y-99012402D01*
X85608117Y-98964783D01*
X85655736Y-98869545D01*
X85655736Y-98774307D01*
X85608117Y-98679069D01*
X85560498Y-98631450D01*
X85465260Y-98583831D01*
X85274783Y-98536212D01*
X85179545Y-98488593D01*
X85131926Y-98440974D01*
X85084307Y-98345736D01*
X85084307Y-98250498D01*
X85131926Y-98155260D01*
X85179545Y-98107641D01*
X85274783Y-98060021D01*
X85512879Y-98060021D01*
X85655736Y-98107641D01*
X85989069Y-98060021D02*
X86227164Y-99060021D01*
X86417641Y-98345736D01*
X86608117Y-99060021D01*
X86846212Y-98060021D01*
X87370021Y-98488593D02*
X87274783Y-98440974D01*
X87227164Y-98393355D01*
X87179545Y-98298117D01*
X87179545Y-98250498D01*
X87227164Y-98155260D01*
X87274783Y-98107641D01*
X87370021Y-98060021D01*
X87560498Y-98060021D01*
X87655736Y-98107641D01*
X87703355Y-98155260D01*
X87750974Y-98250498D01*
X87750974Y-98298117D01*
X87703355Y-98393355D01*
X87655736Y-98440974D01*
X87560498Y-98488593D01*
X87370021Y-98488593D01*
X87274783Y-98536212D01*
X87227164Y-98583831D01*
X87179545Y-98679069D01*
X87179545Y-98869545D01*
X87227164Y-98964783D01*
X87274783Y-99012402D01*
X87370021Y-99060021D01*
X87560498Y-99060021D01*
X87655736Y-99012402D01*
X87703355Y-98964783D01*
X87750974Y-98869545D01*
X87750974Y-98679069D01*
X87703355Y-98583831D01*
X87655736Y-98536212D01*
X87560498Y-98488593D01*
%TO.C,D17*%
X107228355Y-126795021D02*
X107228355Y-125795021D01*
X107466450Y-125795021D01*
X107609307Y-125842641D01*
X107704545Y-125937879D01*
X107752164Y-126033117D01*
X107799783Y-126223593D01*
X107799783Y-126366450D01*
X107752164Y-126556926D01*
X107704545Y-126652164D01*
X107609307Y-126747402D01*
X107466450Y-126795021D01*
X107228355Y-126795021D01*
X108752164Y-126795021D02*
X108180736Y-126795021D01*
X108466450Y-126795021D02*
X108466450Y-125795021D01*
X108371212Y-125937879D01*
X108275974Y-126033117D01*
X108180736Y-126080736D01*
X109085498Y-125795021D02*
X109752164Y-125795021D01*
X109323593Y-126795021D01*
%TO.C,D30*%
X135228355Y-114795021D02*
X135228355Y-113795021D01*
X135466450Y-113795021D01*
X135609307Y-113842641D01*
X135704545Y-113937879D01*
X135752164Y-114033117D01*
X135799783Y-114223593D01*
X135799783Y-114366450D01*
X135752164Y-114556926D01*
X135704545Y-114652164D01*
X135609307Y-114747402D01*
X135466450Y-114795021D01*
X135228355Y-114795021D01*
X136133117Y-113795021D02*
X136752164Y-113795021D01*
X136418831Y-114175974D01*
X136561688Y-114175974D01*
X136656926Y-114223593D01*
X136704545Y-114271212D01*
X136752164Y-114366450D01*
X136752164Y-114604545D01*
X136704545Y-114699783D01*
X136656926Y-114747402D01*
X136561688Y-114795021D01*
X136275974Y-114795021D01*
X136180736Y-114747402D01*
X136133117Y-114699783D01*
X137371212Y-113795021D02*
X137466450Y-113795021D01*
X137561688Y-113842641D01*
X137609307Y-113890260D01*
X137656926Y-113985498D01*
X137704545Y-114175974D01*
X137704545Y-114414069D01*
X137656926Y-114604545D01*
X137609307Y-114699783D01*
X137561688Y-114747402D01*
X137466450Y-114795021D01*
X137371212Y-114795021D01*
X137275974Y-114747402D01*
X137228355Y-114699783D01*
X137180736Y-114604545D01*
X137133117Y-114414069D01*
X137133117Y-114175974D01*
X137180736Y-113985498D01*
X137228355Y-113890260D01*
X137275974Y-113842641D01*
X137371212Y-113795021D01*
%TO.C,SW12*%
X84608117Y-147012402D02*
X84750974Y-147060021D01*
X84989069Y-147060021D01*
X85084307Y-147012402D01*
X85131926Y-146964783D01*
X85179545Y-146869545D01*
X85179545Y-146774307D01*
X85131926Y-146679069D01*
X85084307Y-146631450D01*
X84989069Y-146583831D01*
X84798593Y-146536212D01*
X84703355Y-146488593D01*
X84655736Y-146440974D01*
X84608117Y-146345736D01*
X84608117Y-146250498D01*
X84655736Y-146155260D01*
X84703355Y-146107641D01*
X84798593Y-146060021D01*
X85036688Y-146060021D01*
X85179545Y-146107641D01*
X85512879Y-146060021D02*
X85750974Y-147060021D01*
X85941450Y-146345736D01*
X86131926Y-147060021D01*
X86370021Y-146060021D01*
X87274783Y-147060021D02*
X86703355Y-147060021D01*
X86989069Y-147060021D02*
X86989069Y-146060021D01*
X86893831Y-146202879D01*
X86798593Y-146298117D01*
X86703355Y-146345736D01*
X87655736Y-146155260D02*
X87703355Y-146107641D01*
X87798593Y-146060021D01*
X88036688Y-146060021D01*
X88131926Y-146107641D01*
X88179545Y-146155260D01*
X88227164Y-146250498D01*
X88227164Y-146345736D01*
X88179545Y-146488593D01*
X87608117Y-147060021D01*
X88227164Y-147060021D01*
%TO.C,SW15*%
X98608117Y-99012402D02*
X98750974Y-99060021D01*
X98989069Y-99060021D01*
X99084307Y-99012402D01*
X99131926Y-98964783D01*
X99179545Y-98869545D01*
X99179545Y-98774307D01*
X99131926Y-98679069D01*
X99084307Y-98631450D01*
X98989069Y-98583831D01*
X98798593Y-98536212D01*
X98703355Y-98488593D01*
X98655736Y-98440974D01*
X98608117Y-98345736D01*
X98608117Y-98250498D01*
X98655736Y-98155260D01*
X98703355Y-98107641D01*
X98798593Y-98060021D01*
X99036688Y-98060021D01*
X99179545Y-98107641D01*
X99512879Y-98060021D02*
X99750974Y-99060021D01*
X99941450Y-98345736D01*
X100131926Y-99060021D01*
X100370021Y-98060021D01*
X101274783Y-99060021D02*
X100703355Y-99060021D01*
X100989069Y-99060021D02*
X100989069Y-98060021D01*
X100893831Y-98202879D01*
X100798593Y-98298117D01*
X100703355Y-98345736D01*
X102179545Y-98060021D02*
X101703355Y-98060021D01*
X101655736Y-98536212D01*
X101703355Y-98488593D01*
X101798593Y-98440974D01*
X102036688Y-98440974D01*
X102131926Y-98488593D01*
X102179545Y-98536212D01*
X102227164Y-98631450D01*
X102227164Y-98869545D01*
X102179545Y-98964783D01*
X102131926Y-99012402D01*
X102036688Y-99060021D01*
X101798593Y-99060021D01*
X101703355Y-99012402D01*
X101655736Y-98964783D01*
%TO.C,SW18*%
X98608117Y-135012402D02*
X98750974Y-135060021D01*
X98989069Y-135060021D01*
X99084307Y-135012402D01*
X99131926Y-134964783D01*
X99179545Y-134869545D01*
X99179545Y-134774307D01*
X99131926Y-134679069D01*
X99084307Y-134631450D01*
X98989069Y-134583831D01*
X98798593Y-134536212D01*
X98703355Y-134488593D01*
X98655736Y-134440974D01*
X98608117Y-134345736D01*
X98608117Y-134250498D01*
X98655736Y-134155260D01*
X98703355Y-134107641D01*
X98798593Y-134060021D01*
X99036688Y-134060021D01*
X99179545Y-134107641D01*
X99512879Y-134060021D02*
X99750974Y-135060021D01*
X99941450Y-134345736D01*
X100131926Y-135060021D01*
X100370021Y-134060021D01*
X101274783Y-135060021D02*
X100703355Y-135060021D01*
X100989069Y-135060021D02*
X100989069Y-134060021D01*
X100893831Y-134202879D01*
X100798593Y-134298117D01*
X100703355Y-134345736D01*
X101846212Y-134488593D02*
X101750974Y-134440974D01*
X101703355Y-134393355D01*
X101655736Y-134298117D01*
X101655736Y-134250498D01*
X101703355Y-134155260D01*
X101750974Y-134107641D01*
X101846212Y-134060021D01*
X102036688Y-134060021D01*
X102131926Y-134107641D01*
X102179545Y-134155260D01*
X102227164Y-134250498D01*
X102227164Y-134298117D01*
X102179545Y-134393355D01*
X102131926Y-134440974D01*
X102036688Y-134488593D01*
X101846212Y-134488593D01*
X101750974Y-134536212D01*
X101703355Y-134583831D01*
X101655736Y-134679069D01*
X101655736Y-134869545D01*
X101703355Y-134964783D01*
X101750974Y-135012402D01*
X101846212Y-135060021D01*
X102036688Y-135060021D01*
X102131926Y-135012402D01*
X102179545Y-134964783D01*
X102227164Y-134869545D01*
X102227164Y-134679069D01*
X102179545Y-134583831D01*
X102131926Y-134536212D01*
X102036688Y-134488593D01*
%TO.C,D8*%
X93204545Y-102795021D02*
X93204545Y-101795021D01*
X93442641Y-101795021D01*
X93585498Y-101842641D01*
X93680736Y-101937879D01*
X93728355Y-102033117D01*
X93775974Y-102223593D01*
X93775974Y-102366450D01*
X93728355Y-102556926D01*
X93680736Y-102652164D01*
X93585498Y-102747402D01*
X93442641Y-102795021D01*
X93204545Y-102795021D01*
X94347402Y-102223593D02*
X94252164Y-102175974D01*
X94204545Y-102128355D01*
X94156926Y-102033117D01*
X94156926Y-101985498D01*
X94204545Y-101890260D01*
X94252164Y-101842641D01*
X94347402Y-101795021D01*
X94537879Y-101795021D01*
X94633117Y-101842641D01*
X94680736Y-101890260D01*
X94728355Y-101985498D01*
X94728355Y-102033117D01*
X94680736Y-102128355D01*
X94633117Y-102175974D01*
X94537879Y-102223593D01*
X94347402Y-102223593D01*
X94252164Y-102271212D01*
X94204545Y-102318831D01*
X94156926Y-102414069D01*
X94156926Y-102604545D01*
X94204545Y-102699783D01*
X94252164Y-102747402D01*
X94347402Y-102795021D01*
X94537879Y-102795021D01*
X94633117Y-102747402D01*
X94680736Y-102699783D01*
X94728355Y-102604545D01*
X94728355Y-102414069D01*
X94680736Y-102318831D01*
X94633117Y-102271212D01*
X94537879Y-102223593D01*
%TO.C,D28*%
X121228355Y-174795021D02*
X121228355Y-173795021D01*
X121466450Y-173795021D01*
X121609307Y-173842641D01*
X121704545Y-173937879D01*
X121752164Y-174033117D01*
X121799783Y-174223593D01*
X121799783Y-174366450D01*
X121752164Y-174556926D01*
X121704545Y-174652164D01*
X121609307Y-174747402D01*
X121466450Y-174795021D01*
X121228355Y-174795021D01*
X122180736Y-173890260D02*
X122228355Y-173842641D01*
X122323593Y-173795021D01*
X122561688Y-173795021D01*
X122656926Y-173842641D01*
X122704545Y-173890260D01*
X122752164Y-173985498D01*
X122752164Y-174080736D01*
X122704545Y-174223593D01*
X122133117Y-174795021D01*
X122752164Y-174795021D01*
X123323593Y-174223593D02*
X123228355Y-174175974D01*
X123180736Y-174128355D01*
X123133117Y-174033117D01*
X123133117Y-173985498D01*
X123180736Y-173890260D01*
X123228355Y-173842641D01*
X123323593Y-173795021D01*
X123514069Y-173795021D01*
X123609307Y-173842641D01*
X123656926Y-173890260D01*
X123704545Y-173985498D01*
X123704545Y-174033117D01*
X123656926Y-174128355D01*
X123609307Y-174175974D01*
X123514069Y-174223593D01*
X123323593Y-174223593D01*
X123228355Y-174271212D01*
X123180736Y-174318831D01*
X123133117Y-174414069D01*
X123133117Y-174604545D01*
X123180736Y-174699783D01*
X123228355Y-174747402D01*
X123323593Y-174795021D01*
X123514069Y-174795021D01*
X123609307Y-174747402D01*
X123656926Y-174699783D01*
X123704545Y-174604545D01*
X123704545Y-174414069D01*
X123656926Y-174318831D01*
X123609307Y-174271212D01*
X123514069Y-174223593D01*
%TO.C,D2*%
X79204545Y-114795021D02*
X79204545Y-113795021D01*
X79442641Y-113795021D01*
X79585498Y-113842641D01*
X79680736Y-113937879D01*
X79728355Y-114033117D01*
X79775974Y-114223593D01*
X79775974Y-114366450D01*
X79728355Y-114556926D01*
X79680736Y-114652164D01*
X79585498Y-114747402D01*
X79442641Y-114795021D01*
X79204545Y-114795021D01*
X80156926Y-113890260D02*
X80204545Y-113842641D01*
X80299783Y-113795021D01*
X80537879Y-113795021D01*
X80633117Y-113842641D01*
X80680736Y-113890260D01*
X80728355Y-113985498D01*
X80728355Y-114080736D01*
X80680736Y-114223593D01*
X80109307Y-114795021D01*
X80728355Y-114795021D01*
%TO.C,SW35*%
X126608117Y-171012402D02*
X126750974Y-171060021D01*
X126989069Y-171060021D01*
X127084307Y-171012402D01*
X127131926Y-170964783D01*
X127179545Y-170869545D01*
X127179545Y-170774307D01*
X127131926Y-170679069D01*
X127084307Y-170631450D01*
X126989069Y-170583831D01*
X126798593Y-170536212D01*
X126703355Y-170488593D01*
X126655736Y-170440974D01*
X126608117Y-170345736D01*
X126608117Y-170250498D01*
X126655736Y-170155260D01*
X126703355Y-170107641D01*
X126798593Y-170060021D01*
X127036688Y-170060021D01*
X127179545Y-170107641D01*
X127512879Y-170060021D02*
X127750974Y-171060021D01*
X127941450Y-170345736D01*
X128131926Y-171060021D01*
X128370021Y-170060021D01*
X128655736Y-170060021D02*
X129274783Y-170060021D01*
X128941450Y-170440974D01*
X129084307Y-170440974D01*
X129179545Y-170488593D01*
X129227164Y-170536212D01*
X129274783Y-170631450D01*
X129274783Y-170869545D01*
X129227164Y-170964783D01*
X129179545Y-171012402D01*
X129084307Y-171060021D01*
X128798593Y-171060021D01*
X128703355Y-171012402D01*
X128655736Y-170964783D01*
X130179545Y-170060021D02*
X129703355Y-170060021D01*
X129655736Y-170536212D01*
X129703355Y-170488593D01*
X129798593Y-170440974D01*
X130036688Y-170440974D01*
X130131926Y-170488593D01*
X130179545Y-170536212D01*
X130227164Y-170631450D01*
X130227164Y-170869545D01*
X130179545Y-170964783D01*
X130131926Y-171012402D01*
X130036688Y-171060021D01*
X129798593Y-171060021D01*
X129703355Y-171012402D01*
X129655736Y-170964783D01*
%TO.C,D34*%
X135228355Y-162795021D02*
X135228355Y-161795021D01*
X135466450Y-161795021D01*
X135609307Y-161842641D01*
X135704545Y-161937879D01*
X135752164Y-162033117D01*
X135799783Y-162223593D01*
X135799783Y-162366450D01*
X135752164Y-162556926D01*
X135704545Y-162652164D01*
X135609307Y-162747402D01*
X135466450Y-162795021D01*
X135228355Y-162795021D01*
X136133117Y-161795021D02*
X136752164Y-161795021D01*
X136418831Y-162175974D01*
X136561688Y-162175974D01*
X136656926Y-162223593D01*
X136704545Y-162271212D01*
X136752164Y-162366450D01*
X136752164Y-162604545D01*
X136704545Y-162699783D01*
X136656926Y-162747402D01*
X136561688Y-162795021D01*
X136275974Y-162795021D01*
X136180736Y-162747402D01*
X136133117Y-162699783D01*
X137609307Y-162128355D02*
X137609307Y-162795021D01*
X137371212Y-161747402D02*
X137133117Y-162461688D01*
X137752164Y-162461688D01*
%TO.C,D10*%
X93228355Y-126795021D02*
X93228355Y-125795021D01*
X93466450Y-125795021D01*
X93609307Y-125842641D01*
X93704545Y-125937879D01*
X93752164Y-126033117D01*
X93799783Y-126223593D01*
X93799783Y-126366450D01*
X93752164Y-126556926D01*
X93704545Y-126652164D01*
X93609307Y-126747402D01*
X93466450Y-126795021D01*
X93228355Y-126795021D01*
X94752164Y-126795021D02*
X94180736Y-126795021D01*
X94466450Y-126795021D02*
X94466450Y-125795021D01*
X94371212Y-125937879D01*
X94275974Y-126033117D01*
X94180736Y-126080736D01*
X95371212Y-125795021D02*
X95466450Y-125795021D01*
X95561688Y-125842641D01*
X95609307Y-125890260D01*
X95656926Y-125985498D01*
X95704545Y-126175974D01*
X95704545Y-126414069D01*
X95656926Y-126604545D01*
X95609307Y-126699783D01*
X95561688Y-126747402D01*
X95466450Y-126795021D01*
X95371212Y-126795021D01*
X95275974Y-126747402D01*
X95228355Y-126699783D01*
X95180736Y-126604545D01*
X95133117Y-126414069D01*
X95133117Y-126175974D01*
X95180736Y-125985498D01*
X95228355Y-125890260D01*
X95275974Y-125842641D01*
X95371212Y-125795021D01*
%TO.C,D13*%
X93228355Y-162795021D02*
X93228355Y-161795021D01*
X93466450Y-161795021D01*
X93609307Y-161842641D01*
X93704545Y-161937879D01*
X93752164Y-162033117D01*
X93799783Y-162223593D01*
X93799783Y-162366450D01*
X93752164Y-162556926D01*
X93704545Y-162652164D01*
X93609307Y-162747402D01*
X93466450Y-162795021D01*
X93228355Y-162795021D01*
X94752164Y-162795021D02*
X94180736Y-162795021D01*
X94466450Y-162795021D02*
X94466450Y-161795021D01*
X94371212Y-161937879D01*
X94275974Y-162033117D01*
X94180736Y-162080736D01*
X95085498Y-161795021D02*
X95704545Y-161795021D01*
X95371212Y-162175974D01*
X95514069Y-162175974D01*
X95609307Y-162223593D01*
X95656926Y-162271212D01*
X95704545Y-162366450D01*
X95704545Y-162604545D01*
X95656926Y-162699783D01*
X95609307Y-162747402D01*
X95514069Y-162795021D01*
X95228355Y-162795021D01*
X95133117Y-162747402D01*
X95085498Y-162699783D01*
%TO.C,H2*%
X137480736Y-26495021D02*
X137480736Y-25495021D01*
X137480736Y-25971212D02*
X138052164Y-25971212D01*
X138052164Y-26495021D02*
X138052164Y-25495021D01*
X138480736Y-25590260D02*
X138528355Y-25542641D01*
X138623593Y-25495021D01*
X138861688Y-25495021D01*
X138956926Y-25542641D01*
X139004545Y-25590260D01*
X139052164Y-25685498D01*
X139052164Y-25780736D01*
X139004545Y-25923593D01*
X138433117Y-26495021D01*
X139052164Y-26495021D01*
%TO.C,SW2*%
X71084307Y-111012402D02*
X71227164Y-111060021D01*
X71465260Y-111060021D01*
X71560498Y-111012402D01*
X71608117Y-110964783D01*
X71655736Y-110869545D01*
X71655736Y-110774307D01*
X71608117Y-110679069D01*
X71560498Y-110631450D01*
X71465260Y-110583831D01*
X71274783Y-110536212D01*
X71179545Y-110488593D01*
X71131926Y-110440974D01*
X71084307Y-110345736D01*
X71084307Y-110250498D01*
X71131926Y-110155260D01*
X71179545Y-110107641D01*
X71274783Y-110060021D01*
X71512879Y-110060021D01*
X71655736Y-110107641D01*
X71989069Y-110060021D02*
X72227164Y-111060021D01*
X72417641Y-110345736D01*
X72608117Y-111060021D01*
X72846212Y-110060021D01*
X73179545Y-110155260D02*
X73227164Y-110107641D01*
X73322402Y-110060021D01*
X73560498Y-110060021D01*
X73655736Y-110107641D01*
X73703355Y-110155260D01*
X73750974Y-110250498D01*
X73750974Y-110345736D01*
X73703355Y-110488593D01*
X73131926Y-111060021D01*
X73750974Y-111060021D01*
D10*
%TO.C,SW37*%
X80432690Y-28401165D02*
X80527903Y-28432903D01*
X80686593Y-28432903D01*
X80750069Y-28401165D01*
X80781807Y-28369427D01*
X80813545Y-28305951D01*
X80813545Y-28242475D01*
X80781807Y-28178999D01*
X80750069Y-28147261D01*
X80686593Y-28115524D01*
X80559641Y-28083786D01*
X80496166Y-28052048D01*
X80464428Y-28020310D01*
X80432690Y-27956834D01*
X80432690Y-27893358D01*
X80464428Y-27829882D01*
X80496166Y-27798145D01*
X80559641Y-27766407D01*
X80718331Y-27766407D01*
X80813545Y-27798145D01*
X81035710Y-27766407D02*
X81194399Y-28432903D01*
X81321351Y-27956834D01*
X81448303Y-28432903D01*
X81606992Y-27766407D01*
X81797420Y-27766407D02*
X82210012Y-27766407D01*
X81987847Y-28020310D01*
X82083061Y-28020310D01*
X82146537Y-28052048D01*
X82178274Y-28083786D01*
X82210012Y-28147261D01*
X82210012Y-28305951D01*
X82178274Y-28369427D01*
X82146537Y-28401165D01*
X82083061Y-28432903D01*
X81892633Y-28432903D01*
X81829158Y-28401165D01*
X81797420Y-28369427D01*
X82432178Y-27766407D02*
X82876508Y-27766407D01*
X82590867Y-28432903D01*
D11*
X80324142Y-32384223D02*
X80324142Y-32018463D01*
X80533148Y-32384223D02*
X80376394Y-32175218D01*
X80533148Y-32018463D02*
X80324142Y-32227469D01*
X80689902Y-32384223D02*
X80689902Y-32018463D01*
X80811822Y-32279721D01*
X80933742Y-32018463D01*
X80933742Y-32384223D01*
X81316919Y-32384223D02*
X81194999Y-32210052D01*
X81107914Y-32384223D02*
X81107914Y-32018463D01*
X81247251Y-32018463D01*
X81282085Y-32035881D01*
X81299502Y-32053298D01*
X81316919Y-32088132D01*
X81316919Y-32140383D01*
X81299502Y-32175218D01*
X81282085Y-32192635D01*
X81247251Y-32210052D01*
X81107914Y-32210052D01*
X81456257Y-32053298D02*
X81473674Y-32035881D01*
X81508508Y-32018463D01*
X81595594Y-32018463D01*
X81630428Y-32035881D01*
X81647845Y-32053298D01*
X81665262Y-32088132D01*
X81665262Y-32122966D01*
X81647845Y-32175218D01*
X81438839Y-32384223D01*
X81665262Y-32384223D01*
D12*
%TO.C,D32*%
X135228355Y-138795021D02*
X135228355Y-137795021D01*
X135466450Y-137795021D01*
X135609307Y-137842641D01*
X135704545Y-137937879D01*
X135752164Y-138033117D01*
X135799783Y-138223593D01*
X135799783Y-138366450D01*
X135752164Y-138556926D01*
X135704545Y-138652164D01*
X135609307Y-138747402D01*
X135466450Y-138795021D01*
X135228355Y-138795021D01*
X136133117Y-137795021D02*
X136752164Y-137795021D01*
X136418831Y-138175974D01*
X136561688Y-138175974D01*
X136656926Y-138223593D01*
X136704545Y-138271212D01*
X136752164Y-138366450D01*
X136752164Y-138604545D01*
X136704545Y-138699783D01*
X136656926Y-138747402D01*
X136561688Y-138795021D01*
X136275974Y-138795021D01*
X136180736Y-138747402D01*
X136133117Y-138699783D01*
X137133117Y-137890260D02*
X137180736Y-137842641D01*
X137275974Y-137795021D01*
X137514069Y-137795021D01*
X137609307Y-137842641D01*
X137656926Y-137890260D01*
X137704545Y-137985498D01*
X137704545Y-138080736D01*
X137656926Y-138223593D01*
X137085498Y-138795021D01*
X137704545Y-138795021D01*
%TO.C,SW14*%
X84608117Y-171012402D02*
X84750974Y-171060021D01*
X84989069Y-171060021D01*
X85084307Y-171012402D01*
X85131926Y-170964783D01*
X85179545Y-170869545D01*
X85179545Y-170774307D01*
X85131926Y-170679069D01*
X85084307Y-170631450D01*
X84989069Y-170583831D01*
X84798593Y-170536212D01*
X84703355Y-170488593D01*
X84655736Y-170440974D01*
X84608117Y-170345736D01*
X84608117Y-170250498D01*
X84655736Y-170155260D01*
X84703355Y-170107641D01*
X84798593Y-170060021D01*
X85036688Y-170060021D01*
X85179545Y-170107641D01*
X85512879Y-170060021D02*
X85750974Y-171060021D01*
X85941450Y-170345736D01*
X86131926Y-171060021D01*
X86370021Y-170060021D01*
X87274783Y-171060021D02*
X86703355Y-171060021D01*
X86989069Y-171060021D02*
X86989069Y-170060021D01*
X86893831Y-170202879D01*
X86798593Y-170298117D01*
X86703355Y-170345736D01*
X88131926Y-170393355D02*
X88131926Y-171060021D01*
X87893831Y-170012402D02*
X87655736Y-170726688D01*
X88274783Y-170726688D01*
%TO.C,D33*%
X135228355Y-150795021D02*
X135228355Y-149795021D01*
X135466450Y-149795021D01*
X135609307Y-149842641D01*
X135704545Y-149937879D01*
X135752164Y-150033117D01*
X135799783Y-150223593D01*
X135799783Y-150366450D01*
X135752164Y-150556926D01*
X135704545Y-150652164D01*
X135609307Y-150747402D01*
X135466450Y-150795021D01*
X135228355Y-150795021D01*
X136133117Y-149795021D02*
X136752164Y-149795021D01*
X136418831Y-150175974D01*
X136561688Y-150175974D01*
X136656926Y-150223593D01*
X136704545Y-150271212D01*
X136752164Y-150366450D01*
X136752164Y-150604545D01*
X136704545Y-150699783D01*
X136656926Y-150747402D01*
X136561688Y-150795021D01*
X136275974Y-150795021D01*
X136180736Y-150747402D01*
X136133117Y-150699783D01*
X137085498Y-149795021D02*
X137704545Y-149795021D01*
X137371212Y-150175974D01*
X137514069Y-150175974D01*
X137609307Y-150223593D01*
X137656926Y-150271212D01*
X137704545Y-150366450D01*
X137704545Y-150604545D01*
X137656926Y-150699783D01*
X137609307Y-150747402D01*
X137514069Y-150795021D01*
X137228355Y-150795021D01*
X137133117Y-150747402D01*
X137085498Y-150699783D01*
%TO.C,D23*%
X121228355Y-114795021D02*
X121228355Y-113795021D01*
X121466450Y-113795021D01*
X121609307Y-113842641D01*
X121704545Y-113937879D01*
X121752164Y-114033117D01*
X121799783Y-114223593D01*
X121799783Y-114366450D01*
X121752164Y-114556926D01*
X121704545Y-114652164D01*
X121609307Y-114747402D01*
X121466450Y-114795021D01*
X121228355Y-114795021D01*
X122180736Y-113890260D02*
X122228355Y-113842641D01*
X122323593Y-113795021D01*
X122561688Y-113795021D01*
X122656926Y-113842641D01*
X122704545Y-113890260D01*
X122752164Y-113985498D01*
X122752164Y-114080736D01*
X122704545Y-114223593D01*
X122133117Y-114795021D01*
X122752164Y-114795021D01*
X123085498Y-113795021D02*
X123704545Y-113795021D01*
X123371212Y-114175974D01*
X123514069Y-114175974D01*
X123609307Y-114223593D01*
X123656926Y-114271212D01*
X123704545Y-114366450D01*
X123704545Y-114604545D01*
X123656926Y-114699783D01*
X123609307Y-114747402D01*
X123514069Y-114795021D01*
X123228355Y-114795021D01*
X123133117Y-114747402D01*
X123085498Y-114699783D01*
%TO.C,SW28*%
X112608117Y-171012402D02*
X112750974Y-171060021D01*
X112989069Y-171060021D01*
X113084307Y-171012402D01*
X113131926Y-170964783D01*
X113179545Y-170869545D01*
X113179545Y-170774307D01*
X113131926Y-170679069D01*
X113084307Y-170631450D01*
X112989069Y-170583831D01*
X112798593Y-170536212D01*
X112703355Y-170488593D01*
X112655736Y-170440974D01*
X112608117Y-170345736D01*
X112608117Y-170250498D01*
X112655736Y-170155260D01*
X112703355Y-170107641D01*
X112798593Y-170060021D01*
X113036688Y-170060021D01*
X113179545Y-170107641D01*
X113512879Y-170060021D02*
X113750974Y-171060021D01*
X113941450Y-170345736D01*
X114131926Y-171060021D01*
X114370021Y-170060021D01*
X114703355Y-170155260D02*
X114750974Y-170107641D01*
X114846212Y-170060021D01*
X115084307Y-170060021D01*
X115179545Y-170107641D01*
X115227164Y-170155260D01*
X115274783Y-170250498D01*
X115274783Y-170345736D01*
X115227164Y-170488593D01*
X114655736Y-171060021D01*
X115274783Y-171060021D01*
X115846212Y-170488593D02*
X115750974Y-170440974D01*
X115703355Y-170393355D01*
X115655736Y-170298117D01*
X115655736Y-170250498D01*
X115703355Y-170155260D01*
X115750974Y-170107641D01*
X115846212Y-170060021D01*
X116036688Y-170060021D01*
X116131926Y-170107641D01*
X116179545Y-170155260D01*
X116227164Y-170250498D01*
X116227164Y-170298117D01*
X116179545Y-170393355D01*
X116131926Y-170440974D01*
X116036688Y-170488593D01*
X115846212Y-170488593D01*
X115750974Y-170536212D01*
X115703355Y-170583831D01*
X115655736Y-170679069D01*
X115655736Y-170869545D01*
X115703355Y-170964783D01*
X115750974Y-171012402D01*
X115846212Y-171060021D01*
X116036688Y-171060021D01*
X116131926Y-171012402D01*
X116179545Y-170964783D01*
X116227164Y-170869545D01*
X116227164Y-170679069D01*
X116179545Y-170583831D01*
X116131926Y-170536212D01*
X116036688Y-170488593D01*
%TO.C,D22*%
X121228355Y-102795021D02*
X121228355Y-101795021D01*
X121466450Y-101795021D01*
X121609307Y-101842641D01*
X121704545Y-101937879D01*
X121752164Y-102033117D01*
X121799783Y-102223593D01*
X121799783Y-102366450D01*
X121752164Y-102556926D01*
X121704545Y-102652164D01*
X121609307Y-102747402D01*
X121466450Y-102795021D01*
X121228355Y-102795021D01*
X122180736Y-101890260D02*
X122228355Y-101842641D01*
X122323593Y-101795021D01*
X122561688Y-101795021D01*
X122656926Y-101842641D01*
X122704545Y-101890260D01*
X122752164Y-101985498D01*
X122752164Y-102080736D01*
X122704545Y-102223593D01*
X122133117Y-102795021D01*
X122752164Y-102795021D01*
X123133117Y-101890260D02*
X123180736Y-101842641D01*
X123275974Y-101795021D01*
X123514069Y-101795021D01*
X123609307Y-101842641D01*
X123656926Y-101890260D01*
X123704545Y-101985498D01*
X123704545Y-102080736D01*
X123656926Y-102223593D01*
X123085498Y-102795021D01*
X123704545Y-102795021D01*
%TO.C,R1*%
X107775974Y-110795021D02*
X107442641Y-110318831D01*
X107204545Y-110795021D02*
X107204545Y-109795021D01*
X107585498Y-109795021D01*
X107680736Y-109842641D01*
X107728355Y-109890260D01*
X107775974Y-109985498D01*
X107775974Y-110128355D01*
X107728355Y-110223593D01*
X107680736Y-110271212D01*
X107585498Y-110318831D01*
X107204545Y-110318831D01*
X108728355Y-110795021D02*
X108156926Y-110795021D01*
X108442641Y-110795021D02*
X108442641Y-109795021D01*
X108347402Y-109937879D01*
X108252164Y-110033117D01*
X108156926Y-110080736D01*
%TO.C,D9*%
X93204545Y-114795021D02*
X93204545Y-113795021D01*
X93442641Y-113795021D01*
X93585498Y-113842641D01*
X93680736Y-113937879D01*
X93728355Y-114033117D01*
X93775974Y-114223593D01*
X93775974Y-114366450D01*
X93728355Y-114556926D01*
X93680736Y-114652164D01*
X93585498Y-114747402D01*
X93442641Y-114795021D01*
X93204545Y-114795021D01*
X94252164Y-114795021D02*
X94442641Y-114795021D01*
X94537879Y-114747402D01*
X94585498Y-114699783D01*
X94680736Y-114556926D01*
X94728355Y-114366450D01*
X94728355Y-113985498D01*
X94680736Y-113890260D01*
X94633117Y-113842641D01*
X94537879Y-113795021D01*
X94347402Y-113795021D01*
X94252164Y-113842641D01*
X94204545Y-113890260D01*
X94156926Y-113985498D01*
X94156926Y-114223593D01*
X94204545Y-114318831D01*
X94252164Y-114366450D01*
X94347402Y-114414069D01*
X94537879Y-114414069D01*
X94633117Y-114366450D01*
X94680736Y-114318831D01*
X94728355Y-114223593D01*
%TO.C,SW21*%
X98608117Y-171012402D02*
X98750974Y-171060021D01*
X98989069Y-171060021D01*
X99084307Y-171012402D01*
X99131926Y-170964783D01*
X99179545Y-170869545D01*
X99179545Y-170774307D01*
X99131926Y-170679069D01*
X99084307Y-170631450D01*
X98989069Y-170583831D01*
X98798593Y-170536212D01*
X98703355Y-170488593D01*
X98655736Y-170440974D01*
X98608117Y-170345736D01*
X98608117Y-170250498D01*
X98655736Y-170155260D01*
X98703355Y-170107641D01*
X98798593Y-170060021D01*
X99036688Y-170060021D01*
X99179545Y-170107641D01*
X99512879Y-170060021D02*
X99750974Y-171060021D01*
X99941450Y-170345736D01*
X100131926Y-171060021D01*
X100370021Y-170060021D01*
X100703355Y-170155260D02*
X100750974Y-170107641D01*
X100846212Y-170060021D01*
X101084307Y-170060021D01*
X101179545Y-170107641D01*
X101227164Y-170155260D01*
X101274783Y-170250498D01*
X101274783Y-170345736D01*
X101227164Y-170488593D01*
X100655736Y-171060021D01*
X101274783Y-171060021D01*
X102227164Y-171060021D02*
X101655736Y-171060021D01*
X101941450Y-171060021D02*
X101941450Y-170060021D01*
X101846212Y-170202879D01*
X101750974Y-170298117D01*
X101655736Y-170345736D01*
%TO.C,SW36*%
X124393117Y-26247402D02*
X124535974Y-26295021D01*
X124774069Y-26295021D01*
X124869307Y-26247402D01*
X124916926Y-26199783D01*
X124964545Y-26104545D01*
X124964545Y-26009307D01*
X124916926Y-25914069D01*
X124869307Y-25866450D01*
X124774069Y-25818831D01*
X124583593Y-25771212D01*
X124488355Y-25723593D01*
X124440736Y-25675974D01*
X124393117Y-25580736D01*
X124393117Y-25485498D01*
X124440736Y-25390260D01*
X124488355Y-25342641D01*
X124583593Y-25295021D01*
X124821688Y-25295021D01*
X124964545Y-25342641D01*
X125297879Y-25295021D02*
X125535974Y-26295021D01*
X125726450Y-25580736D01*
X125916926Y-26295021D01*
X126155021Y-25295021D01*
X126440736Y-25295021D02*
X127059783Y-25295021D01*
X126726450Y-25675974D01*
X126869307Y-25675974D01*
X126964545Y-25723593D01*
X127012164Y-25771212D01*
X127059783Y-25866450D01*
X127059783Y-26104545D01*
X127012164Y-26199783D01*
X126964545Y-26247402D01*
X126869307Y-26295021D01*
X126583593Y-26295021D01*
X126488355Y-26247402D01*
X126440736Y-26199783D01*
X127916926Y-25295021D02*
X127726450Y-25295021D01*
X127631212Y-25342641D01*
X127583593Y-25390260D01*
X127488355Y-25533117D01*
X127440736Y-25723593D01*
X127440736Y-26104545D01*
X127488355Y-26199783D01*
X127535974Y-26247402D01*
X127631212Y-26295021D01*
X127821688Y-26295021D01*
X127916926Y-26247402D01*
X127964545Y-26199783D01*
X128012164Y-26104545D01*
X128012164Y-25866450D01*
X127964545Y-25771212D01*
X127916926Y-25723593D01*
X127821688Y-25675974D01*
X127631212Y-25675974D01*
X127535974Y-25723593D01*
X127488355Y-25771212D01*
X127440736Y-25866450D01*
%TO.C,SW16*%
X98608117Y-111012402D02*
X98750974Y-111060021D01*
X98989069Y-111060021D01*
X99084307Y-111012402D01*
X99131926Y-110964783D01*
X99179545Y-110869545D01*
X99179545Y-110774307D01*
X99131926Y-110679069D01*
X99084307Y-110631450D01*
X98989069Y-110583831D01*
X98798593Y-110536212D01*
X98703355Y-110488593D01*
X98655736Y-110440974D01*
X98608117Y-110345736D01*
X98608117Y-110250498D01*
X98655736Y-110155260D01*
X98703355Y-110107641D01*
X98798593Y-110060021D01*
X99036688Y-110060021D01*
X99179545Y-110107641D01*
X99512879Y-110060021D02*
X99750974Y-111060021D01*
X99941450Y-110345736D01*
X100131926Y-111060021D01*
X100370021Y-110060021D01*
X101274783Y-111060021D02*
X100703355Y-111060021D01*
X100989069Y-111060021D02*
X100989069Y-110060021D01*
X100893831Y-110202879D01*
X100798593Y-110298117D01*
X100703355Y-110345736D01*
X102131926Y-110060021D02*
X101941450Y-110060021D01*
X101846212Y-110107641D01*
X101798593Y-110155260D01*
X101703355Y-110298117D01*
X101655736Y-110488593D01*
X101655736Y-110869545D01*
X101703355Y-110964783D01*
X101750974Y-111012402D01*
X101846212Y-111060021D01*
X102036688Y-111060021D01*
X102131926Y-111012402D01*
X102179545Y-110964783D01*
X102227164Y-110869545D01*
X102227164Y-110631450D01*
X102179545Y-110536212D01*
X102131926Y-110488593D01*
X102036688Y-110440974D01*
X101846212Y-110440974D01*
X101750974Y-110488593D01*
X101703355Y-110536212D01*
X101655736Y-110631450D01*
%TO.C,SW33*%
X126608117Y-147012402D02*
X126750974Y-147060021D01*
X126989069Y-147060021D01*
X127084307Y-147012402D01*
X127131926Y-146964783D01*
X127179545Y-146869545D01*
X127179545Y-146774307D01*
X127131926Y-146679069D01*
X127084307Y-146631450D01*
X126989069Y-146583831D01*
X126798593Y-146536212D01*
X126703355Y-146488593D01*
X126655736Y-146440974D01*
X126608117Y-146345736D01*
X126608117Y-146250498D01*
X126655736Y-146155260D01*
X126703355Y-146107641D01*
X126798593Y-146060021D01*
X127036688Y-146060021D01*
X127179545Y-146107641D01*
X127512879Y-146060021D02*
X127750974Y-147060021D01*
X127941450Y-146345736D01*
X128131926Y-147060021D01*
X128370021Y-146060021D01*
X128655736Y-146060021D02*
X129274783Y-146060021D01*
X128941450Y-146440974D01*
X129084307Y-146440974D01*
X129179545Y-146488593D01*
X129227164Y-146536212D01*
X129274783Y-146631450D01*
X129274783Y-146869545D01*
X129227164Y-146964783D01*
X129179545Y-147012402D01*
X129084307Y-147060021D01*
X128798593Y-147060021D01*
X128703355Y-147012402D01*
X128655736Y-146964783D01*
X129608117Y-146060021D02*
X130227164Y-146060021D01*
X129893831Y-146440974D01*
X130036688Y-146440974D01*
X130131926Y-146488593D01*
X130179545Y-146536212D01*
X130227164Y-146631450D01*
X130227164Y-146869545D01*
X130179545Y-146964783D01*
X130131926Y-147012402D01*
X130036688Y-147060021D01*
X129750974Y-147060021D01*
X129655736Y-147012402D01*
X129608117Y-146964783D01*
%TO.C,D12*%
X93228355Y-150795021D02*
X93228355Y-149795021D01*
X93466450Y-149795021D01*
X93609307Y-149842641D01*
X93704545Y-149937879D01*
X93752164Y-150033117D01*
X93799783Y-150223593D01*
X93799783Y-150366450D01*
X93752164Y-150556926D01*
X93704545Y-150652164D01*
X93609307Y-150747402D01*
X93466450Y-150795021D01*
X93228355Y-150795021D01*
X94752164Y-150795021D02*
X94180736Y-150795021D01*
X94466450Y-150795021D02*
X94466450Y-149795021D01*
X94371212Y-149937879D01*
X94275974Y-150033117D01*
X94180736Y-150080736D01*
X95133117Y-149890260D02*
X95180736Y-149842641D01*
X95275974Y-149795021D01*
X95514069Y-149795021D01*
X95609307Y-149842641D01*
X95656926Y-149890260D01*
X95704545Y-149985498D01*
X95704545Y-150080736D01*
X95656926Y-150223593D01*
X95085498Y-150795021D01*
X95704545Y-150795021D01*
%TO.C,D24*%
X121228355Y-126795021D02*
X121228355Y-125795021D01*
X121466450Y-125795021D01*
X121609307Y-125842641D01*
X121704545Y-125937879D01*
X121752164Y-126033117D01*
X121799783Y-126223593D01*
X121799783Y-126366450D01*
X121752164Y-126556926D01*
X121704545Y-126652164D01*
X121609307Y-126747402D01*
X121466450Y-126795021D01*
X121228355Y-126795021D01*
X122180736Y-125890260D02*
X122228355Y-125842641D01*
X122323593Y-125795021D01*
X122561688Y-125795021D01*
X122656926Y-125842641D01*
X122704545Y-125890260D01*
X122752164Y-125985498D01*
X122752164Y-126080736D01*
X122704545Y-126223593D01*
X122133117Y-126795021D01*
X122752164Y-126795021D01*
X123609307Y-126128355D02*
X123609307Y-126795021D01*
X123371212Y-125747402D02*
X123133117Y-126461688D01*
X123752164Y-126461688D01*
%TO.C,SW31*%
X126608117Y-123012402D02*
X126750974Y-123060021D01*
X126989069Y-123060021D01*
X127084307Y-123012402D01*
X127131926Y-122964783D01*
X127179545Y-122869545D01*
X127179545Y-122774307D01*
X127131926Y-122679069D01*
X127084307Y-122631450D01*
X126989069Y-122583831D01*
X126798593Y-122536212D01*
X126703355Y-122488593D01*
X126655736Y-122440974D01*
X126608117Y-122345736D01*
X126608117Y-122250498D01*
X126655736Y-122155260D01*
X126703355Y-122107641D01*
X126798593Y-122060021D01*
X127036688Y-122060021D01*
X127179545Y-122107641D01*
X127512879Y-122060021D02*
X127750974Y-123060021D01*
X127941450Y-122345736D01*
X128131926Y-123060021D01*
X128370021Y-122060021D01*
X128655736Y-122060021D02*
X129274783Y-122060021D01*
X128941450Y-122440974D01*
X129084307Y-122440974D01*
X129179545Y-122488593D01*
X129227164Y-122536212D01*
X129274783Y-122631450D01*
X129274783Y-122869545D01*
X129227164Y-122964783D01*
X129179545Y-123012402D01*
X129084307Y-123060021D01*
X128798593Y-123060021D01*
X128703355Y-123012402D01*
X128655736Y-122964783D01*
X130227164Y-123060021D02*
X129655736Y-123060021D01*
X129941450Y-123060021D02*
X129941450Y-122060021D01*
X129846212Y-122202879D01*
X129750974Y-122298117D01*
X129655736Y-122345736D01*
%TO.C,SW32*%
X126608117Y-135012402D02*
X126750974Y-135060021D01*
X126989069Y-135060021D01*
X127084307Y-135012402D01*
X127131926Y-134964783D01*
X127179545Y-134869545D01*
X127179545Y-134774307D01*
X127131926Y-134679069D01*
X127084307Y-134631450D01*
X126989069Y-134583831D01*
X126798593Y-134536212D01*
X126703355Y-134488593D01*
X126655736Y-134440974D01*
X126608117Y-134345736D01*
X126608117Y-134250498D01*
X126655736Y-134155260D01*
X126703355Y-134107641D01*
X126798593Y-134060021D01*
X127036688Y-134060021D01*
X127179545Y-134107641D01*
X127512879Y-134060021D02*
X127750974Y-135060021D01*
X127941450Y-134345736D01*
X128131926Y-135060021D01*
X128370021Y-134060021D01*
X128655736Y-134060021D02*
X129274783Y-134060021D01*
X128941450Y-134440974D01*
X129084307Y-134440974D01*
X129179545Y-134488593D01*
X129227164Y-134536212D01*
X129274783Y-134631450D01*
X129274783Y-134869545D01*
X129227164Y-134964783D01*
X129179545Y-135012402D01*
X129084307Y-135060021D01*
X128798593Y-135060021D01*
X128703355Y-135012402D01*
X128655736Y-134964783D01*
X129655736Y-134155260D02*
X129703355Y-134107641D01*
X129798593Y-134060021D01*
X130036688Y-134060021D01*
X130131926Y-134107641D01*
X130179545Y-134155260D01*
X130227164Y-134250498D01*
X130227164Y-134345736D01*
X130179545Y-134488593D01*
X129608117Y-135060021D01*
X130227164Y-135060021D01*
%TO.C,SW23*%
X112608117Y-111012402D02*
X112750974Y-111060021D01*
X112989069Y-111060021D01*
X113084307Y-111012402D01*
X113131926Y-110964783D01*
X113179545Y-110869545D01*
X113179545Y-110774307D01*
X113131926Y-110679069D01*
X113084307Y-110631450D01*
X112989069Y-110583831D01*
X112798593Y-110536212D01*
X112703355Y-110488593D01*
X112655736Y-110440974D01*
X112608117Y-110345736D01*
X112608117Y-110250498D01*
X112655736Y-110155260D01*
X112703355Y-110107641D01*
X112798593Y-110060021D01*
X113036688Y-110060021D01*
X113179545Y-110107641D01*
X113512879Y-110060021D02*
X113750974Y-111060021D01*
X113941450Y-110345736D01*
X114131926Y-111060021D01*
X114370021Y-110060021D01*
X114703355Y-110155260D02*
X114750974Y-110107641D01*
X114846212Y-110060021D01*
X115084307Y-110060021D01*
X115179545Y-110107641D01*
X115227164Y-110155260D01*
X115274783Y-110250498D01*
X115274783Y-110345736D01*
X115227164Y-110488593D01*
X114655736Y-111060021D01*
X115274783Y-111060021D01*
X115608117Y-110060021D02*
X116227164Y-110060021D01*
X115893831Y-110440974D01*
X116036688Y-110440974D01*
X116131926Y-110488593D01*
X116179545Y-110536212D01*
X116227164Y-110631450D01*
X116227164Y-110869545D01*
X116179545Y-110964783D01*
X116131926Y-111012402D01*
X116036688Y-111060021D01*
X115750974Y-111060021D01*
X115655736Y-111012402D01*
X115608117Y-110964783D01*
%TO.C,SW5*%
X71084307Y-147012402D02*
X71227164Y-147060021D01*
X71465260Y-147060021D01*
X71560498Y-147012402D01*
X71608117Y-146964783D01*
X71655736Y-146869545D01*
X71655736Y-146774307D01*
X71608117Y-146679069D01*
X71560498Y-146631450D01*
X71465260Y-146583831D01*
X71274783Y-146536212D01*
X71179545Y-146488593D01*
X71131926Y-146440974D01*
X71084307Y-146345736D01*
X71084307Y-146250498D01*
X71131926Y-146155260D01*
X71179545Y-146107641D01*
X71274783Y-146060021D01*
X71512879Y-146060021D01*
X71655736Y-146107641D01*
X71989069Y-146060021D02*
X72227164Y-147060021D01*
X72417641Y-146345736D01*
X72608117Y-147060021D01*
X72846212Y-146060021D01*
X73703355Y-146060021D02*
X73227164Y-146060021D01*
X73179545Y-146536212D01*
X73227164Y-146488593D01*
X73322402Y-146440974D01*
X73560498Y-146440974D01*
X73655736Y-146488593D01*
X73703355Y-146536212D01*
X73750974Y-146631450D01*
X73750974Y-146869545D01*
X73703355Y-146964783D01*
X73655736Y-147012402D01*
X73560498Y-147060021D01*
X73322402Y-147060021D01*
X73227164Y-147012402D01*
X73179545Y-146964783D01*
%TO.C,D4*%
X79204545Y-138795021D02*
X79204545Y-137795021D01*
X79442641Y-137795021D01*
X79585498Y-137842641D01*
X79680736Y-137937879D01*
X79728355Y-138033117D01*
X79775974Y-138223593D01*
X79775974Y-138366450D01*
X79728355Y-138556926D01*
X79680736Y-138652164D01*
X79585498Y-138747402D01*
X79442641Y-138795021D01*
X79204545Y-138795021D01*
X80633117Y-138128355D02*
X80633117Y-138795021D01*
X80395021Y-137747402D02*
X80156926Y-138461688D01*
X80775974Y-138461688D01*
%TO.C,SW26*%
X112608117Y-147012402D02*
X112750974Y-147060021D01*
X112989069Y-147060021D01*
X113084307Y-147012402D01*
X113131926Y-146964783D01*
X113179545Y-146869545D01*
X113179545Y-146774307D01*
X113131926Y-146679069D01*
X113084307Y-146631450D01*
X112989069Y-146583831D01*
X112798593Y-146536212D01*
X112703355Y-146488593D01*
X112655736Y-146440974D01*
X112608117Y-146345736D01*
X112608117Y-146250498D01*
X112655736Y-146155260D01*
X112703355Y-146107641D01*
X112798593Y-146060021D01*
X113036688Y-146060021D01*
X113179545Y-146107641D01*
X113512879Y-146060021D02*
X113750974Y-147060021D01*
X113941450Y-146345736D01*
X114131926Y-147060021D01*
X114370021Y-146060021D01*
X114703355Y-146155260D02*
X114750974Y-146107641D01*
X114846212Y-146060021D01*
X115084307Y-146060021D01*
X115179545Y-146107641D01*
X115227164Y-146155260D01*
X115274783Y-146250498D01*
X115274783Y-146345736D01*
X115227164Y-146488593D01*
X114655736Y-147060021D01*
X115274783Y-147060021D01*
X116131926Y-146060021D02*
X115941450Y-146060021D01*
X115846212Y-146107641D01*
X115798593Y-146155260D01*
X115703355Y-146298117D01*
X115655736Y-146488593D01*
X115655736Y-146869545D01*
X115703355Y-146964783D01*
X115750974Y-147012402D01*
X115846212Y-147060021D01*
X116036688Y-147060021D01*
X116131926Y-147012402D01*
X116179545Y-146964783D01*
X116227164Y-146869545D01*
X116227164Y-146631450D01*
X116179545Y-146536212D01*
X116131926Y-146488593D01*
X116036688Y-146440974D01*
X115846212Y-146440974D01*
X115750974Y-146488593D01*
X115703355Y-146536212D01*
X115655736Y-146631450D01*
%TO.C,D16*%
X107228355Y-114795021D02*
X107228355Y-113795021D01*
X107466450Y-113795021D01*
X107609307Y-113842641D01*
X107704545Y-113937879D01*
X107752164Y-114033117D01*
X107799783Y-114223593D01*
X107799783Y-114366450D01*
X107752164Y-114556926D01*
X107704545Y-114652164D01*
X107609307Y-114747402D01*
X107466450Y-114795021D01*
X107228355Y-114795021D01*
X108752164Y-114795021D02*
X108180736Y-114795021D01*
X108466450Y-114795021D02*
X108466450Y-113795021D01*
X108371212Y-113937879D01*
X108275974Y-114033117D01*
X108180736Y-114080736D01*
X109609307Y-113795021D02*
X109418831Y-113795021D01*
X109323593Y-113842641D01*
X109275974Y-113890260D01*
X109180736Y-114033117D01*
X109133117Y-114223593D01*
X109133117Y-114604545D01*
X109180736Y-114699783D01*
X109228355Y-114747402D01*
X109323593Y-114795021D01*
X109514069Y-114795021D01*
X109609307Y-114747402D01*
X109656926Y-114699783D01*
X109704545Y-114604545D01*
X109704545Y-114366450D01*
X109656926Y-114271212D01*
X109609307Y-114223593D01*
X109514069Y-114175974D01*
X109323593Y-114175974D01*
X109228355Y-114223593D01*
X109180736Y-114271212D01*
X109133117Y-114366450D01*
%TO.C,D21*%
X107228355Y-174795021D02*
X107228355Y-173795021D01*
X107466450Y-173795021D01*
X107609307Y-173842641D01*
X107704545Y-173937879D01*
X107752164Y-174033117D01*
X107799783Y-174223593D01*
X107799783Y-174366450D01*
X107752164Y-174556926D01*
X107704545Y-174652164D01*
X107609307Y-174747402D01*
X107466450Y-174795021D01*
X107228355Y-174795021D01*
X108180736Y-173890260D02*
X108228355Y-173842641D01*
X108323593Y-173795021D01*
X108561688Y-173795021D01*
X108656926Y-173842641D01*
X108704545Y-173890260D01*
X108752164Y-173985498D01*
X108752164Y-174080736D01*
X108704545Y-174223593D01*
X108133117Y-174795021D01*
X108752164Y-174795021D01*
X109704545Y-174795021D02*
X109133117Y-174795021D01*
X109418831Y-174795021D02*
X109418831Y-173795021D01*
X109323593Y-173937879D01*
X109228355Y-174033117D01*
X109133117Y-174080736D01*
%TO.C,SW6*%
X71084307Y-159012402D02*
X71227164Y-159060021D01*
X71465260Y-159060021D01*
X71560498Y-159012402D01*
X71608117Y-158964783D01*
X71655736Y-158869545D01*
X71655736Y-158774307D01*
X71608117Y-158679069D01*
X71560498Y-158631450D01*
X71465260Y-158583831D01*
X71274783Y-158536212D01*
X71179545Y-158488593D01*
X71131926Y-158440974D01*
X71084307Y-158345736D01*
X71084307Y-158250498D01*
X71131926Y-158155260D01*
X71179545Y-158107641D01*
X71274783Y-158060021D01*
X71512879Y-158060021D01*
X71655736Y-158107641D01*
X71989069Y-158060021D02*
X72227164Y-159060021D01*
X72417641Y-158345736D01*
X72608117Y-159060021D01*
X72846212Y-158060021D01*
X73655736Y-158060021D02*
X73465260Y-158060021D01*
X73370021Y-158107641D01*
X73322402Y-158155260D01*
X73227164Y-158298117D01*
X73179545Y-158488593D01*
X73179545Y-158869545D01*
X73227164Y-158964783D01*
X73274783Y-159012402D01*
X73370021Y-159060021D01*
X73560498Y-159060021D01*
X73655736Y-159012402D01*
X73703355Y-158964783D01*
X73750974Y-158869545D01*
X73750974Y-158631450D01*
X73703355Y-158536212D01*
X73655736Y-158488593D01*
X73560498Y-158440974D01*
X73370021Y-158440974D01*
X73274783Y-158488593D01*
X73227164Y-158536212D01*
X73179545Y-158631450D01*
%TO.C,D25*%
X121228355Y-138795021D02*
X121228355Y-137795021D01*
X121466450Y-137795021D01*
X121609307Y-137842641D01*
X121704545Y-137937879D01*
X121752164Y-138033117D01*
X121799783Y-138223593D01*
X121799783Y-138366450D01*
X121752164Y-138556926D01*
X121704545Y-138652164D01*
X121609307Y-138747402D01*
X121466450Y-138795021D01*
X121228355Y-138795021D01*
X122180736Y-137890260D02*
X122228355Y-137842641D01*
X122323593Y-137795021D01*
X122561688Y-137795021D01*
X122656926Y-137842641D01*
X122704545Y-137890260D01*
X122752164Y-137985498D01*
X122752164Y-138080736D01*
X122704545Y-138223593D01*
X122133117Y-138795021D01*
X122752164Y-138795021D01*
X123656926Y-137795021D02*
X123180736Y-137795021D01*
X123133117Y-138271212D01*
X123180736Y-138223593D01*
X123275974Y-138175974D01*
X123514069Y-138175974D01*
X123609307Y-138223593D01*
X123656926Y-138271212D01*
X123704545Y-138366450D01*
X123704545Y-138604545D01*
X123656926Y-138699783D01*
X123609307Y-138747402D01*
X123514069Y-138795021D01*
X123275974Y-138795021D01*
X123180736Y-138747402D01*
X123133117Y-138699783D01*
%TO.C,D20*%
X107228355Y-162795021D02*
X107228355Y-161795021D01*
X107466450Y-161795021D01*
X107609307Y-161842641D01*
X107704545Y-161937879D01*
X107752164Y-162033117D01*
X107799783Y-162223593D01*
X107799783Y-162366450D01*
X107752164Y-162556926D01*
X107704545Y-162652164D01*
X107609307Y-162747402D01*
X107466450Y-162795021D01*
X107228355Y-162795021D01*
X108180736Y-161890260D02*
X108228355Y-161842641D01*
X108323593Y-161795021D01*
X108561688Y-161795021D01*
X108656926Y-161842641D01*
X108704545Y-161890260D01*
X108752164Y-161985498D01*
X108752164Y-162080736D01*
X108704545Y-162223593D01*
X108133117Y-162795021D01*
X108752164Y-162795021D01*
X109371212Y-161795021D02*
X109466450Y-161795021D01*
X109561688Y-161842641D01*
X109609307Y-161890260D01*
X109656926Y-161985498D01*
X109704545Y-162175974D01*
X109704545Y-162414069D01*
X109656926Y-162604545D01*
X109609307Y-162699783D01*
X109561688Y-162747402D01*
X109466450Y-162795021D01*
X109371212Y-162795021D01*
X109275974Y-162747402D01*
X109228355Y-162699783D01*
X109180736Y-162604545D01*
X109133117Y-162414069D01*
X109133117Y-162175974D01*
X109180736Y-161985498D01*
X109228355Y-161890260D01*
X109275974Y-161842641D01*
X109371212Y-161795021D01*
%TO.C,SW11*%
X84608117Y-135012402D02*
X84750974Y-135060021D01*
X84989069Y-135060021D01*
X85084307Y-135012402D01*
X85131926Y-134964783D01*
X85179545Y-134869545D01*
X85179545Y-134774307D01*
X85131926Y-134679069D01*
X85084307Y-134631450D01*
X84989069Y-134583831D01*
X84798593Y-134536212D01*
X84703355Y-134488593D01*
X84655736Y-134440974D01*
X84608117Y-134345736D01*
X84608117Y-134250498D01*
X84655736Y-134155260D01*
X84703355Y-134107641D01*
X84798593Y-134060021D01*
X85036688Y-134060021D01*
X85179545Y-134107641D01*
X85512879Y-134060021D02*
X85750974Y-135060021D01*
X85941450Y-134345736D01*
X86131926Y-135060021D01*
X86370021Y-134060021D01*
X87274783Y-135060021D02*
X86703355Y-135060021D01*
X86989069Y-135060021D02*
X86989069Y-134060021D01*
X86893831Y-134202879D01*
X86798593Y-134298117D01*
X86703355Y-134345736D01*
X88227164Y-135060021D02*
X87655736Y-135060021D01*
X87941450Y-135060021D02*
X87941450Y-134060021D01*
X87846212Y-134202879D01*
X87750974Y-134298117D01*
X87655736Y-134345736D01*
%TO.C,SW1*%
X71084307Y-99012402D02*
X71227164Y-99060021D01*
X71465260Y-99060021D01*
X71560498Y-99012402D01*
X71608117Y-98964783D01*
X71655736Y-98869545D01*
X71655736Y-98774307D01*
X71608117Y-98679069D01*
X71560498Y-98631450D01*
X71465260Y-98583831D01*
X71274783Y-98536212D01*
X71179545Y-98488593D01*
X71131926Y-98440974D01*
X71084307Y-98345736D01*
X71084307Y-98250498D01*
X71131926Y-98155260D01*
X71179545Y-98107641D01*
X71274783Y-98060021D01*
X71512879Y-98060021D01*
X71655736Y-98107641D01*
X71989069Y-98060021D02*
X72227164Y-99060021D01*
X72417641Y-98345736D01*
X72608117Y-99060021D01*
X72846212Y-98060021D01*
X73750974Y-99060021D02*
X73179545Y-99060021D01*
X73465260Y-99060021D02*
X73465260Y-98060021D01*
X73370021Y-98202879D01*
X73274783Y-98298117D01*
X73179545Y-98345736D01*
%TO.C,D11*%
X93228355Y-138795021D02*
X93228355Y-137795021D01*
X93466450Y-137795021D01*
X93609307Y-137842641D01*
X93704545Y-137937879D01*
X93752164Y-138033117D01*
X93799783Y-138223593D01*
X93799783Y-138366450D01*
X93752164Y-138556926D01*
X93704545Y-138652164D01*
X93609307Y-138747402D01*
X93466450Y-138795021D01*
X93228355Y-138795021D01*
X94752164Y-138795021D02*
X94180736Y-138795021D01*
X94466450Y-138795021D02*
X94466450Y-137795021D01*
X94371212Y-137937879D01*
X94275974Y-138033117D01*
X94180736Y-138080736D01*
X95704545Y-138795021D02*
X95133117Y-138795021D01*
X95418831Y-138795021D02*
X95418831Y-137795021D01*
X95323593Y-137937879D01*
X95228355Y-138033117D01*
X95133117Y-138080736D01*
%TO.C,SW19*%
X98608117Y-147012402D02*
X98750974Y-147060021D01*
X98989069Y-147060021D01*
X99084307Y-147012402D01*
X99131926Y-146964783D01*
X99179545Y-146869545D01*
X99179545Y-146774307D01*
X99131926Y-146679069D01*
X99084307Y-146631450D01*
X98989069Y-146583831D01*
X98798593Y-146536212D01*
X98703355Y-146488593D01*
X98655736Y-146440974D01*
X98608117Y-146345736D01*
X98608117Y-146250498D01*
X98655736Y-146155260D01*
X98703355Y-146107641D01*
X98798593Y-146060021D01*
X99036688Y-146060021D01*
X99179545Y-146107641D01*
X99512879Y-146060021D02*
X99750974Y-147060021D01*
X99941450Y-146345736D01*
X100131926Y-147060021D01*
X100370021Y-146060021D01*
X101274783Y-147060021D02*
X100703355Y-147060021D01*
X100989069Y-147060021D02*
X100989069Y-146060021D01*
X100893831Y-146202879D01*
X100798593Y-146298117D01*
X100703355Y-146345736D01*
X101750974Y-147060021D02*
X101941450Y-147060021D01*
X102036688Y-147012402D01*
X102084307Y-146964783D01*
X102179545Y-146821926D01*
X102227164Y-146631450D01*
X102227164Y-146250498D01*
X102179545Y-146155260D01*
X102131926Y-146107641D01*
X102036688Y-146060021D01*
X101846212Y-146060021D01*
X101750974Y-146107641D01*
X101703355Y-146155260D01*
X101655736Y-146250498D01*
X101655736Y-146488593D01*
X101703355Y-146583831D01*
X101750974Y-146631450D01*
X101846212Y-146679069D01*
X102036688Y-146679069D01*
X102131926Y-146631450D01*
X102179545Y-146583831D01*
X102227164Y-146488593D01*
%TO.C,D31*%
X135228355Y-126795021D02*
X135228355Y-125795021D01*
X135466450Y-125795021D01*
X135609307Y-125842641D01*
X135704545Y-125937879D01*
X135752164Y-126033117D01*
X135799783Y-126223593D01*
X135799783Y-126366450D01*
X135752164Y-126556926D01*
X135704545Y-126652164D01*
X135609307Y-126747402D01*
X135466450Y-126795021D01*
X135228355Y-126795021D01*
X136133117Y-125795021D02*
X136752164Y-125795021D01*
X136418831Y-126175974D01*
X136561688Y-126175974D01*
X136656926Y-126223593D01*
X136704545Y-126271212D01*
X136752164Y-126366450D01*
X136752164Y-126604545D01*
X136704545Y-126699783D01*
X136656926Y-126747402D01*
X136561688Y-126795021D01*
X136275974Y-126795021D01*
X136180736Y-126747402D01*
X136133117Y-126699783D01*
X137704545Y-126795021D02*
X137133117Y-126795021D01*
X137418831Y-126795021D02*
X137418831Y-125795021D01*
X137323593Y-125937879D01*
X137228355Y-126033117D01*
X137133117Y-126080736D01*
%TO.C,D1*%
X79204545Y-102795021D02*
X79204545Y-101795021D01*
X79442641Y-101795021D01*
X79585498Y-101842641D01*
X79680736Y-101937879D01*
X79728355Y-102033117D01*
X79775974Y-102223593D01*
X79775974Y-102366450D01*
X79728355Y-102556926D01*
X79680736Y-102652164D01*
X79585498Y-102747402D01*
X79442641Y-102795021D01*
X79204545Y-102795021D01*
X80728355Y-102795021D02*
X80156926Y-102795021D01*
X80442641Y-102795021D02*
X80442641Y-101795021D01*
X80347402Y-101937879D01*
X80252164Y-102033117D01*
X80156926Y-102080736D01*
%TO.C,SW13*%
X84608117Y-159012402D02*
X84750974Y-159060021D01*
X84989069Y-159060021D01*
X85084307Y-159012402D01*
X85131926Y-158964783D01*
X85179545Y-158869545D01*
X85179545Y-158774307D01*
X85131926Y-158679069D01*
X85084307Y-158631450D01*
X84989069Y-158583831D01*
X84798593Y-158536212D01*
X84703355Y-158488593D01*
X84655736Y-158440974D01*
X84608117Y-158345736D01*
X84608117Y-158250498D01*
X84655736Y-158155260D01*
X84703355Y-158107641D01*
X84798593Y-158060021D01*
X85036688Y-158060021D01*
X85179545Y-158107641D01*
X85512879Y-158060021D02*
X85750974Y-159060021D01*
X85941450Y-158345736D01*
X86131926Y-159060021D01*
X86370021Y-158060021D01*
X87274783Y-159060021D02*
X86703355Y-159060021D01*
X86989069Y-159060021D02*
X86989069Y-158060021D01*
X86893831Y-158202879D01*
X86798593Y-158298117D01*
X86703355Y-158345736D01*
X87608117Y-158060021D02*
X88227164Y-158060021D01*
X87893831Y-158440974D01*
X88036688Y-158440974D01*
X88131926Y-158488593D01*
X88179545Y-158536212D01*
X88227164Y-158631450D01*
X88227164Y-158869545D01*
X88179545Y-158964783D01*
X88131926Y-159012402D01*
X88036688Y-159060021D01*
X87750974Y-159060021D01*
X87655736Y-159012402D01*
X87608117Y-158964783D01*
%TO.C,H4*%
X137480736Y-179495021D02*
X137480736Y-178495021D01*
X137480736Y-178971212D02*
X138052164Y-178971212D01*
X138052164Y-179495021D02*
X138052164Y-178495021D01*
X138956926Y-178828355D02*
X138956926Y-179495021D01*
X138718831Y-178447402D02*
X138480736Y-179161688D01*
X139099783Y-179161688D01*
%TO.C,D27*%
X121228355Y-162795021D02*
X121228355Y-161795021D01*
X121466450Y-161795021D01*
X121609307Y-161842641D01*
X121704545Y-161937879D01*
X121752164Y-162033117D01*
X121799783Y-162223593D01*
X121799783Y-162366450D01*
X121752164Y-162556926D01*
X121704545Y-162652164D01*
X121609307Y-162747402D01*
X121466450Y-162795021D01*
X121228355Y-162795021D01*
X122180736Y-161890260D02*
X122228355Y-161842641D01*
X122323593Y-161795021D01*
X122561688Y-161795021D01*
X122656926Y-161842641D01*
X122704545Y-161890260D01*
X122752164Y-161985498D01*
X122752164Y-162080736D01*
X122704545Y-162223593D01*
X122133117Y-162795021D01*
X122752164Y-162795021D01*
X123085498Y-161795021D02*
X123752164Y-161795021D01*
X123323593Y-162795021D01*
%TO.C,D18*%
X107228355Y-138795021D02*
X107228355Y-137795021D01*
X107466450Y-137795021D01*
X107609307Y-137842641D01*
X107704545Y-137937879D01*
X107752164Y-138033117D01*
X107799783Y-138223593D01*
X107799783Y-138366450D01*
X107752164Y-138556926D01*
X107704545Y-138652164D01*
X107609307Y-138747402D01*
X107466450Y-138795021D01*
X107228355Y-138795021D01*
X108752164Y-138795021D02*
X108180736Y-138795021D01*
X108466450Y-138795021D02*
X108466450Y-137795021D01*
X108371212Y-137937879D01*
X108275974Y-138033117D01*
X108180736Y-138080736D01*
X109323593Y-138223593D02*
X109228355Y-138175974D01*
X109180736Y-138128355D01*
X109133117Y-138033117D01*
X109133117Y-137985498D01*
X109180736Y-137890260D01*
X109228355Y-137842641D01*
X109323593Y-137795021D01*
X109514069Y-137795021D01*
X109609307Y-137842641D01*
X109656926Y-137890260D01*
X109704545Y-137985498D01*
X109704545Y-138033117D01*
X109656926Y-138128355D01*
X109609307Y-138175974D01*
X109514069Y-138223593D01*
X109323593Y-138223593D01*
X109228355Y-138271212D01*
X109180736Y-138318831D01*
X109133117Y-138414069D01*
X109133117Y-138604545D01*
X109180736Y-138699783D01*
X109228355Y-138747402D01*
X109323593Y-138795021D01*
X109514069Y-138795021D01*
X109609307Y-138747402D01*
X109656926Y-138699783D01*
X109704545Y-138604545D01*
X109704545Y-138414069D01*
X109656926Y-138318831D01*
X109609307Y-138271212D01*
X109514069Y-138223593D01*
%TO.C,SW29*%
X126608117Y-99012402D02*
X126750974Y-99060021D01*
X126989069Y-99060021D01*
X127084307Y-99012402D01*
X127131926Y-98964783D01*
X127179545Y-98869545D01*
X127179545Y-98774307D01*
X127131926Y-98679069D01*
X127084307Y-98631450D01*
X126989069Y-98583831D01*
X126798593Y-98536212D01*
X126703355Y-98488593D01*
X126655736Y-98440974D01*
X126608117Y-98345736D01*
X126608117Y-98250498D01*
X126655736Y-98155260D01*
X126703355Y-98107641D01*
X126798593Y-98060021D01*
X127036688Y-98060021D01*
X127179545Y-98107641D01*
X127512879Y-98060021D02*
X127750974Y-99060021D01*
X127941450Y-98345736D01*
X128131926Y-99060021D01*
X128370021Y-98060021D01*
X128703355Y-98155260D02*
X128750974Y-98107641D01*
X128846212Y-98060021D01*
X129084307Y-98060021D01*
X129179545Y-98107641D01*
X129227164Y-98155260D01*
X129274783Y-98250498D01*
X129274783Y-98345736D01*
X129227164Y-98488593D01*
X128655736Y-99060021D01*
X129274783Y-99060021D01*
X129750974Y-99060021D02*
X129941450Y-99060021D01*
X130036688Y-99012402D01*
X130084307Y-98964783D01*
X130179545Y-98821926D01*
X130227164Y-98631450D01*
X130227164Y-98250498D01*
X130179545Y-98155260D01*
X130131926Y-98107641D01*
X130036688Y-98060021D01*
X129846212Y-98060021D01*
X129750974Y-98107641D01*
X129703355Y-98155260D01*
X129655736Y-98250498D01*
X129655736Y-98488593D01*
X129703355Y-98583831D01*
X129750974Y-98631450D01*
X129846212Y-98679069D01*
X130036688Y-98679069D01*
X130131926Y-98631450D01*
X130179545Y-98583831D01*
X130227164Y-98488593D01*
%TO.C,SW4*%
X71084307Y-135012402D02*
X71227164Y-135060021D01*
X71465260Y-135060021D01*
X71560498Y-135012402D01*
X71608117Y-134964783D01*
X71655736Y-134869545D01*
X71655736Y-134774307D01*
X71608117Y-134679069D01*
X71560498Y-134631450D01*
X71465260Y-134583831D01*
X71274783Y-134536212D01*
X71179545Y-134488593D01*
X71131926Y-134440974D01*
X71084307Y-134345736D01*
X71084307Y-134250498D01*
X71131926Y-134155260D01*
X71179545Y-134107641D01*
X71274783Y-134060021D01*
X71512879Y-134060021D01*
X71655736Y-134107641D01*
X71989069Y-134060021D02*
X72227164Y-135060021D01*
X72417641Y-134345736D01*
X72608117Y-135060021D01*
X72846212Y-134060021D01*
X73655736Y-134393355D02*
X73655736Y-135060021D01*
X73417641Y-134012402D02*
X73179545Y-134726688D01*
X73798593Y-134726688D01*
%TO.C,D26*%
X121228355Y-150795021D02*
X121228355Y-149795021D01*
X121466450Y-149795021D01*
X121609307Y-149842641D01*
X121704545Y-149937879D01*
X121752164Y-150033117D01*
X121799783Y-150223593D01*
X121799783Y-150366450D01*
X121752164Y-150556926D01*
X121704545Y-150652164D01*
X121609307Y-150747402D01*
X121466450Y-150795021D01*
X121228355Y-150795021D01*
X122180736Y-149890260D02*
X122228355Y-149842641D01*
X122323593Y-149795021D01*
X122561688Y-149795021D01*
X122656926Y-149842641D01*
X122704545Y-149890260D01*
X122752164Y-149985498D01*
X122752164Y-150080736D01*
X122704545Y-150223593D01*
X122133117Y-150795021D01*
X122752164Y-150795021D01*
X123609307Y-149795021D02*
X123418831Y-149795021D01*
X123323593Y-149842641D01*
X123275974Y-149890260D01*
X123180736Y-150033117D01*
X123133117Y-150223593D01*
X123133117Y-150604545D01*
X123180736Y-150699783D01*
X123228355Y-150747402D01*
X123323593Y-150795021D01*
X123514069Y-150795021D01*
X123609307Y-150747402D01*
X123656926Y-150699783D01*
X123704545Y-150604545D01*
X123704545Y-150366450D01*
X123656926Y-150271212D01*
X123609307Y-150223593D01*
X123514069Y-150175974D01*
X123323593Y-150175974D01*
X123228355Y-150223593D01*
X123180736Y-150271212D01*
X123133117Y-150366450D01*
%TO.C,D14*%
X93228355Y-174795021D02*
X93228355Y-173795021D01*
X93466450Y-173795021D01*
X93609307Y-173842641D01*
X93704545Y-173937879D01*
X93752164Y-174033117D01*
X93799783Y-174223593D01*
X93799783Y-174366450D01*
X93752164Y-174556926D01*
X93704545Y-174652164D01*
X93609307Y-174747402D01*
X93466450Y-174795021D01*
X93228355Y-174795021D01*
X94752164Y-174795021D02*
X94180736Y-174795021D01*
X94466450Y-174795021D02*
X94466450Y-173795021D01*
X94371212Y-173937879D01*
X94275974Y-174033117D01*
X94180736Y-174080736D01*
X95609307Y-174128355D02*
X95609307Y-174795021D01*
X95371212Y-173747402D02*
X95133117Y-174461688D01*
X95752164Y-174461688D01*
%TO.C,D6*%
X79204545Y-162795021D02*
X79204545Y-161795021D01*
X79442641Y-161795021D01*
X79585498Y-161842641D01*
X79680736Y-161937879D01*
X79728355Y-162033117D01*
X79775974Y-162223593D01*
X79775974Y-162366450D01*
X79728355Y-162556926D01*
X79680736Y-162652164D01*
X79585498Y-162747402D01*
X79442641Y-162795021D01*
X79204545Y-162795021D01*
X80633117Y-161795021D02*
X80442641Y-161795021D01*
X80347402Y-161842641D01*
X80299783Y-161890260D01*
X80204545Y-162033117D01*
X80156926Y-162223593D01*
X80156926Y-162604545D01*
X80204545Y-162699783D01*
X80252164Y-162747402D01*
X80347402Y-162795021D01*
X80537879Y-162795021D01*
X80633117Y-162747402D01*
X80680736Y-162699783D01*
X80728355Y-162604545D01*
X80728355Y-162366450D01*
X80680736Y-162271212D01*
X80633117Y-162223593D01*
X80537879Y-162175974D01*
X80347402Y-162175974D01*
X80252164Y-162223593D01*
X80204545Y-162271212D01*
X80156926Y-162366450D01*
%TO.C,D15*%
X107228355Y-102795021D02*
X107228355Y-101795021D01*
X107466450Y-101795021D01*
X107609307Y-101842641D01*
X107704545Y-101937879D01*
X107752164Y-102033117D01*
X107799783Y-102223593D01*
X107799783Y-102366450D01*
X107752164Y-102556926D01*
X107704545Y-102652164D01*
X107609307Y-102747402D01*
X107466450Y-102795021D01*
X107228355Y-102795021D01*
X108752164Y-102795021D02*
X108180736Y-102795021D01*
X108466450Y-102795021D02*
X108466450Y-101795021D01*
X108371212Y-101937879D01*
X108275974Y-102033117D01*
X108180736Y-102080736D01*
X109656926Y-101795021D02*
X109180736Y-101795021D01*
X109133117Y-102271212D01*
X109180736Y-102223593D01*
X109275974Y-102175974D01*
X109514069Y-102175974D01*
X109609307Y-102223593D01*
X109656926Y-102271212D01*
X109704545Y-102366450D01*
X109704545Y-102604545D01*
X109656926Y-102699783D01*
X109609307Y-102747402D01*
X109514069Y-102795021D01*
X109275974Y-102795021D01*
X109180736Y-102747402D01*
X109133117Y-102699783D01*
%TO.C,D5*%
X79204545Y-150795021D02*
X79204545Y-149795021D01*
X79442641Y-149795021D01*
X79585498Y-149842641D01*
X79680736Y-149937879D01*
X79728355Y-150033117D01*
X79775974Y-150223593D01*
X79775974Y-150366450D01*
X79728355Y-150556926D01*
X79680736Y-150652164D01*
X79585498Y-150747402D01*
X79442641Y-150795021D01*
X79204545Y-150795021D01*
X80680736Y-149795021D02*
X80204545Y-149795021D01*
X80156926Y-150271212D01*
X80204545Y-150223593D01*
X80299783Y-150175974D01*
X80537879Y-150175974D01*
X80633117Y-150223593D01*
X80680736Y-150271212D01*
X80728355Y-150366450D01*
X80728355Y-150604545D01*
X80680736Y-150699783D01*
X80633117Y-150747402D01*
X80537879Y-150795021D01*
X80299783Y-150795021D01*
X80204545Y-150747402D01*
X80156926Y-150699783D01*
%TO.C,SW27*%
X112608117Y-159012402D02*
X112750974Y-159060021D01*
X112989069Y-159060021D01*
X113084307Y-159012402D01*
X113131926Y-158964783D01*
X113179545Y-158869545D01*
X113179545Y-158774307D01*
X113131926Y-158679069D01*
X113084307Y-158631450D01*
X112989069Y-158583831D01*
X112798593Y-158536212D01*
X112703355Y-158488593D01*
X112655736Y-158440974D01*
X112608117Y-158345736D01*
X112608117Y-158250498D01*
X112655736Y-158155260D01*
X112703355Y-158107641D01*
X112798593Y-158060021D01*
X113036688Y-158060021D01*
X113179545Y-158107641D01*
X113512879Y-158060021D02*
X113750974Y-159060021D01*
X113941450Y-158345736D01*
X114131926Y-159060021D01*
X114370021Y-158060021D01*
X114703355Y-158155260D02*
X114750974Y-158107641D01*
X114846212Y-158060021D01*
X115084307Y-158060021D01*
X115179545Y-158107641D01*
X115227164Y-158155260D01*
X115274783Y-158250498D01*
X115274783Y-158345736D01*
X115227164Y-158488593D01*
X114655736Y-159060021D01*
X115274783Y-159060021D01*
X115608117Y-158060021D02*
X116274783Y-158060021D01*
X115846212Y-159060021D01*
%TO.C,SW25*%
X112608117Y-135012402D02*
X112750974Y-135060021D01*
X112989069Y-135060021D01*
X113084307Y-135012402D01*
X113131926Y-134964783D01*
X113179545Y-134869545D01*
X113179545Y-134774307D01*
X113131926Y-134679069D01*
X113084307Y-134631450D01*
X112989069Y-134583831D01*
X112798593Y-134536212D01*
X112703355Y-134488593D01*
X112655736Y-134440974D01*
X112608117Y-134345736D01*
X112608117Y-134250498D01*
X112655736Y-134155260D01*
X112703355Y-134107641D01*
X112798593Y-134060021D01*
X113036688Y-134060021D01*
X113179545Y-134107641D01*
X113512879Y-134060021D02*
X113750974Y-135060021D01*
X113941450Y-134345736D01*
X114131926Y-135060021D01*
X114370021Y-134060021D01*
X114703355Y-134155260D02*
X114750974Y-134107641D01*
X114846212Y-134060021D01*
X115084307Y-134060021D01*
X115179545Y-134107641D01*
X115227164Y-134155260D01*
X115274783Y-134250498D01*
X115274783Y-134345736D01*
X115227164Y-134488593D01*
X114655736Y-135060021D01*
X115274783Y-135060021D01*
X116179545Y-134060021D02*
X115703355Y-134060021D01*
X115655736Y-134536212D01*
X115703355Y-134488593D01*
X115798593Y-134440974D01*
X116036688Y-134440974D01*
X116131926Y-134488593D01*
X116179545Y-134536212D01*
X116227164Y-134631450D01*
X116227164Y-134869545D01*
X116179545Y-134964783D01*
X116131926Y-135012402D01*
X116036688Y-135060021D01*
X115798593Y-135060021D01*
X115703355Y-135012402D01*
X115655736Y-134964783D01*
%TO.C,D29*%
X135228355Y-102795021D02*
X135228355Y-101795021D01*
X135466450Y-101795021D01*
X135609307Y-101842641D01*
X135704545Y-101937879D01*
X135752164Y-102033117D01*
X135799783Y-102223593D01*
X135799783Y-102366450D01*
X135752164Y-102556926D01*
X135704545Y-102652164D01*
X135609307Y-102747402D01*
X135466450Y-102795021D01*
X135228355Y-102795021D01*
X136180736Y-101890260D02*
X136228355Y-101842641D01*
X136323593Y-101795021D01*
X136561688Y-101795021D01*
X136656926Y-101842641D01*
X136704545Y-101890260D01*
X136752164Y-101985498D01*
X136752164Y-102080736D01*
X136704545Y-102223593D01*
X136133117Y-102795021D01*
X136752164Y-102795021D01*
X137228355Y-102795021D02*
X137418831Y-102795021D01*
X137514069Y-102747402D01*
X137561688Y-102699783D01*
X137656926Y-102556926D01*
X137704545Y-102366450D01*
X137704545Y-101985498D01*
X137656926Y-101890260D01*
X137609307Y-101842641D01*
X137514069Y-101795021D01*
X137323593Y-101795021D01*
X137228355Y-101842641D01*
X137180736Y-101890260D01*
X137133117Y-101985498D01*
X137133117Y-102223593D01*
X137180736Y-102318831D01*
X137228355Y-102366450D01*
X137323593Y-102414069D01*
X137514069Y-102414069D01*
X137609307Y-102366450D01*
X137656926Y-102318831D01*
X137704545Y-102223593D01*
D13*
%TO.C,X1*%
X105712641Y-27432641D02*
X105712641Y-28782641D01*
X96772641Y-28782641D02*
X96772641Y-27432641D01*
X96772641Y-23432641D02*
X105712641Y-23432641D01*
X105712641Y-23432641D02*
X105712641Y-24782641D01*
X96772641Y-24782641D02*
X96772641Y-23432641D01*
D14*
%TO.C,D3*%
X78842641Y-126942641D02*
X78842641Y-125092641D01*
X78842641Y-125092641D02*
X77642641Y-125092641D01*
X77642641Y-126942641D02*
X77642641Y-125092641D01*
D15*
%TO.C,SW24*%
X117492641Y-123692641D02*
X112992641Y-123692641D01*
X112692641Y-125062641D02*
X112692641Y-127422641D01*
X117792641Y-127422641D02*
X117792641Y-125062641D01*
X117492641Y-128792641D02*
X112992641Y-128792641D01*
D16*
X111092641Y-124367641D02*
G75*
G03*
X111092641Y-124367641I-100000J0D01*
G01*
D15*
%TO.C,SW30*%
X131792641Y-115422641D02*
X131792641Y-113062641D01*
X131492641Y-116792641D02*
X126992641Y-116792641D01*
X126692641Y-113062641D02*
X126692641Y-115422641D01*
X131492641Y-111692641D02*
X126992641Y-111692641D01*
D16*
X125092641Y-112367641D02*
G75*
G03*
X125092641Y-112367641I-100000J0D01*
G01*
D14*
%TO.C,D7*%
X78842641Y-174942641D02*
X78842641Y-173092641D01*
X78842641Y-173092641D02*
X77642641Y-173092641D01*
X77642641Y-174942641D02*
X77642641Y-173092641D01*
D15*
%TO.C,SW17*%
X98692641Y-125062641D02*
X98692641Y-127422641D01*
X103492641Y-123692641D02*
X98992641Y-123692641D01*
X103492641Y-128792641D02*
X98992641Y-128792641D01*
X103792641Y-127422641D02*
X103792641Y-125062641D01*
D16*
X97092641Y-124367641D02*
G75*
G03*
X97092641Y-124367641I-100000J0D01*
G01*
D15*
%TO.C,SW9*%
X89492641Y-111692641D02*
X84992641Y-111692641D01*
X84692641Y-113062641D02*
X84692641Y-115422641D01*
X89792641Y-115422641D02*
X89792641Y-113062641D01*
X89492641Y-116792641D02*
X84992641Y-116792641D01*
D16*
X83092641Y-112367641D02*
G75*
G03*
X83092641Y-112367641I-100000J0D01*
G01*
D15*
%TO.C,SW7*%
X75492641Y-171692641D02*
X70992641Y-171692641D01*
X70692641Y-173062641D02*
X70692641Y-175422641D01*
X75492641Y-176792641D02*
X70992641Y-176792641D01*
X75792641Y-175422641D02*
X75792641Y-173062641D01*
D16*
X69092641Y-172367641D02*
G75*
G03*
X69092641Y-172367641I-100000J0D01*
G01*
D14*
%TO.C,D19*%
X105642641Y-150942641D02*
X105642641Y-149092641D01*
X106842641Y-149092641D02*
X105642641Y-149092641D01*
X106842641Y-150942641D02*
X106842641Y-149092641D01*
D15*
%TO.C,SW22*%
X117792641Y-103422641D02*
X117792641Y-101062641D01*
X117492641Y-104792641D02*
X112992641Y-104792641D01*
X117492641Y-99692641D02*
X112992641Y-99692641D01*
X112692641Y-101062641D02*
X112692641Y-103422641D01*
D16*
X111092641Y-100367641D02*
G75*
G03*
X111092641Y-100367641I-100000J0D01*
G01*
D14*
%TO.C,D35*%
X134842641Y-174942641D02*
X134842641Y-173092641D01*
X133642641Y-174942641D02*
X133642641Y-173092641D01*
X134842641Y-173092641D02*
X133642641Y-173092641D01*
D15*
%TO.C,SW20*%
X103792641Y-163422641D02*
X103792641Y-161062641D01*
X103492641Y-164792641D02*
X98992641Y-164792641D01*
X103492641Y-159692641D02*
X98992641Y-159692641D01*
X98692641Y-161062641D02*
X98692641Y-163422641D01*
D16*
X97092641Y-160367641D02*
G75*
G03*
X97092641Y-160367641I-100000J0D01*
G01*
D15*
%TO.C,SW34*%
X131792641Y-163422641D02*
X131792641Y-161062641D01*
X131492641Y-159692641D02*
X126992641Y-159692641D01*
X131492641Y-164792641D02*
X126992641Y-164792641D01*
X126692641Y-161062641D02*
X126692641Y-163422641D01*
D16*
X125092641Y-160367641D02*
G75*
G03*
X125092641Y-160367641I-100000J0D01*
G01*
D14*
%TO.C,U5*%
X59337641Y-34087641D02*
X143337641Y-34087641D01*
X143337641Y-34087641D02*
X143337641Y-88587641D01*
X143337641Y-88587641D02*
X59337641Y-88587641D01*
X59337641Y-88587641D02*
X59337641Y-34087641D01*
D15*
%TO.C,SW3*%
X70692641Y-125062641D02*
X70692641Y-127422641D01*
X75492641Y-128792641D02*
X70992641Y-128792641D01*
X75792641Y-127422641D02*
X75792641Y-125062641D01*
X75492641Y-123692641D02*
X70992641Y-123692641D01*
D16*
X69092641Y-124367641D02*
G75*
G03*
X69092641Y-124367641I-100000J0D01*
G01*
D15*
%TO.C,SW10*%
X89492641Y-123692641D02*
X84992641Y-123692641D01*
X84692641Y-125062641D02*
X84692641Y-127422641D01*
X89492641Y-128792641D02*
X84992641Y-128792641D01*
X89792641Y-127422641D02*
X89792641Y-125062641D01*
D16*
X83092641Y-124367641D02*
G75*
G03*
X83092641Y-124367641I-100000J0D01*
G01*
D15*
%TO.C,SW8*%
X84692641Y-101062641D02*
X84692641Y-103422641D01*
X89792641Y-103422641D02*
X89792641Y-101062641D01*
X89492641Y-99692641D02*
X84992641Y-99692641D01*
X89492641Y-104792641D02*
X84992641Y-104792641D01*
D16*
X83092641Y-100367641D02*
G75*
G03*
X83092641Y-100367641I-100000J0D01*
G01*
D14*
%TO.C,D17*%
X106842641Y-125092641D02*
X105642641Y-125092641D01*
X106842641Y-126942641D02*
X106842641Y-125092641D01*
X105642641Y-126942641D02*
X105642641Y-125092641D01*
%TO.C,D30*%
X134842641Y-113092641D02*
X133642641Y-113092641D01*
X133642641Y-114942641D02*
X133642641Y-113092641D01*
X134842641Y-114942641D02*
X134842641Y-113092641D01*
D15*
%TO.C,SW12*%
X89792641Y-151422641D02*
X89792641Y-149062641D01*
X89492641Y-152792641D02*
X84992641Y-152792641D01*
X89492641Y-147692641D02*
X84992641Y-147692641D01*
X84692641Y-149062641D02*
X84692641Y-151422641D01*
D16*
X83092641Y-148367641D02*
G75*
G03*
X83092641Y-148367641I-100000J0D01*
G01*
D15*
%TO.C,SW15*%
X103492641Y-99692641D02*
X98992641Y-99692641D01*
X103792641Y-103422641D02*
X103792641Y-101062641D01*
X98692641Y-101062641D02*
X98692641Y-103422641D01*
X103492641Y-104792641D02*
X98992641Y-104792641D01*
D16*
X97092641Y-100367641D02*
G75*
G03*
X97092641Y-100367641I-100000J0D01*
G01*
D15*
%TO.C,SW18*%
X103492641Y-140792641D02*
X98992641Y-140792641D01*
X103492641Y-135692641D02*
X98992641Y-135692641D01*
X98692641Y-137062641D02*
X98692641Y-139422641D01*
X103792641Y-139422641D02*
X103792641Y-137062641D01*
D16*
X97092641Y-136367641D02*
G75*
G03*
X97092641Y-136367641I-100000J0D01*
G01*
D14*
%TO.C,D8*%
X91642641Y-102942641D02*
X91642641Y-101092641D01*
X92842641Y-101092641D02*
X91642641Y-101092641D01*
X92842641Y-102942641D02*
X92842641Y-101092641D01*
%TO.C,D28*%
X120842641Y-174942641D02*
X120842641Y-173092641D01*
X120842641Y-173092641D02*
X119642641Y-173092641D01*
X119642641Y-174942641D02*
X119642641Y-173092641D01*
%TO.C,D2*%
X77642641Y-114942641D02*
X77642641Y-113092641D01*
X78842641Y-113092641D02*
X77642641Y-113092641D01*
X78842641Y-114942641D02*
X78842641Y-113092641D01*
D15*
%TO.C,SW35*%
X126692641Y-173062641D02*
X126692641Y-175422641D01*
X131492641Y-171692641D02*
X126992641Y-171692641D01*
X131492641Y-176792641D02*
X126992641Y-176792641D01*
X131792641Y-175422641D02*
X131792641Y-173062641D01*
D16*
X125092641Y-172367641D02*
G75*
G03*
X125092641Y-172367641I-100000J0D01*
G01*
D14*
%TO.C,D34*%
X134842641Y-162942641D02*
X134842641Y-161092641D01*
X133642641Y-162942641D02*
X133642641Y-161092641D01*
X134842641Y-161092641D02*
X133642641Y-161092641D01*
%TO.C,D10*%
X91642641Y-126942641D02*
X91642641Y-125092641D01*
X92842641Y-126942641D02*
X92842641Y-125092641D01*
X92842641Y-125092641D02*
X91642641Y-125092641D01*
%TO.C,D13*%
X92842641Y-162942641D02*
X92842641Y-161092641D01*
X91642641Y-162942641D02*
X91642641Y-161092641D01*
X92842641Y-161092641D02*
X91642641Y-161092641D01*
D15*
%TO.C,SW2*%
X70692641Y-113062641D02*
X70692641Y-115422641D01*
X75492641Y-116792641D02*
X70992641Y-116792641D01*
X75792641Y-115422641D02*
X75792641Y-113062641D01*
X75492641Y-111692641D02*
X70992641Y-111692641D01*
D16*
X69092641Y-112367641D02*
G75*
G03*
X69092641Y-112367641I-100000J0D01*
G01*
D17*
%TO.C,SW37*%
X80142641Y-28717241D02*
X84342641Y-28717241D01*
X84342641Y-31768041D02*
X80142641Y-31768041D01*
D14*
%TO.C,D32*%
X133642641Y-138942641D02*
X133642641Y-137092641D01*
X134842641Y-137092641D02*
X133642641Y-137092641D01*
X134842641Y-138942641D02*
X134842641Y-137092641D01*
D15*
%TO.C,SW14*%
X89792641Y-175422641D02*
X89792641Y-173062641D01*
X89492641Y-176792641D02*
X84992641Y-176792641D01*
X89492641Y-171692641D02*
X84992641Y-171692641D01*
X84692641Y-173062641D02*
X84692641Y-175422641D01*
D16*
X83092641Y-172367641D02*
G75*
G03*
X83092641Y-172367641I-100000J0D01*
G01*
D14*
%TO.C,D33*%
X134842641Y-149092641D02*
X133642641Y-149092641D01*
X134842641Y-150942641D02*
X134842641Y-149092641D01*
X133642641Y-150942641D02*
X133642641Y-149092641D01*
%TO.C,D23*%
X120842641Y-113092641D02*
X119642641Y-113092641D01*
X120842641Y-114942641D02*
X120842641Y-113092641D01*
X119642641Y-114942641D02*
X119642641Y-113092641D01*
D15*
%TO.C,SW28*%
X117492641Y-171692641D02*
X112992641Y-171692641D01*
X117792641Y-175422641D02*
X117792641Y-173062641D01*
X112692641Y-173062641D02*
X112692641Y-175422641D01*
X117492641Y-176792641D02*
X112992641Y-176792641D01*
D16*
X111092641Y-172367641D02*
G75*
G03*
X111092641Y-172367641I-100000J0D01*
G01*
D14*
%TO.C,D22*%
X120842641Y-101092641D02*
X119642641Y-101092641D01*
X120842641Y-102942641D02*
X120842641Y-101092641D01*
X119642641Y-102942641D02*
X119642641Y-101092641D01*
%TO.C,R1*%
X105862641Y-110089000D02*
X105862641Y-110396282D01*
X106622641Y-110089000D02*
X106622641Y-110396282D01*
%TO.C,D9*%
X91642641Y-114942641D02*
X91642641Y-113092641D01*
X92842641Y-113092641D02*
X91642641Y-113092641D01*
X92842641Y-114942641D02*
X92842641Y-113092641D01*
D15*
%TO.C,SW21*%
X103492641Y-171692641D02*
X98992641Y-171692641D01*
X103792641Y-175422641D02*
X103792641Y-173062641D01*
X103492641Y-176792641D02*
X98992641Y-176792641D01*
X98692641Y-173062641D02*
X98692641Y-175422641D01*
D16*
X97092641Y-172367641D02*
G75*
G03*
X97092641Y-172367641I-100000J0D01*
G01*
D14*
%TO.C,SW36*%
X123702641Y-32542641D02*
X123702641Y-31532641D01*
X130152641Y-26592641D02*
X130152641Y-32642641D01*
X122352641Y-26592641D02*
X130152641Y-26592641D01*
X122352641Y-32642641D02*
X122352641Y-26592641D01*
X128782641Y-31532641D02*
X128782641Y-32542641D01*
X123702641Y-31532641D02*
X128782641Y-31532641D01*
X130152641Y-32642641D02*
X122352641Y-32642641D01*
D15*
%TO.C,SW16*%
X98692641Y-113062641D02*
X98692641Y-115422641D01*
X103492641Y-111692641D02*
X98992641Y-111692641D01*
X103792641Y-115422641D02*
X103792641Y-113062641D01*
X103492641Y-116792641D02*
X98992641Y-116792641D01*
D16*
X97092641Y-112367641D02*
G75*
G03*
X97092641Y-112367641I-100000J0D01*
G01*
D15*
%TO.C,SW33*%
X126692641Y-149062641D02*
X126692641Y-151422641D01*
X131492641Y-152792641D02*
X126992641Y-152792641D01*
X131492641Y-147692641D02*
X126992641Y-147692641D01*
X131792641Y-151422641D02*
X131792641Y-149062641D01*
D16*
X125092641Y-148367641D02*
G75*
G03*
X125092641Y-148367641I-100000J0D01*
G01*
D14*
%TO.C,D12*%
X92842641Y-150942641D02*
X92842641Y-149092641D01*
X92842641Y-149092641D02*
X91642641Y-149092641D01*
X91642641Y-150942641D02*
X91642641Y-149092641D01*
%TO.C,D24*%
X119642641Y-126942641D02*
X119642641Y-125092641D01*
X120842641Y-125092641D02*
X119642641Y-125092641D01*
X120842641Y-126942641D02*
X120842641Y-125092641D01*
D15*
%TO.C,SW31*%
X131492641Y-128792641D02*
X126992641Y-128792641D01*
X131492641Y-123692641D02*
X126992641Y-123692641D01*
X131792641Y-127422641D02*
X131792641Y-125062641D01*
X126692641Y-125062641D02*
X126692641Y-127422641D01*
D16*
X125092641Y-124367641D02*
G75*
G03*
X125092641Y-124367641I-100000J0D01*
G01*
D15*
%TO.C,SW32*%
X131492641Y-135692641D02*
X126992641Y-135692641D01*
X126692641Y-137062641D02*
X126692641Y-139422641D01*
X131492641Y-140792641D02*
X126992641Y-140792641D01*
X131792641Y-139422641D02*
X131792641Y-137062641D01*
D16*
X125092641Y-136367641D02*
G75*
G03*
X125092641Y-136367641I-100000J0D01*
G01*
D15*
%TO.C,SW23*%
X112692641Y-113062641D02*
X112692641Y-115422641D01*
X117492641Y-111692641D02*
X112992641Y-111692641D01*
X117792641Y-115422641D02*
X117792641Y-113062641D01*
X117492641Y-116792641D02*
X112992641Y-116792641D01*
D16*
X111092641Y-112367641D02*
G75*
G03*
X111092641Y-112367641I-100000J0D01*
G01*
D15*
%TO.C,SW5*%
X75492641Y-147692641D02*
X70992641Y-147692641D01*
X75792641Y-151422641D02*
X75792641Y-149062641D01*
X75492641Y-152792641D02*
X70992641Y-152792641D01*
X70692641Y-149062641D02*
X70692641Y-151422641D01*
D16*
X69092641Y-148367641D02*
G75*
G03*
X69092641Y-148367641I-100000J0D01*
G01*
D14*
%TO.C,D4*%
X78842641Y-137092641D02*
X77642641Y-137092641D01*
X77642641Y-138942641D02*
X77642641Y-137092641D01*
X78842641Y-138942641D02*
X78842641Y-137092641D01*
D15*
%TO.C,SW26*%
X112692641Y-149062641D02*
X112692641Y-151422641D01*
X117492641Y-152792641D02*
X112992641Y-152792641D01*
X117492641Y-147692641D02*
X112992641Y-147692641D01*
X117792641Y-151422641D02*
X117792641Y-149062641D01*
D16*
X111092641Y-148367641D02*
G75*
G03*
X111092641Y-148367641I-100000J0D01*
G01*
D14*
%TO.C,D16*%
X105642641Y-114942641D02*
X105642641Y-113092641D01*
X106842641Y-114942641D02*
X106842641Y-113092641D01*
X106842641Y-113092641D02*
X105642641Y-113092641D01*
%TO.C,D21*%
X106842641Y-174942641D02*
X106842641Y-173092641D01*
X105642641Y-174942641D02*
X105642641Y-173092641D01*
X106842641Y-173092641D02*
X105642641Y-173092641D01*
D15*
%TO.C,SW6*%
X70692641Y-161062641D02*
X70692641Y-163422641D01*
X75492641Y-159692641D02*
X70992641Y-159692641D01*
X75492641Y-164792641D02*
X70992641Y-164792641D01*
X75792641Y-163422641D02*
X75792641Y-161062641D01*
D16*
X69092641Y-160367641D02*
G75*
G03*
X69092641Y-160367641I-100000J0D01*
G01*
D14*
%TO.C,D25*%
X119642641Y-138942641D02*
X119642641Y-137092641D01*
X120842641Y-138942641D02*
X120842641Y-137092641D01*
X120842641Y-137092641D02*
X119642641Y-137092641D01*
%TO.C,D20*%
X105642641Y-162942641D02*
X105642641Y-161092641D01*
X106842641Y-162942641D02*
X106842641Y-161092641D01*
X106842641Y-161092641D02*
X105642641Y-161092641D01*
D15*
%TO.C,SW11*%
X89492641Y-140792641D02*
X84992641Y-140792641D01*
X84692641Y-137062641D02*
X84692641Y-139422641D01*
X89792641Y-139422641D02*
X89792641Y-137062641D01*
X89492641Y-135692641D02*
X84992641Y-135692641D01*
D16*
X83092641Y-136367641D02*
G75*
G03*
X83092641Y-136367641I-100000J0D01*
G01*
D15*
%TO.C,SW1*%
X75792641Y-103422641D02*
X75792641Y-101062641D01*
X70692641Y-101062641D02*
X70692641Y-103422641D01*
X75492641Y-104792641D02*
X70992641Y-104792641D01*
X75492641Y-99692641D02*
X70992641Y-99692641D01*
D16*
X69092641Y-100367641D02*
G75*
G03*
X69092641Y-100367641I-100000J0D01*
G01*
D14*
%TO.C,D11*%
X91642641Y-138942641D02*
X91642641Y-137092641D01*
X92842641Y-137092641D02*
X91642641Y-137092641D01*
X92842641Y-138942641D02*
X92842641Y-137092641D01*
D15*
%TO.C,SW19*%
X98692641Y-149062641D02*
X98692641Y-151422641D01*
X103792641Y-151422641D02*
X103792641Y-149062641D01*
X103492641Y-147692641D02*
X98992641Y-147692641D01*
X103492641Y-152792641D02*
X98992641Y-152792641D01*
D16*
X97092641Y-148367641D02*
G75*
G03*
X97092641Y-148367641I-100000J0D01*
G01*
D14*
%TO.C,D31*%
X134842641Y-125092641D02*
X133642641Y-125092641D01*
X134842641Y-126942641D02*
X134842641Y-125092641D01*
X133642641Y-126942641D02*
X133642641Y-125092641D01*
%TO.C,D1*%
X78842641Y-102942641D02*
X78842641Y-101092641D01*
X78842641Y-101092641D02*
X77642641Y-101092641D01*
X77642641Y-102942641D02*
X77642641Y-101092641D01*
D15*
%TO.C,SW13*%
X89492641Y-164792641D02*
X84992641Y-164792641D01*
X89492641Y-159692641D02*
X84992641Y-159692641D01*
X89792641Y-163422641D02*
X89792641Y-161062641D01*
X84692641Y-161062641D02*
X84692641Y-163422641D01*
D16*
X83092641Y-160367641D02*
G75*
G03*
X83092641Y-160367641I-100000J0D01*
G01*
D14*
%TO.C,D27*%
X120842641Y-161092641D02*
X119642641Y-161092641D01*
X119642641Y-162942641D02*
X119642641Y-161092641D01*
X120842641Y-162942641D02*
X120842641Y-161092641D01*
%TO.C,D18*%
X106842641Y-137092641D02*
X105642641Y-137092641D01*
X106842641Y-138942641D02*
X106842641Y-137092641D01*
X105642641Y-138942641D02*
X105642641Y-137092641D01*
D15*
%TO.C,SW29*%
X131492641Y-104792641D02*
X126992641Y-104792641D01*
X131792641Y-103422641D02*
X131792641Y-101062641D01*
X131492641Y-99692641D02*
X126992641Y-99692641D01*
X126692641Y-101062641D02*
X126692641Y-103422641D01*
D16*
X125092641Y-100367641D02*
G75*
G03*
X125092641Y-100367641I-100000J0D01*
G01*
D15*
%TO.C,SW4*%
X75492641Y-135692641D02*
X70992641Y-135692641D01*
X70692641Y-137062641D02*
X70692641Y-139422641D01*
X75492641Y-140792641D02*
X70992641Y-140792641D01*
X75792641Y-139422641D02*
X75792641Y-137062641D01*
D16*
X69092641Y-136367641D02*
G75*
G03*
X69092641Y-136367641I-100000J0D01*
G01*
D14*
%TO.C,D26*%
X119642641Y-150942641D02*
X119642641Y-149092641D01*
X120842641Y-150942641D02*
X120842641Y-149092641D01*
X120842641Y-149092641D02*
X119642641Y-149092641D01*
%TO.C,D14*%
X91642641Y-174942641D02*
X91642641Y-173092641D01*
X92842641Y-174942641D02*
X92842641Y-173092641D01*
X92842641Y-173092641D02*
X91642641Y-173092641D01*
%TO.C,D6*%
X78842641Y-161092641D02*
X77642641Y-161092641D01*
X78842641Y-162942641D02*
X78842641Y-161092641D01*
X77642641Y-162942641D02*
X77642641Y-161092641D01*
%TO.C,D15*%
X106842641Y-102942641D02*
X106842641Y-101092641D01*
X106842641Y-101092641D02*
X105642641Y-101092641D01*
X105642641Y-102942641D02*
X105642641Y-101092641D01*
%TO.C,D5*%
X78842641Y-149092641D02*
X77642641Y-149092641D01*
X77642641Y-150942641D02*
X77642641Y-149092641D01*
X78842641Y-150942641D02*
X78842641Y-149092641D01*
D15*
%TO.C,SW27*%
X117492641Y-159692641D02*
X112992641Y-159692641D01*
X112692641Y-161062641D02*
X112692641Y-163422641D01*
X117792641Y-163422641D02*
X117792641Y-161062641D01*
X117492641Y-164792641D02*
X112992641Y-164792641D01*
D16*
X111092641Y-160367641D02*
G75*
G03*
X111092641Y-160367641I-100000J0D01*
G01*
D15*
%TO.C,SW25*%
X117492641Y-140792641D02*
X112992641Y-140792641D01*
X117792641Y-139422641D02*
X117792641Y-137062641D01*
X117492641Y-135692641D02*
X112992641Y-135692641D01*
X112692641Y-137062641D02*
X112692641Y-139422641D01*
D16*
X111092641Y-136367641D02*
G75*
G03*
X111092641Y-136367641I-100000J0D01*
G01*
D14*
%TO.C,D29*%
X133642641Y-102942641D02*
X133642641Y-101092641D01*
X134842641Y-102942641D02*
X134842641Y-101092641D01*
X134842641Y-101092641D02*
X133642641Y-101092641D01*
%TD*%
M02*
