%TF.GenerationSoftware,KiCad,Pcbnew,(6.0.7)*%
%TF.CreationDate,2022-10-22T21:09:40-04:00*%
%TF.ProjectId,Calculator,43616c63-756c-4617-946f-722e6b696361,rev?*%
%TF.SameCoordinates,Original*%
%TF.FileFunction,Soldermask,Top*%
%TF.FilePolarity,Negative*%
%FSLAX46Y46*%
G04 Gerber Fmt 4.6, Leading zero omitted, Abs format (unit mm)*
G04 Created by KiCad (PCBNEW (6.0.7)) date 2022-10-22 21:09:40*
%MOMM*%
%LPD*%
G01*
G04 APERTURE LIST*
G04 Aperture macros list*
%AMRoundRect*
0 Rectangle with rounded corners*
0 $1 Rounding radius*
0 $2 $3 $4 $5 $6 $7 $8 $9 X,Y pos of 4 corners*
0 Add a 4 corners polygon primitive as box body*
4,1,4,$2,$3,$4,$5,$6,$7,$8,$9,$2,$3,0*
0 Add four circle primitives for the rounded corners*
1,1,$1+$1,$2,$3*
1,1,$1+$1,$4,$5*
1,1,$1+$1,$6,$7*
1,1,$1+$1,$8,$9*
0 Add four rect primitives between the rounded corners*
20,1,$1+$1,$2,$3,$4,$5,0*
20,1,$1+$1,$4,$5,$6,$7,0*
20,1,$1+$1,$6,$7,$8,$9,0*
20,1,$1+$1,$8,$9,$2,$3,0*%
G04 Aperture macros list end*
%ADD10C,0.650000*%
%ADD11RoundRect,0.050800X0.287500X0.575000X-0.287500X0.575000X-0.287500X-0.575000X0.287500X-0.575000X0*%
%ADD12RoundRect,0.050800X0.137500X0.575000X-0.137500X0.575000X-0.137500X-0.575000X0.137500X-0.575000X0*%
%ADD13O,1.101600X2.101600*%
%ADD14C,0.800000*%
%ADD15C,6.400000*%
%ADD16R,0.700000X0.600000*%
%ADD17R,1.000000X0.750000*%
%ADD18RoundRect,0.100000X-4.900000X-0.100000X4.900000X-0.100000X4.900000X0.100000X-4.900000X0.100000X0*%
%ADD19RoundRect,0.050800X-0.450000X-0.450000X0.450000X-0.450000X0.450000X0.450000X-0.450000X0.450000X0*%
%ADD20RoundRect,0.135000X-0.185000X0.135000X-0.185000X-0.135000X0.185000X-0.135000X0.185000X0.135000X0*%
%ADD21R,1.730000X2.030000*%
%ADD22O,1.730000X2.030000*%
G04 APERTURE END LIST*
D10*
%TO.C,X1*%
X104132641Y-29712641D03*
X98352641Y-29712641D03*
D11*
X104442641Y-30787641D03*
X103642641Y-30787641D03*
D12*
X102492641Y-30787641D03*
X101492641Y-30787641D03*
X100992641Y-30787641D03*
X99992641Y-30787641D03*
D11*
X98042641Y-30787641D03*
X98842641Y-30787641D03*
D12*
X99492641Y-30787641D03*
X100492641Y-30787641D03*
X101992641Y-30787641D03*
X102992641Y-30787641D03*
D13*
X105562641Y-30212641D03*
X96922641Y-30212641D03*
X105562641Y-26032641D03*
X96922641Y-26032641D03*
%TD*%
D14*
%TO.C,H1*%
X65939697Y-31939697D03*
D15*
X64242641Y-30242641D03*
D14*
X64242641Y-27842641D03*
X65939697Y-28545585D03*
X62545585Y-28545585D03*
X61842641Y-30242641D03*
X62545585Y-31939697D03*
X66642641Y-30242641D03*
X64242641Y-32642641D03*
%TD*%
D16*
%TO.C,D3*%
X78242641Y-125542641D03*
X78242641Y-126942641D03*
%TD*%
D17*
%TO.C,SW24*%
X112242641Y-124367641D03*
X118242641Y-124367641D03*
X112242641Y-128117641D03*
X118242641Y-128117641D03*
%TD*%
%TO.C,SW30*%
X126242641Y-112367641D03*
X132242641Y-112367641D03*
X126242641Y-116117641D03*
X132242641Y-116117641D03*
%TD*%
D16*
%TO.C,D7*%
X78242641Y-173542641D03*
X78242641Y-174942641D03*
%TD*%
D17*
%TO.C,SW17*%
X98242641Y-124367641D03*
X104242641Y-124367641D03*
X98242641Y-128117641D03*
X104242641Y-128117641D03*
%TD*%
%TO.C,SW9*%
X84242641Y-112367641D03*
X90242641Y-112367641D03*
X84242641Y-116117641D03*
X90242641Y-116117641D03*
%TD*%
%TO.C,SW7*%
X70242641Y-172367641D03*
X76242641Y-172367641D03*
X70242641Y-176117641D03*
X76242641Y-176117641D03*
%TD*%
D16*
%TO.C,D19*%
X106242641Y-149542641D03*
X106242641Y-150942641D03*
%TD*%
D17*
%TO.C,SW22*%
X112242641Y-100367641D03*
X118242641Y-100367641D03*
X112242641Y-104117641D03*
X118242641Y-104117641D03*
%TD*%
D15*
%TO.C,H3*%
X64242641Y-183242641D03*
D14*
X64242641Y-185642641D03*
X66642641Y-183242641D03*
X62545585Y-181545585D03*
X65939697Y-184939697D03*
X64242641Y-180842641D03*
X65939697Y-181545585D03*
X62545585Y-184939697D03*
X61842641Y-183242641D03*
%TD*%
D16*
%TO.C,D35*%
X134242641Y-173542641D03*
X134242641Y-174942641D03*
%TD*%
D17*
%TO.C,SW20*%
X98242641Y-160367641D03*
X104242641Y-160367641D03*
X98242641Y-164117641D03*
X104242641Y-164117641D03*
%TD*%
%TO.C,SW34*%
X126242641Y-160367641D03*
X132242641Y-160367641D03*
X126242641Y-164117641D03*
X132242641Y-164117641D03*
%TD*%
D18*
%TO.C,U5*%
X75337641Y-56287641D03*
X75337641Y-57087641D03*
X75337641Y-57887641D03*
X75337641Y-58687641D03*
X75337641Y-59487641D03*
X75337641Y-60287641D03*
X75337641Y-61087641D03*
X75337641Y-61887641D03*
X75337641Y-62687641D03*
X75337641Y-63487641D03*
X75337641Y-64287641D03*
X75337641Y-65087641D03*
X75337641Y-65887641D03*
X75337641Y-66687641D03*
X75337641Y-67487641D03*
X75337641Y-68287641D03*
X75337641Y-69087641D03*
X75337641Y-69887641D03*
%TD*%
D17*
%TO.C,SW3*%
X70242641Y-124367641D03*
X76242641Y-124367641D03*
X70242641Y-128117641D03*
X76242641Y-128117641D03*
%TD*%
%TO.C,SW10*%
X84242641Y-124367641D03*
X90242641Y-124367641D03*
X84242641Y-128117641D03*
X90242641Y-128117641D03*
%TD*%
%TO.C,SW8*%
X84242641Y-100367641D03*
X90242641Y-100367641D03*
X84242641Y-104117641D03*
X90242641Y-104117641D03*
%TD*%
D16*
%TO.C,D17*%
X106242641Y-125542641D03*
X106242641Y-126942641D03*
%TD*%
%TO.C,D30*%
X134242641Y-113542641D03*
X134242641Y-114942641D03*
%TD*%
D17*
%TO.C,SW12*%
X84242641Y-148367641D03*
X90242641Y-148367641D03*
X84242641Y-152117641D03*
X90242641Y-152117641D03*
%TD*%
%TO.C,SW15*%
X98242641Y-100367641D03*
X104242641Y-100367641D03*
X98242641Y-104117641D03*
X104242641Y-104117641D03*
%TD*%
%TO.C,SW18*%
X98242641Y-136367641D03*
X104242641Y-136367641D03*
X98242641Y-140117641D03*
X104242641Y-140117641D03*
%TD*%
D16*
%TO.C,D8*%
X92242641Y-101542641D03*
X92242641Y-102942641D03*
%TD*%
%TO.C,D28*%
X120242641Y-173542641D03*
X120242641Y-174942641D03*
%TD*%
%TO.C,D2*%
X78242641Y-113542641D03*
X78242641Y-114942641D03*
%TD*%
D17*
%TO.C,SW35*%
X126242641Y-172367641D03*
X132242641Y-172367641D03*
X126242641Y-176117641D03*
X132242641Y-176117641D03*
%TD*%
D16*
%TO.C,D34*%
X134242641Y-161542641D03*
X134242641Y-162942641D03*
%TD*%
%TO.C,D10*%
X92242641Y-125542641D03*
X92242641Y-126942641D03*
%TD*%
%TO.C,D13*%
X92242641Y-161542641D03*
X92242641Y-162942641D03*
%TD*%
D14*
%TO.C,H2*%
X136545585Y-31939697D03*
X139939697Y-28545585D03*
X139939697Y-31939697D03*
X138242641Y-27842641D03*
X138242641Y-32642641D03*
X135842641Y-30242641D03*
X140642641Y-30242641D03*
D15*
X138242641Y-30242641D03*
D14*
X136545585Y-28545585D03*
%TD*%
D17*
%TO.C,SW2*%
X70242641Y-112367641D03*
X76242641Y-112367641D03*
X70242641Y-116117641D03*
X76242641Y-116117641D03*
%TD*%
D19*
%TO.C,SW37*%
X84292641Y-29442641D03*
X80192641Y-29442641D03*
X84292641Y-31042641D03*
X80192641Y-31042641D03*
%TD*%
D16*
%TO.C,D32*%
X134242641Y-137542641D03*
X134242641Y-138942641D03*
%TD*%
D17*
%TO.C,SW14*%
X84242641Y-172367641D03*
X90242641Y-172367641D03*
X84242641Y-176117641D03*
X90242641Y-176117641D03*
%TD*%
D16*
%TO.C,D33*%
X134242641Y-149542641D03*
X134242641Y-150942641D03*
%TD*%
%TO.C,D23*%
X120242641Y-113542641D03*
X120242641Y-114942641D03*
%TD*%
D17*
%TO.C,SW28*%
X112242641Y-172367641D03*
X118242641Y-172367641D03*
X112242641Y-176117641D03*
X118242641Y-176117641D03*
%TD*%
D16*
%TO.C,D22*%
X120242641Y-101542641D03*
X120242641Y-102942641D03*
%TD*%
D20*
%TO.C,R1*%
X106242641Y-109732641D03*
X106242641Y-110752641D03*
%TD*%
D16*
%TO.C,D9*%
X92242641Y-113542641D03*
X92242641Y-114942641D03*
%TD*%
D17*
%TO.C,SW21*%
X98242641Y-172367641D03*
X104242641Y-172367641D03*
X98242641Y-176117641D03*
X104242641Y-176117641D03*
%TD*%
D21*
%TO.C,SW36*%
X123702641Y-29242641D03*
D22*
X126242641Y-29242641D03*
X128782641Y-29242641D03*
%TD*%
D17*
%TO.C,SW16*%
X98242641Y-112367641D03*
X104242641Y-112367641D03*
X98242641Y-116117641D03*
X104242641Y-116117641D03*
%TD*%
%TO.C,SW33*%
X126242641Y-148367641D03*
X132242641Y-148367641D03*
X126242641Y-152117641D03*
X132242641Y-152117641D03*
%TD*%
D16*
%TO.C,D12*%
X92242641Y-149542641D03*
X92242641Y-150942641D03*
%TD*%
%TO.C,D24*%
X120242641Y-125542641D03*
X120242641Y-126942641D03*
%TD*%
D17*
%TO.C,SW31*%
X126242641Y-124367641D03*
X132242641Y-124367641D03*
X126242641Y-128117641D03*
X132242641Y-128117641D03*
%TD*%
%TO.C,SW32*%
X126242641Y-136367641D03*
X132242641Y-136367641D03*
X126242641Y-140117641D03*
X132242641Y-140117641D03*
%TD*%
%TO.C,SW23*%
X112242641Y-112367641D03*
X118242641Y-112367641D03*
X112242641Y-116117641D03*
X118242641Y-116117641D03*
%TD*%
%TO.C,SW5*%
X70242641Y-148367641D03*
X76242641Y-148367641D03*
X70242641Y-152117641D03*
X76242641Y-152117641D03*
%TD*%
D16*
%TO.C,D4*%
X78242641Y-137542641D03*
X78242641Y-138942641D03*
%TD*%
D17*
%TO.C,SW26*%
X112242641Y-148367641D03*
X118242641Y-148367641D03*
X112242641Y-152117641D03*
X118242641Y-152117641D03*
%TD*%
D16*
%TO.C,D16*%
X106242641Y-113542641D03*
X106242641Y-114942641D03*
%TD*%
%TO.C,D21*%
X106242641Y-173542641D03*
X106242641Y-174942641D03*
%TD*%
D17*
%TO.C,SW6*%
X70242641Y-160367641D03*
X76242641Y-160367641D03*
X70242641Y-164117641D03*
X76242641Y-164117641D03*
%TD*%
D16*
%TO.C,D25*%
X120242641Y-137542641D03*
X120242641Y-138942641D03*
%TD*%
%TO.C,D20*%
X106242641Y-161542641D03*
X106242641Y-162942641D03*
%TD*%
D17*
%TO.C,SW11*%
X84242641Y-136367641D03*
X90242641Y-136367641D03*
X84242641Y-140117641D03*
X90242641Y-140117641D03*
%TD*%
%TO.C,SW1*%
X70242641Y-100367641D03*
X76242641Y-100367641D03*
X70242641Y-104117641D03*
X76242641Y-104117641D03*
%TD*%
D16*
%TO.C,D11*%
X92242641Y-137542641D03*
X92242641Y-138942641D03*
%TD*%
D17*
%TO.C,SW19*%
X98242641Y-148367641D03*
X104242641Y-148367641D03*
X98242641Y-152117641D03*
X104242641Y-152117641D03*
%TD*%
D16*
%TO.C,D31*%
X134242641Y-125542641D03*
X134242641Y-126942641D03*
%TD*%
%TO.C,D1*%
X78242641Y-101542641D03*
X78242641Y-102942641D03*
%TD*%
D17*
%TO.C,SW13*%
X84242641Y-160367641D03*
X90242641Y-160367641D03*
X84242641Y-164117641D03*
X90242641Y-164117641D03*
%TD*%
D14*
%TO.C,H4*%
X138242641Y-185642641D03*
X138242641Y-180842641D03*
X136545585Y-184939697D03*
X139939697Y-181545585D03*
X136545585Y-181545585D03*
X139939697Y-184939697D03*
D15*
X138242641Y-183242641D03*
D14*
X135842641Y-183242641D03*
X140642641Y-183242641D03*
%TD*%
D16*
%TO.C,D27*%
X120242641Y-161542641D03*
X120242641Y-162942641D03*
%TD*%
%TO.C,D18*%
X106242641Y-137542641D03*
X106242641Y-138942641D03*
%TD*%
D17*
%TO.C,SW29*%
X126242641Y-100367641D03*
X132242641Y-100367641D03*
X126242641Y-104117641D03*
X132242641Y-104117641D03*
%TD*%
%TO.C,SW4*%
X70242641Y-136367641D03*
X76242641Y-136367641D03*
X70242641Y-140117641D03*
X76242641Y-140117641D03*
%TD*%
D16*
%TO.C,D26*%
X120242641Y-149542641D03*
X120242641Y-150942641D03*
%TD*%
%TO.C,D14*%
X92242641Y-173542641D03*
X92242641Y-174942641D03*
%TD*%
%TO.C,D6*%
X78242641Y-161542641D03*
X78242641Y-162942641D03*
%TD*%
%TO.C,D15*%
X106242641Y-101542641D03*
X106242641Y-102942641D03*
%TD*%
%TO.C,D5*%
X78242641Y-149542641D03*
X78242641Y-150942641D03*
%TD*%
D17*
%TO.C,SW27*%
X112242641Y-160367641D03*
X118242641Y-160367641D03*
X112242641Y-164117641D03*
X118242641Y-164117641D03*
%TD*%
%TO.C,SW25*%
X112242641Y-136367641D03*
X118242641Y-136367641D03*
X112242641Y-140117641D03*
X118242641Y-140117641D03*
%TD*%
D16*
%TO.C,D29*%
X134242641Y-101542641D03*
X134242641Y-102942641D03*
%TD*%
M02*
