M48
; DRILL file {KiCad (6.0.7)} date Sat Oct 22 21:09:43 2022
; FORMAT={-:-/ absolute / inch / decimal}
; #@! TF.CreationDate,2022-10-22T21:09:43-04:00
; #@! TF.GenerationSoftware,Kicad,Pcbnew,(6.0.7)
; #@! TF.FileFunction,Plated,1,2,PTH
FMAT,2
INCH
; #@! TA.AperFunction,Plated,PTH,ViaDrill
T1C0.0157
; #@! TA.AperFunction,Plated,PTH,ComponentDrill
T2C0.0197
; #@! TA.AperFunction,Plated,PTH,ComponentDrill
T3C0.0236
; #@! TA.AperFunction,Plated,PTH,ComponentDrill
T4C0.0402
; #@! TA.AperFunction,Plated,PTH,ComponentDrill
T5C0.1260
%
G90
G05
T1
X2.9451Y-3.7325
X3.0253Y-3.5214
X3.0804Y-3.3954
X3.1099Y-3.5135
X3.1119Y-1.2222
X3.1434Y-3.2123
X3.1592Y-3.4505
X3.1592Y-4.0647
X3.1592Y-4.5371
X3.1592Y-5.0096
X3.1592Y-5.482
X3.1592Y-5.9544
X3.1592Y-6.4269
X3.1592Y-6.8993
X3.1907Y-2.5292
X3.1907Y-3.1828
X3.1958Y-3.7391
X3.2121Y-3.4404
X3.2143Y-2.3403
X3.2222Y-3.1513
X3.2379Y-1.4269
X3.2615Y-2.482
X3.2615Y-3.2536
X3.2851Y-3.4446
X3.3245Y-2.344
X3.3321Y-3.5135
X3.3403Y-3.4741
X3.3718Y-3.5214
X3.3772Y-3.5603
X3.3796Y-2.2478
X3.3839Y-3.5991
X3.4111Y-3.6946
X3.419Y-2.2773
X3.4347Y-3.2222
X3.4406Y-3.7261
X3.4505Y-2.3206
X3.4701Y-3.7576
X3.5166Y-3.7623
X3.5253Y-2.4111
X3.5351Y-1.608
X3.5607Y-1.6395
X3.5785Y-1.4879
X3.6631Y-2.7261
X3.6777Y-1.5359
X3.7103Y-4.0647
X3.7103Y-4.5371
X3.7103Y-5.0096
X3.7103Y-5.482
X3.7103Y-5.9544
X3.7103Y-6.4269
X3.7103Y-6.8993
X3.7182Y-2.6926
X3.7497Y-2.7261
X3.7891Y-1.7025
X3.7891Y-1.7576
X3.8186Y-1.797
X3.8678Y-4.6159
X3.8696Y-2.4444
X3.9151Y-1.3009
X3.9466Y-1.2694
X3.9764Y-2.7559
X3.9938Y-1.2615
X4.0157Y-1.4961
X4.0157Y-2.7559
X4.0186Y-1.5745
X4.0225Y-2.2564
X4.0332Y-1.3009
X4.0569Y-2.5036
X4.058Y-2.3813
X4.0642Y-1.2694
X4.0647Y-2.0982
X4.0962Y-2.3718
X4.0962Y-2.5056
X4.1198Y-2.0982
X4.1355Y-2.8206
X4.1985Y-2.8009
X4.23Y-4.4111
X4.252Y-1.2598
X4.2615Y-4.0647
X4.2615Y-5.0096
X4.2615Y-5.482
X4.2615Y-5.9544
X4.2615Y-6.4269
X4.2615Y-6.8993
X4.2674Y-1.5686
X4.3307Y-1.3386
X4.3307Y-1.378
X4.4414Y-2.8351
X4.4635Y-2.8966
X4.6063Y-1.6142
X4.6063Y-1.7323
X4.6493Y-2.9544
X4.6788Y-2.6631
X4.6788Y-2.7418
X4.685Y-2.3622
X4.685Y-2.4016
X4.7103Y-2.4741
X4.7163Y-1.2863
X4.7182Y-2.9308
X4.7273Y-1.2131
X4.7407Y-2.654
X4.7418Y-2.734
X4.7638Y-1.7323
X4.78Y-3.8375
X4.8031Y-1.378
X4.8127Y-4.0647
X4.8127Y-4.5371
X4.8127Y-5.0096
X4.8127Y-5.482
X4.8127Y-5.9544
X4.8127Y-6.4269
X4.8127Y-6.8993
X4.9702Y-2.4741
X5.0394Y-2.5197
X5.0787Y-2.5197
X5.1355Y-1.7655
X5.2143Y-1.8442
X5.2362Y-2.0472
X5.3543Y-1.7717
X5.3543Y-1.811
X5.3639Y-4.0647
X5.3639Y-4.5371
X5.3639Y-5.0096
X5.3639Y-5.482
X5.3639Y-5.9544
X5.3639Y-6.4269
X5.3639Y-6.8993
T2
X2.4347Y-1.1907
X2.4347Y-7.2143
X2.4624Y-1.1238
X2.4624Y-1.2575
X2.4624Y-7.1475
X2.4624Y-7.2811
X2.5292Y-1.0962
X2.5292Y-1.2851
X2.5292Y-7.1198
X2.5292Y-7.3088
X2.5961Y-1.1238
X2.5961Y-1.2575
X2.5961Y-7.1475
X2.5961Y-7.2811
X2.6237Y-1.1907
X2.6237Y-7.2143
X5.3481Y-1.1907
X5.3481Y-7.2143
X5.3758Y-1.1238
X5.3758Y-1.2575
X5.3758Y-7.1475
X5.3758Y-7.2811
X5.4426Y-1.0962
X5.4426Y-1.2851
X5.4426Y-7.1198
X5.4426Y-7.3088
X5.5094Y-1.1238
X5.5094Y-1.2575
X5.5094Y-7.1475
X5.5094Y-7.2811
X5.5371Y-1.1907
X5.5371Y-7.2143
T4
X4.8702Y-1.1513
X4.9702Y-1.1513
X5.0702Y-1.1513
T5
X2.5292Y-1.1907
X2.5292Y-7.2143
X5.4426Y-1.1907
X5.4426Y-7.2143
T3
G00X3.8159Y-1.021
M15
G01X3.8159Y-1.0288
M16
G05
G00X3.8159Y-1.1816
M15
G01X3.8159Y-1.1973
M16
G05
G00X4.156Y-1.021
M15
G01X4.156Y-1.0288
M16
G05
G00X4.156Y-1.1816
M15
G01X4.156Y-1.1973
M16
G05
T0
M30
